<svg height="88" viewBox="0 0 111.998 88" width="111.998" xmlns="http://www.w3.org/2000/svg" xmlns:xlink="http://www.w3.org/1999/xlink"><linearGradient id="a" gradientUnits="objectBoundingBox" x1="-.11" x2=".904" y1="-.433" y2="1.451"><stop offset="0" stop-color="#80d57b"/><stop offset="1" stop-color="#56c3a4"/></linearGradient><path d="m33.244-64.015h33.456q-6.575 11.188-16.726 11.3t-16.73-11.3z" fill="#0d505d" fill-rule="evenodd" transform="matrix(-1 0 0 -1 111.998 -3.448)"/><path d="m64.986 55.774q-37.7 7.165-37.7-9.935c0-17.1-33.87-11.208-20.832-21.918 11.126-9.14 1.182-10.894-1.624-12.88-2.778-1.965-7.442-6.615-2.982-9.151 6.782-3.855 17.776-2.569 25.437 11.01 2.1 3.724 6-12.683 8.633-8.806 3.931 5.793 3.829 22.746 8.706 23.632 3.319.6 5.971-11.336 9.126-9.14q10.894 7.586 11.236 37.188zm-12.573-28.474q-2.486 8.827 1.5 8.1t-1.5-8.1z" fill="#2ead9e" fill-rule="evenodd" transform="translate(.001)"/><g fill="none" stroke="#0d6574" stroke-width=".975"><path d="m14.341-46.563q12.777 5.443 18.9 3.628" transform="matrix(-1 0 0 -1 65.065 -2.514)"/><path d="m23.467-34.863q12.777 5.443 18.9 3.628" transform="matrix(-1 0 0 -1 65.065 -1.888)"/><path d="m32.593-24.463q12.777 5.443 18.9 3.628" transform="matrix(-1 0 0 -1 65.065 -1.331)"/><path d="m14.919-31.48q2.006-11.4-1.882-16.449" transform="matrix(-1 0 0 -1 65.065 -2.587)"/><path d="m8.115-55.29q28.885 41.465 54.956 46.347" transform="matrix(-1 0 0 -1 65.065 -2.981)"/><path d="m29.912-12.63q2.006-11.4-1.882-16.449" transform="matrix(-1 0 0 -1 65.065 -1.578)"/></g><path d="m50.9-32.3q-3.689-9.742-3.885-26.771a111.25 111.25 0 0 1 17.1-2.087 123.885 123.885 0 0 1 -13.215 28.858z" fill="#0d6574" fill-rule="evenodd" opacity=".321" transform="matrix(-1 0 0 -1 111.998 -3.295)"/><path d="m59.318-46.778q-16.359 37.508-43.406 42.178-7.458 1.285-15.812 2.025c-1.732-14.067 18.918-10.536 16.481-14.393-3.365-5.325-4.656-7.526 11.668-13.688 20.633-7.789 3.76-2.546.882-5.278-7.582-7.2 8.573-12.855 16.71-12.1z" fill="#33baaa" fill-rule="evenodd" transform="matrix(-1 0 0 -1 111.998 10.323)"/><g fill="none" stroke="#0d6574" stroke-width=".926"><path d="m14.993.358q-9.112-1.685-14.993 4.564" transform="translate(63.109 38.737)"/><path d="m11.733 0a15.675 15.675 0 0 0 -11.733 4.922" transform="translate(58.546 47.965)"/><path d="m21.511 2.446q-9.411-5.189-21.511.63" transform="translate(71.583 28.278)"/><path d="m22.815 2.1q-10.548-4.642-22.815.976" transform="translate(78.102 21.511)"/><path d="m50.844 0q-38.186 1.161-50.844 41.834" transform="translate(57.894 14.744)"/></g><path d="m50-68.316h33.451q-9.815 12.489-19.966 12.6t-13.485-12.6z" fill="#176574" fill-rule="evenodd" transform="matrix(-1 0 0 -1 111.998 -3.679)"/><path d="m0-1.552h60l-5.2-27.448h-49.6z" fill="url(#a)" fill-rule="evenodd" transform="matrix(-1 0 0 -1 84.998 59)"/><path d="m57.133-16 2.867 15.143h-60l2.867-15.143z" fill="#0d6574" fill-rule="evenodd" opacity=".2" transform="matrix(-1 0 0 -1 84.998 59.696)"/></svg>