<svg version="1.1" id="Layer_1" xmlns="http://www.w3.org/2000/svg" x="0" y="0" viewBox="0 0 100 100" xml:space="preserve" enable-background="new 0 0 100 100" width="48" height="48"><title>invention</title><g class="nc-icon-wrapper" fill="#38f9d7"><path d="M66.6 36.6c-4.9-4.6-11.4-7-18.2-6.6-12.6.7-22.5 11.3-22.7 23.9-.1 8.1 3.6 15.5 10.1 20.1v11.2c0 5.1 4.2 9.3 9.3 9.3h9.2c5.1 0 9.3-4.2 9.3-9.3V74.1C70.2 69.5 74 62.2 74 54.2c.1-6.6-2.5-12.9-7.4-17.6zM54.4 89.1h-9.2c-2.2 0-3.8-1.7-3.8-3.8v-9.9h16.9v9.9c-.1 2.1-1.7 3.8-3.9 3.8zm5.8-19.3h-7.6v-4l7-4.5c1.3-.8 1.7-2.5.8-3.8-.8-1.3-2.5-1.7-3.8-.8l-4 2.6v-4.4c0-1.5-1.2-2.8-2.7-2.8-1.5 0-2.8 1.2-2.8 2.8v4.4l-4-2.6c-1.3-.8-3-.4-3.8.8-.8 1.3-.4 3 .8 3.8l7 4.5v4h-7.7c-5.3-3.5-8.3-9.4-8.2-15.9.1-9.7 7.8-17.9 17.5-18.4h1.1c4.9 0 9.4 1.8 13 5.1 3.8 3.6 5.8 8.5 5.7 13.6 0 6.4-3.1 12.1-8.3 15.6z"/><path d="M50 19.1c1.5 0 2.7-1.2 2.7-2.8V8.2c0-1.5-1.2-2.8-2.7-2.8-1.5 0-2.8 1.2-2.8 2.8v8.1c0 1.5 1.3 2.8 2.8 2.8z"/><path d="M87.5 19.8c-1.1-1.1-2.8-1.1-3.9 0l-5.7 5.7c-1.1 1.1-1.1 2.8 0 3.9.5.5 1.2.8 1.9.8s1.4-.3 1.9-.8l5.7-5.7c1.2-1.1 1.2-2.9.1-3.9z"/><path d="M16.4 19.8c-1.1-1.1-2.8-1.1-3.9 0s-1.1 2.8 0 3.9l5.7 5.7c.5.5 1.2.8 1.9.8s1.4-.3 1.9-.8c1.1-1.1 1.1-2.8 0-3.9l-5.6-5.7z"/><path d="M12 54.5H3.9c-1.5 0-2.8 1.2-2.8 2.8S2.4 60 3.9 60H12c1.5 0 2.8-1.2 2.8-2.8s-1.3-2.7-2.8-2.7z"/><path d="M96.1 54.5H88c-1.5 0-2.8 1.2-2.8 2.8S86.5 60 88 60h8.1c1.5 0 2.8-1.2 2.8-2.8s-1.3-2.7-2.8-2.7z"/></g></svg>