<svg width="13" height="19" xmlns="http://www.w3.org/2000/svg"><path d="M.92 0A.92.92 0 0 0 0 .92v16.516c0 .625.765.926 1.192.47l4.471-4.79A.357.357 0 0 1 5.927 13h3.237c.486 0 .905-.343 1.001-.82l2.111-10.514A1.392 1.392 0 0 0 10.911 0H.92zm3.918 11.19L2 14.527V2.343C2 2.154 2.154 2 2.343 2h7.14a.54.54 0 0 1 .53.648L9.6 4.703A.369.369 0 0 1 9.238 5h-3.71A.527.527 0 0 0 5 5.528v1.22c0 .139.113.252.253.252h3.294c.306 0 .536.28.476.581l-.614 3.058a.452.452 0 0 1-.442.361H5.25a.54.54 0 0 0-.412.19z" fill="#5C9901"/></svg>