<?xml version="1.0" encoding="UTF-8"?>
<svg width="14px" height="18px" viewBox="0 0 14 18" version="1.1" xmlns="http://www.w3.org/2000/svg" xmlns:xlink="http://www.w3.org/1999/xlink">
    <!-- Generator: Sketch 43.2 (39069) - http://www.bohemiancoding.com/sketch -->
    <title>flask</title>
    <desc>Created with Sketch.</desc>
    <defs></defs>
    <g id="Page-1" stroke="none" stroke-width="1" fill="none" fill-rule="evenodd">
        <g id="flask" fill-rule="nonzero" fill="#4E504D">
            <path d="M13.432,14 C11.387,8.893 9,7.547 9,5 L9,2 L9.5,2 C9.776,2 10,1.776 10,1.5 L10,0.5 C10,0.224 9.776,0 9.5,0 L4.5,0 C4.224,0 4,0.224 4,0.5 L4,1.5 C4,1.776 4.224,2 4.5,2 L5,2 L5,5 C5,7.547 2.613,8.893 0.568,14 C-0.083,15.625 -1.755,18 7,18 C15.755,18 14.083,15.625 13.432,14 Z M11.815,15.751 C11.113,15.961 9.716,16.2 7,16.2 C4.284,16.2 2.887,15.961 2.185,15.751 C1.936,15.677 1.839,15.388 1.927,15.123 C2.147,14.453 2.562,13.295 3.338,12.002 C5.234,8.843 7.201,12.499 8.838,12.499 C10.475,12.499 10.026,10.938 10.662,12.002 C11.436,13.296 11.853,14.453 12.073,15.123 C12.161,15.388 12.064,15.676 11.815,15.751 Z" id="Shape"></path>
        </g>
    </g>
</svg>