<?xml version="1.0" encoding="UTF-8"?>
<svg width="29px" height="29px" viewBox="0 0 29 29" version="1.1" xmlns="http://www.w3.org/2000/svg" xmlns:xlink="http://www.w3.org/1999/xlink">
    <!-- Generator: Sketch 45.2 (43514) - http://www.bohemiancoding.com/sketch -->
    <title>thefactory/element/icons/icnthefactory/element/icons/icn-27</title>
    <desc>Created with Sketch.</desc>
    <defs></defs>
    <g id="Ressources" stroke="none" stroke-width="1" fill="none" fill-rule="evenodd">
        <g id="thefactory/element/icn/inc-artboard" transform="translate(-551.000000, -772.000000)" fill-rule="nonzero" fill="#000000">
            <path d="M565.5,782 C563.02,782 561,784.02 561,786.5 C561,788.98 563.02,791 565.5,791 C567.98,791 570,788.98 570,786.5 C570,784.02 567.98,782 565.5,782 Z M565.5,783 C567.44,783 569,784.56 569,786.5 C569,788.44 567.44,790 565.5,790 C563.56,790 562,788.44 562,786.5 C562,784.56 563.56,783 565.5,783 Z M565.5,772 C565.223,772 565,772.223 565,772.5 L565,774.025 C558.503,774.285 553.284,779.503 553.025,786 L551.5,786 C551.223,786 551,786.223 551,786.5 C551,786.777 551.223,787 551.5,787 L553.025,787 C553.285,793.497 558.503,798.716 565,798.975 L565,800.5 C565,800.777 565.223,801 565.5,801 C565.777,801 566,800.777 566,800.5 L566,798.975 C572.497,798.715 577.716,793.497 577.975,787 L579.5,787 C579.777,787 580,786.777 580,786.5 C580,786.223 579.777,786 579.5,786 L577.975,786 C577.715,779.503 572.497,774.284 566,774.025 L566,772.5 C566,772.223 565.777,772 565.5,772 Z M565,775.025 L565,776.5 C565,776.777 565.223,777 565.5,777 C565.777,777 566,776.777 566,776.5 L566,775.025 C571.956,775.28 576.72,780.045 576.975,786 L575.5,786 C575.223,786 575,786.223 575,786.5 C575,786.777 575.223,787 575.5,787 L576.975,787 C576.72,792.956 571.955,797.72 566,797.975 L566,796.5 C566,796.223 565.777,796 565.5,796 C565.223,796 565,796.223 565,796.5 L565,797.975 C559.044,797.72 554.28,792.955 554.025,787 L555.5,787 C555.777,787 556,786.777 556,786.5 C556,786.223 555.777,786 555.5,786 L554.025,786 C554.28,780.044 559.045,775.28 565,775.025 Z" id="Shape"></path>
        </g>
    </g>
</svg>