<?xml version="1.0" encoding="UTF-8"?>
<svg width="30px" height="30px" viewBox="0 0 30 30" version="1.1" xmlns="http://www.w3.org/2000/svg" xmlns:xlink="http://www.w3.org/1999/xlink">
    <!-- Generator: Sketch 45.2 (43514) - http://www.bohemiancoding.com/sketch -->
    <title>thefactory/element/icons/icnthefactory/element/icons/icn-119</title>
    <desc>Created with Sketch.</desc>
    <defs></defs>
    <g id="Ressources" stroke="none" stroke-width="1" fill="none" fill-rule="evenodd">
        <g id="thefactory/element/icn/inc-artboard" transform="translate(-410.000000, -317.000000)" fill-rule="nonzero" fill="#000000">
            <path d="M411.5,317 C410.678,317 410,317.678 410,318.5 L410,343.5 C410,344.322 410.678,345 411.5,345 L413,345 L413,345.5 C413,346.322 413.678,347 414.5,347 L416.5,347 C417.322,347 418,346.322 418,345.5 L418,345 L432,345 L432,345.5 C432,346.322 432.678,347 433.5,347 L435.5,347 C436.322,347 437,346.322 437,345.5 L437,345 L438.5,345 C439.322,345 440,344.322 440,343.5 L440,318.5 C440,317.678 439.322,317 438.5,317 L411.5,317 Z M411.5,318 L438.5,318 C438.786,318 439,318.214 439,318.5 L439,343.5 C439,343.786 438.786,344 438.5,344 L411.5,344 C411.214,344 411,343.786 411,343.5 L411,318.5 C411,318.214 411.214,318 411.5,318 Z M415,321 C414.448,321 414,321.448 414,322 C414,322.552 414.448,323 415,323 C415.552,323 416,322.552 416,322 C416,321.448 415.552,321 415,321 Z M419,321 C418.448,321 418,321.448 418,322 C418,322.552 418.448,323 419,323 C419.552,323 420,322.552 420,322 C420,321.448 419.552,321 419,321 Z M423,321 C422.448,321 422,321.448 422,322 C422,322.552 422.448,323 423,323 C423.552,323 424,322.552 424,322 C424,321.448 423.552,321 423,321 Z M413.5,326 C413.223,326 413,326.223 413,326.5 C413,326.777 413.223,327 413.5,327 L436.5,327 C436.777,327 437,326.777 437,326.5 C437,326.223 436.777,326 436.5,326 L413.5,326 Z M419,330 C418.448,330 418,330.448 418,331 C418,331.552 418.448,332 419,332 C419.552,332 420,331.552 420,331 C420,330.448 419.552,330 419,330 Z M423,330 C422.448,330 422,330.448 422,331 C422,331.552 422.448,332 423,332 C423.552,332 424,331.552 424,331 C424,330.448 423.552,330 423,330 Z M427,330 C426.448,330 426,330.448 426,331 C426,331.552 426.448,332 427,332 C427.552,332 428,331.552 428,331 C428,330.448 427.552,330 427,330 Z M413.5,335 C413.223,335 413,335.223 413,335.5 C413,335.777 413.223,336 413.5,336 L436.5,336 C436.777,336 437,335.777 437,335.5 C437,335.223 436.777,335 436.5,335 L413.5,335 Z M415,339 C414.448,339 414,339.448 414,340 C414,340.552 414.448,341 415,341 C415.552,341 416,340.552 416,340 C416,339.448 415.552,339 415,339 Z M419,339 C418.448,339 418,339.448 418,340 C418,340.552 418.448,341 419,341 C419.552,341 420,340.552 420,340 C420,339.448 419.552,339 419,339 Z M423,339 C422.448,339 422,339.448 422,340 C422,340.552 422.448,341 423,341 C423.552,341 424,340.552 424,340 C424,339.448 423.552,339 423,339 Z M414,345 L417,345 L417,345.5 C417,345.786 416.786,346 416.5,346 L414.5,346 C414.214,346 414,345.786 414,345.5 L414,345 Z M433,345 L436,345 L436,345.5 C436,345.786 435.786,346 435.5,346 L433.5,346 C433.214,346 433,345.786 433,345.5 L433,345 Z" id="Shape"></path>
        </g>
    </g>
</svg>