<?xml version="1.0" encoding="UTF-8"?>
<svg width="30px" height="30px" viewBox="0 0 30 30" version="1.1" xmlns="http://www.w3.org/2000/svg" xmlns:xlink="http://www.w3.org/1999/xlink">
    <!-- Generator: Sketch 45.2 (43514) - http://www.bohemiancoding.com/sketch -->
    <title>thefactory/element/icons/icnthefactory/element/icons/icn-04</title>
    <desc>Created with Sketch.</desc>
    <defs></defs>
    <g id="Ressources" stroke="none" stroke-width="1" fill="none" fill-rule="evenodd">
        <g id="thefactory/element/icn/inc-artboard" transform="translate(-179.000000, -917.000000)" fill-rule="nonzero" fill="#000000">
            <path d="M208.484,917.000256 C208.467277,917.000752 208.450589,917.002087 208.434,917.004256 L193.434,919.004225 C193.185419,919.037327 192.999812,919.249446 193,919.500217 L193,930.500044 C193,930.776183 193.223858,931.000037 193.5,931.000037 L208.5,931.000037 C208.776142,931.000037 209,930.776183 209,930.500044 L209,917.500249 C209.000069,917.364823 208.9452,917.235162 208.847942,917.140921 C208.750685,917.046681 208.619358,916.995923 208.484,917.000256 Z M208,918.07224 L208,930.000052 L194,930.000052 L194,919.93721 L208,918.07224 Z M193.5,933.000005 C193.223858,933.000005 193,933.223859 193,933.499997 L193,944.306828 C193.000391,944.554855 193.182554,944.765104 193.428,944.80082 L208.428,946.994786 C208.571696,947.015695 208.717385,946.973103 208.827188,946.878083 C208.936992,946.783062 209.000061,946.645001 209,946.499793 L209,933.499997 C209,933.223859 208.776142,933.000005 208.5,933.000005 L193.5,933.000005 L193.5,933.000005 Z M194,933.99999 L208,933.99999 L208,945.921802 L194,943.874835 L194,933.99999 Z M179.5,933.000005 C179.223858,933.000005 179,933.223859 179,933.499997 L179,941.499872 C178.99992,941.74136 179.172452,941.948396 179.41,941.991864 L190.41,943.991833 C190.555966,944.018542 190.706256,943.979038 190.82022,943.884005 C190.934185,943.788972 191.000049,943.648228 191,943.49984 L191,933.499997 C191,933.223859 190.776142,933.000005 190.5,933.000005 L179.5,933.000005 Z M180,933.99999 L190,933.99999 L190,942.89985 L180,941.081878 L180,933.99999 Z M190.484,920.000209 C190.459169,920.001034 190.434434,920.003708 190.41,920.008209 L179.41,922.008178 C179.172452,922.051646 178.99992,922.258682 179,922.50017 L179,930.500044 C179,930.776183 179.223858,931.000037 179.5,931.000037 L190.5,931.000037 C190.776142,931.000037 191,930.776183 191,930.500044 L191,920.500201 C191.000069,920.364776 190.9452,920.235115 190.847943,920.140874 C190.750685,920.046634 190.619358,919.995876 190.484,920.000209 Z M190,921.100192 L190,930.000052 L180,930.000052 L180,922.918163 L190,921.100192 Z" id="Shape"></path>
        </g>
    </g>
</svg>