<?xml version="1.0" encoding="UTF-8"?>
<svg width="30px" height="26px" viewBox="0 0 30 26" version="1.1" xmlns="http://www.w3.org/2000/svg" xmlns:xlink="http://www.w3.org/1999/xlink">
    <!-- Generator: Sketch 45.2 (43514) - http://www.bohemiancoding.com/sketch -->
    <title>thefactory/element/icons/icnthefactory/element/icons/icn-105</title>
    <desc>Created with Sketch.</desc>
    <defs></defs>
    <g id="Ressources" stroke="none" stroke-width="1" fill="none" fill-rule="evenodd">
        <g id="thefactory/element/icn/inc-artboard" transform="translate(-401.000000, -393.000000)" fill-rule="nonzero" fill="#000000">
            <path d="M402.5,393.000035 C401.678,393.000035 401,393.678034 401,394.500033 L401,417.500002 C401,418.322001 401.678,419 402.5,419 L429.5,419 C430.322,419 431,418.322001 431,417.500002 L431,399.500026 C431,398.678027 430.322,398.000028 429.5,398.000028 L416.5,398.000028 C416.127,398.000028 415.98,397.998028 415.8,397.918028 C415.618,397.838028 415.34,397.633028 414.854,397.146029 L411.854,394.146033 C411.354,393.646034 411.092,393.362034 410.724,393.178034 C410.353,392.993035 410,393.000035 409.5,393.000035 L402.5,393.000035 Z M402.5,394.000033 L409.5,394.000033 C410,394.000033 410.147,394.007033 410.277,394.072033 C410.407,394.138033 410.647,394.354033 411.147,394.854032 L414.147,397.854028 C414.663,398.370027 415.012,398.664027 415.395,398.834027 C415.777,399.004027 416.128,399.000027 416.5,399.000027 L429.5,399.000027 C429.786,399.000027 430,399.214026 430,399.500026 L430,417.500002 C430,417.786002 429.786,418.000001 429.5,418.000001 L402.5,418.000001 C402.214,418.000001 402,417.786002 402,417.500002 L402,394.500033 C402,394.214033 402.214,394.000033 402.5,394.000033 Z" id="Shape"></path>
        </g>
    </g>
</svg>