<?xml version="1.0" encoding="UTF-8"?>
<svg width="30px" height="30px" viewBox="0 0 30 30" version="1.1" xmlns="http://www.w3.org/2000/svg" xmlns:xlink="http://www.w3.org/1999/xlink">
    <!-- Generator: Sketch 45.2 (43514) - http://www.bohemiancoding.com/sketch -->
    <title>thefactory/element/icons/icnthefactory/element/icons/icn-62</title>
    <desc>Created with Sketch.</desc>
    <defs></defs>
    <g id="Ressources" stroke="none" stroke-width="1" fill="none" fill-rule="evenodd">
        <g id="thefactory/element/icn/inc-artboard" transform="translate(-190.000000, -620.000000)" fill-rule="nonzero" fill="#000000">
            <path d="M206,629 C205.702,629 205.426,629.09 205.19,629.23 C204.956,629.37 204.79,629.538 204.648,629.678 L201.648,632.611 C201.05,633.101 200.933,633.117 200.352,632.611 L199.354,631.665 C199.211,631.525 199.044,631.355 198.811,631.218 C198.577,631.077 198.3,631 198,631 C197.702,631 197.428,631.077 197.193,631.217 C196.961,631.355 196.793,631.523 196.65,631.664 L193.158,635.144 C192.69,635.588 193.404,636.311 193.861,635.854 L197.355,632.374 C197.909,631.879 198.069,631.881 198.651,632.374 L199.649,633.322 C199.792,633.464 199.959,633.632 200.192,633.77 C200.428,633.91 200.704,634 201.002,634 C201.3,634 201.576,633.91 201.812,633.77 C202.042,633.63 202.212,633.464 202.354,633.322 L205.354,630.389 C205.88,629.889 206.152,629.891 206.648,630.389 L209.141,632.839 C209.614,633.326 210.335,632.596 209.843,632.129 L207.35,629.677 C207.21,629.537 207.042,629.369 206.81,629.229 C206.574,629.089 206.298,628.999 206,628.999 L206,629 Z M215.5,626 C214.824,625.99 214.824,627.01 215.5,627 L218.5,627 C218.786,627 219,627.214 219,627.5 L219,648.5 C219,648.786 218.786,649 218.5,649 L197.5,649 C197.214,649 197,648.786 197,648.5 L197,645.5 C197.01,644.824 195.99,644.824 196,645.5 L196,648.5 C196,649.322 196.678,650 197.5,650 L218.5,650 C219.322,650 220,649.322 220,648.5 L220,627.5 C220,626.678 219.322,626 218.5,626 L215.5,626 Z M196.5,624 C195.125,624 194,625.125 194,626.5 C194,627.875 195.125,629 196.5,629 C197.875,629 199,627.875 199,626.5 C199,625.125 197.875,624 196.5,624 Z M196.5,625 C197.334,625 198,625.666 198,626.5 C198,627.334 197.334,628 196.5,628 C195.666,628 195,627.334 195,626.5 C195,625.666 195.666,625 196.5,625 Z M193.5,639 L210.5,639 C210.777,639 211,639.223 211,639.5 C211,639.777 210.777,640 210.5,640 L193.5,640 C193.223,640 193,639.777 193,639.5 C193,639.223 193.223,639 193.5,639 Z M191.5,620 C190.678,620 190,620.678 190,621.5 L190,642.5 C190,643.322 190.678,644 191.5,644 L212.5,644 C213.322,644 214,643.322 214,642.5 L214,621.5 C214,620.678 213.322,620 212.5,620 L191.5,620 Z M191.5,621 L212.5,621 C212.786,621 213,621.214 213,621.5 L213,642.5 C213,642.786 212.786,643 212.5,643 L191.5,643 C191.214,643 191,642.786 191,642.5 L191,621.5 C191,621.214 191.214,621 191.5,621 Z" id="Shape"></path>
        </g>
    </g>
</svg>