<?xml version="1.0" encoding="UTF-8"?>
<svg width="30px" height="30px" viewBox="0 0 30 30" version="1.1" xmlns="http://www.w3.org/2000/svg" xmlns:xlink="http://www.w3.org/1999/xlink">
    <!-- Generator: Sketch 45.2 (43514) - http://www.bohemiancoding.com/sketch -->
    <title>thefactory/element/icons/icnthefactory/element/icons/icn-24</title>
    <desc>Created with Sketch.</desc>
    <defs></defs>
    <g id="Ressources" stroke="none" stroke-width="1" fill="none" fill-rule="evenodd">
        <g id="thefactory/element/icn/inc-artboard" transform="translate(-773.000000, -772.000000)" fill-rule="nonzero" fill="#000000">
            <path d="M788.448505,791 L787.950166,791 L784.162791,795 C783.664452,795.6 784.362126,796.3 784.860465,795.8 L788.348837,792.2 L791.936877,795.8 C792.534884,796.3 793.232558,795.6 792.734219,795.1 L788.747508,791.1 L788.448505,791.1 L788.448505,791 Z M788.448505,794 C788.747508,794 788.946844,794.2 788.946844,794.5 L788.946844,801.5 C788.946844,801.8 788.747508,802 788.448505,802 C788.149502,802 787.950166,801.8 787.950166,801.5 L787.950166,794.5 C787.950166,794.2 788.149502,794 788.448505,794 Z M774.495017,772 C773.697674,772 773,772.7 773,773.5 L773,796.5 C773,797.3 773.697674,798 774.495017,798 L781.471761,798 C782.169435,798 782.169435,797 781.471761,797 L774.495017,797 C774.196013,797 773.996678,796.8 773.996678,796.5 L773.996678,773.5 C773.996678,773.2 774.196013,773 774.495017,773 L782.269103,773 L783.066445,774 L786.056478,777 C786.754153,777.4 787.053156,777.7 787.451827,777.8 C787.850498,778 788.149502,778 788.448505,778 L801.405316,778 C801.803987,778 802.003322,778.2 802.003322,778.5 L802.003322,796.5 C802.003322,796.8 801.803987,797 801.504983,797 L795.524917,797 C794.92691,797 794.827243,798 795.524917,798 L801.504983,798 C802.302326,798 803,797.3 803,796.5 L803,778.5 C803,777.7 802.302326,777 801.504983,777 L787.750831,777 L786.754153,776 L783.76412,773 L782.767442,772.2 C782.269103,772 781.9701,772 781.372093,772 L774.495017,772 Z" id="Shape"></path>
        </g>
    </g>
</svg>