<?xml version="1.0" encoding="UTF-8"?>
<svg width="30px" height="24px" viewBox="0 0 30 24" version="1.1" xmlns="http://www.w3.org/2000/svg" xmlns:xlink="http://www.w3.org/1999/xlink">
    <!-- Generator: Sketch 45.2 (43514) - http://www.bohemiancoding.com/sketch -->
    <title>thefactory/element/icons/icnthefactory/element/icons/icn-117</title>
    <desc>Created with Sketch.</desc>
    <defs></defs>
    <g id="Ressources" stroke="none" stroke-width="1" fill="none" fill-rule="evenodd">
        <g id="thefactory/element/icn/inc-artboard" transform="translate(-560.000000, -317.000000)" fill-rule="nonzero" fill="#000000">
            <path d="M576,334 C576,334.552285 575.552285,335 575,335 C574.447715,335 574,334.552285 574,334 C574,333.447715 574.447715,333 575,333 C575.552285,333 576,333.447715 576,334 Z M562.5,331 L587.5,331 C587.777,331 588,331.223 588,331.5 C588,331.777 587.777,332 587.5,332 L562.5,332 C562.223,332 562,331.777 562,331.5 C562,331.223 562.223,331 562.5,331 Z M561.5,317 C560.678,317 560,317.678 560,318.5 L560,335.5 C560,336.322 560.678,337 561.5,337 L572,337 L572,340 L569.5,340 C569.223,340 569,340.223 569,340.5 C569,340.777 569.223,341 569.5,341 L580.5,341 C580.777,341 581,340.777 581,340.5 C581,340.223 580.777,340 580.5,340 L578,340 L578,337 L588.5,337 C589.322,337 590,336.322 590,335.5 L590,318.5 C590,317.678 589.322,317 588.5,317 L561.5,317 Z M561.5,318 L588.5,318 C588.786,318 589,318.214 589,318.5 L589,335.5 C589,335.786 588.786,336 588.5,336 L561.5,336 C561.214,336 561,335.786 561,335.5 L561,318.5 C561,318.214 561.214,318 561.5,318 Z M573,337 L577,337 L577,340 L573,340 L573,337 Z" id="Shape"></path>
        </g>
    </g>
</svg>