<?xml version="1.0" encoding="UTF-8"?>
<svg width="30px" height="30px" viewBox="0 0 30 30" version="1.1" xmlns="http://www.w3.org/2000/svg" xmlns:xlink="http://www.w3.org/1999/xlink">
    <!-- Generator: Sketch 45.2 (43514) - http://www.bohemiancoding.com/sketch -->
    <title>thefactory/element/icons/icnthefactory/element/icons/icn-96</title>
    <desc>Created with Sketch.</desc>
    <defs></defs>
    <g id="Ressources" stroke="none" stroke-width="1" fill="none" fill-rule="evenodd">
        <g id="thefactory/element/icn/inc-artboard" transform="translate(-175.000000, -1052.000000)" fill-rule="nonzero" fill="#000000">
            <path d="M186.500032,1052 C186.777031,1052 187.000031,1052.223 187.000031,1052.5 L187.000031,1056.5 C187.000031,1056.777 186.777031,1057 186.500032,1057 C186.223032,1057 186.000033,1056.777 186.000033,1056.5 L186.000033,1052.5 C186.000033,1052.223 186.223032,1052 186.500032,1052 Z M191.500023,1052 C191.777023,1052 192.000022,1052.223 192.000022,1052.5 L192.000022,1056.5 C192.000022,1056.777 191.777023,1057 191.500023,1057 C191.223024,1057 191.000024,1056.777 191.000024,1056.5 L191.000024,1052.5 C191.000024,1052.223 191.223024,1052 191.500023,1052 Z M181.500041,1052 C181.77704,1052 182.00004,1052.223 182.00004,1052.5 L182.00004,1056.5 C182.00004,1056.777 181.77704,1057 181.500041,1057 C181.223041,1057 181.000041,1056.777 181.000041,1056.5 L181.000041,1052.5 C181.000041,1052.223 181.223041,1052 181.500041,1052 Z M178.500046,1061 L194.500018,1061 C194.777018,1061 195.000017,1061.223 195.000017,1061.5 C195.000017,1061.777 194.777018,1062 194.500018,1062 L178.500046,1062 C178.223046,1062 178.000047,1061.777 178.000047,1061.5 C178.000047,1061.223 178.223046,1061 178.500046,1061 Z M199.50001,1060 C198.840011,1060 198.848011,1061 199.50001,1061 L200.500008,1061 C202.440004,1061 204.000002,1062.56 204.000002,1064.5 C204.000002,1066.44 202.440004,1068 200.500008,1068 L199.50001,1068 C198.843011,1068 198.844011,1069 199.50001,1069 L200.500008,1069 C202.980003,1069 205,1066.98 205,1064.5 C205,1062.02 202.980003,1060 200.500008,1060 L199.50001,1060 Z M175.500051,1058 C175.224051,1058.004 174.996052,1058.224 175.000052,1058.5 L175.000052,1070.5 C175.000052,1075.19 177.798047,1079.21 181.81604,1081 L175.500051,1081 C175.223051,1081 175.000052,1081.223 175.000052,1081.5 C175.000052,1081.777 175.223051,1082 175.500051,1082 L197.500013,1082 C197.777012,1082 198.000012,1081.777 198.000012,1081.5 C198.000012,1081.223 197.777012,1081 197.500013,1081 L191.184024,1081 C195.202017,1079.21 198.000012,1075.19 198.000012,1070.5 L198.000012,1058.5 C198.000012,1057.848 197.000014,1057.83 197.000014,1058.5 L197.000014,1070.5 C197.000014,1076.326 192.326022,1081 186.500032,1081 C180.674042,1081 176.00005,1076.326 176.00005,1070.5 L176.00005,1058.5 C176.00405,1058.218 175.78205,1057.996 175.500051,1058 Z" id="Shape"></path>
        </g>
    </g>
</svg>