<?xml version="1.0" encoding="UTF-8"?>
<svg width="30px" height="18px" viewBox="0 0 30 18" version="1.1" xmlns="http://www.w3.org/2000/svg" xmlns:xlink="http://www.w3.org/1999/xlink">
    <!-- Generator: Sketch 45.2 (43514) - http://www.bohemiancoding.com/sketch -->
    <title>thefactory/element/icons/icnthefactory/element/icons/icn-118</title>
    <desc>Created with Sketch.</desc>
    <defs></defs>
    <g id="Ressources" stroke="none" stroke-width="1" fill="none" fill-rule="evenodd">
        <g id="thefactory/element/icn/inc-artboard" transform="translate(-485.000000, -317.000000)" fill-rule="nonzero" fill="#000000">
            <path d="M500.48,323 C500.35,323.004 500.225,323.058 500.133,323.152 L497.495,325.782 L495.87,324.162 C495.415,323.688 494.68,324.42 495.155,324.874 L497.138,326.852 C497.335,327.049 497.655,327.049 497.853,326.852 L500.848,323.865 C501.178,323.545 500.935,323 500.481,323 L500.48,323 Z M485.5,327 L488.5,327 C488.777,327 489,327.223 489,327.5 C489,327.777 488.777,328 488.5,328 L485.5,328 C485.223,328 485,327.777 485,327.5 C485,327.223 485.223,327 485.5,327 Z M485.5,323 L488.5,323 C488.777,323 489,323.223 489,323.5 C489,323.777 488.777,324 488.5,324 L485.5,324 C485.223,324 485,323.777 485,323.5 C485,323.223 485.223,323 485.5,323 Z M485.5,319 L488.5,319 C488.777,319 489,319.223 489,319.5 C489,319.777 488.777,320 488.5,320 L485.5,320 C485.223,320 485,319.777 485,319.5 C485,319.223 485.223,319 485.5,319 Z M509.5,330 C508.125,330 507,331.125 507,332.5 C507,333.875 508.125,335 509.5,335 C510.875,335 512,333.875 512,332.5 C512,331.125 510.875,330 509.5,330 Z M509.5,331 C510.334,331 511,331.666 511,332.5 C511,333.334 510.334,334 509.5,334 C508.666,334 508,333.334 508,332.5 C508,331.666 508.666,331 509.5,331 Z M496.5,330 C495.125,330 494,331.125 494,332.5 C494,333.875 495.125,335 496.5,335 C497.875,335 499,333.875 499,332.5 C499,331.125 497.875,330 496.5,330 Z M496.5,331 C497.334,331 498,331.666 498,332.5 C498,333.334 497.334,334 496.5,334 C495.666,334 495,333.334 495,332.5 C495,331.666 495.666,331 496.5,331 Z M491.5,317 C490.678,317 490,317.678 490,318.5 L490,329.5 C490,330.322 490.678,331 491.5,331 L493.5,331 C494.176,331.01 494.176,329.99 493.5,330 L491.5,330 C491.214,330 491,329.786 491,329.5 L491,318.5 C491,318.214 491.214,318 491.5,318 L504.5,318 C504.786,318 505,318.214 505,318.5 L505,330 L499.5,330 C498.84,330 498.852,331.01 499.5,331 L506.5,331 C507.16,331 507.154,330 506.5,330 L506,330 L506,321 L510.227,321 L514,326.896 L514,329.5 C514,329.786 513.786,330 513.5,330 L512.5,330 C511.846,330 511.846,331 512.5,331 L513.5,331 C514.322,331 515,330.322 515,329.5 L515,326.75 C515,326.655 514.973,326.56 514.922,326.48 L510.922,320.23 C510.83,320.087 510.672,320 510.5,320 L506,320 L506,318.5 C506,317.678 505.322,317 504.5,317 L491.5,317 Z" id="Shape"></path>
        </g>
    </g>
</svg>