<?xml version="1.0" encoding="UTF-8"?>
<svg width="30px" height="19px" viewBox="0 0 30 19" version="1.1" xmlns="http://www.w3.org/2000/svg" xmlns:xlink="http://www.w3.org/1999/xlink">
    <!-- Generator: Sketch 45.2 (43514) - http://www.bohemiancoding.com/sketch -->
    <title>thefactory/element/icons/icnthefactory/element/icons/icn-150</title>
    <desc>Created with Sketch.</desc>
    <defs></defs>
    <g id="Ressources" stroke="none" stroke-width="1" fill="none" fill-rule="evenodd">
        <g id="thefactory/element/icn/inc-artboard" transform="translate(-331.000000, -165.000000)" fill-rule="nonzero" fill="#000000">
            <path d="M360.504521,183 L331.49891,183 C330.818778,183 330.851785,184 331.49891,184 L360.504521,184 C361.149645,184 361.177651,183 360.504521,183 Z M352.502973,177 L339.500458,177 C338.827327,177 338.846331,178 339.500458,178 L352.502973,178 C353.153099,178 353.173102,177 352.502973,177 Z M360.504521,171 L331.49891,171 C330.848784,171 330.818778,172 331.49891,172 L360.504521,172 C361.159647,172 361.170649,171 360.504521,171 Z M352.502973,165 L339.500458,165 C338.84033,165 338.84033,166 339.500458,166 L352.502973,166 C353.156099,166 353.168101,165 352.502973,165 Z" id="Shape"></path>
        </g>
    </g>
</svg>