<?xml version="1.0" encoding="UTF-8"?>
<svg width="30px" height="30px" viewBox="0 0 30 30" version="1.1" xmlns="http://www.w3.org/2000/svg" xmlns:xlink="http://www.w3.org/1999/xlink">
    <!-- Generator: Sketch 45.2 (43514) - http://www.bohemiancoding.com/sketch -->
    <title>thefactory/element/icons/icnthefactory/element/icons/icn-109</title>
    <desc>Created with Sketch.</desc>
    <defs></defs>
    <g id="Ressources" stroke="none" stroke-width="1" fill="none" fill-rule="evenodd">
        <g id="thefactory/element/icn/inc-artboard" transform="translate(-252.000000, -917.000000)" fill-rule="nonzero" fill="#000000">
            <path d="M275.56,917.435015 C274.98,916.854995 274.02,916.854995 273.44,917.435015 L267.436,923.439215 C266.856,924.019234 266.856,924.979266 267.436,925.559285 L273.44,931.564485 C274.02,932.144505 274.98,932.144505 275.56,931.564485 L281.565,925.560285 C282.145,924.980266 282.145,924.020234 281.565,923.440215 L275.56,917.435015 Z M274.854,918.143038 L280.857,924.146238 C281.059,924.348245 281.059,924.651255 280.857,924.853262 L274.854,930.857462 C274.652,931.059469 274.349,931.059469 274.147,930.857462 L268.143,924.853262 C267.941,924.651255 267.941,924.348245 268.143,924.146238 L274.147,918.143038 C274.349,917.941031 274.652,917.941031 274.854,918.143038 Z M268.5,934.9996 C267.678,934.9996 267,935.677623 267,936.49965 L267,945.49995 C267,946.321977 267.678,947 268.5,947 L277.5,947 C278.322,947 279,946.321977 279,945.49995 L279,936.49965 C279,935.677623 278.322,934.9996 277.5,934.9996 L268.5,934.9996 Z M268.5,935.999633 L277.5,935.999633 C277.786,935.999633 278,936.21364 278,936.49965 L278,945.49995 C278,945.78596 277.786,945.999967 277.5,945.999967 L268.5,945.999967 C268.214,945.999967 268,945.78596 268,945.49995 L268,936.49965 C268,936.21364 268.214,935.999633 268.5,935.999633 Z M253.5,919.9991 C252.678,919.9991 252,920.677123 252,921.49915 L252,930.49945 C252,931.321477 252.678,931.9995 253.5,931.9995 L262.5,931.9995 C263.322,931.9995 264,931.321477 264,930.49945 L264,921.49915 C264,920.677123 263.322,919.9991 262.5,919.9991 L253.5,919.9991 Z M253.5,920.999133 L262.5,920.999133 C262.786,920.999133 263,921.21314 263,921.49915 L263,930.49945 C263,930.78546 262.786,930.999467 262.5,930.999467 L253.5,930.999467 C253.214,930.999467 253,930.78546 253,930.49945 L253,921.49915 C253,921.21314 253.214,920.999133 253.5,920.999133 Z M253.5,934.9996 C252.678,934.9996 252,935.677623 252,936.49965 L252,945.49995 C252,946.321977 252.678,947 253.5,947 L262.5,947 C263.322,947 264,946.321977 264,945.49995 L264,936.49965 C264,935.677623 263.322,934.9996 262.5,934.9996 L253.5,934.9996 Z M253.5,935.999633 L262.5,935.999633 C262.786,935.999633 263,936.21364 263,936.49965 L263,945.49995 C263,945.78596 262.786,945.999967 262.5,945.999967 L253.5,945.999967 C253.214,945.999967 253,945.78596 253,945.49995 L253,936.49965 C253,936.21364 253.214,935.999633 253.5,935.999633 Z" id="Shape"></path>
        </g>
    </g>
</svg>