<?xml version="1.0" encoding="UTF-8"?>
<svg width="29px" height="30px" viewBox="0 0 29 30" version="1.1" xmlns="http://www.w3.org/2000/svg" xmlns:xlink="http://www.w3.org/1999/xlink">
    <!-- Generator: Sketch 45.2 (43514) - http://www.bohemiancoding.com/sketch -->
    <title>thefactory/element/icons/icnthefactory/element/icons/icn-42</title>
    <desc>Created with Sketch.</desc>
    <defs></defs>
    <g id="Ressources" stroke="none" stroke-width="1" fill="none" fill-rule="evenodd">
        <g id="thefactory/element/icn/inc-artboard" transform="translate(-561.000000, -696.000000)" fill-rule="nonzero" fill="#000000">
            <path d="M581.5,708 L583.5,708 C583.777,708 584,708.223 584,708.5 C584,708.777 583.777,709 583.5,709 L581.5,709 C581.223,709 581,708.777 581,708.5 C581,708.223 581.223,708 581.5,708 Z M582.5,710 C582.777,710 583,710.223 583,710.5 L583,718.5 C583,718.777 582.777,719 582.5,719 C582.223,719 582,718.777 582,718.5 L582,710.5 C582,710.223 582.223,710 582.5,710 Z M582.5,703 C582.777,703 583,703.223 583,703.5 L583,706.5 C583,706.777 582.777,707 582.5,707 C582.223,707 582,706.777 582,706.5 L582,703.5 C582,703.223 582.223,703 582.5,703 Z M574.5,714 L576.5,714 C576.777,714 577,713.777 577,713.5 C577,713.223 576.777,713 576.5,713 L574.5,713 C574.223,713 574,713.223 574,713.5 C574,713.777 574.223,714 574.5,714 Z M575.5,712 C575.777,712 576,711.777 576,711.5 L576,703.5 C576,703.223 575.777,703 575.5,703 C575.223,703 575,703.223 575,703.5 L575,711.5 C575,711.777 575.223,712 575.5,712 Z M575.5,719 C575.777,719 576,718.777 576,718.5 L576,715.5 C576,715.223 575.777,715 575.5,715 C575.223,715 575,715.223 575,715.5 L575,718.5 C575,718.777 575.223,719 575.5,719 Z M567.5,708 L569.5,708 C569.777,708 570,708.223 570,708.5 C570,708.777 569.777,709 569.5,709 L567.5,709 C567.223,709 567,708.777 567,708.5 C567,708.223 567.223,708 567.5,708 Z M568.5,710 C568.777,710 569,710.223 569,710.5 L569,718.5 C569,718.777 568.777,719 568.5,719 C568.223,719 568,718.777 568,718.5 L568,710.5 C568,710.223 568.223,710 568.5,710 Z M568.5,703 C568.777,703 569,703.223 569,703.5 L569,706.5 C569,706.777 568.777,707 568.5,707 C568.223,707 568,706.777 568,706.5 L568,703.5 C568,703.223 568.223,703 568.5,703 Z M562.5,696 C561.678,696 561,696.678 561,697.5 L561,724.5 C561,725.322 561.678,726 562.5,726 L588.5,726 C589.322,726 590,725.322 590,724.5 L590,697.5 C590,696.678 589.322,696 588.5,696 L562.5,696 Z M562.5,697 L588.5,697 C588.786,697 589,697.214 589,697.5 L589,724.5 C589,724.786 588.786,725 588.5,725 L562.5,725 C562.214,725 562,724.786 562,724.5 L562,697.5 C562,697.214 562.214,697 562.5,697 Z" id="Shape"></path>
        </g>
    </g>
</svg>