<?xml version="1.0" encoding="UTF-8"?>
<svg width="28px" height="30px" viewBox="0 0 28 30" version="1.1" xmlns="http://www.w3.org/2000/svg" xmlns:xlink="http://www.w3.org/1999/xlink">
    <!-- Generator: Sketch 45.2 (43514) - http://www.bohemiancoding.com/sketch -->
    <title>thefactory/element/icons/icnthefactory/element/icons/icn-39</title>
    <desc>Created with Sketch.</desc>
    <defs></defs>
    <g id="Ressources" stroke="none" stroke-width="1" fill="none" fill-rule="evenodd">
        <g id="thefactory/element/icn/inc-artboard" transform="translate(-787.000000, -696.000000)" fill-rule="nonzero" fill="#000000">
            <path d="M797.501236,703 L804.498764,703 C804.775666,703 804.998587,703.223 804.998587,703.5 C804.998587,703.777 804.775666,704 804.498764,704 L797.501236,704 C797.224334,704 797.001413,703.777 797.001413,703.5 C797.001413,703.223 797.224334,703 797.501236,703 Z M790.503708,703 C789.679999,703 789.082211,703.694 789.006238,704.45 L787.006944,724.45 C786.918975,725.33 787.680706,726 788.504415,726 L813.495585,726 C814.319294,726 815.081025,725.328 814.993056,724.45 L812.993762,704.45 C812.917789,703.695 812.320001,703 811.496292,703 L808.497351,703 C807.827588,703 807.847581,704 808.497351,704 L811.496292,704 C811.780191,704 811.963127,704.204 811.998114,704.55 L813.997408,724.55 C814.0204,724.775 813.779485,725 813.495585,725 L788.504415,725 C788.220515,725 787.9796,724.775 788.002592,724.55 L790.001886,704.55 C790.036873,704.204 790.219809,704 790.503708,704 L793.502649,704 C794.172412,704 794.156418,703 793.502649,703 L790.503708,703 Z M801,696 C797.693168,696 795.002119,698.692 795.002119,702 L795.002119,706.5 C795.002119,707.165 796.001766,707.165 796.001766,706.5 L796.001766,702 C796.001766,699.233 798.233977,697 801,697 C803.766023,697 805.998234,699.233 805.998234,702 L805.998234,706.5 C805.998234,707.165 806.997881,707.157 806.997881,706.5 L806.997881,702 C806.997881,698.692 804.306832,696 801,696 Z" id="Shape"></path>
        </g>
    </g>
</svg>