<?xml version="1.0" encoding="UTF-8"?>
<svg width="30px" height="26px" viewBox="0 0 30 26" version="1.1" xmlns="http://www.w3.org/2000/svg" xmlns:xlink="http://www.w3.org/1999/xlink">
    <!-- Generator: Sketch 45.2 (43514) - http://www.bohemiancoding.com/sketch -->
    <title>thefactory/element/icons/icnthefactory/element/icons/icn-131</title>
    <desc>Created with Sketch.</desc>
    <defs></defs>
    <g id="Ressources" stroke="none" stroke-width="1" fill="none" fill-rule="evenodd">
        <g id="thefactory/element/icn/inc-artboard" transform="translate(-635.000000, -242.000000)" fill-rule="nonzero" fill="#000000">
            <path d="M652.969256,242.001055 C652.826245,242.003054 652.692235,242.065052 652.599228,242.171048 L649.428994,245.8109 L647.311838,244.117969 C647.128824,243.971975 646.868805,243.971975 646.685791,244.117969 L644.176606,246.110888 C643.68657,246.498872 644.309616,247.28484 644.802652,246.890856 L646.998814,245.150927 L649.176975,246.893856 C649.386991,247.061849 649.690013,247.03585 649.867026,246.833859 L652.999258,243.233005 L656.609525,246.850858 C656.789538,247.030851 657.075559,247.04685 657.274574,246.887856 L659.452735,245.170926 L661.136859,246.854858 C661.584893,247.320839 662.310946,246.594868 661.843912,246.146886 L659.843764,244.146968 C659.663751,243.966975 659.376729,243.950975 659.177715,244.109969 L656.999554,245.825899 L653.327282,242.146049 C653.232275,242.051053 653.102266,241.998055 652.967256,242.000055 L652.969256,242.001055 Z M644.49863,253.000608 L660.499812,253.000608 C660.776833,253.000608 660.999849,253.223599 660.999849,253.500588 C660.999849,253.777577 660.776833,254.000568 660.499812,254.000568 L644.49863,254.000568 C644.221609,254.000568 643.998593,253.777577 643.998593,253.500588 C643.998593,253.223599 644.221609,253.000608 644.49863,253.000608 Z M635.487964,245.000933 C634.850917,245.000933 634.823915,246.000892 635.487964,246.000892 L639.084229,246.000892 C639.159235,246.355878 639.727277,249.055768 640.400327,252.23064 C640.760353,253.916571 641.12438,255.636501 641.418402,256.996446 C641.712424,258.356391 641.924439,259.322352 642.006445,259.62934 C642.138455,260.123319 642.262464,260.684297 642.626491,261.173277 C642.988518,261.661257 643.626565,261.999243 644.488629,261.999243 L660.489812,261.999243 C661.349875,261.999243 661.989923,261.661257 662.353949,261.173277 C662.716976,260.683297 662.841985,260.123319 662.973995,259.62834 C663.118006,259.091361 663.517035,257.373431 663.922065,255.635502 C664.327095,253.897572 664.739126,252.139643 664.862135,251.675662 C665.015146,251.110685 665.06515,250.520709 664.885137,249.985731 C664.705123,249.452752 664.165083,248.998771 663.490033,248.998771 L643.488555,248.998771 C642.854508,248.998771 642.832506,249.99873 643.488555,249.99873 L663.490033,249.99873 C663.816057,249.99873 663.85606,250.068727 663.937066,250.308718 C664.019072,250.546708 664.013072,250.98269 663.897063,251.416673 C663.753053,251.952651 663.355023,253.670581 662.948993,255.408511 C662.542963,257.14644 662.130933,258.905369 662.006924,259.36835 C661.870914,259.87433 661.746905,260.313312 661.55189,260.574301 C661.356876,260.836291 661.127859,260.998284 660.488812,260.998284 L644.487629,260.998284 C643.847581,260.998284 643.621565,260.836291 643.42755,260.574301 C643.232536,260.314312 643.107527,259.87433 642.972517,259.36935 C642.920513,259.177358 642.689496,258.1424 642.395474,256.784455 C642.102453,255.42651 641.735425,253.70858 641.375399,252.020648 C640.662346,248.648785 639.978295,245.397917 639.978295,245.397917 C639.928292,245.166926 639.725277,245.000933 639.488259,245.000933 L635.487964,245.000933 Z M645.498704,257.000446 L659.499738,257.000446 C659.776759,257.000446 659.999775,257.223437 659.999775,257.500426 C659.999775,257.777415 659.776759,258.000406 659.499738,258.000406 L645.498704,258.000406 C645.221683,258.000406 644.998667,257.777415 644.998667,257.500426 C644.998667,257.223437 645.221683,257.000446 645.498704,257.000446 Z M658.499665,263.000203 C657.124563,263.000203 655.99948,264.125157 655.99948,265.500101 C655.99948,266.875046 657.124563,268 658.499665,268 C659.874766,268 660.999849,266.875046 660.999849,265.500101 C660.999849,264.125157 659.874766,263.000203 658.499665,263.000203 Z M658.499665,264.000162 C659.333726,264.000162 659.999775,264.666135 659.999775,265.500101 C659.999775,266.334068 659.333726,267.000041 658.499665,267.000041 C657.665603,267.000041 656.999554,266.334068 656.999554,265.500101 C656.999554,264.666135 657.665603,264.000162 658.499665,264.000162 Z M646.498777,263.000203 C645.123676,263.000203 643.998593,264.125157 643.998593,265.500101 C643.998593,266.875046 645.123676,268 646.498777,268 C647.873879,268 648.998962,266.875046 648.998962,265.500101 C648.998962,264.125157 647.873879,263.000203 646.498777,263.000203 Z M646.498777,264.000162 C647.332839,264.000162 647.998888,264.666135 647.998888,265.500101 C647.998888,266.334068 647.332839,267.000041 646.498777,267.000041 C645.664716,267.000041 644.998667,266.334068 644.998667,265.500101 C644.998667,264.666135 645.664716,264.000162 646.498777,264.000162 Z" id="Shape"></path>
        </g>
    </g>
</svg>