<?xml version="1.0" encoding="UTF-8"?>
<svg width="24px" height="30px" viewBox="0 0 24 30" version="1.1" xmlns="http://www.w3.org/2000/svg" xmlns:xlink="http://www.w3.org/1999/xlink">
    <!-- Generator: Sketch 45.2 (43514) - http://www.bohemiancoding.com/sketch -->
    <title>thefactory/element/icons/icnthefactory/element/icons/icn-107</title>
    <desc>Created with Sketch.</desc>
    <defs></defs>
    <g id="Ressources" stroke="none" stroke-width="1" fill="none" fill-rule="evenodd">
        <g id="thefactory/element/icn/inc-artboard" transform="translate(-260.000000, -393.000000)" fill-rule="nonzero" fill="#000000">
            <path d="M265.5,412 L278.5,412 C278.777,412 279,412.223 279,412.5 C279,412.777 278.777,413 278.5,413 L265.5,413 C265.223,413 265,412.777 265,412.5 C265,412.223 265.223,412 265.5,412 Z M265.5,408 L278.5,408 C278.777,408 279,408.223 279,408.5 C279,408.777 278.777,409 278.5,409 L265.5,409 C265.223,409 265,408.777 265,408.5 C265,408.223 265.223,408 265.5,408 Z M265.5,404 L278.5,404 C278.777,404 279,404.223 279,404.5 C279,404.777 278.777,405 278.5,405 L265.5,405 C265.223,405 265,404.777 265,404.5 C265,404.223 265.223,404 265.5,404 Z M275.5,395 C275.224,395.004 274.996,395.224 275,395.5 L275,399.5 C275,400.322 275.678,401 276.5,401 L280.5,401 C281.165,401 281.16,400 280.5,400 L276.5,400 C276.214,400 276,399.786 276,399.5 L276,395.5 C276.004,395.218 275.782,394.996 275.5,395 Z M261.5,393 C260.678,393 260,393.678 260,394.5 L260,421.5 C260,422.322 260.678,423 261.5,423 L282.5,423 C283.322,423 284,422.322 284,421.5 L284,400.5 C284,400.367 283.947,400.24 283.854,400.146 L276.854,393.146 C276.76,393.053 276.634,393 276.5,393 L261.5,393 Z M261.5,394 L276.293,394 L283,400.707 L283,421.5 C283,421.786 282.786,422 282.5,422 L261.5,422 C261.214,422 261,421.786 261,421.5 L261,394.5 C261,394.214 261.214,394 261.5,394 Z" id="Shape"></path>
        </g>
    </g>
</svg>