<?xml version="1.0" encoding="UTF-8"?>
<svg width="30px" height="22px" viewBox="0 0 30 22" version="1.1" xmlns="http://www.w3.org/2000/svg" xmlns:xlink="http://www.w3.org/1999/xlink">
    <!-- Generator: Sketch 45.2 (43514) - http://www.bohemiancoding.com/sketch -->
    <title>thefactory/element/icons/icnthefactory/element/icons/icn-122</title>
    <desc>Created with Sketch.</desc>
    <defs></defs>
    <g id="Ressources" stroke="none" stroke-width="1" fill="none" fill-rule="evenodd">
        <g id="thefactory/element/icn/inc-artboard" transform="translate(-185.000000, -317.000000)" fill-rule="nonzero" fill="#000000">
            <path d="M207.5,332 C206.125,332 205,333.125 205,334.5 C205,335.875 206.125,337 207.5,337 C208.074,337 208.56,336.754 209,336.4 C209.44,336.754 209.926,337 210.5,337 C211.875,337 213,335.875 213,334.5 C213,333.125 211.875,332 210.5,332 C209.926,332 209.44,332.24 209,332.595 C208.56,332.24 208.074,332.001 207.5,332 Z M207.5,333 C207.93,333 208.34,333.186 208.625,333.51 C208.825,333.735 209.175,333.735 209.375,333.51 C209.66,333.186 210.069,333 210.5,333 C211.334,333 212,333.666 212,334.5 C212,335.334 211.334,336 210.5,336 C210.07,336 209.66,335.814 209.375,335.49 C209.175,335.265 208.825,335.265 208.625,335.49 C208.34,335.814 207.931,336 207.5,336 C206.666,336 206,335.334 206,334.5 C206,333.666 206.666,333 207.5,333 Z M200.5,334 L202.5,334 C202.777,334 203,334.223 203,334.5 C203,334.777 202.777,335 202.5,335 L200.5,335 C200.223,335 200,334.777 200,334.5 C200,334.223 200.223,334 200.5,334 Z M196.5,334 L198.5,334 C198.777,334 199,334.223 199,334.5 C199,334.777 198.777,335 198.5,335 L196.5,335 C196.223,335 196,334.777 196,334.5 C196,334.223 196.223,334 196.5,334 Z M192.5,334 L194.5,334 C194.777,334 195,334.223 195,334.5 C195,334.777 194.777,335 194.5,335 L192.5,335 C192.223,335 192,334.777 192,334.5 C192,334.223 192.223,334 192.5,334 Z M199.5,329 L211.5,329 C211.777,329 212,329.223 212,329.5 C212,329.777 211.777,330 211.5,330 L199.5,330 C199.223,330 199,329.777 199,329.5 C199,329.223 199.223,329 199.5,329 Z M204.5,326 L211.5,326 C211.777,326 212,326.223 212,326.5 C212,326.777 211.777,327 211.5,327 L204.5,327 C204.223,327 204,326.777 204,326.5 C204,326.223 204.223,326 204.5,326 Z M199.5,326 L202.5,326 C202.777,326 203,326.223 203,326.5 C203,326.777 202.777,327 202.5,327 L199.5,327 C199.223,327 199,326.777 199,326.5 C199,326.223 199.223,326 199.5,326 Z M192.5,325 C192.224,325 192,325.224 192,325.5 L192,330.5 C192,330.776 192.224,331 192.5,331 L196.5,331 C196.776,331 197,330.776 197,330.5 L197,325.5 C197,325.224 196.776,325 196.5,325 L192.5,325 Z M193,326 L196,326 L196,330 L193,330 L193,326 Z M191.5,323 C190.678,323 190,323.678 190,324.5 L190,337.5 C190,338.322 190.678,339 191.5,339 L213.5,339 C214.322,339 215,338.322 215,337.5 L215,324.5 C215,323.678 214.322,323 213.5,323 L191.5,323 Z M191.5,324 L213.5,324 C213.786,324 214,324.214 214,324.5 L214,337.5 C214,337.786 213.786,338 213.5,338 L191.5,338 C191.214,338 191,337.786 191,337.5 L191,324.5 C191,324.214 191.214,324 191.5,324 Z M186.5,317 C185.678,317 185,317.678 185,318.5 L185,331.5 C185,332.322 185.678,333 186.5,333 L188.5,333 C189.172,333 189.153,332 188.5,332 L186.5,332 C186.214,332 186,331.786 186,331.5 L186,325 L187.5,325 C187.777,325 188,324.777 188,324.5 C188,324.223 187.777,324 187.5,324 L186,324 L186,321 L210,321 L210,321.5 C210,322.172 211,322.157 211,321.5 L211,318.5 C211,317.678 210.322,317 209.5,317 L186.5,317 Z M186.5,318 L209.5,318 C209.786,318 210,318.214 210,318.5 L210,320 L186,320 L186,318.5 C186,318.214 186.214,318 186.5,318 Z" id="Shape"></path>
        </g>
    </g>
</svg>