<?xml version="1.0" encoding="UTF-8"?>
<svg width="28px" height="30px" viewBox="0 0 28 30" version="1.1" xmlns="http://www.w3.org/2000/svg" xmlns:xlink="http://www.w3.org/1999/xlink">
    <!-- Generator: Sketch 45.2 (43514) - http://www.bohemiancoding.com/sketch -->
    <title>thefactory/element/icons/icnthefactory/element/icons/icn-78</title>
    <desc>Created with Sketch.</desc>
    <defs></defs>
    <g id="Ressources" stroke="none" stroke-width="1" fill="none" fill-rule="evenodd">
        <g id="thefactory/element/icn/inc-artboard" transform="translate(-185.000000, -544.000000)" fill-rule="nonzero" fill="#000000">
            <path d="M187.499523,555 C187.242512,555 187.033504,555.193 187.007503,555.45 L185.009419,572.44 C184.905414,573.326 185.679447,574 186.505481,574 L211.494529,574 C212.319564,574 213.094596,573.326 212.990592,572.44 L210.992508,555.45 C210.914505,554.786 209.920463,554.904 209.998466,555.566 L211.99855,572.559 C212.023551,572.773 211.778541,572.999 211.494529,572.999 L186.505481,572.999 C186.22247,572.999 185.975459,572.773 186.00146,572.559 L188.001544,555.565 C188.041546,555.265 187.801536,555 187.499523,554.999 L187.499523,555 Z M199.000005,548 C196.796913,548 194.999838,549.797 194.999838,552 C194.999838,554.203 196.796913,556 199.000005,556 C201.203098,556 203.000173,554.203 203.000173,552 C203.000173,549.797 201.203098,548 199.000005,548 Z M199.000005,549 C200.663075,549 202.000131,550.337 202.000131,552 C202.000131,553.663 200.663075,555 199.000005,555 C197.336936,555 195.999879,553.663 195.999879,552 C195.999879,550.337 197.336936,549 199.000005,549 Z M199.000005,544 C194.58782,544 190.99967,547.588 190.99967,552 C190.99967,555.175 192.622738,558.603 194.379812,561.275 C195.256848,562.612 196.169887,563.755 196.95692,564.58 C197.349936,564.992 197.706951,565.323 198.028965,565.564 C198.348978,565.806 198.588988,566 198.999005,566 C199.409022,566 199.649032,565.806 199.969046,565.564 C200.291059,565.324 200.649074,564.992 201.042091,564.58 C201.828124,563.756 202.742162,562.612 203.620199,561.275 C205.378273,558.603 207.000341,555.175 207.000341,552 C207.000341,547.588 203.41219,544 199.000005,544 Z M199.000005,545 C202.872168,545 206.000299,548.128 206.000299,552 C206.000299,554.825 204.478235,558.147 202.785164,560.725 C201.939128,562.013 201.052091,563.119 200.31806,563.889 C199.952045,564.272 199.621031,564.575 199.368021,564.767 C199.063008,564.99 198.873,564.951 198.63299,564.767 C198.378979,564.575 198.047965,564.272 197.68295,563.887 C196.947919,563.117 196.060882,562.012 195.214847,560.724 C193.521776,558.147 191.999712,554.825 191.999712,552 C191.999712,548.128 195.127843,545 199.000005,545 Z" id="Shape"></path>
        </g>
    </g>
</svg>