<?xml version="1.0" encoding="UTF-8"?>
<svg width="29px" height="29px" viewBox="0 0 29 29" version="1.1" xmlns="http://www.w3.org/2000/svg" xmlns:xlink="http://www.w3.org/1999/xlink">
    <!-- Generator: Sketch 45.2 (43514) - http://www.bohemiancoding.com/sketch -->
    <title>thefactory/element/icons/icnthefactory/element/icons/icn-30</title>
    <desc>Created with Sketch.</desc>
    <defs></defs>
    <g id="Ressources" stroke="none" stroke-width="1" fill="none" fill-rule="evenodd">
        <g id="thefactory/element/icn/inc-artboard" transform="translate(-335.000000, -772.000000)" fill-rule="nonzero" fill="#000000">
            <path d="M341.45522,782.426585 L337.12373,779.925725 C336.559536,779.600613 337.043703,778.725312 337.623902,779.059427 L341.955392,781.560287 C342.525588,781.890401 342.027416,782.757699 341.45522,782.426585 Z M361.376069,793.92854 L357.04458,791.42768 C356.480386,791.101568 356.964552,790.227267 357.544752,790.561382 L361.876241,793.062242 C362.446437,793.392356 361.948266,794.258654 361.376069,793.92854 Z M344.566289,778.94939 L342.065429,774.6179 C341.739317,774.053706 342.595612,773.537529 342.931727,774.117728 L345.432587,778.449218 C345.762701,779.019414 344.896403,779.521586 344.566289,778.94939 Z M356.067244,798.870239 L353.566384,794.53875 C353.241272,793.974556 354.096566,793.458378 354.432682,794.038578 L356.933542,798.370067 C357.263655,798.940263 356.398358,799.442436 356.068244,798.870239 L356.067244,798.870239 Z M353.566384,778.448217 L356.067244,774.116728 C356.393356,773.553534 357.267657,774.0367 356.933542,774.6169 L354.432682,778.948389 C354.104569,779.520586 353.237271,779.021414 353.567384,778.448217 L353.566384,778.448217 Z M342.065429,798.370067 L344.566289,794.038578 C344.891401,793.474384 345.766702,793.95855 345.432587,794.53875 L342.931727,798.870239 C342.601614,799.440435 341.735316,798.942264 342.065429,798.370067 Z M357.04458,781.558287 L361.376069,779.057427 C361.940263,778.732315 362.456441,779.58961 361.876241,779.924725 L357.544752,782.425585 C356.974556,782.755698 356.472383,781.8894 357.04458,781.559287 L357.04458,781.558287 Z M337.12373,793.062242 L341.45522,790.561382 C342.018413,790.236271 342.535591,791.091565 341.955392,791.42768 L337.623902,793.92854 C337.053706,794.258654 336.551533,793.392356 337.12373,793.062242 Z M358.503081,785.999814 L363.504801,785.999814 C364.155025,785.999814 364.175032,787.000158 363.504801,787.000158 L358.503081,787.000158 C357.842854,787.000158 357.842854,785.999814 358.503081,785.999814 Z M335.49517,785.999814 L340.49689,785.999814 C341.147114,785.999814 341.167121,787.000158 340.49689,787.000158 L335.49517,787.000158 C334.834943,787.000158 334.834943,785.999814 335.49517,785.999814 Z M350.000158,795.503081 L350.000158,800.504801 C350.000158,801.155025 348.999814,801.175032 348.999814,800.504801 L348.999814,795.503081 C348.999814,794.842854 350.000158,794.842854 350.000158,795.503081 Z M350.000158,772.49517 L350.000158,777.49689 C350.000158,778.147114 348.999814,778.167121 348.999814,777.49689 L348.999814,772.49517 C348.999814,771.834943 350.000158,771.834943 350.000158,772.49517 Z M349.499986,779.99775 C345.914753,779.99775 342.99775,782.914753 342.99775,786.499986 C342.99775,790.085219 345.914753,793.002222 349.499986,793.002222 C353.085219,793.002222 356.002222,790.085219 356.002222,786.499986 C356.002222,782.914753 353.085219,779.99775 349.499986,779.99775 Z M349.499986,780.998094 C352.544032,780.998094 355.001878,783.455939 355.001878,786.499986 C355.001878,789.545033 352.544032,792.001878 349.499986,792.001878 C346.455939,792.001878 343.998094,789.545033 343.998094,786.499986 C343.998094,783.455939 346.455939,780.998094 349.499986,780.998094 Z" id="Shape"></path>
        </g>
    </g>
</svg>