<?xml version="1.0" encoding="UTF-8"?>
<svg width="30px" height="22px" viewBox="0 0 30 22" version="1.1" xmlns="http://www.w3.org/2000/svg" xmlns:xlink="http://www.w3.org/1999/xlink">
    <!-- Generator: Sketch 45.2 (43514) - http://www.bohemiancoding.com/sketch -->
    <title>thefactory/element/icons/icnthefactory/element/icons/icn-94</title>
    <desc>Created with Sketch.</desc>
    <defs></defs>
    <g id="Ressources" stroke="none" stroke-width="1" fill="none" fill-rule="evenodd">
        <g id="thefactory/element/icn/inc-artboard" transform="translate(-550.000000, -994.000000)" fill-rule="nonzero" fill="#000000">
            <path d="M560.500365,995.000118 C560.42737,995.000118 560.360374,995.015119 560.293379,995.045123 L550.831005,999.350629 C550.094054,999.685669 549.798074,1000.57777 550.144051,1001.29586 L556.35564,1014.18237 C556.702617,1014.90046 557.595557,1015.2525 558.322509,1014.84645 L561.744283,1012.93923 C562.332244,1012.64119 561.78828,1011.75909 561.258315,1012.06613 L557.834542,1013.97235 C557.638555,1014.08236 557.367573,1013.98235 557.25458,1013.74832 L556.840607,1012.89122 L558.725483,1011.94811 C559.330443,1011.64408 558.803477,1010.78798 558.275512,1011.05401 L556.405636,1011.98912 L551.044991,1000.86081 C550.931999,1000.62778 551.021993,1000.36275 551.244978,1000.26074 L560.708351,995.95523 C561.193319,995.733204 560.995332,995.000118 560.501365,995.000118 L560.500365,995.000118 Z M565.277049,994 C565.087061,994 564.900074,994.035004 564.725085,994.104012 C564.375108,994.241028 564.077128,994.51106 563.915139,994.879103 L558.122523,1008.15166 C557.802544,1008.88875 558.142521,1009.76185 558.879472,1010.08189 L572.155593,1015.87957 C572.892544,1016.19961 573.765487,1015.85957 574.085465,1015.12249 L579.880082,1001.84392 C580.200061,1001.10684 579.857083,1000.23373 579.120132,999.913696 L565.847011,994.120014 C565.663023,994.040005 565.469036,994 565.277049,994 Z M565.26205,994.994117 C565.322046,994.996117 565.384042,995.010119 565.445038,995.037122 L578.722158,1000.8328 C578.966142,1000.93982 579.067136,1001.20285 578.960143,1001.44588 L574.140462,1012.49418 L560.011397,1006.32745 L564.833078,995.27615 C564.913073,995.094129 565.081062,994.990116 565.26305,994.994117 L565.26205,994.994117 Z M559.610424,1007.24356 L573.739488,1013.41228 L573.167526,1014.72544 C573.060533,1014.96947 572.797551,1015.07248 572.554567,1014.96547 L559.277446,1009.16978 C559.033462,1009.06277 558.930469,1008.79974 559.037462,1008.55471 L559.610424,1007.24356 Z M557.500564,1006.00141 C557.280578,1005.99941 557.092591,1006.13443 557.025595,1006.34345 L556.025661,1009.34381 C555.831674,1009.92687 556.758613,1010.31092 556.975598,1009.65984 L557.975532,1006.65949 C558.087525,1006.33645 557.842541,1006.00341 557.500564,1006.00141 L557.500564,1006.00141 Z M566.499968,1003.00106 C566.424973,1003.00106 566.343978,1003.02106 566.276983,1003.05407 L562.277247,1005.0543 C561.681287,1005.32133 562.184254,1006.24444 562.723218,1005.94841 L566.327979,1004.14619 L568.083863,1006.7785 C568.223854,1006.98853 568.496836,1007.06054 568.723821,1006.94852 L572.327582,1005.14631 L574.083466,1007.77862 C574.435442,1008.32569 575.273387,1007.74562 574.915411,1007.22456 L572.915543,1004.2242 C572.775552,1004.01418 572.50257,1003.94217 572.275585,1004.05418 L568.671824,1005.85639 L566.91594,1003.22409 C566.821946,1003.08207 566.669957,1002.99806 566.499968,1003.00106 L566.499968,1003.00106 Z M566.999935,998.000471 C565.900007,998.000471 565.000067,998.900577 565.000067,1000.00071 C565.000067,1001.10084 565.900007,1002.00094 566.999935,1002.00094 C568.099862,1002.00094 568.999802,1001.10084 568.999802,1000.00071 C568.999802,998.900577 568.099862,998.000471 566.999935,998.000471 Z M566.999935,999.000588 C567.562897,999.000588 567.999868,999.43764 567.999868,1000.00071 C567.999868,1000.56377 567.562897,1001.00082 566.999935,1001.00082 C566.436972,1001.00082 566.000001,1000.56377 566.000001,1000.00071 C566.000001,999.43764 566.436972,999.000588 566.999935,999.000588 Z M556.000663,1001.00082 C554.900736,1001.00082 554.000795,1001.90093 554.000795,1003.00106 C554.000795,1004.10119 554.900736,1005.00129 556.000663,1005.00129 C557.10059,1005.00129 558.000531,1004.10119 558.000531,1003.00106 C558.000531,1001.90093 557.10059,1001.00082 556.000663,1001.00082 Z M556.000663,1002.00094 C556.563626,1002.00094 557.000597,1002.43799 557.000597,1003.00106 C557.000597,1003.56413 556.563626,1004.00118 556.000663,1004.00118 C555.4377,1004.00118 555.000729,1003.56413 555.000729,1003.00106 C555.000729,1002.43799 555.4377,1002.00094 556.000663,1002.00094 Z" id="Shape"></path>
        </g>
    </g>
</svg>