<?xml version="1.0" encoding="UTF-8"?>
<svg width="30px" height="30px" viewBox="0 0 30 30" version="1.1" xmlns="http://www.w3.org/2000/svg" xmlns:xlink="http://www.w3.org/1999/xlink">
    <!-- Generator: Sketch 45.2 (43514) - http://www.bohemiancoding.com/sketch -->
    <title>thefactory/element/icons/icnthefactory/element/icons/icn-90</title>
    <desc>Created with Sketch.</desc>
    <defs></defs>
    <g id="Ressources" stroke="none" stroke-width="1" fill="none" fill-rule="evenodd">
        <g id="thefactory/element/icn/inc-artboard" transform="translate(-394.000000, -468.000000)" fill-rule="nonzero" fill="#000000">
            <path d="M402,468 C397.588,468 394,471.588 394,476 C394,480.412 397.588,484 402,484 C403.17,484 404.005,483.75 404.78,483.47 L418.146,496.854 C418.73,497.438 419.543,498 420.5,498 L422.5,498 C422.923,498 423.267,497.795 423.53,497.53 C423.795,497.267 424,496.923 424,496.5 L424,494.5 C424,493.543 423.437,492.73 422.854,492.146 L421.854,491.146 C421.76,491.052 421.634,491 421.5,491 L420,491 L420,489.5 C420,489.367 419.948,489.24 419.854,489.146 L417.854,487.146 C417.76,487.053 417.634,487 417.5,487 L416,487 L416,485.5 C416,485.367 415.947,485.24 415.854,485.146 L413.854,483.146 C413.76,483.053 413.634,483 413.5,483 L412,483 L412,481.5 C412,481.367 411.947,481.24 411.854,481.146 L409.447,478.74 C409.77,477.858 410,476.94 410,476 C410,471.588 406.412,468 402,468 Z M402,469 C405.872,469 409,472.128 409,476 C409,476.934 408.813,477.858 408.45,478.72 C408.373,478.906 408.415,479.122 408.56,479.266 L411,481.706 L411,483.5 C411,483.776 411.224,484 411.5,484 L413.293,484 L415,485.707 L415,487.5 C415,487.776 415.224,488 415.5,488 L417.293,488 L419,489.707 L419,491.5 C419,491.776 419.224,492 419.5,492 L421.293,492 L422.146,492.854 C422.616,493.324 423,493.966 423,494.5 L423,496.5 C423,496.55 422.94,496.704 422.822,496.822 C422.704,496.942 422.549,497 422.5,497 L420.5,497 C419.966,497 419.324,496.617 418.854,496.146 L405.26,482.553 C405.116,482.408 404.9,482.366 404.71,482.445 C403.853,482.809 402.93,482.997 402,483 C398.128,483 395,479.872 395,476 C395,472.128 398.128,469 402,469 Z M400,472 C398.9,472 398,472.9 398,474 C398,475.1 398.9,476 400,476 C401.1,476 402,475.1 402,474 C402,472.9 401.1,472 400,472 Z M400,473 C400.558,473 401,473.442 401,474 C401,474.558 400.558,475 400,475 C399.442,475 399,474.558 399,474 C399,473.442 399.442,473 400,473 Z" id="Shape"></path>
        </g>
    </g>
</svg>