<?xml version="1.0" encoding="UTF-8"?>
<svg width="30px" height="24px" viewBox="0 0 30 24" version="1.1" xmlns="http://www.w3.org/2000/svg" xmlns:xlink="http://www.w3.org/1999/xlink">
    <!-- Generator: Sketch 45.2 (43514) - http://www.bohemiancoding.com/sketch -->
    <title>thefactory/element/icons/icnthefactory/element/icons/icn-133</title>
    <desc>Created with Sketch.</desc>
    <defs></defs>
    <g id="Ressources" stroke="none" stroke-width="1" fill="none" fill-rule="evenodd">
        <g id="thefactory/element/icn/inc-artboard" transform="translate(-485.000000, -241.000000)" fill-rule="nonzero" fill="#000000">
            <path d="M500,248 C496.14,248 493,251.14 493,255 C493,258.86 496.14,262 500,262 C503.86,262 507,258.86 507,255 C507,251.14 503.86,248 500,248 Z M500,249 C503.32,249 506,251.68 506,255 C506,258.32 503.32,261 500,261 C496.68,261 494,258.32 494,255 C494,251.68 496.68,249 500,249 Z M489.5,241 C488.678,241 488,241.678 488,242.5 L488,243.5 C488,244.176 489,244.15 489,243.5 L489,242.5 C489,242.214 489.214,242 489.5,242 L494.5,242 C494.786,242 495,242.214 495,242.5 L495,243.5 C495,244.16 496,244.16 496,243.5 L496,242.5 C496,241.678 495.322,241 494.5,241 L489.5,241 Z M508.5,247 C507.678,247 507,247.678 507,248.5 C507,249.322 507.678,250 508.5,250 L511.5,250 C512.322,250 513,249.322 513,248.5 C513,247.678 512.322,247 511.5,247 L508.5,247 Z M508.5,248 L511.5,248 C511.786,248 512,248.214 512,248.5 C512,248.786 511.786,249 511.5,249 L508.5,249 C508.214,249 508,248.786 508,248.5 C508,248.214 508.214,248 508.5,248 Z M486.5,245 C485.678,245 485,245.678 485,246.5 L485,263.5 C485,264.322 485.678,265 486.5,265 L513.5,265 C514.322,265 515,264.322 515,263.5 L515,246.5 C515,245.678 514.322,245 513.5,245 L486.5,245 Z M486.5,246 L513.5,246 C513.786,246 514,246.214 514,246.5 L514,263.5 C514,263.786 513.786,264 513.5,264 L486.5,264 C486.214,264 486,263.786 486,263.5 L486,246.5 C486,246.214 486.214,246 486.5,246 Z" id="Shape"></path>
        </g>
    </g>
</svg>