<?xml version="1.0" encoding="UTF-8"?>
<svg width="30px" height="28px" viewBox="0 0 30 28" version="1.1" xmlns="http://www.w3.org/2000/svg" xmlns:xlink="http://www.w3.org/1999/xlink">
    <!-- Generator: Sketch 45.2 (43514) - http://www.bohemiancoding.com/sketch -->
    <title>thefactory/element/icons/icnthefactory/element/icons/icn-128</title>
    <desc>Created with Sketch.</desc>
    <defs></defs>
    <g id="Ressources" stroke="none" stroke-width="1" fill="none" fill-rule="evenodd">
        <g id="thefactory/element/icn/inc-artboard" transform="translate(-859.000000, -241.000000)" fill-rule="nonzero" fill="#000000">
            <path d="M863.486,254.999553 L873.514,254.999553 C873.784,254.999553 874,255.216546 874,255.485538 C874,255.755529 873.783,255.971522 873.514,255.971522 L863.486,255.971522 C863.216,255.971522 863,255.755529 863,255.485538 C863,255.215547 863.217,254.999553 863.486,254.999553 Z M863.5,250.999681 L884.5,250.999681 C884.777,250.999681 885,251.222674 885,251.499665 C885,251.776656 884.777,251.999649 884.5,251.999649 L863.5,251.999649 C863.223,251.999649 863,251.776656 863,251.499665 C863,251.222674 863.223,250.999681 863.5,250.999681 Z M863.5,246.999809 L884.5,246.999809 C884.777,246.999809 885,247.222801 885,247.499793 C885,247.776784 884.777,247.999777 884.5,247.999777 L863.5,247.999777 C863.223,247.999777 863,247.776784 863,247.499793 C863,247.222801 863.223,246.999809 863.5,246.999809 Z M860.5,241 C859.678,241 859,241.677978 859,242.499952 L859,261.499346 C859,262.32132 859.678,262.999298 860.5,262.999298 L864,262.999298 L864,267.499155 C864,267.847144 864.05,268.146134 864.184,268.407126 C864.316,268.667117 864.558,268.88711 864.842,268.962108 C865.41,269.112103 865.918,268.798113 866.357,268.349128 C867.882,266.789177 870.584,264.113263 871.707,262.999298 L887.5,262.999298 C888.322,262.999298 889,262.32132 889,261.499346 L889,242.499952 C889,241.677978 888.322,241 887.5,241 L860.5,241 Z M860.5,241.999968 L887.5,241.999968 C887.786,241.999968 888,242.213961 888,242.499952 L888,261.499346 C888,261.785337 887.786,261.99933 887.5,261.99933 L871.5,261.99933 C871.368,261.99933 871.242,262.051328 871.148,262.144325 C870.088,263.194292 867.222,266.034201 865.643,267.64915 C865.091,268.201132 865,267.847144 865,267.499155 L865,262.499314 C865,262.223323 864.776,261.99933 864.5,261.99933 L860.5,261.99933 C860.214,261.99933 860,261.785337 860,261.499346 L860,242.499952 C860,242.213961 860.214,241.999968 860.5,241.999968 Z" id="Shape"></path>
        </g>
    </g>
</svg>