<?xml version="1.0" encoding="UTF-8"?>
<svg width="30px" height="30px" viewBox="0 0 30 30" version="1.1" xmlns="http://www.w3.org/2000/svg" xmlns:xlink="http://www.w3.org/1999/xlink">
    <!-- Generator: Sketch 45.2 (43514) - http://www.bohemiancoding.com/sketch -->
    <title>thefactory/element/icons/icnthefactory/element/icons/icn-79</title>
    <desc>Created with Sketch.</desc>
    <defs></defs>
    <g id="Ressources" stroke="none" stroke-width="1" fill="none" fill-rule="evenodd">
        <g id="thefactory/element/icn/inc-artboard" transform="translate(-698.000000, -917.000000)" fill-rule="nonzero" fill="#000000">
            <path d="M719.499932,936.999987 C719.121929,936.996987 718.885928,937.382987 719.056929,937.716987 L720.046937,939.700985 C720.326939,940.330985 721.260946,939.863985 720.929944,939.260986 L719.939936,937.275987 C719.859935,937.107987 719.685934,937.001987 719.499932,937.000987 L719.499932,936.999987 Z M704.489813,923.999995 C704.009809,923.999995 703.789808,924.721995 704.263811,924.945995 L706.255827,925.929994 C706.861832,926.259994 707.330836,925.329995 706.698831,925.049995 L704.705815,924.064995 C704.632814,924.026995 704.572814,923.999995 704.489813,923.999995 Z M728,927.499993 C728,927.776993 727.776998,927.999993 727.499996,927.999993 L725.49998,927.999993 C725.222978,927.999993 724.999976,927.776993 724.999976,927.499993 C724.999976,927.222993 725.222978,926.999994 725.49998,926.999994 L727.499996,926.999994 C727.776998,926.999994 728,927.222993 728,927.499993 Z M715.499901,917 C715.776903,917 715.999905,917.223 715.999905,917.5 L715.999905,919.499998 C715.999905,919.776998 715.776903,919.999998 715.499901,919.999998 C715.222899,919.999998 714.999897,919.776998 714.999897,919.499998 L714.999897,917.5 C714.999897,917.223 715.222899,917 715.499901,917 Z M710.40786,921.029997 C710.157858,920.979997 709.870856,920.974997 709.604854,921.129997 C709.339852,921.282997 709.202851,921.539997 709.12885,921.784997 C709.05385,922.028997 709.028849,922.284997 709.025849,922.561996 C709.018849,923.115996 709.09785,923.751996 709.187851,924.395995 C709.277851,925.039995 709.381852,925.688994 709.437853,926.215994 C709.537853,927.169993 709.252851,927.429993 708.687847,927.911993 C708.274843,928.265993 707.701839,928.618993 707.159834,929.003992 C706.61783,929.387992 706.087826,929.777992 705.682823,930.165992 C705.480821,930.359991 705.30882,930.551991 705.179819,930.770991 C705.049818,930.990991 704.949817,931.267991 705.022818,931.570991 C705.095818,931.87499 705.30582,932.07599 705.518821,932.21599 C705.733823,932.35599 705.975825,932.45599 706.244827,932.54399 C706.782831,932.71999 707.434837,932.84399 708.096842,932.95999 C708.758847,933.07399 709.429853,933.17699 709.969857,933.29299 C710.921864,933.497989 711.129866,933.799989 711.429868,934.509989 C711.63687,934.999988 711.822872,935.632988 712.034873,936.249988 C712.246875,936.866987 712.464877,937.471987 712.724879,937.964987 C712.85488,938.210986 712.990881,938.431986 713.164882,938.616986 C713.340884,938.802986 713.576885,938.970986 713.880888,938.996986 C714.18589,939.021986 714.442892,938.894986 714.646894,938.741986 C714.851896,938.588986 715.026897,938.396986 715.196898,938.175986 C715.539901,937.733987 715.863904,937.173987 716.182906,936.601987 C716.500909,936.028988 716.812911,935.446988 717.090913,934.987988 C717.500917,934.157989 718.000921,934.081989 718.750927,934.027989 C719.302931,934.004989 719.980936,934.014989 720.654942,934.011989 C721.327947,934.007989 721.991952,933.991989 722.554957,933.907989 C722.834959,933.865989 723.090961,933.807989 723.324963,933.707989 C723.559965,933.604989 723.799967,933.444989 723.924968,933.15999 C724.049969,932.87499 724.001968,932.58399 723.912968,932.34599 C723.822967,932.10599 723.686966,931.88599 723.522964,931.661991 C723.192962,931.211991 722.742958,930.741991 722.275955,930.271991 C721.810951,929.803992 721.329947,929.338992 720.963944,928.941992 C720.291939,928.244993 720.333939,928.051993 720.583941,927.311993 C720.763943,926.801994 721.029945,926.181994 721.281947,925.561994 C721.535949,924.943995 721.776951,924.329995 721.907952,923.781996 C721.973952,923.509996 722.014952,923.253996 721.999952,922.995996 C721.985952,922.737996 721.901952,922.441996 721.65795,922.237997 C721.414948,922.033997 721.129945,921.997997 720.867943,922.005997 C720.604941,922.012997 720.337939,922.067997 720.047937,922.147997 C719.473932,922.307997 718.821927,922.575996 718.167922,922.857996 C717.513917,923.137996 716.855911,923.479996 716.312907,923.694996 C715.4489,924.060995 714.998897,923.939996 714.302891,923.536996 C713.842888,923.241996 713.299883,922.736996 712.752879,922.356997 C712.205875,921.978997 711.66287,921.554997 711.156866,921.304997 C710.903864,921.178997 710.661862,921.080997 710.41086,921.030997 L710.40786,921.029997 Z M710.710863,922.199997 C711.124866,922.404997 711.64687,922.809996 712.182874,923.179996 C712.717879,923.549996 713.264883,924.059995 713.762887,924.379995 C714.259891,924.696995 714.657894,924.961995 715.152898,925.003995 C715.650902,925.045995 716.099905,924.853995 716.68091,924.623995 C717.260915,924.393995 717.92092,924.053995 718.563925,923.776996 C719.20393,923.500996 719.833935,923.246996 720.316939,923.110996 C720.941944,922.904996 721.000944,923.176996 720.934944,923.550996 C720.829943,923.988996 720.604941,924.577995 720.354939,925.184995 C720.108937,925.790994 719.839935,926.417994 719.641934,926.974994 C719.443932,927.534993 719.261931,927.847993 719.386932,928.364993 C719.503933,928.854992 719.832935,929.189992 720.230938,929.619992 C720.626941,930.049992 721.110945,930.516991 721.564949,930.976991 C722.020953,931.436991 722.449956,931.88999 722.714958,932.25399 C723.130961,932.77999 722.620957,932.87999 722.404956,932.91999 C721.944952,932.98999 721.308947,933.00799 720.648942,933.01199 C719.988936,933.01499 719.305931,933.00499 718.708926,933.02899 C718.113921,933.05199 717.636918,933.05899 717.205914,933.30899 C716.775911,933.558989 716.535909,933.968989 716.235907,934.468989 C715.932904,934.965988 715.620902,935.553988 715.309899,936.113988 C714.996897,936.673987 714.681894,937.206987 714.405892,937.563987 C713.999889,937.998986 713.840888,937.917987 713.610886,937.500987 C713.403884,937.104987 713.188882,936.527987 712.980881,935.924988 C712.773879,935.321988 712.572877,934.687989 712.363876,934.146989 C712.155874,933.606989 711.993873,933.16399 711.61187,932.84299 C711.229867,932.52299 710.761863,932.43599 710.179858,932.31299 C709.596854,932.19099 708.919848,932.08699 708.271843,931.97299 C707.621838,931.85999 707.001833,931.724991 706.56183,931.590991 C705.894824,931.387991 706.189827,931.062991 706.381828,930.885991 C706.711831,930.575991 707.211835,930.195992 707.741839,929.818992 C708.271843,929.442992 708.831848,929.061992 709.301851,928.703992 C709.768855,928.345993 710.151858,928.073993 710.35586,927.611993 C710.557861,927.151993 710.495861,926.686994 710.437861,926.111994 C710.37786,925.537995 710.270859,924.885995 710.181858,924.256995 C710.091858,923.626996 710.021857,923.016996 710.028857,922.574996 C710.001857,922.124997 710.260859,921.998997 710.712863,922.199997 L710.710863,922.199997 Z M708.499845,933.999989 C708.369844,934.003989 708.246843,934.057989 708.156842,934.149989 L698.639767,943.651983 C697.74476,944.544982 697.863761,945.785981 698.534766,946.461981 C699.206771,947.135981 700.447781,947.256981 701.344788,946.358981 L710.834864,936.868987 C711.326868,936.396988 710.584862,935.686988 710.128858,936.160988 L700.638783,945.650982 C700.058778,946.230981 699.568774,946.080981 699.242772,945.754981 C698.917769,945.426982 698.772768,944.928982 699.344772,944.357982 L708.862848,934.854989 C709.187851,934.536989 708.945849,933.997989 708.498845,933.997989 L708.499845,933.999989 Z" id="Shape"></path>
        </g>
    </g>
</svg>