<?xml version="1.0" encoding="UTF-8"?>
<svg width="30px" height="30px" viewBox="0 0 30 30" version="1.1" xmlns="http://www.w3.org/2000/svg" xmlns:xlink="http://www.w3.org/1999/xlink">
    <!-- Generator: Sketch 45.2 (43514) - http://www.bohemiancoding.com/sketch -->
    <title>thefactory/element/icons/icnthefactory/element/icons/icn-11</title>
    <desc>Created with Sketch.</desc>
    <defs></defs>
    <g id="Ressources" stroke="none" stroke-width="1" fill="none" fill-rule="evenodd">
        <g id="thefactory/element/icn/inc-artboard" transform="translate(-624.000000, -847.000000)" fill-rule="nonzero" fill="#000000">
            <path d="M639,847 C630.722,847 624,853.722 624,862 C624,870.278 630.722,877 639,877 C647.278,877 654,870.278 654,862 C654,853.722 647.278,847 639,847 Z M639,848 C646.738,848 653,854.262 653,862 C653,869.738 646.738,876 639,876 C631.262,876 625,869.738 625,862 C625,854.262 631.262,848 639,848 Z M639,852 C636.725,852 635.367,853.158 634.71,854.535 C634.055,855.912 634,857.478 634,858.5 C634,861.417 631.246,863.07 631.246,863.07 C630.966,863.236 630.916,863.622 631.146,863.854 C631.146,863.854 632.278,865 634,865 C635.376,865 636.336,864.382 637,863.775 L637,864.5 C637,864.697 636.936,864.855 636.78,865.03 C636.627,865.207 636.374,865.385 636.045,865.533 C635.388,865.829 634.442,866.001 633.5,866 C631.195,865.998 629,868.02 629,870.5 C629,871.164 630,871.164 630,870.5 C630,868.633 631.805,867 633.5,867 C634.558,867 635.612,866.824 636.455,866.445 C636.875,866.255 637.248,866.013 637.531,865.691 C637.815,865.371 638.001,864.954 638.001,864.501 L638.001,862.501 C638.003,862.001 637.351,861.808 637.081,862.228 C637.081,862.228 635.897,864.001 634.001,864.001 C633.201,864.001 632.664,863.716 632.298,863.466 C633.05,862.943 635,861.445 635,858.5 C635,857.522 635.078,856.088 635.613,854.965 C636.148,853.842 637.04,853 639,853 C640.96,853 641.852,853.842 642.387,854.965 C642.922,856.088 643,857.522 643,858.5 C643,861.445 644.95,862.943 645.703,863.465 C645.337,863.715 644.8,864 644,864 C642.104,864 640.92,862.227 640.92,862.227 C640.65,861.807 639.998,862.001 640,862.5 L640,864.5 C640,864.953 640.186,865.37 640.47,865.69 C640.752,866.013 641.124,866.256 641.545,866.445 C642.388,866.825 643.442,867.001 644.5,867 C646.195,867 648,868.633 648,870.5 C648,871.168 649,871.164 649,870.5 C649,868.02 646.805,865.998 644.5,866 C643.558,866 642.612,865.83 641.955,865.533 C641.625,865.385 641.373,865.207 641.219,865.031 C641.063,864.856 640.999,864.698 640.999,864.501 L640.999,863.776 C641.663,864.383 642.623,865.001 643.999,865.001 C645.721,865.001 646.853,863.855 646.853,863.855 C647.083,863.623 647.033,863.237 646.753,863.071 C646.753,863.071 643.999,861.418 643.999,858.501 C643.999,857.479 643.944,855.913 643.289,854.536 C642.632,853.158 641.274,852 639,852 Z" id="Shape"></path>
        </g>
    </g>
</svg>