<?xml version="1.0" encoding="UTF-8"?>
<svg width="30px" height="24px" viewBox="0 0 30 24" version="1.1" xmlns="http://www.w3.org/2000/svg" xmlns:xlink="http://www.w3.org/1999/xlink">
    <!-- Generator: Sketch 45.2 (43514) - http://www.bohemiancoding.com/sketch -->
    <title>thefactory/element/icons/icnthefactory/element/icons/icn-152</title>
    <desc>Created with Sketch.</desc>
    <defs></defs>
    <g id="Ressources" stroke="none" stroke-width="1" fill="none" fill-rule="evenodd">
        <g id="thefactory/element/icn/inc-artboard" transform="translate(-185.000000, -165.000000)" fill-rule="nonzero" fill="#000000">
            <path d="M187,165 C185.9,165 185,165.9 185,167 L185,169 C185,170.1 185.9,171 187,171 L208,171 C209.1,171 210,170.1 210,169 L210,167 C210,165.9 209.1,165 208,165 L187,165 Z M187,166 L208,166 C208.563,166 209,166.437 209,167 L209,169 C209,169.563 208.563,170 208,170 L187,170 C186.437,170 186,169.563 186,169 L186,167 C186,166.437 186.437,166 187,166 Z M187,183.5 L187,185.5 C187,185.762 187.238,186 187.5,186 L194.313,186 L193.156,187.125 C192.676,187.622 193.436,188.282 193.844,187.845 L195.844,185.845 C196.037,185.658 196.037,185.311 195.844,185.125 L193.844,183.125 C193.447,182.728 192.704,183.393 193.156,183.845 L194.312,185 L188,185 L188,183.5 C188,182.835 187,182.856 187,183.5 Z M201,183 C199.9,183 199,183.9 199,185 L199,187 C199,188.1 199.9,189 201,189 L213,189 C214.1,189 215,188.1 215,187 L215,185 C215,183.9 214.1,183 213,183 L201,183 Z M201,184 L213,184 C213.563,184 214,184.437 214,185 L214,187 C214,187.563 213.563,188 213,188 L201,188 C200.437,188 200,187.563 200,187 L200,185 C200,184.437 200.437,184 201,184 Z M187,174 C185.9,174 185,174.9 185,176 L185,178 C185,179.1 185.9,180 187,180 L208,180 C209.1,180 210,179.1 210,178 L210,176 C210,174.9 209.1,174 208,174 L187,174 Z M187,175 L208,175 C208.563,175 209,175.437 209,176 L209,178 C209,178.563 208.563,179 208,179 L187,179 C186.437,179 186,178.563 186,178 L186,176 C186,175.437 186.437,175 187,175 Z" id="Shape"></path>
        </g>
    </g>
</svg>