<?xml version="1.0" encoding="UTF-8"?>
<svg width="30px" height="26px" viewBox="0 0 30 26" version="1.1" xmlns="http://www.w3.org/2000/svg" xmlns:xlink="http://www.w3.org/1999/xlink">
    <!-- Generator: Sketch 45.2 (43514) - http://www.bohemiancoding.com/sketch -->
    <title>thefactory/element/icons/icnthefactory/element/icons/icn-97</title>
    <desc>Created with Sketch.</desc>
    <defs></defs>
    <g id="Ressources" stroke="none" stroke-width="1" fill="none" fill-rule="evenodd">
        <g id="thefactory/element/icn/inc-artboard" transform="translate(-1001.000000, -394.000000)" fill-rule="nonzero" fill="#000000">
            <path d="M1016.00002,394.000572 C1015.93402,394.004572 1015.84302,394.020572 1015.78302,394.050571 L1001.28018,401.044417 C1000.67719,401.334411 1001.15318,402.214391 1001.71417,401.946397 L1016.00002,395.055549 L1030.28586,401.947397 C1030.86885,402.227391 1031.31185,401.329411 1030.71985,401.045417 L1016.21701,394.050571 C1016.14101,394.013572 1016.08402,393.996572 1016.00002,394.000572 Z M1003.50016,403.000374 C1003.22416,403.004374 1002.99616,403.224369 1003.00016,403.500363 L1003.00016,418.500033 C1003.00016,419.322015 1003.67815,420 1004.50014,420 L1011.50007,420 C1011.77606,420 1012.00006,419.776005 1012.00006,419.500011 L1012.00006,412.003176 C1012.00006,409.780225 1013.77504,408.005264 1016.00002,408.005264 C1018.22499,408.005264 1019.99997,409.780225 1019.99997,412.003176 L1019.99997,419.500011 C1019.99997,419.776005 1020.22397,420 1020.49997,420 L1027.49989,420 C1028.32188,420 1028.99987,419.322015 1028.99987,418.500033 L1028.99987,403.507363 C1028.99987,402.855377 1027.99988,402.831378 1027.99988,403.507363 L1027.99988,418.500033 C1027.99988,418.786027 1027.78589,419.000022 1027.49989,419.000022 L1020.99996,419.000022 L1020.99996,412.003176 C1020.99996,409.243237 1018.75999,407.006286 1016.00002,407.006286 C1013.24005,407.006286 1011.00007,409.243237 1011.00007,412.003176 L1011.00007,419.000022 L1004.50014,419.000022 C1004.21415,419.000022 1004.00015,418.786027 1004.00015,418.500033 L1004.00015,403.500363 C1004.00415,403.218369 1003.78215,402.995374 1003.50016,403.000374 Z" id="Shape"></path>
        </g>
    </g>
</svg>