<?xml version="1.0" encoding="UTF-8"?>
<svg width="30px" height="20px" viewBox="0 0 30 20" version="1.1" xmlns="http://www.w3.org/2000/svg" xmlns:xlink="http://www.w3.org/1999/xlink">
    <!-- Generator: Sketch 45.2 (43514) - http://www.bohemiancoding.com/sketch -->
    <title>thefactory/element/icons/icnthefactory/element/icons/icn-87</title>
    <desc>Created with Sketch.</desc>
    <defs></defs>
    <g id="Ressources" stroke="none" stroke-width="1" fill="none" fill-rule="evenodd">
        <g id="thefactory/element/icn/inc-artboard" transform="translate(-619.000000, -468.000000)" fill-rule="nonzero" fill="#000000">
            <path d="M622.499617,472.999894 L645.500383,472.999894 C646.174406,472.999894 646.158405,471.999873 645.500383,471.999873 L622.499617,471.999873 C621.826594,471.999873 621.845595,472.999894 622.499617,472.999894 Z M623.843661,468.873807 L620.20354,472.517884 L623.843661,476.12996 C624.306677,476.57997 623.608654,477.329986 623.133638,476.839975 L619.139505,472.872891 C618.953498,472.686887 618.953498,472.34788 619.139505,472.162876 L623.133638,468.162792 C623.620654,467.672781 624.313677,468.400797 623.843661,468.872807 L623.843661,468.873807 Z M645.500383,483.000106 L622.499617,483.000106 C621.826594,483.000106 621.842595,484.000127 622.499617,484.000127 L645.500383,484.000127 C646.174406,484.000127 646.155405,483.000106 645.500383,483.000106 Z M644.156339,487.126193 L647.79646,483.482116 L644.156339,479.87004 C643.693323,479.42003 644.391346,478.670014 644.866362,479.160025 L648.860495,483.127109 C649.046502,483.313113 649.046502,483.65212 648.860495,483.837124 L644.866362,487.837208 C644.379346,488.327219 643.686323,487.599203 644.156339,487.127193 L644.156339,487.126193 Z" id="Shape"></path>
        </g>
    </g>
</svg>