<?xml version="1.0" encoding="UTF-8"?>
<svg width="30px" height="30px" viewBox="0 0 30 30" version="1.1" xmlns="http://www.w3.org/2000/svg" xmlns:xlink="http://www.w3.org/1999/xlink">
    <!-- Generator: Sketch 45.2 (43514) - http://www.bohemiancoding.com/sketch -->
    <title>thefactory/element/icons/icnthefactory/element/icons/icn-55</title>
    <desc>Created with Sketch.</desc>
    <defs></defs>
    <g id="Ressources" stroke="none" stroke-width="1" fill="none" fill-rule="evenodd">
        <g id="thefactory/element/icn/inc-artboard" transform="translate(-699.000000, -620.000000)" fill-rule="nonzero" fill="#000000">
            <path d="M714.5,642 C713.677,642 713,642.677 713,643.5 C713,644.323 713.677,645 714.5,645 C715.322,645 716,644.323 716,643.5 C716,642.677 715.322,642 714.5,642 Z M714.5,643 C714.782,643 715,643.218 715,643.5 C715,643.782 714.782,644 714.5,644 C714.218,644 714,643.782 714,643.5 C714,643.218 714.218,643 714.5,643 Z M715,625 C713.014,625 711.196,626.238 710.3,627.532 C709.775,628.29 710.004,629.212 710.57,629.666 C710.852,629.893 711.222,630.026 711.61,629.989 C712,629.952 712.388,629.735 712.67,629.369 C713.355,628.477 714.05,628 715,628 C715.277,628 715.915,628.205 716.322,628.563 C716.749,628.938 717,629.369 717,630 C717,629.937 716.946,630.236 716.673,630.6 C716.397,630.968 715.937,631.44 715.439,631.94 C714.939,632.438 714.392,632.974 713.922,633.6 C713.456,634.222 712.999,635.013 712.999,636 L712.999,639.492 C712.992,639.956 713.179,640.372 713.471,640.632 C713.763,640.895 714.135,641.014 714.499,641.014 C714.863,641.014 715.234,640.894 715.526,640.634 C715.818,640.371 716.006,639.956 715.999,639.492 L715.999,636 C715.999,636 716.052,635.764 716.325,635.4 C716.601,635.032 717.061,634.56 717.559,634.06 C718.057,633.562 718.606,633.026 719.075,632.4 C719.541,631.778 719.999,630.987 719.999,630 C719.999,628.45 719.263,627.155 718.301,626.31 C717.352,625.478 716.182,625 715,625 Z M715,626 C715.91,626 716.858,626.372 717.642,627.06 C718.414,627.74 719,628.768 719,630 C719,630.68 718.687,631.25 718.275,631.8 C717.865,632.344 717.355,632.852 716.853,633.354 C716.351,633.854 715.871,634.338 715.525,634.799 C715.175,635.264 715,635.603 715,635.999 L715,639.507 C715.003,639.719 714.943,639.812 714.86,639.887 C714.775,639.963 714.64,640.013 714.5,640.013 C714.36,640.013 714.225,639.963 714.14,639.888 C714.056,639.811 713.997,639.718 714,639.506 L714,636 C714,635.32 714.313,634.75 714.724,634.2 C715.134,633.656 715.644,633.148 716.146,632.646 C716.648,632.146 717.129,631.662 717.474,631.201 C717.824,630.736 718,630.397 718,630.001 C718,629.079 717.57,628.331 716.982,627.814 C716.372,627.277 715.632,627 715,627 C713.51,627 712.492,627.958 711.876,628.76 C711.736,628.94 711.623,628.984 711.516,628.994 C711.412,629.004 711.296,628.966 711.196,628.886 C710.996,628.726 710.862,628.476 711.122,628.101 C711.99,626.85 713.426,626 715,626 Z M714,620 C705.722,620 699,626.722 699,635 C699,643.278 705.722,650 714,650 C722.278,650 729,643.278 729,635 C729,626.722 722.278,620 714,620 Z M714,621 C721.738,621 728,627.262 728,635 C728,642.738 721.738,649 714,649 C706.262,649 700,642.738 700,635 C700,627.262 706.262,621 714,621 Z" id="Shape"></path>
        </g>
    </g>
</svg>