<?xml version="1.0" encoding="UTF-8"?>
<svg width="20px" height="30px" viewBox="0 0 20 30" version="1.1" xmlns="http://www.w3.org/2000/svg" xmlns:xlink="http://www.w3.org/1999/xlink">
    <!-- Generator: Sketch 45.2 (43514) - http://www.bohemiancoding.com/sketch -->
    <title>thefactory/element/icons/icnthefactory/element/icons/icn-16</title>
    <desc>Created with Sketch.</desc>
    <defs></defs>
    <g id="Ressources" stroke="none" stroke-width="1" fill="none" fill-rule="evenodd">
        <g id="thefactory/element/icn/inc-artboard" transform="translate(-260.000000, -847.000000)" fill-rule="nonzero" fill="#000000">
            <path d="M264.999894,850.500279 L264.999894,873.500471 C264.999894,874.174476 263.999873,874.157476 263.999873,873.500471 L263.999873,850.500279 C263.999873,849.827274 264.999894,849.846274 264.999894,850.500279 Z M260.873807,851.84329 L264.517884,848.20326 L268.12996,851.84329 C268.57997,852.307294 269.329986,851.609288 268.839975,851.133284 L264.872891,847.140251 C264.686887,846.95325 264.34788,846.95325 264.162876,847.140251 L260.162792,851.133284 C259.672781,851.621289 260.400797,852.313294 260.872807,851.84329 L260.873807,851.84329 Z M275.000106,873.500471 L275.000106,850.500279 C275.000106,849.826274 276.000127,849.843274 276.000127,850.500279 L276.000127,873.500471 C276.000127,874.173476 275.000106,874.154476 275.000106,873.500471 Z M279.126193,872.15646 L275.482116,875.79649 L271.87004,872.15646 C271.42003,871.692456 270.670014,872.390462 271.160025,872.866466 L275.127109,876.860499 C275.313113,877.0465 275.65212,877.0465 275.837124,876.860499 L279.837208,872.866466 C280.327219,872.378461 279.599203,871.686456 279.127193,872.15646 L279.126193,872.15646 Z" id="Shape"></path>
        </g>
    </g>
</svg>