<?xml version="1.0" encoding="UTF-8"?>
<svg width="30px" height="26px" viewBox="0 0 30 26" version="1.1" xmlns="http://www.w3.org/2000/svg" xmlns:xlink="http://www.w3.org/1999/xlink">
    <!-- Generator: Sketch 45.2 (43514) - http://www.bohemiancoding.com/sketch -->
    <title>thefactory/element/icons/icnthefactory/element/icons/icn-99</title>
    <desc>Created with Sketch.</desc>
    <defs></defs>
    <g id="Ressources" stroke="none" stroke-width="1" fill="none" fill-rule="evenodd">
        <g id="thefactory/element/icn/inc-artboard" transform="translate(-851.000000, -394.000000)" fill-rule="nonzero" fill="#000000">
            <path d="M858.975,394.010823 C856.74,394.12677 854.61,395.213276 853.155,396.899509 C851.7,398.578745 851,400.793737 851,403.00673 C851,404.943849 851.697,406.820995 852.646,408.464248 C853.596,410.1075 854.836,411.539849 856.146,412.85625 C858.97,415.687962 862.226,418.085871 865.768,419.943026 C865.913,420.018991 866.088,420.018991 866.232,419.943026 C869.775,418.085871 873.03,415.687962 875.854,412.85625 C877.164,411.539849 878.404,410.1075 879.354,408.465247 C880.304,406.821995 881,404.945848 881,403.00673 C881,400.78774 880.3,398.580744 878.846,396.899509 C877.39,395.212276 875.26,394.12577 873.026,394.010823 C871.51,393.932858 869.981,394.296693 868.664,395.05035 C867.567,395.676065 866.689,396.607641 866,397.663161 C865.31,396.607641 864.433,395.676065 863.336,395.04935 C862.02,394.295693 860.49,393.930859 858.976,394.010823 L858.975,394.010823 Z M859.025,395.010368 C860.345,394.942399 861.69,395.260254 862.838,395.915956 C863.986,396.571658 864.945,397.567205 865.558,398.738672 C865.744,399.098508 866.256,399.098508 866.443,398.738672 C867.055,397.567205 868.013,396.571658 869.163,395.915956 C870.31,395.260254 871.653,394.942399 872.975,395.010368 C874.917,395.110322 876.812,396.071885 878.09,397.549213 C879.37,399.031539 880,401.00764 880,403.00673 C880,404.735944 879.372,406.435171 878.488,407.964475 C877.603,409.498777 876.424,410.867155 875.146,412.148572 C872.46,414.844345 869.358,417.12131 866,418.911495 C862.642,417.122309 859.54,414.843346 856.854,412.148572 C855.576,410.867155 854.397,409.499777 853.512,407.965475 C852.628,406.435171 852,404.735944 852,403.00673 C852,401.00764 852.63,399.030539 853.91,397.549213 C855.188,396.072885 857.083,395.110322 859.025,395.010368 Z" id="Shape"></path>
        </g>
    </g>
</svg>