<?xml version="1.0" encoding="UTF-8"?>
<svg width="30px" height="30px" viewBox="0 0 30 30" version="1.1" xmlns="http://www.w3.org/2000/svg" xmlns:xlink="http://www.w3.org/1999/xlink">
    <!-- Generator: Sketch 45.2 (43514) - http://www.bohemiancoding.com/sketch -->
    <title>thefactory/element/icons/icnthefactory/element/icons/icn-138</title>
    <desc>Created with Sketch.</desc>
    <defs></defs>
    <g id="Ressources" stroke="none" stroke-width="1" fill="none" fill-rule="evenodd">
        <g id="thefactory/element/icn/inc-artboard" transform="translate(-773.000000, -990.000000)" fill-rule="nonzero" fill="#000000">
            <path d="M785.5,1005 C785.223858,1005 785,1005.22386 785,1005.5 L785,1010.5 C785,1010.77614 785.223858,1011 785.5,1011 L787.5,1011 C788.323,1011 789.17,1010.827 789.85,1010.35 C790.53,1009.872 791,1009.057 791,1008 C791,1006.943 790.53,1006.128 789.85,1005.65 C789.17,1005.173 788.323,1005 787.5,1005 L785.5,1005 L785.5,1005 Z M786,1006 L787.5,1006 C788.177,1006 788.83,1006.157 789.275,1006.47 C789.72,1006.78 790,1007.214 790,1008 C790,1008.786 789.72,1009.22 789.275,1009.53 C788.831,1009.843 788.177,1010 787.5,1010 L786,1010 L786,1006 Z M783.5,997 C783.224,997 783,997.224 783,997.5 L783,1012.5 C783,1012.776 783.224,1013 783.5,1013 L788,1013 C789.64,1013 790.92,1012.3 791.754,1011.326 C792.588,1010.353 793,1009.126 793,1008 C793,1005.9 791.734,1004.812 791.222,1004.436 C791.365,1004.246 791.318,1004.318 791.442,1004.088 C791.732,1003.548 792,1002.708 792,1001.5 C792,1000.417 791.733,999.297 791.01,998.43 C790.287,997.562 789.11,997 787.5,997 L783.5,997 Z M784,998 L787.5,998 C788.89,998 789.713,998.438 790.24,999.07 C790.767,999.703 791,1000.583 791,1001.5 C791,1002.56 790.77,1003.223 790.56,1003.615 C790.35,1004.007 790.205,1004.095 790.205,1004.095 C789.918,1004.305 789.935,1004.74 790.238,1004.925 C790.238,1004.925 792,1006.025 792,1008 C792,1008.875 791.662,1009.897 790.996,1010.674 C790.33,1011.45 789.36,1012 788,1012 L784,1012 L784,998 Z M785.5,999 C785.223858,999 785,999.223858 785,999.5 L785,1003.5 C785,1003.77614 785.223858,1004 785.5,1004 L787.5,1004 C788.36,1004 789.037,1003.688 789.447,1003.195 C789.857,1002.703 790,1002.083 790,1001.5 C790,1000.917 789.858,1000.297 789.447,999.805 C789.037,999.312 788.36,999 787.5,999 L785.5,999 Z M786,1000 L787.5,1000 C788.14,1000 788.463,1000.188 788.678,1000.445 C788.892,1000.703 789,1001.083 789,1001.5 C789,1001.917 788.892,1002.297 788.678,1002.555 C788.463,1002.812 788.138,1003 787.5,1003 L786,1003 L786,1000 Z M774.5,990 C773.678,990 773,990.678 773,991.5 L773,1018.5 C773,1019.322 773.678,1020 774.5,1020 L801.5,1020 C802.322,1020 803,1019.322 803,1018.5 L803,991.5 C803,990.678 802.322,990 801.5,990 L774.5,990 Z M774.5,991 L801.5,991 C801.786,991 802,991.214 802,991.5 L802,1018.5 C802,1018.786 801.786,1019 801.5,1019 L774.5,1019 C774.214,1019 774,1018.786 774,1018.5 L774,991.5 C774,991.214 774.214,991 774.5,991 Z" id="Shape"></path>
        </g>
    </g>
</svg>