<?xml version="1.0" encoding="UTF-8"?>
<svg width="25px" height="30px" viewBox="0 0 25 30" version="1.1" xmlns="http://www.w3.org/2000/svg" xmlns:xlink="http://www.w3.org/1999/xlink">
    <!-- Generator: Sketch 45.2 (43514) - http://www.bohemiancoding.com/sketch -->
    <title>thefactory/element/icons/icnthefactory/element/icons/icn-70</title>
    <desc>Created with Sketch.</desc>
    <defs></defs>
    <g id="Ressources" stroke="none" stroke-width="1" fill="none" fill-rule="evenodd">
        <g id="thefactory/element/icn/inc-artboard" transform="translate(-661.000000, -545.000000)" fill-rule="nonzero" fill="#000000">
            <path d="M684.342,545 C684.188,545 684.03,545.021966 683.872,545.064898 C680.124,546.067328 677.088,547.065764 673.372,548.060206 C672.558,548.276866 671.962,548.604353 671.566,549.042666 C671.17,549.481978 671,550.021134 671,550.538323 C671,556.18947 671.033,566.681033 671.037,567.961028 C670.037,566.772889 668.357,566.014078 666.5,566.014078 C663.522,566.014078 661,567.964023 661,570.507039 C661,573.050055 663.522,575 666.5,575 C669.478,575 672,573.050055 672,570.507039 L672,550.538323 C672,550.221819 672.08,549.965221 672.31,549.713615 C672.537,549.461011 672.942,549.20641 673.63,549.022698 C677.376,548.020268 680.412,547.021832 684.13,546.02739 C684.493,545.930542 684.616,545.997437 684.75,546.150198 C684.884,546.302959 685,546.62745 685,547.043798 L685,563.931341 C683.995,562.766166 682.337,562.020335 680.5,562.020335 C677.522,562.020335 675,563.97028 675,566.513296 C675,569.056312 677.522,571.006257 680.5,571.006257 C683.478,571.006257 686,569.056312 686,566.513296 L686,547.043798 C686,546.46171 685.866,545.903584 685.5,545.489234 C685.226,545.179718 684.804,545 684.342,545 Z M683.488,551.035544 C683.443,551.037541 683.398,551.045529 683.355,551.058508 L673.355,554.053816 C672.695,554.235531 673.075,555.20002 673.645,555.012314 L683.645,552.017007 C684.205,551.85526 684.072,551.036543 683.488,551.036543 L683.488,551.035544 Z M680.5,563.018771 C683.045,563.018771 685,564.646221 685,566.513296 C685,568.380371 683.045,570.007821 680.5,570.007821 C677.955,570.007821 676,568.380371 676,566.513296 C676,564.646221 677.955,563.018771 680.5,563.018771 Z M666.5,567.012514 C669.045,567.012514 671,568.639964 671,570.507039 C671,572.374114 669.045,574.001564 666.5,574.001564 C663.955,574.001564 662,572.374114 662,570.507039 C662,568.639964 663.955,567.012514 666.5,567.012514 Z" id="Shape"></path>
        </g>
    </g>
</svg>