<?xml version="1.0" encoding="UTF-8"?>
<svg width="30px" height="30px" viewBox="0 0 30 30" version="1.1" xmlns="http://www.w3.org/2000/svg" xmlns:xlink="http://www.w3.org/1999/xlink">
    <!-- Generator: Sketch 45.2 (43514) - http://www.bohemiancoding.com/sketch -->
    <title>thefactory/element/icons/icnthefactory/element/icons/icn-25</title>
    <desc>Created with Sketch.</desc>
    <defs></defs>
    <g id="Ressources" stroke="none" stroke-width="1" fill="none" fill-rule="evenodd">
        <g id="thefactory/element/icn/inc-artboard" transform="translate(-698.000000, -772.000000)" fill-rule="nonzero" fill="#000000">
            <path d="M705.5,782.000023 C705.224,782.000023 705,782.224023 705,782.500023 L705,788.500016 C705,789.160015 706,789.168015 706,788.500016 L706,786.000018 L707.5,786.000018 C708.165,786.000018 708.15,785.00002 707.5,785.00002 L706,785.00002 L706,783.000022 L708.5,783.000022 C709.16,783.010022 709.16,782.000023 708.5,782.000023 L705.5,782.000023 Z M718.5,782.000023 C718.224,782.000023 718,782.224023 718,782.500023 L718,788.500016 C718,789.172015 719,789.153015 719,788.500016 L719,786.000018 L719.5,786.000018 C720.332,786.000018 720.968,785.794019 721.396,785.410019 C721.826,785.02702 722,784.49002 722,784.000021 C722,783.510021 721.825,782.973022 721.396,782.590022 C720.968,782.206023 720.332,782.000023 719.5,782.000023 L718.5,782.000023 Z M719,783.000022 L719.5,783.000022 C720.168,783.000022 720.532,783.160022 720.73,783.336022 C720.925,783.511021 721,783.726021 721,784.000021 C721,784.27302 720.925,784.49002 720.73,784.66402 C720.532,784.84002 720.168,785.00002 719.5,785.00002 L719,785.00002 L719,783.000022 Z M711.5,782.000023 C710.84,782.000023 710.84,783.000022 711.5,783.000022 L713,783.000022 L713,788.500016 C713,789.170015 714,789.165015 714,788.500016 L714,783.000022 L715.5,783.000022 C716.16,783.010022 716.162,782.000023 715.5,782.000023 L711.5,782.000023 Z M713.5,791.000013 C713.37,791.002013 713.24,791.055013 713.147,791.146013 L709.153,795.141008 C708.689,795.587007 709.413,796.311007 709.859,795.848007 L713.499,792.206011 L717.139,795.848007 C717.593,796.320007 718.314,795.591007 717.846,795.142008 L713.852,791.148013 C713.756,791.053013 713.634,791.000013 713.499,791.002013 L713.5,791.000013 Z M713.5,794.000009 C713.777,794.000009 714,794.223009 714,794.500009 L714,801.500001 C714,801.777 713.777,802 713.5,802 C713.223,802 713,801.777 713,801.500001 L713,794.500009 C713,794.223009 713.223,794.000009 713.5,794.000009 Z M699.5,772.000035 C698.678,772.000035 698,772.678034 698,773.500033 L698,796.500006 C698,797.322005 698.678,798.000005 699.5,798.000005 L706.5,798.000005 C707.167,798.000005 707.16,797.000006 706.5,797.000006 L699.5,797.000006 C699.214,797.000006 699,796.786006 699,796.500006 L699,773.500033 C699,773.214033 699.214,773.000033 699.5,773.000033 L706.5,773.000033 C707,773.000033 707.147,773.007033 707.277,773.072033 C707.407,773.138033 707.647,773.354033 708.147,773.854033 L711.147,776.854029 C711.663,777.370028 712.012,777.664028 712.395,777.834028 C712.777,778.004028 713.128,778.000028 713.5,778.000028 L726.5,778.000028 C726.786,778.000028 727,778.214027 727,778.500027 L727,796.500006 C727,796.786006 726.786,797.000006 726.5,797.000006 L720.5,797.000006 C719.854,797.000006 719.828,798.000005 720.5,798.000005 L726.5,798.000005 C727.322,798.000005 728,797.322005 728,796.500006 L728,778.500027 C728,777.678028 727.322,777.000029 726.5,777.000029 L713.5,777.000029 C713.127,777.000029 712.98,776.998029 712.8,776.918029 C712.618,776.838029 712.34,776.633029 711.854,776.14603 L708.854,773.146033 C708.354,772.646034 708.092,772.362034 707.724,772.178034 C707.353,771.993035 707,772.000035 706.5,772.000035 L699.5,772.000035 Z" id="Shape"></path>
        </g>
    </g>
</svg>