<?xml version="1.0" encoding="UTF-8"?>
<svg width="30px" height="30px" viewBox="0 0 30 30" version="1.1" xmlns="http://www.w3.org/2000/svg" xmlns:xlink="http://www.w3.org/1999/xlink">
    <!-- Generator: Sketch 45.2 (43514) - http://www.bohemiancoding.com/sketch -->
    <title>thefactory/element/icons/icnthefactory/element/icons/icn-35</title>
    <desc>Created with Sketch.</desc>
    <defs></defs>
    <g id="Ressources" stroke="none" stroke-width="1" fill="none" fill-rule="evenodd">
        <g id="thefactory/element/icn/inc-artboard" transform="translate(-625.000000, -917.000000)" fill-rule="nonzero" fill="#000000">
            <path d="M644.5,927 C644.777,927 645,927.223 645,927.5 L645,930.5 C645,930.777 644.777,931 644.5,931 C644.223,931 644,930.777 644,930.5 L644,927.5 C644,927.223 644.223,927 644.5,927 Z M635.5,927 C635.777,927 636,927.223 636,927.5 L636,930.5 C636,930.777 635.777,931 635.5,931 C635.223,931 635,930.777 635,930.5 L635,927.5 C635,927.223 635.223,927 635.5,927 Z M634.5,937 C633.993,937 633.847,937.614 634.185,937.888 C635.803,939.243 637.89,940 640,940 C642.11,940 644.203,939.242 645.82,937.888 C646.304,937.484 645.67,936.708 645.18,937.121 C643.746,938.321 641.873,939.001 640.004,939.001 C638.134,939.001 636.26,938.321 634.828,937.121 C634.738,937.045 634.618,937.001 634.5,937.001 L634.5,937 Z M640,917 C631.722,917 625,923.722 625,932 C625,940.278 631.722,947 640,947 C648.278,947 655,940.278 655,932 C655,923.722 648.278,917 640,917 Z M640,918 C647.738,918 654,924.262 654,932 C654,939.738 647.738,946 640,946 C632.262,946 626,939.738 626,932 C626,924.262 632.262,918 640,918 Z" id="Shape"></path>
        </g>
    </g>
</svg>