<?xml version="1.0" encoding="UTF-8"?>
<svg width="29px" height="30px" viewBox="0 0 29 30" version="1.1" xmlns="http://www.w3.org/2000/svg" xmlns:xlink="http://www.w3.org/1999/xlink">
    <!-- Generator: Sketch 45.2 (43514) - http://www.bohemiancoding.com/sketch -->
    <title>thefactory/element/icons/icnthefactory/element/icons/icn-115</title>
    <desc>Created with Sketch.</desc>
    <defs></defs>
    <g id="Ressources" stroke="none" stroke-width="1" fill="none" fill-rule="evenodd">
        <g id="thefactory/element/icn/inc-artboard" transform="translate(-710.000000, -317.000000)" fill-rule="nonzero" fill="#000000">
            <path d="M724.501853,317.000053 C724.225811,317.004053 723.997777,317.224051 724.001777,317.500048 L724.001777,343.499785 C724.001777,344.159779 725.001929,344.163779 725.001929,343.499785 L725.001929,317.500048 C725.00593,317.218051 724.783896,316.996053 724.501853,317.000053 Z M710.499726,331.999902 C710.049657,331.999902 709.836625,332.553896 710.145672,332.853893 L724.1478,346.853751 C724.343829,347.04875 724.659877,347.04875 724.855907,346.853751 L738.858035,332.853893 C739.300102,332.427897 738.609997,331.686905 738.149927,332.1459 L724.501853,345.792762 L710.85378,332.1459 C710.759765,332.049901 710.633746,331.999902 710.499726,331.999902 Z" id="Shape"></path>
        </g>
    </g>
</svg>