<?xml version="1.0" encoding="UTF-8"?>
<svg width="30px" height="30px" viewBox="0 0 30 30" version="1.1" xmlns="http://www.w3.org/2000/svg" xmlns:xlink="http://www.w3.org/1999/xlink">
    <!-- Generator: Sketch 45.2 (43514) - http://www.bohemiancoding.com/sketch -->
    <title>thefactory/element/icons/icnthefactory/element/icons/icn-126</title>
    <desc>Created with Sketch.</desc>
    <defs></defs>
    <g id="Ressources" stroke="none" stroke-width="1" fill="none" fill-rule="evenodd">
        <g id="thefactory/element/icn/inc-artboard" transform="translate(-1009.000000, -241.000000)" fill-rule="nonzero" fill="#000000">
            <path d="M1038.47146,241.000001 C1038.34151,241.003999 1038.21957,241.056979 1038.12861,241.149942 L1026.15713,253.125236 C1025.66735,253.595051 1026.39202,254.321766 1026.8628,253.831958 L1038.83329,241.856664 C1039.15814,241.538789 1038.93324,241.000001 1038.47046,241.000001 L1038.47146,241.000001 Z M1021.48328,257.993323 C1021.35334,257.997321 1021.2334,258.0513 1021.14344,258.143264 L1009.16296,270.128554 C1008.67718,270.595371 1009.39585,271.314088 1009.86263,270.828279 L1021.84311,258.842989 C1022.16797,258.530112 1021.93607,257.993323 1021.48328,257.993323 Z M1009.5008,241.000001 C1009.2968,240.999587 1009.11303,241.123209 1009.03651,241.312325 C1008.95999,241.501441 1009.00608,241.718085 1009.15296,241.859663 L1038.12761,270.833277 C1038.25106,270.971383 1038.44076,271.029882 1038.62054,270.985284 C1038.80032,270.940685 1038.94069,270.800305 1038.98528,270.620513 C1039.02988,270.440722 1038.97138,270.251009 1038.83329,270.127554 L1009.86063,241.151941 C1009.76627,241.054576 1009.63639,240.999736 1009.5008,241.000001 Z" id="Shape"></path>
        </g>
    </g>
</svg>