<?xml version="1.0" encoding="UTF-8"?>
<svg width="19px" height="30px" viewBox="0 0 19 30" version="1.1" xmlns="http://www.w3.org/2000/svg" xmlns:xlink="http://www.w3.org/1999/xlink">
    <!-- Generator: Sketch 45.2 (43514) - http://www.bohemiancoding.com/sketch -->
    <title>thefactory/element/icons/icnthefactory/element/icons/icn-140</title>
    <desc>Created with Sketch.</desc>
    <defs></defs>
    <g id="Ressources" stroke="none" stroke-width="1" fill="none" fill-rule="evenodd">
        <g id="thefactory/element/icn/inc-artboard" transform="translate(-1040.000000, -165.000000)" fill-rule="nonzero" fill="#000000">
            <path d="M1040,165.5 L1040,194.5 C1040,194.762 1040.238,195 1040.5,195 L1050,195 C1054.977,195 1059,190.977 1059,186 C1059,182.977 1057.5,180.32 1055.22,178.687 C1056.738,177.237 1057.78,175.273 1057.78,173 C1057.78,168.575 1054.185,165 1049.75,165 L1040.5,165 C1040.174,165 1040,165.228 1040,165.5 Z M1049.75,166 C1053.65,166 1056.78,169.115 1056.78,173 C1056.78,175.183 1055.78,177.122 1054.22,178.406 C1053.97,178.6 1053.986,179.044 1054.25,179.219 C1056.495,180.63 1058,183.132 1058,186 C1058,190.44 1054.44,194.003 1050,194 L1041,194 L1041,166 L1049.75,166 Z M1044,180.5 L1044,190.5 C1044,190.762 1044.238,191 1044.5,191 L1049.53,191 C1052.55,191 1055,188.536 1055,185.5 C1055,182.464 1052.55,180 1049.53,180 L1044.5,180 C1044.197,180 1044,180.238 1044,180.5 Z M1045,181 L1049.53,181 C1052.01,181 1054,182.996 1054,185.5 C1054,188.004 1052.008,190 1049.53,190 L1045,190 L1045,181 Z M1044,169.5 L1044,176.5 C1044,176.762 1044.238,177 1044.5,177 L1050,177 C1052.207,177 1054,175.207 1054,173 C1054,170.793 1052.207,169 1050,169 L1044.5,169 C1044.184,169 1044,169.235 1044,169.5 Z M1045,170 L1050,170 C1051.67,170 1053,171.33 1053,173 C1053,174.67 1051.67,176 1050,176 L1045,176 L1045,170 Z" id="Shape"></path>
        </g>
    </g>
</svg>