<?xml version="1.0" encoding="UTF-8"?>
<svg width="21px" height="30px" viewBox="0 0 21 30" version="1.1" xmlns="http://www.w3.org/2000/svg" xmlns:xlink="http://www.w3.org/1999/xlink">
    <!-- Generator: Sketch 45.2 (43514) - http://www.bohemiancoding.com/sketch -->
    <title>thefactory/element/icons/icnthefactory/element/icons/icn-82</title>
    <desc>Created with Sketch.</desc>
    <defs></defs>
    <g id="Ressources" stroke="none" stroke-width="1" fill="none" fill-rule="evenodd">
        <g id="thefactory/element/icn/inc-artboard" transform="translate(-995.000000, -468.000000)" fill-rule="nonzero" fill="#000000">
            <path d="M1005.5,468 C1001.364,468 998,471.364 998,475.5 L998,478.5 C998,479.157 999,479.168 999,478.5 L999,475.5 C999,471.904 1001.904,469 1005.5,469 C1009.096,469 1012,471.904 1012,475.5 L1012,478.5 C1012,479.176 1013,479.144 1013,478.5 L1013,475.5 C1013,471.364 1009.636,468 1005.5,468 Z M1005.5,485 C1004.125,485 1003,486.125 1003,487.5 C1003,488.27 1003.406,488.945 1004,489.414 L1004,491.5 C1004,492.322 1004.678,493 1005.5,493 C1006.322,493 1007,492.322 1007,491.5 L1007,489.412 C1007.594,488.942 1008,488.269 1008,487.5 C1008,486.125 1006.875,485 1005.5,485 Z M1005.5,486 C1006.334,486 1007,486.666 1007,487.5 C1007,488.036 1006.714,488.527 1006.25,488.795 C1006.095,488.885 1006,489.05 1006,489.229 L1006,491.499 C1006,491.785 1005.786,491.999 1005.5,491.999 C1005.214,491.999 1005,491.785 1005,491.499 L1005,489.229 C1005,489.051 1004.905,488.885 1004.75,488.796 C1004.286,488.528 1004,488.036 1004,487.499 C1004,486.665 1004.666,485.999 1005.5,485.999 L1005.5,486 Z M996.5,480 C995.678,480 995,480.678 995,481.5 L995,496.5 C995,497.322 995.678,498 996.5,498 L1014.5,498 C1015.322,498 1016,497.322 1016,496.5 L1016,481.5 C1016,480.678 1015.322,480 1014.5,480 L996.5,480 Z M996.5,481 L1014.5,481 C1014.786,481 1015,481.214 1015,481.5 L1015,496.5 C1015,496.786 1014.786,497 1014.5,497 L996.5,497 C996.214,497 996,496.786 996,496.5 L996,481.5 C996,481.214 996.214,481 996.5,481 Z" id="Shape"></path>
        </g>
    </g>
</svg>