<?xml version="1.0" encoding="UTF-8"?>
<svg width="26px" height="30px" viewBox="0 0 26 30" version="1.1" xmlns="http://www.w3.org/2000/svg" xmlns:xlink="http://www.w3.org/1999/xlink">
    <!-- Generator: Sketch 45.2 (43514) - http://www.bohemiancoding.com/sketch -->
    <title>thefactory/element/icons/icnthefactory/element/icons/icn-106</title>
    <desc>Created with Sketch.</desc>
    <defs></defs>
    <g id="Ressources" stroke="none" stroke-width="1" fill="none" fill-rule="evenodd">
        <g id="thefactory/element/icn/inc-artboard" transform="translate(-329.000000, -393.000000)" fill-rule="nonzero" fill="#000000">
            <path d="M333.499419,394 C332.862501,394 332.817507,395 333.499419,395 L353.208873,395 C354.333728,395.002 354.002771,395.37 353.818795,395.69 L353.808796,395.703 L350.095275,400.703 C349.965292,400.88 349.965292,401.12 350.095275,401.297 L353.791798,406.297 L353.789798,406.297 C354.156751,406.831 353.959776,407 353.191875,407 L333.499419,407 C332.845503,407 332.849503,408 333.499419,408 L353.191875,408 C353.85179,408 354.438714,407.87 354.787669,407.398 C354.963647,407.163 355.032638,406.845 354.985644,406.551 C354.93965,406.258 354.800668,405.981 354.595694,405.704 L351.117143,401 L354.600694,396.31 C354.968646,395.845 355.138624,395.235 354.852661,394.73 C354.566698,394.222 353.958776,394 353.208873,394 L333.499419,394 Z M330.499806,393 C329.677912,393 329,393.678 329,394.5 L329,421.5 C329,422.322 329.677912,423 330.499806,423 C331.3217,423 331.999613,422.322 331.999613,421.5 L331.999613,394.5 C331.999613,393.678 331.3217,393 330.499806,393 Z M330.499806,394 C330.785769,394 330.999742,394.214 330.999742,394.5 L330.999742,421.5 C330.999742,421.786 330.785769,422 330.499806,422 C330.213843,422 329.999871,421.786 329.999871,421.5 L329.999871,394.5 C329.999871,394.214 330.213843,394 330.499806,394 Z" id="Shape"></path>
        </g>
    </g>
</svg>