<?xml version="1.0" encoding="UTF-8"?>
<svg width="30px" height="28px" viewBox="0 0 30 28" version="1.1" xmlns="http://www.w3.org/2000/svg" xmlns:xlink="http://www.w3.org/1999/xlink">
    <!-- Generator: Sketch 45.2 (43514) - http://www.bohemiancoding.com/sketch -->
    <title>thefactory/element/icons/icnthefactory/element/icons/icn-33</title>
    <desc>Created with Sketch.</desc>
    <defs></defs>
    <g id="Ressources" stroke="none" stroke-width="1" fill="none" fill-rule="evenodd">
        <g id="thefactory/element/icn/inc-artboard" transform="translate(-325.000000, -918.000000)" fill-rule="nonzero" fill="#000000">
            <path d="M340.0002,918 C339.620221,918 339.308237,918.183999 339.037252,918.415998 C338.767266,918.647997 338.519279,918.949996 338.271293,919.298994 C337.778319,919.995991 337.291345,920.894987 336.81537,921.816983 C336.340396,922.739978 335.87542,923.684974 335.458443,924.441971 C335.040465,925.199967 334.608488,925.779964 334.460496,925.885964 C334.310504,925.990963 333.607541,926.213962 332.738588,926.367962 C331.870634,926.520961 330.808691,926.65996 329.762746,926.81596 C328.716802,926.972959 327.690857,927.145958 326.859901,927.388957 C326.443924,927.510957 326.076943,927.646956 325.76796,927.826955 C325.457976,928.006954 325.177991,928.239953 325.057997,928.602952 C324.936004,928.96495 325.022999,929.319948 325.165992,929.644947 C325.308984,929.970945 325.525972,930.292944 325.788958,930.629942 C326.31493,931.304939 327.038892,932.036936 327.791852,932.763932 C328.543811,933.489929 329.32177,934.209926 329.931737,934.831923 C330.539705,935.45392 330.973682,936.041917 331.027679,936.201917 C331.080676,936.364916 331.082676,937.084913 330.964682,937.936909 C330.846689,938.789905 330.650699,939.8169 330.479708,940.836896 C330.309717,941.856891 330.162725,942.864886 330.142726,943.714882 C330.132727,944.13988 330.152726,944.524879 330.232721,944.870877 C330.312717,945.217876 330.456709,945.553874 330.767693,945.773873 C331.077676,945.993872 331.437657,946.020872 331.797638,945.988872 C332.153619,945.956872 332.531599,945.858873 332.940577,945.718873 C333.760533,945.436875 334.694483,944.988877 335.634433,944.514879 C336.574383,944.041881 337.517333,943.544883 338.31129,943.170885 C339.106248,942.796887 339.808211,942.570888 339.997201,942.570888 C340.18719,942.570888 340.887153,942.796887 341.683111,943.170885 C342.477068,943.544883 343.420018,944.040881 344.359968,944.514879 C345.299918,944.987877 346.234868,945.436875 347.053824,945.717873 C347.463802,945.857873 347.840782,945.957872 348.197763,945.987872 C348.557744,946.020872 348.917725,945.993872 349.227708,945.773873 C349.537692,945.553874 349.682684,945.217876 349.76368,944.871877 C349.843675,944.526879 349.863674,944.14188 349.853675,943.716882 C349.833676,942.866886 349.685684,941.858891 349.515693,940.839896 C349.345702,939.8199 349.148712,938.791905 349.030719,937.939909 C348.912725,937.086913 348.914725,936.366916 348.968722,936.204917 C349.023719,936.042917 349.458696,935.45492 350.066663,934.834923 C350.676631,934.211926 351.453589,933.491929 352.206549,932.764932 C352.956509,932.038936 353.682471,931.306939 354.209442,930.632942 C354.474428,930.296944 354.689417,929.974945 354.833409,929.648947 C354.976402,929.323948 355.063397,928.96895 354.943403,928.606951 C354.82341,928.243953 354.541425,928.010954 354.231441,927.830955 C353.921458,927.650956 353.555477,927.514956 353.141499,927.393957 C352.309544,927.151958 351.283599,926.978959 350.237654,926.82196 C349.19271,926.66596 348.129767,926.526961 347.261813,926.371962 C346.391859,926.218962 345.689897,925.995963 345.541905,925.891964 C345.391913,925.784964 344.961936,925.204967 344.541958,924.446971 C344.12498,923.689974 343.662005,922.744978 343.18603,921.821983 C342.710056,920.899987 342.223082,920.001991 341.729108,919.301994 C341.479121,918.953996 341.233135,918.651997 340.962149,918.419998 C340.693163,918.183999 340.38018,918 340.0002,918 Z M340.313184,919.175995 C340.483175,919.321994 340.693163,919.565993 340.913152,919.875991 C341.349128,920.492989 341.827103,921.365985 342.297078,922.27598 C342.767053,923.185976 343.230028,924.133972 343.667005,924.925968 C344.101982,925.715965 344.452963,926.342962 344.960936,926.70296 C345.470909,927.062959 346.183871,927.192958 347.088822,927.352957 C347.993774,927.512956 349.058717,927.652956 350.090662,927.806955 C351.122607,927.960954 352.122554,928.136954 352.860514,928.351953 C353.230495,928.458952 353.534478,928.578952 353.730468,928.691951 C354.040451,928.82995 354.000454,929.075949 353.918458,929.243949 C353.828463,929.446948 353.658472,929.716946 353.424484,930.015945 C352.957509,930.612942 352.254547,931.327939 351.512586,932.045936 C350.770626,932.761932 349.989668,933.483929 349.354701,934.132926 C348.718735,934.782923 348.218762,935.294921 348.021772,935.886918 C347.825783,936.478915 347.921778,937.184912 348.044771,938.076908 C348.168765,938.966904 348.364754,939.998899 348.532745,941.003895 C348.702736,942.00889 348.839729,942.990886 348.857728,943.739882 C348.867727,944.114881 348.845729,944.431879 348.795731,944.645878 C348.712736,944.999877 348.502747,944.999877 348.293758,944.991877 C348.06577,944.971877 347.748787,944.895877 347.383807,944.771878 C346.656845,944.521879 345.743894,944.087881 344.816943,943.621883 C343.888993,943.153885 342.944043,942.651887 342.115088,942.263889 C341.288132,941.873891 340.628167,941.569892 340.0052,941.569892 C339.382233,941.569892 338.722269,941.873891 337.895313,942.263889 C337.065357,942.653887 336.120407,943.153885 335.192457,943.620883 C334.265506,944.088881 333.352555,944.522879 332.624594,944.770878 C332.259613,944.896877 331.94263,944.972877 331.714642,944.992877 C331.399659,945.000877 331.281665,944.882877 331.211669,944.646878 C331.161672,944.432879 331.139673,944.116881 331.149672,943.740882 C331.167672,942.990886 331.305664,942.01089 331.473655,941.004895 C331.640646,939.999899 331.836636,938.967904 331.960629,938.076908 C332.084623,937.186912 332.180617,936.479915 331.982628,935.886918 C331.784639,935.296921 331.284665,934.782923 330.648699,934.133926 C330.013733,933.483929 329.232775,932.763932 328.490814,932.045936 C327.750854,931.328939 327.045891,930.613942 326.578916,930.015945 C326.345929,929.717946 326.173938,929.447948 326.084943,929.245949 C325.957949,929.00095 326.101942,928.792951 326.272933,928.693951 C326.468922,928.579952 326.772906,928.459952 327.142886,928.353953 C327.880847,928.136954 328.880794,927.961954 329.912738,927.807955 C330.944683,927.652956 332.009627,927.514956 332.914578,927.354957 C333.81953,927.194958 334.534492,927.064959 335.041465,926.70496 C335.548438,926.344962 335.899419,925.717965 336.335396,924.926968 C336.771373,924.134972 337.235348,923.186976 337.705323,922.27698 C338.175298,921.366985 338.652272,920.493989 339.089249,919.876991 C339.309237,919.566993 339.517226,919.322994 339.689217,919.176995 C340.0012,918.916996 340.141193,919.000995 340.313184,919.176995 L340.313184,919.175995 Z" id="Shape"></path>
        </g>
    </g>
</svg>