<?xml version="1.0" encoding="UTF-8"?>
<svg width="30px" height="30px" viewBox="0 0 30 30" version="1.1" xmlns="http://www.w3.org/2000/svg" xmlns:xlink="http://www.w3.org/1999/xlink">
    <!-- Generator: Sketch 45.2 (43514) - http://www.bohemiancoding.com/sketch -->
    <title>thefactory/element/icons/icnthefactory/element/icons/icn-65</title>
    <desc>Created with Sketch.</desc>
    <defs></defs>
    <g id="Ressources" stroke="none" stroke-width="1" fill="none" fill-rule="evenodd">
        <g id="thefactory/element/icn/inc-artboard" transform="translate(-1020.000000, -544.000000)" fill-rule="nonzero" fill="#000000">
            <path d="M1049.49928,544 C1049.36128,544 1049.24329,544.05 1049.14529,544.145999 L1032.14575,561.145843 C1031.92575,561.365841 1031.78076,561.382841 1031.54576,561.353841 C1031.31277,561.323842 1031.01378,561.191843 1030.71579,561.048844 L1021.39104,556.548885 C1021.11704,556.414886 1021.00305,556.218888 1021.00105,555.99889 C1020.99905,555.778892 1021.07604,555.568894 1021.34704,555.468895 L1044.67241,546.968973 C1045.32939,546.728975 1044.8544,545.835983 1044.32842,546.028981 L1021.00305,554.528904 C1020.35506,554.763902 1019.99407,555.409896 1020.00007,555.99989 C1020.00607,556.589885 1020.34606,557.15588 1020.95705,557.449877 L1030.2828,561.949836 C1030.58579,562.096835 1030.96678,562.287833 1031.42277,562.345832 C1031.87675,562.403832 1032.43074,562.275833 1032.85273,561.853837 L1048.21131,546.495977 L1038.24758,572.895736 C1038.16758,573.095734 1037.7646,573.073734 1037.6636,572.851736 L1032.94972,563.279824 C1032.64973,562.669829 1031.79776,563.205824 1032.04975,563.71982 L1036.76562,573.292732 C1037.01362,573.796728 1037.5356,574.008726 1037.99959,573.999726 C1038.46458,573.989726 1038.98556,573.765728 1039.18156,573.247733 L1049.96927,544.675994 C1050.08926,544.355997 1049.84227,544.003 1049.49928,544 Z" id="Shape"></path>
        </g>
    </g>
</svg>