<?xml version="1.0" encoding="UTF-8"?>
<svg width="29px" height="29px" viewBox="0 0 29 29" version="1.1" xmlns="http://www.w3.org/2000/svg" xmlns:xlink="http://www.w3.org/1999/xlink">
    <!-- Generator: Sketch 45.2 (43514) - http://www.bohemiancoding.com/sketch -->
    <title>thefactory/element/icons/icnthefactory/element/icons/icn-102</title>
    <desc>Created with Sketch.</desc>
    <defs></defs>
    <g id="Ressources" stroke="none" stroke-width="1" fill="none" fill-rule="evenodd">
        <g id="thefactory/element/icn/inc-artboard" transform="translate(-626.000000, -393.000000)" fill-rule="nonzero" fill="#000000">
            <path d="M640.5,393 C632.498,393 626,399.498 626,407.5 C626,415.502 632.498,422 640.5,422 C648.502,422 655,415.502 655,407.5 C655,399.498 648.502,393 640.5,393 Z M640.5,394 C642.712,394 644.755,395.364 646.307,397.678 C642.637,399.428 638.364,399.428 634.693,397.676 C636.243,395.363 638.29,394 640.5,394 Z M635.865,394.832 C635.1,395.482 634.408,396.288 633.8,397.21 C633.422,396.992 633.053,396.753 632.69,396.496 C633.662,395.806 634.728,395.248 635.865,394.832 L635.865,394.832 Z M645.135,394.832 C646.273,395.248 647.339,395.808 648.311,396.498 C647.951,396.755 647.579,396.992 647.201,397.208 C646.593,396.288 645.901,395.482 645.136,394.832 L645.135,394.832 Z M631.855,397.13 C632.318,397.472 632.795,397.783 633.285,398.064 C631.855,400.612 631,403.9 631,407.5 C631,411.1 631.856,414.387 633.285,416.934 C632.795,417.214 632.315,417.524 631.855,417.869 C628.886,415.393 627,411.67 627,407.5 C627,403.33 628.888,399.604 631.855,397.13 Z M649.145,397.13 C652.112,399.603 654,403.33 654,407.5 C654,411.67 652.112,415.396 649.145,417.87 C648.682,417.528 648.205,417.217 647.715,416.936 C649.145,414.388 650,411.1 650,407.5 C650,403.9 649.144,400.613 647.715,398.066 C648.205,397.786 648.682,397.473 649.145,397.129 L649.145,397.13 Z M634.172,398.532 C638.164,400.472 642.838,400.472 646.83,398.532 C648.167,400.91 649,404.047 649,407.5 C649,410.953 648.166,414.09 646.828,416.467 C644.838,415.5 642.678,415.004 640.514,415.002 C638.34,415 636.17,415.496 634.17,416.467 C632.833,414.09 632,410.953 632,407.5 C632,404.047 632.834,400.91 634.172,398.533 L634.172,398.532 Z M628.5,407 C628.223,407 628,407.223 628,407.5 C628,407.777 628.223,408 628.5,408 L629.5,408 C629.777,408 630,407.777 630,407.5 C630,407.223 629.777,407 629.5,407 L628.5,407 Z M633.5,407 C633.223,407 633,407.223 633,407.5 C633,407.777 633.223,408 633.5,408 L647.5,408 C647.777,408 648,407.777 648,407.5 C648,407.223 647.777,407 647.5,407 L633.5,407 Z M651.5,407 C651.223,407 651,407.223 651,407.5 C651,407.777 651.223,408 651.5,408 L652.5,408 C652.777,408 653,407.777 653,407.5 C653,407.223 652.777,407 652.5,407 L651.5,407 Z M640.512,416 C642.495,416.002 644.476,416.45 646.307,417.324 C644.757,419.637 642.71,421 640.5,421 C638.29,421 636.244,419.637 634.693,417.324 C636.533,416.446 638.52,415.998 640.513,416 L640.512,416 Z M633.802,417.79 C634.408,418.712 635.1,419.518 635.865,420.168 C634.727,419.752 633.662,419.192 632.691,418.502 C633.053,418.246 633.423,418.008 633.801,417.792 L633.802,417.79 Z M647.199,417.79 C647.577,418.008 647.947,418.246 648.309,418.502 C647.337,419.192 646.272,419.752 645.134,420.168 C645.899,419.518 646.591,418.712 647.198,417.791 L647.199,417.79 Z" id="Shape"></path>
        </g>
    </g>
</svg>