<?xml version="1.0" encoding="UTF-8"?>
<svg width="30px" height="22px" viewBox="0 0 30 22" version="1.1" xmlns="http://www.w3.org/2000/svg" xmlns:xlink="http://www.w3.org/1999/xlink">
    <!-- Generator: Sketch 45.2 (43514) - http://www.bohemiancoding.com/sketch -->
    <title>thefactory/element/icons/icnthefactory/element/icons/icn-14</title>
    <desc>Created with Sketch.</desc>
    <defs></defs>
    <g id="Ressources" stroke="none" stroke-width="1" fill="none" fill-rule="evenodd">
        <g id="thefactory/element/icn/inc-artboard" transform="translate(-399.000000, -847.000000)" fill-rule="nonzero" fill="#000000">
            <path d="M428.126199,855.158839 L424.482148,858.799048 L420.870097,855.158839 C420.420091,854.694813 419.67008,855.392853 420.160087,855.86888 L424.127143,859.862109 C424.313146,860.048119 424.65215,860.048119 424.837153,859.862109 L428.83721,855.86788 C429.327216,855.379852 428.599206,854.687812 428.127199,855.157839 L428.126199,855.158839 Z M414.530007,847.010373 C410.222947,846.823363 406.029887,849.174497 404.06286,853.290733 C403.774856,853.890767 404.652868,854.29079 404.937872,853.730758 C407.327906,848.730472 413.347991,846.60035 418.375062,848.980486 C421.413105,850.417568 423.515134,853.262731 424.000141,856.57292 C424.095143,857.26596 425.102157,857.032947 425.000155,856.416911 C424.466148,852.774703 422.120115,849.651524 418.780067,848.071434 C417.403048,847.419397 415.967028,847.071377 414.530007,847.009373 L414.530007,847.010373 Z M399.874801,860.842165 L403.518852,857.201956 L407.130903,860.842165 C407.580909,861.306191 408.33092,860.608151 407.840913,860.132124 L403.872857,856.138895 C403.686854,855.952885 403.34785,855.952885 403.162847,856.138895 L399.16279,860.132124 C398.672784,860.620152 399.400794,861.312191 399.872801,860.842165 L399.874801,860.842165 Z M413.469993,868.989631 C417.777053,869.176641 421.970113,866.824507 423.93814,862.709271 C424.225144,862.109237 423.346132,861.709214 423.063128,862.269246 C420.673094,867.269532 414.653009,869.399654 409.624938,867.019518 C406.586895,865.583436 404.484866,862.739273 403.999859,859.427084 C403.904857,858.734044 402.897843,858.969057 402.999845,859.583093 C403.533852,863.225301 405.879885,866.34748 409.219933,867.92757 C410.596952,868.580607 412.032972,868.927627 413.469993,868.990631 L413.469993,868.989631 Z" id="Shape"></path>
        </g>
    </g>
</svg>