<?xml version="1.0" encoding="UTF-8"?>
<svg width="30px" height="26px" viewBox="0 0 30 26" version="1.1" xmlns="http://www.w3.org/2000/svg" xmlns:xlink="http://www.w3.org/1999/xlink">
    <!-- Generator: Sketch 45.2 (43514) - http://www.bohemiancoding.com/sketch -->
    <title>thefactory/element/icons/icnthefactory/element/icons/icn-93</title>
    <desc>Created with Sketch.</desc>
    <defs></defs>
    <g id="Ressources" stroke="none" stroke-width="1" fill="none" fill-rule="evenodd">
        <g id="thefactory/element/icn/inc-artboard" transform="translate(-185.000000, -468.000000)" fill-rule="nonzero" fill="#000000">
            <path d="M204.5,475 C204.008,474.996 203.584,475.242 203.408,475.47 L200.671,478.927 C200.501,479.135 200.121,479 199.944,478.897 L197.489,477.35 C197.199,477.16 196.869,477 196.501,477 C196.121,477 195.715,477.114 195.429,477.434 L192.136,481.158 C191.691,481.656 192.436,482.324 192.882,481.826 L196.176,478.102 C196.394,477.868 196.711,478.052 196.941,478.186 L199.401,479.738 L199.413,479.744 C199.719,479.934 200.063,479.996 200.401,480 C200.741,480.004 201.111,479.973 201.386,479.64 L204.153,476.14 C204.37,475.877 204.687,476 204.897,476.18 L207.151,477.868 C207.678,478.345 208.356,477.493 207.771,477.088 L205.519,475.398 C205.252,475.188 204.913,475 204.5,475 Z M192.5,483 L207.5,483 C207.777,483 208,483.223 208,483.5 C208,483.777 207.777,484 207.5,484 L192.5,484 C192.223,484 192,483.777 192,483.5 C192,483.223 192.223,483 192.5,483 Z M196,471 C194.9,471 194,471.9 194,473 C194,474.1 194.9,475 196,475 C197.1,475 198,474.1 198,473 C198,471.9 197.1,471 196,471 Z M196,472 C196.558,472 197,472.442 197,473 C197,473.558 196.558,474 196,474 C195.442,474 195,473.558 195,473 C195,472.442 195.442,472 196,472 Z M210,491.5 C210,491.776142 209.776142,492 209.5,492 C209.223858,492 209,491.776142 209,491.5 C209,491.223858 209.223858,491 209.5,491 C209.776142,491 210,491.223858 210,491.5 Z M191,491.5 C191,491.776142 190.776142,492 190.5,492 C190.223858,492 190,491.776142 190,491.5 C190,491.223858 190.223858,491 190.5,491 C190.776142,491 191,491.223858 191,491.5 Z M200,490 C198.9,490 198,490.9 198,492 C198,493.1 198.9,494 200,494 C201.1,494 202,493.1 202,492 C202,490.9 201.1,490 200,490 Z M200,491 C200.563,491 201,491.437 201,492 C201,492.563 200.563,493 200,493 C199.437,493 199,492.563 199,492 C199,491.437 199.437,491 200,491 Z M211.5,469 C210.835,469 210.852,470 211.5,470 L213.5,470 C213.786,470 214,470.214 214,470.5 L214,484.5 C214,484.786 213.786,485 213.5,485 L211.5,485 C210.846,485 210.84,486 211.5,486 L213.5,486 C214.322,486 215,485.322 215,484.5 L215,470.5 C215,469.678 214.322,469 213.5,469 L211.5,469 Z M186.5,469 C185.678,469 185,469.678 185,470.5 L185,484.5 C185,485.322 185.678,486 186.5,486 L188.5,486 C189.16,486 189.165,485 188.5,485 L186.5,485 C186.214,485 186,484.786 186,484.5 L186,470.5 C186,470.214 186.214,470 186.5,470 L188.5,470 C189.16,470 189.16,469 188.5,469 L186.5,469 Z M191.5,468 C190.678,468 190,468.678 190,469.5 L190,485.5 C190,486.322 190.678,487 191.5,487 L208.5,487 C209.322,487 210,486.322 210,485.5 L210,469.5 C210,468.678 209.322,468 208.5,468 L191.5,468 Z M191.5,469 L208.5,469 C208.786,469 209,469.214 209,469.5 L209,485.5 C209,485.786 208.786,486 208.5,486 L191.5,486 C191.214,486 191,485.786 191,485.5 L191,469.5 C191,469.214 191.214,469 191.5,469 Z" id="Shape"></path>
        </g>
    </g>
</svg>