<?xml version="1.0" encoding="UTF-8"?>
<svg width="30px" height="24px" viewBox="0 0 30 24" version="1.1" xmlns="http://www.w3.org/2000/svg" xmlns:xlink="http://www.w3.org/1999/xlink">
    <!-- Generator: Sketch 45.2 (43514) - http://www.bohemiancoding.com/sketch -->
    <title>thefactory/element/icons/icnthefactory/element/icons/icn-13</title>
    <desc>Created with Sketch.</desc>
    <defs></defs>
    <g id="Ressources" stroke="none" stroke-width="1" fill="none" fill-rule="evenodd">
        <g id="thefactory/element/icn/inc-artboard" transform="translate(-474.000000, -847.000000)" fill-rule="nonzero" fill="#000000">
            <path d="M489.5,860 C489.37,860.002 489.24,860.055 489.147,860.146 L485.153,864.141 C484.689,864.587 485.413,865.311 485.859,864.848 L489.499,861.206 L493.139,864.848 C493.593,865.32 494.314,864.591 493.846,864.142 L489.852,860.148 C489.756,860.053 489.634,860 489.499,860.002 L489.5,860 Z M489.5,863 C489.777,863 490,863.223 490,863.5 L490,870.5 C490,870.777 489.777,871 489.5,871 C489.223,871 489,870.777 489,870.5 L489,863.5 C489,863.223 489.223,863 489.5,863 Z M496.5,867 L499,867 C501.756,867 504,864.756 504,862 C504,859.602 502.266,857.627 499.96,857.164 C499.976,856.944 500,856.67 500,856.5 C500,851.28 495.74,847 490.5,847 C486.99,847.005 483.814,848.973 482.17,852.05 C481.948,852.03 481.726,852 481.5,852 C477.352,852 474,855.364 474,859.5 C474,863.636 477.364,867 481.5,867 L482.5,867 C483.163,867 483.168,866 482.5,866 L481.5,866 C477.904,866 475,863.096 475,859.5 C475,855.906 477.902,853.002 481.496,853 C481.781,853.002 482.066,853.023 482.348,853.063 C482.562,853.093 482.772,852.983 482.868,852.787 C484.287,849.862 487.247,848.005 490.5,848 C495.2,848 499,851.8 499,856.5 C498.998,856.822 498.978,857.143 498.94,857.463 C498.905,857.743 499.107,857.993 499.387,858.021 C501.44,858.22 503,859.938 503,862 C503,864.215 501.215,866 499,866 L496.5,866 C495.815,866 495.862,867 496.5,867 Z" id="Shape"></path>
        </g>
    </g>
</svg>