<?xml version="1.0" encoding="UTF-8"?>
<svg width="29px" height="30px" viewBox="0 0 29 30" version="1.1" xmlns="http://www.w3.org/2000/svg" xmlns:xlink="http://www.w3.org/1999/xlink">
    <!-- Generator: Sketch 45.2 (43514) - http://www.bohemiancoding.com/sketch -->
    <title>thefactory/element/icons/icnthefactory/element/icons/icn-15</title>
    <desc>Created with Sketch.</desc>
    <defs></defs>
    <g id="Ressources" stroke="none" stroke-width="1" fill="none" fill-rule="evenodd">
        <g id="thefactory/element/icn/inc-artboard" transform="translate(-325.000000, -847.000000)" fill-rule="nonzero" fill="#000000">
            <path d="M339.502145,876.999947 C339.226097,876.995947 338.998058,876.775949 339.002059,876.499952 L339.002059,850.500215 C339.002059,849.840221 340.002231,849.836221 340.002231,850.500215 L340.002231,876.499952 C340.006231,876.781949 339.784193,877.003947 339.502145,876.999947 Z M325.499736,862.000098 C325.049658,862.000098 324.836622,861.446104 325.145675,861.146107 L339.148084,847.146249 C339.343117,846.95125 339.658171,846.95125 339.855205,847.146249 L353.857614,861.146107 C354.30069,861.572103 353.609571,862.313095 353.150492,861.8531 L339.502145,848.207238 L325.852797,861.8531 C325.75778,861.950099 325.634759,862.000098 325.499736,862.000098 Z" id="Shape"></path>
        </g>
    </g>
</svg>