<?xml version="1.0" encoding="UTF-8"?>
<svg width="30px" height="28px" viewBox="0 0 30 28" version="1.1" xmlns="http://www.w3.org/2000/svg" xmlns:xlink="http://www.w3.org/1999/xlink">
    <!-- Generator: Sketch 45.2 (43514) - http://www.bohemiancoding.com/sketch -->
    <title>thefactory/element/icons/icnthefactory/element/icons/icn-84</title>
    <desc>Created with Sketch.</desc>
    <defs></defs>
    <g id="Ressources" stroke="none" stroke-width="1" fill="none" fill-rule="evenodd">
        <g id="thefactory/element/icn/inc-artboard" transform="translate(-845.000000, -468.000000)" fill-rule="nonzero" fill="#000000">
            <path d="M846.50005,478 C845.678023,478 845,478.678 845,479.5 L845,494.5 C845,495.322 845.678023,496 846.50005,496 L853.500283,496 C854.322311,496 855.000333,495.322 855.000333,494.5 L855.000333,479.5 C855.000333,478.678 854.322311,478 853.500283,478 L846.50005,478 Z M846.50005,479 L853.500283,479 C853.786293,479 854.0003,479.214 854.0003,479.5 L854.0003,494.5 C854.0003,494.786 853.786293,495 853.500283,495 L846.50005,495 C846.21404,495 846.000033,494.786 846.000033,494.5 L846.000033,479.5 C846.000033,479.214 846.21404,479 846.50005,479 Z M862.500583,468 C862.138571,468 861.780559,468.04 861.440548,468.19 C861.102537,468.34 860.798527,468.607 860.584519,468.97 C860.156505,469.7 860.0005,470.767 860.0005,472.5 C860.0005,475.654 857.730424,478.078 856.223374,479.084 C855.693356,479.424 856.243375,480.284 856.777393,479.916 C858.270442,478.922 861.000533,476.146 861.000533,472.5 C861.000533,470.835 861.19754,469.9 861.445548,469.48 C861.570552,469.267 861.687556,469.173 861.845562,469.104 C862.000567,469.034 862.215574,469 862.500583,469 C862.977599,469 863.248608,469.158 863.530618,469.766 C863.814627,470.374 864.000633,471.444 864.000633,473 C864.000633,475.977 862.120571,479.174 862.120571,479.174 C861.842561,479.498 862.072569,480 862.500583,480 L872.500917,480 C873.080936,480 873.425948,480.148 873.645955,480.375 C873.865962,480.602 874.000967,480.955 874.000967,481.5 C874.000967,482.496 873.20394,483.098 873.20394,483.098 C872.930931,483.298 872.933931,483.708 873.20994,483.906 C873.20994,483.906 873.999967,484.476 873.999967,485.5 C873.999967,486.525 873.20994,487.094 873.20994,487.094 C872.90693,487.312 872.939931,487.772 873.271942,487.944 C873.271942,487.944 873.999967,488.287 873.999967,489.25 C873.999967,490.213 873.271942,490.557 873.271942,490.557 C872.917931,490.74 872.90993,491.243 873.257942,491.437 C873.257942,491.437 873.999967,491.833 873.999967,492.75 C873.999967,493.21 873.835961,493.473 873.569952,493.678 C873.303943,493.882 872.90793,494 872.499917,494 L856.499383,494 C855.822361,494 855.857362,495 856.499383,495 L872.499917,495 C873.091936,495 873.695957,494.842 874.179973,494.47 C874.663989,494.1 875,493.487 875,492.75 C875,491.876 874.613987,491.353 874.253975,491.004 C874.615987,490.657 875,490.134 875,489.25 C875,488.324 874.586986,487.805 874.216974,487.467 C874.573986,487.087 875,486.5 875,485.5 C875,484.457 874.541985,483.863 874.183973,483.498 C874.539985,483.131 875,482.535 875,481.5 C875,480.783 874.806994,480.138 874.362979,479.68 C873.918964,479.222 873.262942,479 872.499917,479 L863.413614,479 C864.012634,478.153 865.000667,475.54 865.000667,473 C865.000667,471.37 864.830661,470.19 864.437648,469.344 C864.044635,468.498 863.317611,468 862.500583,468 Z" id="Shape"></path>
        </g>
    </g>
</svg>