<?xml version="1.0" encoding="UTF-8"?>
<svg width="30px" height="17px" viewBox="0 0 30 17" version="1.1" xmlns="http://www.w3.org/2000/svg" xmlns:xlink="http://www.w3.org/1999/xlink">
    <!-- Generator: Sketch 45.2 (43514) - http://www.bohemiancoding.com/sketch -->
    <title>thefactory/element/icons/icnthefactory/element/icons/icn-124</title>
    <desc>Created with Sketch.</desc>
    <defs></defs>
    <g id="Ressources" stroke="none" stroke-width="1" fill="none" fill-rule="evenodd">
        <g id="thefactory/element/icn/inc-artboard" transform="translate(-999.000000, -997.000000)" fill-rule="nonzero" fill="#000000">
            <path d="M1018.498,997 C1018.316,997 1018.148,997.100001 1018.061,997.260004 L1009.074,1013.24824 C1008.746,1013.82824 1009.616,1014.32025 1009.944,1013.74024 L1018.93,997.750011 C1019.126,997.418006 1018.885,997 1018.498,997 Z M1021.528,999.000029 C1021.64,999.006029 1021.748,999.05003 1021.832,999.125031 L1028.826,1005.12112 C1029.058,1005.32112 1029.058,1005.68113 1028.826,1005.88113 L1021.832,1011.87622 C1021.352,1012.30622 1020.692,1011.52421 1021.18,1011.1192 L1027.734,1005.50112 L1021.18,999.883042 C1020.812,999.575037 1021.048,999.001029 1021.528,999.001029 L1021.528,999.000029 Z M1006.472,999.000029 C1006.36,999.006029 1006.252,999.05003 1006.168,999.125031 L999.174,1005.12012 C998.942,1005.32012 998.942,1005.68013 999.174,1005.88013 L1006.168,1011.87522 C1006.648,1012.30522 1007.308,1011.52321 1006.82,1011.1182 L1000.266,1005.50012 L1006.82,999.882042 C1007.188,999.574037 1006.952,999.000029 1006.472,999.000029 Z" id="Shape"></path>
        </g>
    </g>
</svg>