<?xml version="1.0" encoding="UTF-8"?>
<svg width="30px" height="23px" viewBox="0 0 30 23" version="1.1" xmlns="http://www.w3.org/2000/svg" xmlns:xlink="http://www.w3.org/1999/xlink">
    <!-- Generator: Sketch 45.2 (43514) - http://www.bohemiancoding.com/sketch -->
    <title>thefactory/element/icons/icnthefactory/element/icons/icn-37</title>
    <desc>Created with Sketch.</desc>
    <defs></defs>
    <g id="Ressources" stroke="none" stroke-width="1" fill="none" fill-rule="evenodd">
        <g id="thefactory/element/icn/inc-artboard" transform="translate(-937.000000, -696.000000)" fill-rule="nonzero" fill="#000000">
            <path d="M947.494015,708 L961.491174,708 C961.769118,708 961.991073,708.223 961.991073,708.5 C961.991073,708.777 961.769118,709 961.491174,709 L947.494015,709 C947.218071,709 946.994117,708.777 946.994117,708.5 C946.994117,708.223 947.218071,708 947.494015,708 Z M946.494218,704 L962.490971,704 C962.768915,704 962.99087,704.223 962.99087,704.5 C962.99087,704.777 962.768915,705 962.490971,705 L946.494218,705 C946.218274,705 945.99432,704.777 945.99432,704.5 C945.99432,704.223 946.218274,704 946.494218,704 Z M937.496045,696 C936.843177,696 936.826181,697 937.496045,697 L941.095314,697 C941.173298,697.346 941.735184,699.81 942.407048,702.736 C943.123902,705.862 943.858753,710.056 944.012722,710.629 C944.144695,711.123 944.26767,711.684 944.632596,712.173 C944.994523,712.661 945.632393,712.999 946.494218,712.999 L962.490971,712.999 C963.350797,712.999 963.990667,712.661 964.353593,712.173 C964.717519,711.683 964.840494,711.123 964.973467,710.628 C965.238414,709.635 966.593139,703.684 966.863084,702.676 C967.015053,702.11 967.065043,701.52 966.885079,700.986 C966.705116,700.452 966.165225,699.998 965.490362,699.998 L945.494421,699.998 C944.841554,699.998 944.834555,700.998 945.494421,700.998 L965.490362,700.998 C965.815296,700.998 965.856288,701.068 965.937272,701.308 C966.017255,701.546 966.013256,701.982 965.89728,702.416 C965.630334,703.408 964.277609,709.361 964.007663,710.369 C963.872691,710.875 963.745717,711.314 963.551756,711.575 C963.357795,711.837 963.131841,711.999 962.491971,711.999 L946.495218,711.999 C945.855348,711.999 945.629394,711.837 945.435433,711.575 C945.240473,711.315 945.113499,710.875 944.977526,710.37 C944.863549,709.944 944.097705,705.638 943.38285,702.514 C942.665995,699.389 941.983134,696.389 941.983134,696.389 C941.933144,696.16 941.730185,696 941.495233,696 L937.496045,696 Z M960.491377,714 C959.118656,714 957.991884,715.125 957.991884,716.5 C957.991884,717.875 959.118656,719 960.491377,719 C961.867098,719 962.99087,717.875 962.99087,716.5 C962.99087,715.125 961.868098,714 960.491377,714 Z M960.491377,715 C961.327207,715 961.991073,715.666 961.991073,716.5 C961.991073,717.334 961.327207,718 960.491377,718 C959.658546,718 958.991681,717.334 958.991681,716.5 C958.991681,715.666 959.658546,715 960.491377,715 Z M948.493812,714 C947.122091,714 945.99432,715.125 945.99432,716.5 C945.99432,717.875 947.121091,719 948.493812,719 C949.869533,719 950.993305,717.875 950.993305,716.5 C950.993305,715.125 949.870533,714 948.493812,714 Z M948.493812,715 C949.329643,715 949.993508,715.666 949.993508,716.5 C949.993508,717.334 949.329643,718 948.493812,718 C947.660981,718 946.994117,717.334 946.994117,716.5 C946.994117,715.666 947.660981,715 948.493812,715 Z" id="Shape"></path>
        </g>
    </g>
</svg>