<?xml version="1.0" encoding="UTF-8"?>
<svg width="30px" height="30px" viewBox="0 0 30 30" version="1.1" xmlns="http://www.w3.org/2000/svg" xmlns:xlink="http://www.w3.org/1999/xlink">
    <!-- Generator: Sketch 45.2 (43514) - http://www.bohemiancoding.com/sketch -->
    <title>thefactory/element/icons/icnthefactory/element/icons/icn-100</title>
    <desc>Created with Sketch.</desc>
    <defs></defs>
    <g id="Ressources" stroke="none" stroke-width="1" fill="none" fill-rule="evenodd">
        <g id="thefactory/element/icn/inc-artboard" transform="translate(-775.000000, -393.000000)" fill-rule="nonzero" fill="#000000">
            <path d="M802.477593,405.000003 C802.347895,405.004228 802.224922,405.058736 802.134674,405.152002 L793.64067,413.735966 C793.59768,413.778966 793.42672,413.855965 793.242764,413.855965 C793.058807,413.855965 792.896845,413.781966 792.858854,413.741966 L788.859794,409.564983 C788.553866,409.244985 788.143962,409.140985 787.752054,409.141985 C787.362146,409.141985 786.954242,409.247985 786.645314,409.558984 L777.149547,419.139943 C776.955464,419.336556 776.957478,419.653313 777.154046,419.84744 C777.350613,420.041567 777.667297,420.039553 777.861379,419.84294 L787.355148,410.259981 C787.398138,410.215981 787.569097,410.139981 787.753054,410.139981 C787.937011,410.137981 788.099973,410.213981 788.137964,410.253981 L792.137024,414.430963 C792.443951,414.750962 792.853855,414.854961 793.244763,414.853961 C793.636671,414.853961 794.044575,414.747962 794.351503,414.436963 L802.846506,405.851999 C802.992569,405.707311 803.035181,405.487934 802.95391,405.299068 C802.872639,405.110201 802.684056,404.990356 802.478593,404.997003 L802.477593,405.000003 Z M801.493824,403.000011 C800.82998,403.000011 800.841977,404.000007 801.493824,404.000007 L803.993237,404.000007 L803.993237,406.499996 C803.993237,407.171994 804.993002,407.151994 804.993002,406.499996 L804.993002,403.500009 C804.993002,403.22401 804.769054,403.000011 804.493119,403.000011 L801.493824,403.000011 Z M775.499934,393.000053 C775.223999,393.004053 774.996053,393.224052 775.000052,393.500051 L775.000052,422.499929 C775.000052,422.775928 775.223999,422.999927 775.499934,422.999927 L804.493119,422.999927 C805.16896,423.009927 805.16896,421.989931 804.493119,421.999931 L775.999817,421.999931 L775.999817,393.500051 C776.003816,393.218052 775.781868,392.996053 775.499934,393.000053 Z" id="Shape"></path>
        </g>
    </g>
</svg>