<?xml version="1.0" encoding="UTF-8"?>
<svg width="29px" height="29px" viewBox="0 0 29 29" version="1.1" xmlns="http://www.w3.org/2000/svg" xmlns:xlink="http://www.w3.org/1999/xlink">
    <!-- Generator: Sketch 45.2 (43514) - http://www.bohemiancoding.com/sketch -->
    <title>thefactory/element/icons/icnthefactory/element/icons/icn-31</title>
    <desc>Created with Sketch.</desc>
    <defs></defs>
    <g id="Ressources" stroke="none" stroke-width="1" fill="none" fill-rule="evenodd">
        <g id="thefactory/element/icn/inc-artboard" transform="translate(-261.000000, -772.000000)" fill-rule="nonzero" fill="#000000">
            <path d="M285.5,776 C285.945,776 286.17,776.536 285.85,776.846 L284.86,777.838 C284.395,778.325 283.676,777.604 284.162,777.138 L285.152,776.145 C285.244,776.049 285.366,776 285.5,776 Z M265.5,776 C265.055,776 264.83,776.536 265.15,776.846 L266.14,777.838 C266.605,778.325 267.324,777.604 266.838,777.138 L265.848,776.145 C265.757,776.05 265.635,776 265.5,776 Z M287,786.5 C287,786.223 287.223,786 287.5,786 L289.5,786 C289.777,786 290,786.223 290,786.5 C290,786.777 289.777,787 289.5,787 L287.5,787 C287.223,787 287,786.777 287,786.5 Z M261,786.5 C261,786.223 261.223,786 261.5,786 L263.5,786 C263.777,786 264,786.223 264,786.5 C264,786.777 263.777,787 263.5,787 L261.5,787 C261.223,787 261,786.777 261,786.5 Z M275.5,798 C275.777,798 276,798.223 276,798.5 L276,800.5 C276,800.777 275.777,801 275.5,801 C275.223,801 275,800.777 275,800.5 L275,798.5 C275,798.223 275.223,798 275.5,798 Z M275.5,772 C275.777,772 276,772.223 276,772.5 L276,774.5 C276,774.777 275.777,775 275.5,775 C275.223,775 275,774.777 275,774.5 L275,772.5 C275,772.223 275.223,772 275.5,772 Z M275.5,777 C270.26,777 266,781.26 266,786.5 C266,791.74 270.26,796 275.5,796 C280.74,796 285,791.74 285,786.5 C285,781.26 280.74,777 275.5,777 Z M275.5,778 C280.2,778 284,781.8 284,786.5 C284,791.2 280.2,795 275.5,795 C270.8,795 267,791.2 267,786.5 C267,781.8 270.8,778 275.5,778 Z M285.5,797 C285.945,797 286.17,796.464 285.85,796.154 L284.86,795.162 C284.395,794.675 283.676,795.396 284.162,795.862 L285.152,796.855 C285.244,796.951 285.366,797 285.5,797 L285.5,797 Z M265.5,797 C265.055,797 264.83,796.464 265.15,796.154 L266.14,795.162 C266.605,794.675 267.324,795.396 266.838,795.862 L265.848,796.855 C265.756,796.951 265.634,797 265.5,797 L265.5,797 Z" id="Shape"></path>
        </g>
    </g>
</svg>