<?xml version="1.0" encoding="UTF-8"?>
<svg width="6px" height="30px" viewBox="0 0 6 30" version="1.1" xmlns="http://www.w3.org/2000/svg" xmlns:xlink="http://www.w3.org/1999/xlink">
    <!-- Generator: Sketch 45.2 (43514) - http://www.bohemiancoding.com/sketch -->
    <title>thefactory/element/icons/icnthefactory/element/icons/icn-71</title>
    <desc>Created with Sketch.</desc>
    <defs></defs>
    <g id="Ressources" stroke="none" stroke-width="1" fill="none" fill-rule="evenodd">
        <g id="thefactory/element/icn/inc-artboard" transform="translate(-610.000000, -544.000000)" fill-rule="nonzero" fill="#000000">
            <path d="M616,571 C616,569.353 614.655,568 613,568 C611.345,568 610,569.353 610,571 C610,572.647 611.345,574 613,574 C614.655,574 616,572.647 616,571 Z M615,571 C615,572.108 614.114,573 613,573 C611.887,573 611,572.108 611,571 C611,569.892 611.886,569 613,569 C614.114,569 615,569.892 615,571 Z M616,559 C616,557.353 614.655,556 613,556 C611.345,556 610,557.353 610,559 C610,560.647 611.345,562 613,562 C614.655,562 616,560.647 616,559 Z M615,559 C615,560.108 614.114,561 613,561 C611.887,561 611,560.108 611,559 C611,557.892 611.886,557 613,557 C614.114,557 615,557.892 615,559 Z M616,547 C616,545.353 614.655,544 613,544 C611.345,544 610,545.353 610,547 C610,548.647 611.345,550 613,550 C614.655,550 616,548.647 616,547 Z M615,547 C615,548.108 614.114,549 613,549 C611.887,549 611,548.108 611,547 C611,545.892 611.886,545 613,545 C614.114,545 615,545.892 615,547 Z" id="Shape"></path>
        </g>
    </g>
</svg>