<?xml version="1.0" encoding="UTF-8"?>
<svg width="30px" height="30px" viewBox="0 0 30 30" version="1.1" xmlns="http://www.w3.org/2000/svg" xmlns:xlink="http://www.w3.org/1999/xlink">
    <!-- Generator: Sketch 45.2 (43514) - http://www.bohemiancoding.com/sketch -->
    <title>thefactory/element/icons/icnthefactory/element/icons/icn-121</title>
    <desc>Created with Sketch.</desc>
    <defs></defs>
    <g id="Ressources" stroke="none" stroke-width="1" fill="none" fill-rule="evenodd">
        <g id="thefactory/element/icn/inc-artboard" transform="translate(-260.000000, -317.000000)" fill-rule="nonzero" fill="#000000">
            <path d="M271.448331,326.999311 C271.04832,326.989311 270.652308,327.064306 270.3663,327.344287 C270.079291,327.624268 269.993289,328.01924 270.000289,328.424212 C270.008289,328.828185 270.093292,329.288153 270.250296,329.844114 L274.765427,345.829012 C274.85343,346.138991 274.970433,346.403973 275.155438,346.612958 C275.339444,346.820944 275.602451,346.962934 275.869459,346.992932 C276.401474,347.048928 276.844487,346.764948 277.241499,346.397973 L280.38559,343.488174 C280.629597,343.244191 280.853603,343.314186 281.021608,343.482174 L284.273702,346.603959 C284.55771,346.87594 284.925721,346.986933 285.283731,346.988932 C285.640742,346.990932 286.013752,346.87894 286.29676,346.596959 L289.602856,343.292187 C289.886864,343.008207 289.998868,342.637232 289.999868,342.276257 C289.999868,341.916282 289.889864,341.536308 289.594856,341.256328 L286.344762,338.133543 C286.167757,337.957555 286.178757,337.697573 286.357762,337.518585 L289.38485,334.376802 C289.762861,333.982829 290.052869,333.53286 289.991867,332.996897 C289.961866,332.729916 289.817862,332.466934 289.608856,332.282946 C289.39885,332.098959 289.133843,331.982967 288.822834,331.892973 L272.846372,327.249293 C272.302356,327.092304 271.848343,327.01231 271.448331,326.999311 Z M271.41833,327.999242 C271.678338,328.005241 272.080349,328.067237 272.588364,328.215227 L288.564826,332.858907 C289.210845,333.046894 288.926837,333.420868 288.666829,333.68085 L285.639741,336.824633 C285.365734,337.108614 285.25273,337.474588 285.24973,337.834564 C285.24773,338.192539 285.359733,338.574513 285.652742,338.854493 L288.902836,341.974278 C289.130842,342.201263 288.997839,342.482243 288.895836,342.584236 L285.59074,345.888008 C285.450736,346.051997 285.124727,346.037998 284.967722,345.882009 L281.717628,342.762224 C281.43262,342.489243 281.062609,342.38025 280.707599,342.38225 C280.354589,342.38225 279.991578,342.490243 279.70757,342.754224 L276.562479,345.664024 C276.082465,346.059996 275.850458,345.989001 275.732455,345.57103 L271.215324,329.585132 C271.06832,329.065168 271.005318,328.663196 271.000318,328.405214 C271.000318,327.998242 271.198324,327.998242 271.41833,327.998242 L271.41833,327.999242 Z M264.49813,342.998208 C264.048117,342.998208 263.838111,342.448245 264.14412,342.145266 L266.144178,340.145404 C266.601191,339.690436 267.309211,340.395387 266.854198,340.852356 L264.85114,342.852218 C264.758138,342.949211 264.634134,342.998208 264.49813,342.998208 Z M285.500737,320.999724 C285.95075,320.999724 286.160757,321.549686 285.856748,321.852665 L283.85669,323.852528 C283.399677,324.307496 282.691656,323.602545 283.146669,323.145576 L285.149727,321.145714 C285.24273,321.048721 285.363733,320.999724 285.499737,320.999724 L285.500737,320.999724 Z M264.49713,320.999724 C264.047117,320.999724 263.839111,321.549686 264.14412,321.852665 L266.144178,323.852528 C266.601191,324.307496 267.309211,323.602545 266.854198,323.145576 L264.85114,321.145714 C264.758138,321.049721 264.634134,320.999724 264.49813,320.999724 L264.49713,320.999724 Z M260,331.499 C260,331.222019 260.223006,330.999035 260.500014,330.999035 L263.500101,330.999035 C263.777109,330.999035 264.000116,331.222019 264.000116,331.499 C264.000116,331.775981 263.777109,331.998966 263.500101,331.998966 L260.500014,331.998966 C260.223006,331.998966 260,331.775981 260,331.499 Z M274.500419,317 C274.777427,317 275.000434,317.222985 275.000434,317.499966 L275.000434,320.499759 C275.000434,320.77674 274.777427,320.999724 274.500419,320.999724 C274.223411,320.999724 274.000405,320.77674 274.000405,320.499759 L274.000405,317.499966 C274.000405,317.222985 274.223411,317 274.500419,317 Z" id="Shape"></path>
        </g>
    </g>
</svg>