<?xml version="1.0" encoding="UTF-8"?>
<svg width="44px" height="52px" viewBox="0 0 44 52" version="1.1" xmlns="http://www.w3.org/2000/svg" xmlns:xlink="http://www.w3.org/1999/xlink">
    <!-- Generator: Sketch 45.2 (43514) - http://www.bohemiancoding.com/sketch -->
    <title>thefactory/element/icons/icn-03</title>
    <desc>Created with Sketch.</desc>
    <defs></defs>
    <g id="Template" stroke="none" stroke-width="1" fill="none" fill-rule="evenodd">
        <g transform="translate(-1018.000000, -996.000000)" id="Picto-presentation" fill-rule="nonzero" fill="#000000">
            <g transform="translate(80.000000, 810.000000)">
                <g id="mbri-idea" transform="translate(938.000000, 186.000000)">
                    <path d="M37.84,6.93333333 C38.62496,6.93333333 39.0192,7.87453333 38.456,8.4136 L36.7048,10.1348 C35.91808,10.9425333 34.65264,9.68933333 35.46928,8.918 L37.21696,7.19506667 C37.3824,7.0304 37.60416,6.93506667 37.84,6.93506667 L37.84,6.93333333 Z M7.92,6.93333333 C7.13504,6.93333333 6.7408,7.87453333 7.304,8.4136 L9.0552,10.1348 C9.84192,10.9425333 11.1144,9.69626667 10.29072,8.918 L8.54304,7.19506667 C8.3776,7.0304 8.15584,6.93333333 7.92,6.93333333 Z M14.96,50.2666667 L29.04,50.2666667 C29.52752,50.2666667 29.92,50.6532 29.92,51.1333333 C29.92,51.6134667 29.52752,52 29.04,52 L14.96,52 C14.47248,52 14.08,51.6134667 14.08,51.1333333 C14.08,50.6532 14.47248,50.2666667 14.96,50.2666667 Z M14.96,45.0666667 L29.04,45.0666667 C29.52752,45.0666667 29.92,45.4532 29.92,45.9333333 C29.92,46.4134667 29.52752,46.8 29.04,46.8 L14.96,46.8 C14.47248,46.8 14.08,46.4134667 14.08,45.9333333 C14.08,45.4532 14.47248,45.0666667 14.96,45.0666667 Z M22,10.4 C18.74752,10.4 15.84704,12.246 13.816,15.08 C11.7832,17.9192 10.56,21.7672 10.56,26 C10.56,30.2345333 11.7832,34.0825333 13.816,36.92 C15.84704,39.754 18.74752,41.6 22,41.6 C25.25248,41.6 28.15296,39.754 30.184,36.92 C32.2168,34.0808 33.44,30.2328 33.44,26 C33.44,21.7654667 32.2168,17.9174667 30.184,15.08 C28.15296,12.2477333 25.25248,10.4 22,10.4 Z M22,12.1333333 C24.5784,12.1333333 26.95792,13.5841333 28.74784,16.0801333 C30.536,18.5761333 31.68,22.0948 31.68,26 C31.68,29.9034667 30.536,33.4221333 28.74784,35.9198667 C27.59152,37.5318667 26.18352,38.7001333 24.64,39.3310667 C24.6224,37.2684 24.59072,35.3496 24.8952,33.7618667 C25.24368,31.9245333 25.96528,30.5032 27.7552,29.3332 C28.4944,28.8652 28.15648,27.7333333 27.28,27.7350667 C27.104,27.7350667 26.9368,27.7870667 26.79248,27.8841333 C24.6136,29.3124 23.58224,31.3022667 23.17568,33.4394667 C22.79552,35.4328 22.86592,37.5856 22.88,39.806 C22.4576,39.8701333 21.5864,39.8701333 21.12,39.806 C21.13408,37.5873333 21.20448,35.4345333 20.82432,33.4412 C20.41952,31.3057333 19.3864,29.3158667 17.20752,27.8876 C17.0632,27.7853333 16.896,27.7333333 16.72,27.7333333 C15.84352,27.7333333 15.5056,28.8652 16.2448,29.3314667 C18.03472,30.5032 18.75632,31.9228 19.1048,33.7601333 C19.40928,35.3478667 19.37584,37.2684 19.36,39.3310667 C17.81648,38.7018667 16.40848,37.5336 15.25216,35.9216 C13.464,33.4238667 12.32,29.9052 12.32,26 C12.32,22.0965333 13.464,18.5778667 15.25216,16.0801333 C17.04208,13.5841333 19.42336,12.1333333 22,12.1333333 Z M39.6,24.2666667 L43.12,24.2666667 C43.60752,24.2666667 44,24.6532 44,25.1333333 C44,25.6134667 43.60752,26 43.12,26 L39.6,26 C39.11248,26 38.72,25.6134667 38.72,25.1333333 C38.72,24.6532 39.11248,24.2666667 39.6,24.2666667 Z M22.88,0.866666667 L22.88,4.33333333 C22.88,4.81346667 22.48752,5.2 22,5.2 C21.51248,5.2 21.12,4.81346667 21.12,4.33333333 L21.12,0.866666667 C21.12,0.386533333 21.51248,0 22,0 C22.48752,0 22.88,0.386533333 22.88,0.866666667 Z M0.88,24.2666667 L4.4,24.2666667 C4.88752,24.2666667 5.28,24.6532 5.28,25.1333333 C5.28,25.6134667 4.88752,26 4.4,26 L0.88,26 C0.39248,26 0,25.6134667 0,25.1333333 C0,24.6532 0.39248,24.2666667 0.88,24.2666667 Z" id="Shape"></path>
                </g>
            </g>
        </g>
    </g>
</svg>