<?xml version="1.0" encoding="UTF-8"?>
<svg width="30px" height="30px" viewBox="0 0 30 30" version="1.1" xmlns="http://www.w3.org/2000/svg" xmlns:xlink="http://www.w3.org/1999/xlink">
    <!-- Generator: Sketch 45.2 (43514) - http://www.bohemiancoding.com/sketch -->
    <title>thefactory/element/icons/icnthefactory/element/icons/icn-10</title>
    <desc>Created with Sketch.</desc>
    <defs></defs>
    <g id="Ressources" stroke="none" stroke-width="1" fill="none" fill-rule="evenodd">
        <g id="thefactory/element/icn/inc-artboard" transform="translate(-699.000000, -847.000000)" fill-rule="nonzero" fill="#000000">
            <path d="M708.5,856 C706.837,856 705.648,856.877 704.955,857.984 C704.262,859.092 704,860.416 704,861.5 C704,862.89 703.573,864.184 702.223,865.084 C701.811,865.358 702.005,866 702.5,866 C703.14,866 703.926,865.988 704.727,865.693 C705.025,865.583 705.497,865.335 705.787,865.133 C705.699,865.5 705.507,866.035 705.354,866.236 C704.954,866.758 704.398,867 703.5,867 C702.843,867 702.84,868 703.5,868 C704.602,868 705.546,867.63 706.146,866.844 C706.746,866.059 707,864.946 707,863.5 C707,862.987 706.322,862.806 706.066,863.25 C705.561,864.126 704.986,864.53 704.381,864.754 C704.161,864.834 703.929,864.807 703.701,864.844 C704.514,863.837 705,862.682 705,861.5 C705,860.584 705.244,859.408 705.803,858.516 C706.36,857.623 707.17,857 708.5,857 C709.83,857 710.64,857.623 711.197,858.516 C711.757,859.408 712,860.584 712,861.5 C712,862.682 712.485,863.837 713.3,864.844 C713.072,864.807 712.84,864.834 712.62,864.754 C712.013,864.531 711.44,864.126 710.934,863.25 C710.678,862.806 709.999,862.987 710,863.5 C710,864.946 710.255,866.026 710.69,866.787 C711.128,867.547 711.795,868 712.5,868 C713.168,868 713.157,867 712.5,867 C712.205,867 711.872,866.837 711.56,866.29 C711.43,866.066 711.207,865.5 711.137,865 C711.447,865.226 711.952,865.575 712.273,865.693 C713.073,865.988 713.861,866 714.5,866 C714.995,866 715.19,865.358 714.777,865.084 C713.427,864.184 713,862.89 713,861.5 C713,860.416 712.738,859.092 712.045,857.984 C711.352,856.877 710.163,856 708.5,856 Z M720,854 C718.107,854 716.8,854.848 716.035,855.893 C715.27,856.937 715,858.14 715,859 L715,861 C715,861.89 715.296,862.557 715.56,863.045 C715.825,863.533 716,863.849 716,864 L716,865.5 C716,865.995 715.66,866.54 714.75,867.066 C713.754,867.641 712.254,868.486 711.25,869.066 C710.65,869.413 710.31,869.908 710.152,870.366 C709.995,870.826 710,871.25 710,871.5 C710,872.172 711,872.157 711,871.5 C711,871.25 711.005,870.963 711.098,870.69 C711.19,870.42 711.35,870.165 711.75,869.934 C712.746,869.359 714.246,868.514 715.25,867.934 C716.34,867.304 717,866.454 717,865.5 L717,864 C717,863.403 716.675,863.002 716.44,862.568 C716.204,862.135 716,861.676 716,861 L716,859 C716,858.36 716.23,857.313 716.84,856.482 C717.45,855.652 718.393,855 720,855 C721.607,855 722.55,855.652 723.16,856.482 C723.77,857.312 724,858.362 724,859 L724,861 C724,861.676 723.796,862.135 723.56,862.568 C723.325,863.002 723,863.403 723,864 L723,865.5 C723,865.862 722.99,866.284 723.156,866.73 C723.321,867.173 723.674,867.6 724.25,867.934 C724.828,868.267 725.315,867.392 724.75,867.066 C724.326,866.821 724.18,866.611 724.094,866.381 C724.009,866.151 724,865.863 724,865.501 L724,864 C724,863.85 724.175,863.533 724.44,863.045 C724.704,862.557 725,861.889 725,861 L725,859 C725,858.14 724.73,856.937 723.965,855.893 C723.2,854.848 721.893,854 720,854 Z M714,847 C705.722,847 699,853.722 699,862 C699,870.278 705.722,877 714,877 C722.278,877 729,870.278 729,862 C729,853.722 722.278,847 714,847 Z M714,848 C721.738,848 728,854.262 728,862 C728,869.738 721.738,876 714,876 C706.262,876 700,869.738 700,862 C700,854.262 706.262,848 714,848 Z" id="Shape"></path>
        </g>
    </g>
</svg>