<?xml version="1.0" encoding="UTF-8"?>
<svg width="30px" height="27px" viewBox="0 0 30 27" version="1.1" xmlns="http://www.w3.org/2000/svg" xmlns:xlink="http://www.w3.org/1999/xlink">
    <!-- Generator: Sketch 45.2 (43514) - http://www.bohemiancoding.com/sketch -->
    <title>thefactory/element/icons/icnthefactory/element/icons/icn-135</title>
    <desc>Created with Sketch.</desc>
    <defs></defs>
    <g id="Ressources" stroke="none" stroke-width="1" fill="none" fill-rule="evenodd">
        <g id="thefactory/element/icn/inc-artboard" transform="translate(-335.000000, -241.000000)" fill-rule="nonzero" fill="#000000">
            <path d="M338.500145,261 C336.573065,261 335,262.573 335,264.5 C335,266.427 336.573065,268 338.500145,268 C340.427225,268 342.00029,266.427 342.00029,264.5 C342.00029,262.573 340.427225,261 338.500145,261 Z M338.500145,262 C339.887202,262 341.000249,263.113 341.000249,264.5 C341.000249,265.887 339.887202,267 338.500145,267 C337.113088,267 336.000041,265.887 336.000041,264.5 C336.000041,263.113 337.113088,262 338.500145,262 Z M338.500145,251 C336.573065,251 335,252.573 335,254.5 C335,256.427 336.573065,258 338.500145,258 C340.427225,258 342.00029,256.427 342.00029,254.5 C342.00029,252.573 340.427225,251 338.500145,251 Z M338.500145,252 C339.887202,252 341.000249,253.113 341.000249,254.5 C341.000249,255.887 339.887202,257 338.500145,257 C337.113088,257 336.000041,255.887 336.000041,254.5 C336.000041,253.113 337.113088,252 338.500145,252 Z M338.500145,241 C336.573065,241 335.013001,242.573 335.013001,244.5 C335.013001,246.427 336.573065,248 338.500145,248 C340.427225,248 341.987289,246.427 341.987289,244.5 C341.987289,242.573 340.428225,241 338.500145,241 Z M338.500145,242 C339.887202,242 341.013249,243.113 341.013249,244.5 C341.013249,245.887 339.886202,247 338.500145,247 C337.114088,247 335.987041,245.887 335.987041,244.5 C335.987041,243.113 337.113088,242 338.500145,242 Z M364.501222,245 L344.500394,245 C343.830366,245 343.850367,244 344.500394,244 L364.501222,244 C365.16125,244 365.17125,245 364.501222,245 Z M364.501222,255 L344.500394,255 C343.830366,255 343.850367,254 344.500394,254 L364.501222,254 C365.16125,254 365.17125,255 364.501222,255 Z M364.501222,265 L344.500394,265 C343.830366,265 343.850367,264 344.500394,264 L364.501222,264 C365.16125,264 365.17125,265 364.501222,265 Z" id="Shape"></path>
        </g>
    </g>
</svg>