<?xml version="1.0" encoding="UTF-8"?>
<svg width="26px" height="30px" viewBox="0 0 26 30" version="1.1" xmlns="http://www.w3.org/2000/svg" xmlns:xlink="http://www.w3.org/1999/xlink">
    <!-- Generator: Sketch 45.2 (43514) - http://www.bohemiancoding.com/sketch -->
    <title>thefactory/element/icons/icnthefactory/element/icons/icn-56</title>
    <desc>Created with Sketch.</desc>
    <defs></defs>
    <g id="Ressources" stroke="none" stroke-width="1" fill="none" fill-rule="evenodd">
        <g id="thefactory/element/icn/inc-artboard" transform="translate(-628.000000, -620.000000)" fill-rule="nonzero" fill="#000000">
            <path d="M646.498327,630 C646.368367,630 646.232408,630.06 646.141436,630.152 L640.645108,635.65 C640.398183,635.897 640.181249,635.984 639.995306,635.985 C639.811362,635.985 639.609423,635.905 639.353501,635.65 L636.861259,633.16 C636.407397,632.685 635.686616,633.417 636.155474,633.868 L638.647716,636.358 C639.039596,636.75 639.500456,636.988 639.997305,636.985 C640.492154,636.982 640.971009,636.739 641.350893,636.359 L646.849221,630.859 C647.159126,630.554 646.957188,629.999 646.499327,629.999 L646.498327,630 Z M640.720085,620.05 C640.588125,620.108 640.390185,620.233 640.158256,620.375 C639.925327,620.517 639.471465,620.805 639.0286,621.047 C638.14087,621.527 637.029208,622.002 636.00152,622.002 C634.901855,622.002 634.079105,621.772 633.314338,621.525 C632.55057,621.278 631.837787,621 631.003041,621 C630.229276,621 629.477505,621.122 628.896682,621.603 C628.313859,622.085 628.003953,622.916 628.003953,624 L628.003953,632 C628.003953,633.18 627.814011,637.267 630.067326,641.248 C631.393922,643.59 633.686225,645.743 635.843569,647.34 C636.92324,648.138 637.966923,648.795 638.852653,649.258 C639.737384,649.721 640.402182,650 641,650 C641.599818,650 642.262616,649.72 643.147347,649.258 C644.033077,648.795 645.07676,648.138 646.156431,647.34 C648.313775,645.743 650.605078,643.59 651.932674,641.248 C654.185989,637.268 653.996047,633.18 653.996047,632 L653.996047,624 C653.996047,622.916 653.686141,622.085 653.103318,621.603 C652.523495,621.123 651.770724,621 650.996959,621 C650.163213,621 649.44943,621.278 648.684662,621.523 C647.921894,621.77 647.098145,622 645.99848,622 C644.968793,622 643.851133,621.526 642.964402,621.045 C642.520537,620.805 642.074673,620.533 641.834746,620.373 C641.59182,620.213 641.391881,620.113 641.272917,620.048 C641.13296,619.984 640.865041,619.984 640.719085,620.048 L640.720085,620.05 Z M641,621.09 C641.091972,621.09 641.172947,621.14 641.302908,621.222 C641.600817,621.409 642.007693,621.666 642.485548,621.925 C643.441257,622.443 644.684879,623 645.99848,623 C647.240102,623 648.19781,622.73 648.98957,622.477 C649.779329,622.222 650.395142,622 650.996959,622 C651.658758,622 652.156606,622.12 652.466512,622.375 C652.776418,622.631 652.996351,623.095 652.996351,624 L652.996351,632 C652.996351,633.277 653.1633,637.045 651.06094,640.755 C649.851308,642.893 647.64198,644.995 645.560613,646.537 C644.520929,647.307 643.511236,647.94 642.685487,648.373 C641.857739,648.806 641.150954,649 641,649 C640.850046,649 640.142261,648.806 639.314513,648.373 C638.487764,647.94 637.480071,647.308 636.438388,646.537 C634.357021,644.997 632.149692,642.893 630.94006,640.755 C628.8357,637.045 629.003649,633.277 629.003649,632 L629.003649,624 C629.003649,623.095 629.223582,622.63 629.533488,622.375 C629.843394,622.12 630.340243,622 631.003041,622 C631.604858,622 632.219671,622.222 633.01043,622.477 C633.80019,622.73 634.759898,623 636.00152,623 C637.314121,623 638.550745,622.442 639.506454,621.923 C639.984309,621.663 640.391185,621.407 640.689095,621.22 C640.819055,621.14 640.907028,621.087 640.999,621.087 L641,621.09 Z" id="Shape"></path>
        </g>
    </g>
</svg>