<?xml version="1.0" encoding="UTF-8"?>
<svg width="30px" height="28px" viewBox="0 0 30 28" version="1.1" xmlns="http://www.w3.org/2000/svg" xmlns:xlink="http://www.w3.org/1999/xlink">
    <!-- Generator: Sketch 45.2 (43514) - http://www.bohemiancoding.com/sketch -->
    <title>thefactory/element/icons/icnthefactory/element/icons/icn-120</title>
    <desc>Created with Sketch.</desc>
    <defs></defs>
    <g id="Ressources" stroke="none" stroke-width="1" fill="none" fill-rule="evenodd">
        <g id="thefactory/element/icn/inc-artboard" transform="translate(-335.000000, -317.000000)" fill-rule="nonzero" fill="#000000">
            <path d="M355.5,325 C355.5,325 355.2,325 355.1,325.2 L349.7,330.7 L349.1,331 C348.9,331 348.7,331 348.5,330.7 L346,328.2 C345.4,327.7 344.7,328.4 345.2,328.9 L347.6,331.3 C348,331.7 348.6,331.9 349,331.9 C349.5,331.9 350,331.7 350.4,331.3 L356,326 C356.2,325.6 356,325 355.5,325 Z M336.5,317 C335.7,317 335,317.7 335,318.5 L335,337.5 C335,338.3 335.7,339 336.5,339 L340,339 L340,343.5 C340,343.8 340,344.1 340.2,344.5 C340.2,344.7 340.6,344.9 340.8,345 C341.4,345 341.8,344.8 342.4,344.3 L347.7,339 L363.5,339 C364.3,339 365,338.3 365,337.5 L365,318.5 C365,317.7 364.3,317 363.5,317 L336.5,317 Z M336.5,318 L363.5,318 C363.8,318 364,318.2 364,318.5 L364,337.5 C364,337.8 363.8,338 363.5,338 L347.1,338 L341.7,343.7 C341.2,344.2 341.1,343.7 341.1,343.5 L341.1,338.5 C341.1,338.2 340.9,338 340.6,338 L336.6,338 C336.3,338 336.1,337.8 336.1,337.5 L336.1,318.5 C336.1,318.2 336.3,318 336.6,318 L336.5,318 Z" id="Shape"></path>
        </g>
    </g>
</svg>