<?xml version="1.0" encoding="UTF-8"?>
<svg width="30px" height="17px" viewBox="0 0 30 17" version="1.1" xmlns="http://www.w3.org/2000/svg" xmlns:xlink="http://www.w3.org/1999/xlink">
    <!-- Generator: Sketch 45.2 (43514) - http://www.bohemiancoding.com/sketch -->
    <title>thefactory/element/icons/icnthefactory/element/icons/icn-19</title>
    <desc>Created with Sketch.</desc>
    <defs></defs>
    <g id="Ressources" stroke="none" stroke-width="1" fill="none" fill-rule="evenodd">
        <g id="thefactory/element/icn/inc-artboard" transform="translate(-398.000000, -997.000000)" fill-rule="nonzero" fill="#000000">
            <path d="M398,999.529793 L398,1004.52013 C398,1004.78163 398.238,1005.01917 398.5,1005.01917 L403.5,1005.01917 C404.174,1005.01917 404.163,1004.0211 403.5,1004.0211 L399,1004.0211 L399,999.529793 C399,998.873065 398,998.867076 398,999.529793 Z M411.25,997.016659 C407.147,997.190323 403.1,998.935943 400.125,1002.19463 C399.711,1002.66073 400.43,1003.3504 400.875,1002.84837 C406.458,996.735204 415.965,996.370909 422.095,1001.94412 C425.21,1004.77963 427,1008.80384 427,1013.01568 L427,1013.50174 C427,1014.18442 428,1014.14749 428,1013.50174 L428,1013.01568 C428,1008.52438 426.107,1004.22071 422.78,1001.19457 C419.518,998.225319 415.353,996.840001 411.25,997.014663 L411.25,997.016659 Z" id="Shape"></path>
        </g>
    </g>
</svg>