<?xml version="1.0" encoding="UTF-8"?>
<svg width="18px" height="30px" viewBox="0 0 18 30" version="1.1" xmlns="http://www.w3.org/2000/svg" xmlns:xlink="http://www.w3.org/1999/xlink">
    <!-- Generator: Sketch 45.2 (43514) - http://www.bohemiancoding.com/sketch -->
    <title>thefactory/element/icons/icnthefactory/element/icons/icn-34</title>
    <desc>Created with Sketch.</desc>
    <defs></defs>
    <g id="Ressources" stroke="none" stroke-width="1" fill="none" fill-rule="evenodd">
        <g id="thefactory/element/icn/inc-artboard" transform="translate(-553.000000, -917.000000)" fill-rule="nonzero" fill="#000000">
            <path d="M558.498697,917 C557.844398,917 557.8484,917.999943 558.498697,917.999943 L565.343828,917.999943 C566.064157,917.999943 566.074162,918.40792 565.898081,918.769899 L562.056324,926.269472 C561.884245,926.603453 562.126356,926.999431 562.500527,926.999431 L569.575763,926.999431 C569.725832,926.999431 569.898911,927.092425 569.965941,927.247417 C570.035973,927.402408 570.060985,927.690391 569.67781,928.197362 L557.328162,944.56843 L558.992923,934.580999 C559.042946,934.276016 558.807839,933.998032 558.498697,933.999032 L554.536885,933.999032 C553.979631,933.999032 553.936611,933.835041 554.031654,933.065085 L555.992551,918.565911 C556.082592,917.905948 555.089138,917.771956 555.002098,918.433918 L553.039201,932.933093 C552.964166,933.489061 552.979173,933.981033 553.242293,934.39301 C553.506414,934.805986 554.010645,934.998975 554.535885,934.998975 L557.905426,934.998975 L556.003556,946.416325 C555.917517,946.932296 556.581821,947.21628 556.895964,946.799303 L570.477175,928.800328 C571.001415,928.106368 571.120469,927.394408 570.883361,926.850439 C570.643251,926.30647 570.113009,926.000488 569.574762,926.000488 L563.317901,926.000488 L566.786487,919.230873 C566.974573,918.862894 567.102632,918.374922 566.906542,917.87095 C566.709452,917.362979 566.122184,917 565.341827,917 L558.498697,917 Z" id="Shape"></path>
        </g>
    </g>
</svg>