<?xml version="1.0" encoding="UTF-8"?>
<svg width="30px" height="22px" viewBox="0 0 30 22" version="1.1" xmlns="http://www.w3.org/2000/svg" xmlns:xlink="http://www.w3.org/1999/xlink">
    <!-- Generator: Sketch 45.2 (43514) - http://www.bohemiancoding.com/sketch -->
    <title>thefactory/element/icons/icnthefactory/element/icons/icn-110</title>
    <desc>Created with Sketch.</desc>
    <defs></defs>
    <g id="Ressources" stroke="none" stroke-width="1" fill="none" fill-rule="evenodd">
        <g id="thefactory/element/icn/inc-artboard" transform="translate(-1001.000000, -915.000000)" fill-rule="nonzero" fill="#000000">
            <path d="M1012.514,924 C1012.064,924 1011.826,924.54 1012.151,924.857 L1015.294,927.997 L1012.148,931.143 C1011.693,931.579 1012.403,932.32 1012.855,931.85 L1016,928.705 L1019.146,931.85 C1019.598,932.32 1020.308,931.58 1019.853,931.143 L1016.707,927.998 L1019.849,924.858 C1020.173,924.54 1019.936,924 1019.485,924 C1019.355,924.004 1019.232,924.058 1019.141,924.15 L1016,927.29 L1012.858,924.15 C1012.768,924.058 1012.644,924.004 1012.514,924 L1012.514,924 Z M1003.5,919 L1028.5,919 C1028.777,919 1029,919.223 1029,919.5 C1029,919.777 1028.777,920 1028.5,920 L1003.5,920 C1003.223,920 1003,919.777 1003,919.5 C1003,919.223 1003.223,919 1003.5,919 Z M1008,917.5 C1008,917.776142 1007.77614,918 1007.5,918 C1007.22386,918 1007,917.776142 1007,917.5 C1007,917.223858 1007.22386,917 1007.5,917 C1007.77614,917 1008,917.223858 1008,917.5 Z M1006,917.5 C1006,917.776142 1005.77614,918 1005.5,918 C1005.22386,918 1005,917.776142 1005,917.5 C1005,917.223858 1005.22386,917 1005.5,917 C1005.77614,917 1006,917.223858 1006,917.5 Z M1004,917.5 C1004,917.776142 1003.77614,918 1003.5,918 C1003.22386,918 1003,917.776142 1003,917.5 C1003,917.223858 1003.22386,917 1003.5,917 C1003.77614,917 1004,917.223858 1004,917.5 Z M1002.5,915 C1001.678,915 1001,915.678 1001,916.5 L1001,935.5 C1001,936.322 1001.678,937 1002.5,937 L1029.5,937 C1030.322,937 1031,936.322 1031,935.5 L1031,916.5 C1031,915.678 1030.322,915 1029.5,915 L1002.5,915 Z M1002.5,916 L1029.5,916 C1029.786,916 1030,916.214 1030,916.5 L1030,935.5 C1030,935.786 1029.786,936 1029.5,936 L1002.5,936 C1002.214,936 1002,935.786 1002,935.5 L1002,916.5 C1002,916.214 1002.214,916 1002.5,916 Z" id="Shape"></path>
        </g>
    </g>
</svg>