<?xml version="1.0" encoding="UTF-8"?>
<svg width="30px" height="29px" viewBox="0 0 30 29" version="1.1" xmlns="http://www.w3.org/2000/svg" xmlns:xlink="http://www.w3.org/1999/xlink">
    <!-- Generator: Sketch 45.2 (43514) - http://www.bohemiancoding.com/sketch -->
    <title>thefactory/element/icons/icnthefactory/element/icons/icn-86</title>
    <desc>Created with Sketch.</desc>
    <defs></defs>
    <g id="Ressources" stroke="none" stroke-width="1" fill="none" fill-rule="evenodd">
        <g id="thefactory/element/icn/inc-artboard" transform="translate(-695.000000, -468.000000)" fill-rule="nonzero" fill="#000000">
            <path d="M724.999947,482.498147 C724.995947,482.774189 724.775949,483.002223 724.499952,482.998223 L698.500215,482.998223 C697.840221,482.998223 697.836221,481.998071 698.500215,481.998071 L724.499952,481.998071 C724.781949,481.99407 725.003947,482.216104 724.999947,482.498147 Z M710.000098,496.500274 C710.000098,496.950343 709.446104,497.163375 709.146107,496.854328 L695.146249,482.8522 C694.95125,482.656171 694.95125,482.340123 695.146249,482.144093 L709.146107,468.141965 C709.572103,467.699898 710.313095,468.390003 709.8541,468.850073 L696.207238,482.498147 L709.8541,496.14622 C709.951099,496.241235 710.000098,496.366254 710.000098,496.500274 Z" id="Shape"></path>
        </g>
    </g>
</svg>