<?xml version="1.0" encoding="UTF-8"?>
<svg width="24px" height="30px" viewBox="0 0 24 30" version="1.1" xmlns="http://www.w3.org/2000/svg" xmlns:xlink="http://www.w3.org/1999/xlink">
    <!-- Generator: Sketch 45.2 (43514) - http://www.bohemiancoding.com/sketch -->
    <title>thefactory/element/icons/icnthefactory/element/icons/icn-66</title>
    <desc>Created with Sketch.</desc>
    <defs></defs>
    <g id="Ressources" stroke="none" stroke-width="1" fill="none" fill-rule="evenodd">
        <g id="thefactory/element/icn/inc-artboard" transform="translate(-951.000000, -544.000000)" fill-rule="nonzero" fill="#000000">
            <path d="M967.5,546 C967.224,546.004 966.996,546.224 967,546.5 L967,550.5 C967,551.315 967.656,552 968.47,552 L972.5,552 C973.17,552 973.154,551 972.5,551 L968.47,551 C968.21,551 968,550.793 968,550.5 L968,546.5 C968.004,546.218 967.782,545.996 967.5,546 Z M956.47,544 C955.657,544 955,544.685 955,545.5 L955,568.5 C955,569.315 955.656,570 956.47,570 L973.53,570 C974.344,570 975,569.315 975,568.5 L975,550.5 C975,550.367 974.947,550.24 974.854,550.146 L968.854,544.146 C968.76,544.053 968.634,544 968.5,544 L956.47,544 Z M956.47,545 L968.293,545 L974,550.707 L974,568.5 C974,568.793 973.79,569 973.53,569 L956.47,569 C956.21,569 956,568.793 956,568.5 L956,545.5 C956,545.207 956.21,545 956.47,545 Z M952.47,548 C951.657,548 951,548.685 951,549.5 L951,572.5 C951,573.315 951.656,574 952.47,574 L969.53,574 C970.344,574 971,573.315 971,572.5 L971,571.5 C971.01,570.824 969.99,570.824 970,571.5 L970,572.5 C970,572.793 969.79,573 969.53,573 L952.47,573 C952.21,573 952,572.793 952,572.5 L952,549.5 C952,549.207 952.21,549 952.47,549 L953.53,549 C954.205,549.01 954.205,547.99 953.53,548 L952.47,548 Z" id="Shape"></path>
        </g>
    </g>
</svg>