<?xml version="1.0" encoding="UTF-8"?>
<svg width="30px" height="28px" viewBox="0 0 30 28" version="1.1" xmlns="http://www.w3.org/2000/svg" xmlns:xlink="http://www.w3.org/1999/xlink">
    <!-- Generator: Sketch 45.2 (43514) - http://www.bohemiancoding.com/sketch -->
    <title>thefactory/element/icons/icnthefactory/element/icons/icn-18</title>
    <desc>Created with Sketch.</desc>
    <defs></defs>
    <g id="Ressources" stroke="none" stroke-width="1" fill="none" fill-rule="evenodd">
        <g id="thefactory/element/icn/inc-artboard" transform="translate(-246.000000, -991.000000)" fill-rule="nonzero" fill="#000000">
            <path d="M264.938,1018.27524 L262.933,1014.25541 C262.679,1013.69543 261.769,1014.14541 262.055,1014.72739 L264.061,1018.74722 C264.401,1019.3332 265.233,1018.78422 264.939,1018.27524 L264.938,1018.27524 Z M257.061,1018.27524 L259.068,1014.25541 C259.322,1013.69543 260.232,1014.14541 259.946,1014.72739 L257.94,1018.74722 C257.6,1019.3332 256.768,1018.78422 257.06,1018.27524 L257.061,1018.27524 Z M264.94,991.724315 L262.935,995.744152 C262.681,996.30413 261.771,995.854148 262.057,995.272171 L264.063,991.252334 C264.403,990.667357 265.235,991.215335 264.941,991.724315 L264.94,991.724315 Z M257.063,991.724315 L259.07,995.744152 C259.324,996.30413 260.234,995.854148 259.948,995.272171 L257.942,991.252334 C257.602,990.667357 256.77,991.215335 257.062,991.724315 L257.063,991.724315 Z M265.5,997.000102 C264.843,997.000102 264.843,998.000061 265.5,998.000061 L268,998.000061 C271.887,998.000061 275,1001.11294 275,1004.99978 C275,1008.88662 271.887,1011.9995 268,1011.9995 L265.5,1011.9995 C264.833,1011.9995 264.85,1012.99946 265.5,1012.99946 L268,1012.99946 C272.423,1012.99946 276,1009.4226 276,1004.99978 C276,1000.57696 272.423,997.000102 268,997.000102 L265.5,997.000102 Z M254,997.000102 C249.577,997.000102 246,1000.57696 246,1004.99978 C246,1009.4226 249.577,1012.99946 254,1012.99946 L256.5,1012.99946 C257.165,1012.99946 257.16,1011.9995 256.5,1011.9995 L254,1011.9995 C250.113,1011.9995 247,1008.88662 247,1004.99978 C247,1001.11294 250.113,998.000061 254,998.000061 L256.5,998.000061 C257.158,998.000061 257.17,997.000102 256.5,997.000102 L254,997.000102 Z" id="Shape"></path>
        </g>
    </g>
</svg>