<?xml version="1.0" encoding="UTF-8"?>
<svg width="30px" height="20px" viewBox="0 0 30 20" version="1.1" xmlns="http://www.w3.org/2000/svg" xmlns:xlink="http://www.w3.org/1999/xlink">
    <!-- Generator: Sketch 45.2 (43514) - http://www.bohemiancoding.com/sketch -->
    <title>thefactory/element/icons/icnthefactory/element/icons/icn-54</title>
    <desc>Created with Sketch.</desc>
    <defs></defs>
    <g id="Ressources" stroke="none" stroke-width="1" fill="none" fill-rule="evenodd">
        <g id="thefactory/element/icn/inc-artboard" transform="translate(-774.000000, -620.000000)" fill-rule="nonzero" fill="#000000">
            <path d="M781.518,640 C782.946,640 784.35,639.383997 785.381,638.376993 C786.415,637.369989 787,636.011983 787,634.501977 C787,633.111971 786.384,631.828966 785.668,630.735962 C784.954,629.645957 784.11,628.705953 783.408,627.712949 C783.002,627.139947 782.642,626.548944 782.388,625.927942 C782.132,625.307939 781.983,624.640936 782,624.001934 C782.032,622.778928 782.728,621.573923 783.766,620.925921 C784.213,620.64792 783.953,619.905917 783.408,620.009917 C780.761,620.509919 778.315,621.959925 776.608,624.044934 C774.904,626.129942 774,628.804953 774,631.499965 C774,633.499973 774.64,635.686982 775.965,637.327989 C776.628,638.147992 777.459,638.840995 778.415,639.314997 C779.369,639.788999 780.441,640 781.518,640 L781.518,640 Z M781.482,638.999996 C780.582,638.999996 779.672,638.821995 778.859,638.417993 C778.044,638.013992 777.319,637.417989 776.741,636.700986 C775.586,635.26998 775,633.473973 775,631.499965 C775,629.047954 775.83,626.577944 777.383,624.679936 C778.497,623.317931 780.023,622.392927 781.656,621.729924 C781.258,622.411927 781.02,623.19993 781,623.999934 C780.98,624.809937 781.167,625.58594 781.463,626.306943 C781.759,627.024946 782.16,627.678949 782.593,628.286951 C783.337,629.340956 784.171,630.27696 784.83,631.281964 C785.487,632.284968 786,633.383973 786,634.498977 C786,635.656982 785.52,636.842987 784.684,637.65899 C783.844,638.478994 782.667,638.996996 781.482,638.996996 L781.482,638.999996 Z M798.518,640 C799.946,640 801.35,639.383997 802.381,638.376993 C803.415,637.369989 804,636.009983 804,634.499977 C804,633.109971 803.384,631.829966 802.668,630.735962 C801.954,629.645957 801.11,628.705953 800.408,627.712949 C800.002,627.139947 799.642,626.548944 799.388,625.927942 C799.132,625.307939 798.983,624.640936 799,624.001934 C799.032,622.778928 799.728,621.573923 800.766,620.925921 C801.213,620.64792 800.953,619.905917 800.408,620.009917 C797.761,620.509919 795.315,621.959925 793.608,624.044934 C791.904,626.129942 791,628.807953 791,631.501965 C791,633.501973 791.64,635.686982 792.965,637.327989 C793.628,638.147992 794.459,638.840995 795.415,639.314997 C796.369,639.788999 797.441,640 798.518,640 L798.518,640 Z M798.482,638.999996 C797.582,638.999996 796.672,638.821995 795.859,638.417993 C795.044,638.013992 794.319,637.417989 793.741,636.700986 C792.586,635.26998 792,633.475973 792,631.502965 C792,629.050955 792.83,626.578944 794.383,624.680936 C795.497,623.318931 797.023,622.393927 798.656,621.730924 C798.258,622.411927 798.02,623.19993 798,623.999934 C797.98,624.809937 798.167,625.58594 798.463,626.306943 C798.759,627.024946 799.16,627.678949 799.593,628.286951 C800.337,629.340956 801.171,630.27696 801.83,631.281964 C802.487,632.284968 803,633.381973 803,634.496977 C803,635.654982 802.52,636.842987 801.684,637.65899 C800.844,638.478994 799.667,638.996996 798.482,638.996996 L798.482,638.999996 Z" id="Shape"></path>
        </g>
    </g>
</svg>