<?xml version="1.0" encoding="UTF-8"?>
<svg width="52px" height="46px" viewBox="0 0 52 46" version="1.1" xmlns="http://www.w3.org/2000/svg" xmlns:xlink="http://www.w3.org/1999/xlink">
    <!-- Generator: Sketch 45.2 (43514) - http://www.bohemiancoding.com/sketch -->
    <title>thefactory/element/icons/icn-02</title>
    <desc>Created with Sketch.</desc>
    <defs></defs>
    <g id="Template" stroke="none" stroke-width="1" fill="none" fill-rule="evenodd">
        <g transform="translate(-624.000000, -1001.000000)" id="Picto-presentation" fill-rule="nonzero" fill="#000000">
            <g transform="translate(80.000000, 810.000000)">
                <g id="mbri-hearth" transform="translate(544.000000, 191.000000)">
                    <path d="M13.8233333,0.714285714 C9.94933333,0.913142857 6.25733333,2.77657143 3.73533333,5.66857143 C1.21333333,8.54857143 0,12.3474286 0,16.1428571 C0,19.4651429 1.20813333,22.6845714 2.85306667,25.5028571 C4.49973333,28.3211429 6.64906667,30.7777143 8.91973333,33.0354286 C13.8146667,37.892 19.4584,42.0045714 25.5978667,45.1897143 C25.8492,45.32 26.1525333,45.32 26.4021333,45.1897143 C32.5433333,42.0045714 38.1853333,37.892 43.0802667,33.0354286 C45.3509333,30.7777143 47.5002667,28.3211429 49.1469333,25.5045714 C50.7936,22.6862857 52,19.4685714 52,16.1428571 C52,12.3371429 50.7866667,8.552 48.2664,5.66857143 C45.7426667,2.77485714 42.0506667,0.911428571 38.1784,0.714285714 C35.5506667,0.580571429 32.9004,1.20457143 30.6176,2.49714286 C28.7161333,3.57028571 27.1942667,5.168 26,6.97828571 C24.804,5.168 23.2838667,3.57028571 21.3824,2.49542857 C19.1013333,1.20285714 16.4493333,0.577142857 13.8250667,0.714285714 L13.8233333,0.714285714 Z M13.91,2.42857143 C16.198,2.312 18.5293333,2.85714286 20.5192,3.98171429 C22.5090667,5.10628571 24.1713333,6.81371429 25.2338667,8.82285714 C25.5562667,9.44 26.4437333,9.44 26.7678667,8.82285714 C27.8286667,6.81371429 29.4892,5.10628571 31.4825333,3.98171429 C33.4706667,2.85714286 35.7985333,2.312 38.09,2.42857143 C41.4561333,2.6 44.7408,4.24914286 46.956,6.78285714 C49.1746667,9.32514286 50.2666667,12.7142857 50.2666667,16.1428571 C50.2666667,19.1085714 49.1781333,22.0228571 47.6458667,24.6457143 C46.1118667,27.2771429 44.0682667,29.624 41.8530667,31.8217143 C37.1973333,36.4451429 31.8205333,40.3502857 26,43.4205714 C20.1794667,40.352 14.8026667,36.4434286 10.1469333,31.8217143 C7.93173333,29.624 5.88813333,27.2788571 4.35413333,24.6474286 C2.82186667,22.0228571 1.73333333,19.1085714 1.73333333,16.1428571 C1.73333333,12.7142857 2.82533333,9.32342857 5.044,6.78285714 C7.2592,4.25085714 10.5438667,2.6 13.91,2.42857143 Z" id="Shape"></path>
                </g>
            </g>
        </g>
    </g>
</svg>