<?xml version="1.0" encoding="UTF-8"?>
<svg width="13px" height="30px" viewBox="0 0 13 30" version="1.1" xmlns="http://www.w3.org/2000/svg" xmlns:xlink="http://www.w3.org/1999/xlink">
    <!-- Generator: Sketch 45.2 (43514) - http://www.bohemiancoding.com/sketch -->
    <title>thefactory/element/icons/icnthefactory/element/icons/icn-91</title>
    <desc>Created with Sketch.</desc>
    <defs></defs>
    <g id="Ressources" stroke="none" stroke-width="1" fill="none" fill-rule="evenodd">
        <g id="thefactory/element/icn/inc-artboard" transform="translate(-336.000000, -468.000000)" fill-rule="nonzero" fill="#000000">
            <path d="M346.500887,468 C345.126375,468 344.001775,469.124963 344.001775,470.499917 C344.001775,471.874871 345.126375,472.999833 346.500887,472.999833 C347.875399,472.999833 349,471.874871 349,470.499917 C349,469.124963 347.875399,468 346.500887,468 Z M346.500887,468.999967 C347.334591,468.999967 348.000355,469.665944 348.000355,470.499917 C348.000355,471.333889 347.334591,471.999867 346.500887,471.999867 C345.667183,471.999867 345.00142,471.333889 345.00142,470.499917 C345.00142,469.665944 345.667183,468.999967 346.500887,468.999967 Z M344.595564,473.9998 C342.912161,473.9998 341.549645,475.106763 340.596984,476.155728 C339.643322,477.205693 339.212475,477.952668 339.067527,478.249658 C338.780628,478.827639 339.580344,479.335622 339.940217,478.719643 C340.107157,478.432652 340.450036,477.762675 341.315728,476.811706 C341.64961,476.444719 342.050467,476.131729 342.471318,475.843739 C342.901165,475.547748 343.047114,476.046732 343.095097,476.343722 C343.165072,476.780707 343.011126,477.616679 342.657252,478.623646 C341.949503,480.639579 340.513013,483.407486 339.158494,486.186394 C337.803975,488.966301 336.519431,491.741209 336.12957,493.936135 C335.93264,495.034099 335.919644,496.006066 336.379481,496.780041 C336.836319,497.554015 337.76299,498 338.971561,498 C340.653963,498 342.124441,496.885037 343.187064,495.844072 C344.250686,494.802107 344.738513,494.027132 344.906453,493.750142 C345.271324,493.147162 344.443618,492.736175 344.093742,493.220159 C343.903809,493.480151 343.446972,494.167128 342.469319,495.125096 C342.165427,495.421086 341.833544,495.725076 341.469674,495.969068 C341.16978,496.166061 341.069816,495.749075 341.02983,495.499083 C340.961854,495.064098 341.155785,494.253125 341.529652,493.249158 C342.281385,491.242225 343.754862,488.481317 345.092387,485.719409 C346.429913,482.954502 347.654478,480.199593 347.934378,477.999667 C348.074329,476.899703 347.988359,475.879737 347.434556,475.124763 C346.884751,474.369788 345.908098,473.9998 344.596563,473.9998 L344.595564,473.9998 Z M344.595564,474.999767 C345.719165,474.999767 346.29696,475.269758 346.624843,475.719743 C346.954726,476.167728 347.060689,476.909703 346.938732,477.874671 C346.692819,479.804607 345.516237,482.539515 344.189708,485.280424 C342.862179,488.023333 341.420691,490.78524 340.627972,492.90617 C340.231113,493.966134 339.95821,494.860105 340.034183,495.626079 C340.074169,496.008066 340.211121,496.362055 340.504017,496.626046 C340.000195,496.876037 339.48138,497.000033 338.97456,497.000033 C337.974914,497.000033 337.515078,496.720043 337.25517,496.280057 C336.995262,495.842072 336.925287,495.106096 337.099225,494.125129 C337.449101,492.165194 338.688661,489.388287 340.035183,486.625379 C341.384704,483.862471 342.844186,481.079564 343.597918,478.937635 C343.973785,477.867671 344.180711,476.962701 344.065752,476.187727 C344.010771,475.81474 343.853827,475.471751 343.565929,475.219759 C343.905809,475.094764 344.245688,474.999767 344.597563,474.999767 L344.595564,474.999767 Z" id="Shape"></path>
        </g>
    </g>
</svg>