<?xml version="1.0" encoding="UTF-8"?>
<svg width="30px" height="18px" viewBox="0 0 30 18" version="1.1" xmlns="http://www.w3.org/2000/svg" xmlns:xlink="http://www.w3.org/1999/xlink">
    <!-- Generator: Sketch 45.2 (43514) - http://www.bohemiancoding.com/sketch -->
    <title>thefactory/element/icons/icnthefactory/element/icons/icn-58</title>
    <desc>Created with Sketch.</desc>
    <defs></defs>
    <g id="Ressources" stroke="none" stroke-width="1" fill="none" fill-rule="evenodd">
        <g id="thefactory/element/icn/inc-artboard" transform="translate(-478.000000, -620.000000)" fill-rule="nonzero" fill="#000000">
            <path d="M492.473965,624.002 C491.373892,624.002 490.316821,624.464 489.507767,625.197 C488.582706,626.037 487.999667,627.244 487.999667,628.491 C487.999667,629.156 488.999733,629.179 488.999733,628.515 C488.999733,627.55 489.465764,626.585 490.181812,625.935 C490.808854,625.365 491.65191,625.027 492.499967,625.001 C493.15501,625.001 493.172011,624.003 492.473965,624.003 L492.473965,624.002 Z M493,622 C489.139743,622 485.999533,625.14 485.999533,629 C485.999533,632.86 489.139743,636 493,636 C496.860257,636 500.000467,632.86 500.000467,629 C500.000467,625.14 496.860257,622 493,622 Z M493,623 C496.320221,623 499.0004,625.68 499.0004,629 C499.0004,632.32 496.320221,635 493,635 C489.679779,635 486.9996,632.32 486.9996,629 C486.9996,625.68 489.679779,623 493,623 Z M493,620 C488.116674,620 484.374425,621.953 481.869258,624.02 C480.615174,625.053 479.669111,626.115 479.026068,626.988 C478.706047,627.425 478.461031,627.814 478.290019,628.138 C478.120008,628.463 478,628.658 478,629 C478,629.34 478.120008,629.537 478.290019,629.86 C478.462031,630.186 478.706047,630.575 479.027068,631.012 C479.669111,631.885 480.617174,632.947 481.869258,633.98 C484.373425,636.047 488.115674,638 493,638 C497.883326,638 501.625575,636.047 504.130742,633.98 C505.384826,632.947 506.330889,631.885 506.973932,631.012 C507.293953,630.575 507.538969,630.186 507.709981,629.862 C507.879992,629.537 508,629.342 508,629 C508,628.66 507.879992,628.463 507.709981,628.14 C507.537969,627.814 507.293953,627.425 506.972932,626.988 C506.330889,626.115 505.382826,625.053 504.130742,624.02 C501.626575,621.953 497.884326,620 493,620 Z M493,621 C497.617308,621 501.125542,622.838 503.4947,624.79 C504.679779,625.768 505.576838,626.774 506.168878,627.58 C506.464898,627.983 506.683912,628.338 506.824922,628.604 C506.999933,628.931 506.960931,629.154 506.824922,629.396 C506.677912,629.659 506.464898,630.016 506.168878,630.42 C505.576838,631.226 504.678779,632.232 503.4947,633.21 C501.124542,635.16 497.617308,637 493,637 C488.382692,637 484.874458,635.162 482.5053,633.21 C481.320221,632.232 480.423162,631.226 479.831122,630.42 C479.535102,630.017 479.321088,629.66 479.175078,629.396 C479.035069,629.146 479.005067,628.911 479.175078,628.604 C479.320088,628.34 479.535102,627.984 479.831122,627.58 C480.423162,626.774 481.321221,625.768 482.5053,624.79 C484.875458,622.84 488.382692,621 493,621 Z" id="Shape"></path>
        </g>
    </g>
</svg>