<?xml version="1.0" encoding="UTF-8"?>
<svg width="30px" height="24px" viewBox="0 0 30 24" version="1.1" xmlns="http://www.w3.org/2000/svg" xmlns:xlink="http://www.w3.org/1999/xlink">
    <!-- Generator: Sketch 45.2 (43514) - http://www.bohemiancoding.com/sketch -->
    <title>thefactory/element/icons/icnthefactory/element/icons/icn-50</title>
    <desc>Created with Sketch.</desc>
    <defs></defs>
    <g id="Ressources" stroke="none" stroke-width="1" fill="none" fill-rule="evenodd">
        <g id="thefactory/element/icn/inc-artboard" transform="translate(-322.000000, -993.000000)" fill-rule="nonzero" fill="#000000">
            <path d="M347,1014.5 C347,1014.776 346.776,1015 346.5,1015 C346.224,1015 346,1014.776 346,1014.5 C346,1014.224 346.224,1014 346.5,1014 C346.776,1014 347,1014.224 347,1014.5 Z M345.5,1002 L347.5,1002 C347.777,1002 348,1002.223 348,1002.5 C348,1002.777 347.777,1003 347.5,1003 L345.5,1003 C345.223,1003 345,1002.777 345,1002.5 C345,1002.223 345.223,1002 345.5,1002 Z M342.5,1000 C341.678,1000 341,1000.678 341,1001.5 L341,1015.5 C341,1016.322 341.678,1017 342.5,1017 L350.5,1017 C351.322,1017 352,1016.322 352,1015.5 L352,1001.5 C352,1000.678 351.322,1000 350.5,1000 L342.5,1000 Z M342.5,1001 L350.5,1001 C350.786,1001 351,1001.214 351,1001.5 L351,1015.5 C351,1015.786 350.786,1016 350.5,1016 L342.5,1016 C342.214,1016 342,1015.786 342,1015.5 L342,1001.5 C342,1001.214 342.214,1001 342.5,1001 Z M336,1009.5 C336,1009.776 335.776,1010 335.5,1010 C335.224,1010 335,1009.776 335,1009.5 C335,1009.224 335.224,1009 335.5,1009 C335.776,1009 336,1009.224 336,1009.5 Z M323.5,993 C322.678,993 322,993.678 322,994.5 L322,1010.5 C322,1011.322 322.678,1012 323.5,1012 L333,1012 L333,1014 L331.5,1014 C331.223,1014 331,1014.223 331,1014.5 C331,1014.777 331.223,1015 331.5,1015 L339.5,1015 C339.777,1015 340,1014.777 340,1014.5 C340,1014.223 339.777,1014 339.5,1014 L338,1014 L338,1012 L339.5,1012 C340.168,1012 340.156,1011 339.5,1011 L323.5,1011 C323.214,1011 323,1010.786 323,1010.5 L323,1008 L339.5,1008 C339.777,1008 340,1007.777 340,1007.5 C340,1007.223 339.777,1007 339.5,1007 L323,1007 L323,994.5 C323,994.214 323.214,994 323.5,994 L347.5,994 C347.786,994 348,994.214 348,994.5 L348,998.5 C348,999.165 349,999.157 349,998.5 L349,994.5 C349,993.678 348.322,993 347.5,993 L323.5,993 Z M334,1012 L337,1012 L337,1014 L334,1014 L334,1012 Z" id="Shape"></path>
        </g>
    </g>
</svg>