<?xml version="1.0" encoding="UTF-8"?>
<svg width="30px" height="24px" viewBox="0 0 30 24" version="1.1" xmlns="http://www.w3.org/2000/svg" xmlns:xlink="http://www.w3.org/1999/xlink">
    <!-- Generator: Sketch 45.2 (43514) - http://www.bohemiancoding.com/sketch -->
    <title>thefactory/element/icons/icnthefactory/element/icons/icn-134</title>
    <desc>Created with Sketch.</desc>
    <defs></defs>
    <g id="Ressources" stroke="none" stroke-width="1" fill="none" fill-rule="evenodd">
        <g id="thefactory/element/icn/inc-artboard" transform="translate(-410.000000, -241.000000)" fill-rule="nonzero" fill="#000000">
            <path d="M423.5,257 L426.5,257 C426.777,257 427,257.223 427,257.5 C427,257.777 426.777,258 426.5,258 L423.5,258 C423.223,258 423,257.777 423,257.5 C423,257.223 423.223,257 423.5,257 Z M431.5,257 L434.5,257 C434.777,257 435,257.223 435,257.5 C435,257.777 434.777,258 434.5,258 L431.5,258 C431.223,258 431,257.777 431,257.5 C431,257.223 431.223,257 431.5,257 Z M415.5,257 L418.5,257 C418.777,257 419,257.223 419,257.5 C419,257.777 418.777,258 418.5,258 L415.5,258 C415.223,258 415,257.777 415,257.5 C415,257.223 415.223,257 415.5,257 Z M423.5,251 L426.5,251 C426.777,251 427,251.223 427,251.5 C427,251.777 426.777,252 426.5,252 L423.5,252 C423.223,252 423,251.777 423,251.5 C423,251.223 423.223,251 423.5,251 Z M431.5,251 L434.5,251 C434.777,251 435,251.223 435,251.5 C435,251.777 434.777,252 434.5,252 L431.5,252 C431.223,252 431,251.777 431,251.5 C431,251.223 431.223,251 431.5,251 Z M415.5,251 L418.5,251 C418.777,251 419,251.223 419,251.5 C419,251.777 418.777,252 418.5,252 L415.5,252 C415.223,252 415,251.777 415,251.5 C415,251.223 415.223,251 415.5,251 Z M433.5,241 C433.777,241 434,241.223 434,241.5 L434,245.5 C434,245.777 433.777,246 433.5,246 C433.223,246 433,245.777 433,245.5 L433,241.5 C433,241.223 433.223,241 433.5,241 Z M416.5,241 C416.777,241 417,241.223 417,241.5 L417,245.5 C417,245.777 416.777,246 416.5,246 C416.223,246 416,245.777 416,245.5 L416,241.5 C416,241.223 416.223,241 416.5,241 Z M411.5,243 C410.678,243 410,243.678 410,244.5 L410,263.5 C410,264.322 410.678,265 411.5,265 L438.5,265 C439.322,265 440,264.322 440,263.5 L440,244.5 C440,243.678 439.322,243 438.5,243 L435.5,243 C434.844,243 434.836,244 435.5,244 L438.5,244 C438.786,244 439,244.214 439,244.5 L439,263.5 C439,263.786 438.786,264 438.5,264 L411.5,264 C411.214,264 411,263.786 411,263.5 L411,244.5 C411,244.214 411.214,244 411.5,244 L414.5,244 C415.172,244 415.16,243 414.5,243 L411.5,243 Z M418.5,243 C417.85,243 417.84,244 418.5,244 L431.5,244 C432.156,244 432.168,243 431.5,243 L418.5,243 Z" id="Shape"></path>
        </g>
    </g>
</svg>