<?xml version="1.0" encoding="UTF-8"?>
<svg width="30px" height="20px" viewBox="0 0 30 20" version="1.1" xmlns="http://www.w3.org/2000/svg" xmlns:xlink="http://www.w3.org/1999/xlink">
    <!-- Generator: Sketch 45.2 (43514) - http://www.bohemiancoding.com/sketch -->
    <title>thefactory/element/icons/icnthefactory/element/icons/icn-125</title>
    <desc>Created with Sketch.</desc>
    <defs></defs>
    <g id="Ressources" stroke="none" stroke-width="1" fill="none" fill-rule="evenodd">
        <g id="thefactory/element/icn/inc-artboard" transform="translate(-923.000000, -995.000000)" fill-rule="nonzero" fill="#000000">
            <path d="M939.5,995 C935.99,995.005 932.814,996.973 931.17,1000.05 C930.948,1000.03 930.726,1000 930.5,1000 C926.352,1000 923,1003.364 923,1007.5 C923,1011.636 926.364,1015 930.5,1015 L948,1015 C950.756,1015 953,1012.756 953,1010 C953,1007.602 951.266,1005.627 948.96,1005.164 C948.976,1004.944 949,1004.67 949,1004.5 C949,999.28 944.74,995 939.5,995 Z M939.5,996 C944.2,996 948,999.8 948,1004.5 C947.998,1004.822 947.978,1005.143 947.94,1005.463 C947.905,1005.743 948.107,1005.993 948.387,1006.021 C950.44,1006.22 952,1007.938 952,1010 C952,1012.215 950.215,1014 948,1014 L930.5,1014 C926.904,1014 924,1011.096 924,1007.5 C924,1003.906 926.902,1001.002 930.496,1001 C930.781,1001.002 931.066,1001.023 931.348,1001.063 C931.562,1001.093 931.772,1000.983 931.868,1000.787 C933.287,997.862 936.247,996.005 939.5,996 Z" id="Shape"></path>
        </g>
    </g>
</svg>