<?xml version="1.0" encoding="UTF-8"?>
<svg width="30px" height="19px" viewBox="0 0 30 19" version="1.1" xmlns="http://www.w3.org/2000/svg" xmlns:xlink="http://www.w3.org/1999/xlink">
    <!-- Generator: Sketch 45.2 (43514) - http://www.bohemiancoding.com/sketch -->
    <title>thefactory/element/icons/icnthefactory/element/icons/icn-149</title>
    <desc>Created with Sketch.</desc>
    <defs></defs>
    <g id="Ressources" stroke="none" stroke-width="1" fill="none" fill-rule="evenodd">
        <g id="thefactory/element/icn/inc-artboard" transform="translate(-406.000000, -165.000000)" fill-rule="nonzero" fill="#000000">
            <path d="M435.504521,183 L406.49891,183 C405.818778,183 405.851785,184 406.49891,184 L435.504521,184 C436.149645,184 436.177651,183 435.504521,183 Z M435.504521,177 L406.49891,177 C405.82578,177 405.844783,178 406.49891,178 L435.504521,178 C436.154646,178 436.17465,177 435.504521,177 Z M435.504521,171 L406.49891,171 C405.848784,171 405.818778,172 406.49891,172 L435.504521,172 C436.159647,172 436.170649,171 435.504521,171 Z M435.504521,165 L406.49891,165 C405.838782,165 405.838782,166 406.49891,166 L435.504521,166 C436.157647,166 436.169649,165 435.504521,165 Z" id="Shape"></path>
        </g>
    </g>
</svg>