<?xml version="1.0" encoding="UTF-8"?>
<svg width="30px" height="30px" viewBox="0 0 30 30" version="1.1" xmlns="http://www.w3.org/2000/svg" xmlns:xlink="http://www.w3.org/1999/xlink">
    <!-- Generator: Sketch 45.2 (43514) - http://www.bohemiancoding.com/sketch -->
    <title>thefactory/element/icons/icnthefactory/element/icons/icn-44</title>
    <desc>Created with Sketch.</desc>
    <defs></defs>
    <g id="Ressources" stroke="none" stroke-width="1" fill="none" fill-rule="evenodd">
        <g id="thefactory/element/icn/inc-artboard" transform="translate(-410.000000, -696.000000)" fill-rule="nonzero" fill="#000000">
            <path d="M420.50009,712.999989 C420.370091,713.003989 420.247091,713.057989 420.156092,713.149989 L410.640136,722.651983 C409.74414,723.544982 409.864139,724.785981 410.535136,725.461981 C411.205133,726.135981 412.448127,726.256981 413.345123,725.358981 L422.835079,715.868987 C423.327077,715.396988 422.58508,714.686988 422.129082,715.160988 L412.639126,724.650982 C412.059129,725.230981 411.569131,725.080981 411.243133,724.754981 C410.917134,724.426982 410.773135,723.928982 411.345132,723.357982 L420.862088,713.854989 C421.188087,713.536989 420.946088,712.997989 420.49909,712.997989 L420.50009,712.999989 Z M428.950051,698.069999 C427.346058,698.282999 425.804066,698.979998 424.560071,700.132997 C424.070074,700.585997 424.77007,701.302997 425.240068,700.866997 C427.420058,698.846998 430.632043,698.421998 433.262031,699.806998 C433.842028,700.138997 434.315026,699.203998 433.727029,698.921998 C432.227036,698.131999 430.557044,697.857999 428.951051,698.069999 L428.950051,698.069999 Z M430.000046,696 C424.483072,696 420.000092,700.482997 420.000092,705.999994 C420.000092,711.51699 424.483072,715.999987 430.000046,715.999987 C435.517021,715.999987 440,711.51699 440,705.999994 C440,700.482997 435.517021,696 430.000046,696 Z M430.000046,696.999999 C434.976023,696.999999 439.000005,701.023997 439.000005,705.999994 C439.000005,710.97599 434.976023,714.999988 430.000046,714.999988 C425.024069,714.999988 421.000088,710.97599 421.000088,705.999994 C421.000088,701.023997 425.024069,696.999999 430.000046,696.999999 Z" id="Shape"></path>
        </g>
    </g>
</svg>