<?xml version="1.0" encoding="UTF-8"?>
<svg width="30px" height="19px" viewBox="0 0 30 19" version="1.1" xmlns="http://www.w3.org/2000/svg" xmlns:xlink="http://www.w3.org/1999/xlink">
    <!-- Generator: Sketch 45.2 (43514) - http://www.bohemiancoding.com/sketch -->
    <title>thefactory/element/icons/icnthefactory/element/icons/icn-147</title>
    <desc>Created with Sketch.</desc>
    <defs></defs>
    <g id="Ressources" stroke="none" stroke-width="1" fill="none" fill-rule="evenodd">
        <g id="thefactory/element/icn/inc-artboard" transform="translate(-556.000000, -165.000000)" fill-rule="nonzero" fill="#000000">
            <path d="M585.504501,183 L568.500553,183 C567.820395,183 567.853403,184 568.500553,184 L585.504501,184 C586.149651,184 586.177658,183 585.504501,183 Z M585.504501,177 L556.497766,177 C555.82461,177 555.843614,178 556.497766,178 L585.504501,178 C586.154652,178 586.174657,177 585.504501,177 Z M585.504501,171 L568.500553,171 C567.850402,171 567.820395,172 568.500553,172 L585.504501,172 C586.159653,172 586.170656,171 585.504501,171 Z M585.504501,165 L556.497766,165 C555.837613,165 555.837613,166 556.497766,166 L585.504501,166 C586.157653,166 586.169656,165 585.504501,165 Z" id="Shape"></path>
        </g>
    </g>
</svg>