<?xml version="1.0" encoding="UTF-8"?>
<svg width="29px" height="29px" viewBox="0 0 29 29" version="1.1" xmlns="http://www.w3.org/2000/svg" xmlns:xlink="http://www.w3.org/1999/xlink">
    <!-- Generator: Sketch 45.2 (43514) - http://www.bohemiancoding.com/sketch -->
    <title>thefactory/element/icons/icnthefactory/element/icons/icn-127</title>
    <desc>Created with Sketch.</desc>
    <defs></defs>
    <g id="Ressources" stroke="none" stroke-width="1" fill="none" fill-rule="evenodd">
        <g id="thefactory/element/icn/inc-artboard" transform="translate(-934.000000, -241.000000)" fill-rule="nonzero" fill="#000000">
            <path d="M948,267.5 L948,266.5 C948,266.2 948.2,266 948.5,266 C948.8,266 949,266.2 949,266.5 L949,267.5 C949,267.8 948.8,268 948.5,268 C948.2,268 948,267.8 948,267.5 Z M948,244.5 L948,243.5 C948,243.2 948.2,243 948.5,243 C948.8,243 949,243.2 949,243.5 L949,244.5 C949,244.8 948.8,245 948.5,245 C948.2,245 948,244.8 948,244.5 Z M936.5,255 L937.5,255 C937.8,255 938,255.2 938,255.5 C938,255.8 937.8,256 937.5,256 L936.5,256 C936.2,256 936,255.8 936,255.5 C936,255.2 936.2,255 936.5,255 Z M959.5,255 L960.5,255 C960.8,255 961,255.2 961,255.5 C961,255.8 960.8,256 960.5,256 L959.5,256 C959.2,256 959,255.8 959,255.5 C959,255.2 959.2,255 959.5,255 Z M948.5,246 C948.2,246 948,246.2 948,246.5 L948,253 C947,253.3 946,254.3 946,255.5 C946,256.9 947,258 948.5,258 C949.7,258 950.7,257 950.9,256 L955.4,256 C955.7,256 955.9,255.8 955.9,255.5 C955.9,255.2 955.7,255 955.4,255 L951,255 C950.7,254 950,253.3 949,253 L949,246.6 C949,246.3 948.8,246.1 948.5,246.1 L948.5,246 Z M948.5,254 C949.3,254 950,254.7 950,255.5 C950,256.3 949.3,257 948.5,257 C947.7,257 947,256.3 947,255.5 C947,254.7 947.7,254 948.5,254 Z M948.5,241 C940.5,241 934,247.5 934,255.5 C934,263.5 940.5,270 948.5,270 C956.5,270 963,263.5 963,255.5 C963,247.5 956.5,241 948.5,241 Z M948.5,242 C956,242 962,248 962,255.5 C962,263 956,269 948.5,269 C941,269 935,263 935,255.5 C935,248 941,242 948.5,242 Z" id="Shape"></path>
        </g>
    </g>
</svg>