<?xml version="1.0" encoding="UTF-8"?>
<svg width="30px" height="22px" viewBox="0 0 30 22" version="1.1" xmlns="http://www.w3.org/2000/svg" xmlns:xlink="http://www.w3.org/1999/xlink">
    <!-- Generator: Sketch 45.2 (43514) - http://www.bohemiancoding.com/sketch -->
    <title>thefactory/element/icons/icnthefactory/element/icons/icn-08</title>
    <desc>Created with Sketch.</desc>
    <defs></defs>
    <g id="Ressources" stroke="none" stroke-width="1" fill="none" fill-rule="evenodd">
        <g id="thefactory/element/icn/inc-artboard" transform="translate(-849.000000, -847.000000)" fill-rule="nonzero" fill="#000000">
            <path d="M861.855,853.064 C861.35,853.227 861,853.744 861,854.312 L861,861.686 C861,862.26 861.354,862.78 861.86,862.94 C862.37,863.1 862.943,862.936 863.436,862.533 L866.998,859.615 C867.583,859.135 867.998,858.623 868,858 C868.002,857.377 867.585,856.855 866.994,856.38 C866.364,855.874 864.624,854.437 863.436,853.463 C862.939,853.056 862.361,852.901 861.856,853.063 L861.855,853.064 Z M862.803,854.24 C863.989,855.21 865.72,856.64 866.367,857.16 C866.852,857.55 867.001,857.828 867,858 C867,858.172 866.845,858.445 866.363,858.84 L862.803,861.758 C862.363,862.198 862,861.941 862,861.686 L862,854.312 C862,853.769 862.476,853.912 862.803,854.24 L862.803,854.24 Z M850.5,847 C849.678,847 849,847.678 849,848.5 L849,867.5 C849,868.322 849.678,869 850.5,869 L877.5,869 C878.322,869 879,868.322 879,867.5 L879,848.5 C879,847.678 878.322,847 877.5,847 L850.5,847 Z M850.5,848 L877.5,848 C877.786,848 878,848.214 878,848.5 L878,867.5 C878,867.786 877.786,868 877.5,868 L850.5,868 C850.214,868 850,867.786 850,867.5 L850,848.5 C850,848.214 850.214,848 850.5,848 Z" id="Shape"></path>
        </g>
    </g>
</svg>