<?xml version="1.0" encoding="UTF-8"?>
<svg width="30px" height="30px" viewBox="0 0 30 30" version="1.1" xmlns="http://www.w3.org/2000/svg" xmlns:xlink="http://www.w3.org/1999/xlink">
    <!-- Generator: Sketch 45.2 (43514) - http://www.bohemiancoding.com/sketch -->
    <title>thefactory/element/icons/icnthefactory/element/icons/icn-48</title>
    <desc>Created with Sketch.</desc>
    <defs></defs>
    <g id="Ressources" stroke="none" stroke-width="1" fill="none" fill-rule="evenodd">
        <g id="thefactory/element/icn/inc-artboard" transform="translate(-469.000000, -917.000000)" fill-rule="nonzero" fill="#000000">
            <path d="M475.49195,942.999064 C475.361911,943.003065 475.238874,943.056077 475.148847,943.149099 L474.154548,944.143332 C473.666402,944.613442 474.388619,945.33361 474.85776,944.846496 L475.852058,943.852264 C476.176156,943.53619 475.950088,942.999064 475.49195,942.999064 L475.49195,942.999064 Z M472.491049,942.999064 C472.36101,943.003065 472.237973,943.056077 472.147946,943.149099 L471.153647,944.143332 C470.6655,944.613442 471.387717,945.33361 471.856858,944.846496 L472.851157,943.852264 C473.175254,943.53619 472.938183,942.999064 472.491049,942.999064 L472.491049,942.999064 Z M472.491049,939.998362 C472.36101,940.002363 472.237973,940.055375 472.147946,940.148397 L471.153647,941.14263 C470.6655,941.61274 471.387717,942.332908 471.856858,941.845794 L472.851157,940.851561 C473.175254,940.535488 472.943184,939.998362 472.491049,939.998362 L472.491049,939.998362 Z M475.501953,935.997426 C475.22687,936.001427 474.998802,936.222478 475.001803,936.497543 L475.001803,936.99766 C475.001803,939.201175 476.799343,940.998596 479.003005,940.998596 L479.503155,940.998596 C480.183359,940.998596 480.143347,939.998362 479.503155,939.998362 L479.003005,939.998362 C477.339505,939.998362 476.002103,938.661049 476.002103,936.99766 L476.002103,936.497543 C476.005104,936.215477 475.782037,935.993425 475.501953,935.997426 Z M490.00631,921.99415 C487.802648,921.99415 486.005108,923.79157 486.005108,925.995086 C486.005108,928.198601 487.802648,929.996022 490.00631,929.996022 C492.209972,929.996022 494.007512,928.198601 494.007512,925.995086 C494.007512,923.79157 492.209972,921.99415 490.00631,921.99415 Z M490.00631,922.994384 C491.66981,922.994384 493.007211,924.331696 493.007211,925.995086 C493.007211,927.658475 491.66981,928.995788 490.00631,928.995788 C488.34281,928.995788 487.005409,927.658475 487.005409,925.995086 C487.005409,924.331696 488.34281,922.994384 490.00631,922.994384 Z M496.315205,917.015985 C495.496959,916.960972 494.524667,917.048993 493.448344,917.264043 C491.295697,917.694143 488.719924,918.638364 486.256184,920.060697 C481.323702,922.907363 477.846657,927.225373 475.048817,933.286792 C474.538664,934.39305 473.038213,936.065442 471.834852,936.70059 C471.232671,937.018665 470.794539,937.054673 470.544464,936.895636 C470.293389,936.737599 470.0003,936.225479 470.0003,934.997192 C470.0003,933.87993 470.480445,932.019495 471.145645,930.510142 C471.477744,929.754965 471.855858,929.079807 472.213965,928.624701 C472.572073,928.167594 472.904173,927.994553 473.001202,927.994553 C473.265281,927.994553 473.408324,928.06457 473.536363,928.180597 C473.666402,928.294624 473.770433,928.470665 473.846456,928.670712 C473.9945,929.067804 474.001502,929.494904 474.001502,929.494904 C473.991499,930.171063 475.011806,930.171063 475.001803,929.494904 C475.001803,929.494904 475.008805,928.92177 474.781737,928.318629 C474.669703,928.018559 474.494651,927.694483 474.201562,927.433422 C473.907474,927.173361 473.487348,926.993319 473.001202,926.993319 C472.348006,926.993319 471.867861,927.445425 471.42873,928.005556 C470.988597,928.565687 470.586477,929.295858 470.23037,930.106047 C469.520156,931.722426 469,933.612868 469,934.997192 C469,936.381516 469.313094,937.29973 470.008303,937.739833 C470.703512,938.179936 471.548766,937.983891 472.301992,937.585797 C473.810445,936.790611 475.312896,935.101216 475.95609,933.704889 C478.695913,927.7655 482.023912,923.659539 486.755333,920.9289 C489.123045,919.56158 491.616794,918.651367 493.644403,918.246273 C494.657707,918.044225 495.554977,917.969208 496.245184,918.016219 C496.935391,918.06223 497.39553,918.248273 497.575584,918.428315 C497.755638,918.608357 497.940693,919.066465 497.987708,919.756626 C498.032721,920.446787 497.957698,921.344998 497.755638,922.357234 C497.350516,924.385709 496.440243,926.878292 495.072832,929.246846 C492.342012,933.977953 488.234778,937.304732 482.293993,940.046373 C480.899574,940.690524 479.210067,942.191875 478.414828,943.699228 C478.016708,944.452404 477.819649,945.296601 478.260782,945.991764 C478.700914,946.686927 479.62119,947 481.003606,947 C482.387021,947 484.277589,946.479878 485.895075,945.769712 C486.702318,945.413629 487.435538,945.009534 487.993705,944.571432 C488.553874,944.131329 489.00601,943.651217 489.00601,942.999064 C489.00601,942.51295 488.825955,942.092852 488.565877,941.798783 C488.305799,941.505715 487.982702,941.330674 487.681612,941.218647 C487.078431,940.991594 486.505258,940.998596 486.505258,940.998596 C485.829055,940.988594 485.829055,942.008832 486.505258,941.99883 C486.505258,941.99883 486.932387,942.005832 487.329506,942.154866 C487.529566,942.229884 487.705619,942.334909 487.819653,942.464939 C487.934688,942.591969 488.005709,942.735002 488.005709,942.999064 C488.005709,943.096087 487.832657,943.429165 487.37552,943.786248 C486.920383,944.144332 486.24518,944.52242 485.490954,944.854498 C483.9805,945.519654 482.119941,945.999766 481.003606,945.999766 C479.773236,945.999766 479.263083,945.706697 479.105035,945.456639 C478.944987,945.20658 478.981998,944.766477 479.300094,944.166337 C479.935285,942.961055 481.607787,941.461704 482.713119,940.951585 C488.77494,938.15393 493.093237,934.677117 495.941093,929.745963 C497.36352,927.282387 498.306803,924.706784 498.736933,922.554281 C498.950997,921.476028 499.039023,920.503801 498.984007,919.68661 C498.92799,918.869418 498.743935,918.184258 498.279795,917.72015 C497.815656,917.255041 497.12945,917.071998 496.313205,917.015985 L496.315205,917.015985 Z" id="Shape"></path>
        </g>
    </g>
</svg>