<?xml version="1.0" encoding="UTF-8"?>
<svg width="30px" height="28px" viewBox="0 0 30 28" version="1.1" xmlns="http://www.w3.org/2000/svg" xmlns:xlink="http://www.w3.org/1999/xlink">
    <!-- Generator: Sketch 45.2 (43514) - http://www.bohemiancoding.com/sketch -->
    <title>thefactory/element/icons/icnthefactory/element/icons/icn-22</title>
    <desc>Created with Sketch.</desc>
    <defs></defs>
    <g id="Ressources" stroke="none" stroke-width="1" fill="none" fill-rule="evenodd">
        <g id="thefactory/element/icn/inc-artboard" transform="translate(-925.000000, -772.000000)" fill-rule="nonzero" fill="#000000">
            <path d="M930.493651,788 C930.365683,788.004 930.239714,788.053 930.149736,788.145 L929.161978,789.137 C928.676097,789.604 929.394921,790.325 929.861806,789.837 L930.849564,788.847 C931.171485,788.531 930.937542,788 930.494651,788 L930.493651,788 Z M929.498895,781 C929.054005,781 928.82906,781.536 929.148981,781.846 L930.138738,782.838 C930.603624,783.325 931.322448,782.604 930.836567,782.138 L929.84681,781.145 C929.755832,781.05 929.633862,781 929.498895,781 Z M937.491933,781 C937.363964,781.004 937.237995,781.053 937.148017,781.145 L936.16026,782.137 C935.674379,782.604 936.393203,783.325 936.860088,782.837 L937.847846,781.847 C938.169767,781.531 937.935824,781 937.492933,781 L937.491933,781 Z M933.997791,780.5 L933.997791,781.5 C933.997791,781.777 933.774846,782 933.497914,782 C933.220982,782 932.998036,781.777 932.998036,781.5 L932.998036,780.5 C932.998036,780.223 933.220982,780 933.497914,780 C933.774846,780 933.997791,780.223 933.997791,780.5 Z M928.499141,785 L929.498895,785 C929.775827,785 929.998773,785.223 929.998773,785.5 C929.998773,785.777 929.775827,786 929.498895,786 L928.499141,786 C928.222209,786 927.999264,785.777 927.999264,785.5 C927.999264,785.223 928.222209,785 928.499141,785 Z M946.224789,781.05 C945.866877,781.126 945.532959,781.29 945.255027,781.53 C944.960099,781.786 944.739154,782.118 944.618183,782.488 C944.5512,782.693 944.588191,782.906 944.583192,783.118 C944.339252,782.985 943.783388,782.96 943.436473,783.053 C942.996581,783.156 942.558689,783.36 942.221772,783.703 C941.718895,784.213 941.585928,784.643 941.621919,785.211 C941.461958,785.141 941.311995,785.048 941.132039,785.021 C940.836112,784.976 940.540185,785.001 940.262253,785.089 C939.98732,785.175 939.74238,785.315 939.530432,785.479 C939.235505,785.709 938.984567,786.006 938.815608,786.359 C938.695637,786.609 938.687639,786.889 938.667644,787.167 L936.424195,785.13 C936.138265,784.87 935.824342,784.585 935.430439,784.36 C935.034536,784.137 934.57065,783.984 934.072772,784 C933.556899,784.017 933.057022,784.218 932.677115,784.578 C932.297208,784.938 932.069264,785.43 932.030274,785.948 C931.993283,786.462 932.140247,786.954 932.390186,787.368 C932.635125,787.778 932.956047,788.086 933.243976,788.361 L941.248011,796 L939.496441,796 C939.2565,796 938.989565,796 938.701636,796.053 C938.411707,796.105 938.121778,796.208 937.857843,796.385 C937.594908,796.561 937.375961,796.799 937.224999,797.085 C937.075035,797.368 936.998054,797.683 936.998054,798 C936.998054,798.317 937.074036,798.632 937.224999,798.916 C937.374962,799.201 937.594908,799.439 937.858843,799.616 C938.123778,799.792 938.414706,799.896 938.703635,799.946 C938.991565,799.999 939.259499,800 939.49844,800 L947.496477,800 C948.182308,800 948.140319,799 947.496477,799 L939.49844,799 C939.265498,799 939.058548,798.995 938.881592,798.963 C938.705635,798.931 938.543675,798.871 938.414706,798.785 C938.286738,798.699 938.178764,798.58 938.107782,798.447 C938.037799,798.314 937.997809,798.157 937.997809,798 C937.997809,797.844 938.037799,797.686 938.107782,797.553 C938.177765,797.42 938.285738,797.301 938.413707,797.215 C938.543675,797.129 938.703635,797.069 938.880592,797.037 C939.056549,797.005 939.264498,797 939.497441,797 L942.496704,797 C942.946594,797 943.16654,796.45 942.842619,796.14 L933.934806,787.64 C933.652876,787.37 933.404936,787.118 933.246975,786.854 C933.090014,786.592 933.007034,786.292 933.027029,786.021 C933.047024,785.755 933.173993,785.484 933.363946,785.304 C933.555899,785.122 933.833831,785.01 934.103765,785.001 C934.371699,784.991 934.665627,785.081 934.935561,785.233 C935.207494,785.388 935.471429,785.617 935.75236,785.873 C937.221999,787.205 938.691638,788.537 940.161278,789.873 C940.614166,790.283 941.283002,789.563 940.857107,789.158 L940.351231,788.648 C940.141283,788.435 939.953329,788.24 939.82736,788.042 C939.70239,787.846 939.62141,787.626 939.602415,787.416 C939.584419,787.206 939.625409,786.983 939.718386,786.789 C939.812363,786.593 939.962326,786.413 940.146281,786.269 C940.279249,786.166 940.420214,786.089 940.561179,786.045 C940.699146,786.002 940.847109,785.989 940.981076,786.01 C941.117043,786.03 941.259008,786.085 941.388976,786.17 C941.518944,786.255 941.653911,786.383 941.805874,786.533 L943.145545,787.857 L943.145545,787.859 C943.619429,788.309 944.295263,787.674 943.847373,787.209 L943.351494,786.649 C943.106554,786.374 942.864614,786.146 942.729647,785.896 C942.59668,785.648 942.537694,785.366 942.569686,785.112 C942.602678,784.859 942.732646,784.605 942.9216,784.42 C943.113553,784.232 943.378488,784.097 943.667417,784.03 C944.051323,783.926 944.397238,784.11 944.643177,784.356 L945.642932,785.356 L946.142809,785.856 C946.614693,786.308 947.302524,785.62 946.850635,785.148 L946.350758,784.648 C946.14081,784.44 945.955855,784.248 945.816889,784.048 C945.678923,783.851 945.579947,783.638 945.536958,783.428 C945.496968,783.218 945.506965,782.996 945.570949,782.801 C945.634934,782.605 945.755904,782.421 945.910866,782.288 C946.05683,782.162 946.240785,782.071 946.432738,782.03 C946.622691,781.99 946.83264,781.996 947.032591,782.05 C947.230542,782.102 947.432492,782.204 947.617447,782.34 C947.805401,782.476 947.987356,782.655 948.183308,782.852 L954.129848,788.83 C954.599733,789.32 955.327554,788.594 954.836674,788.123 L948.893134,782.145 C948.693183,781.945 948.473237,781.728 948.207302,781.533 C947.939368,781.339 947.634443,781.176 947.292527,781.083 C946.949611,780.993 946.582701,780.975 946.226788,781.051 L946.224789,781.05 Z M933.997791,796 C933.997791,796.552 933.549901,797 932.998036,797 C932.446172,797 931.998282,796.552 931.998282,796 C931.998282,795.448 932.446172,795 932.998036,795 C933.549901,795 933.997791,795.448 933.997791,796 Z M931.498405,774 L934.497668,774 C934.7746,774 934.997545,774.223 934.997545,774.5 C934.997545,774.777 934.7746,775 934.497668,775 L931.498405,775 C931.221473,775 930.998527,774.777 930.998527,774.5 C930.998527,774.223 931.221473,774 931.498405,774 Z M926.499632,772 C925.677834,772 925,772.678 925,773.5 L925,797.5 C925,798.322 925.677834,799 926.499632,799 L935.497423,799 C936.190253,799 936.134266,798 935.497423,798 L926.499632,798 C926.213702,798 925.999755,797.786 925.999755,797.5 L925.999755,773.5 C925.999755,773.214 926.213702,773 926.499632,773 L939.496441,773 C939.782371,773 939.996318,773.214 939.996318,773.5 L939.996318,782.5 C939.986321,783.176 941.00607,783.176 940.996073,782.5 L940.996073,773.5 C940.996073,772.678 940.318239,772 939.496441,772 L926.499632,772 Z" id="Shape"></path>
        </g>
    </g>
</svg>