<?xml version="1.0" encoding="UTF-8"?>
<svg width="30px" height="30px" viewBox="0 0 30 30" version="1.1" xmlns="http://www.w3.org/2000/svg" xmlns:xlink="http://www.w3.org/1999/xlink">
    <!-- Generator: Sketch 45.2 (43514) - http://www.bohemiancoding.com/sketch -->
    <title>thefactory/element/icons/icnthefactory/element/icons/icn-112</title>
    <desc>Created with Sketch.</desc>
    <defs></defs>
    <g id="Ressources" stroke="none" stroke-width="1" fill="none" fill-rule="evenodd">
        <g id="thefactory/element/icn/inc-artboard" transform="translate(-1009.000000, -317.000000)" fill-rule="nonzero" fill="#000000">
            <path d="M1036.99093,323.437 C1036.41091,322.857 1035.45088,322.857 1034.87086,323.437 L1034.43785,323.869 C1033.85783,324.449 1033.85783,325.409 1034.43785,325.989 L1036.0109,327.563 C1036.59292,328.143 1037.55095,328.143 1038.13297,327.563 L1038.56499,327.13 C1039.145,326.55 1039.145,325.592 1038.56499,325.01 L1036.99093,323.437 Z M1036.28491,324.144 L1037.85796,325.717 C1038.05997,325.919 1038.05997,326.222 1037.85796,326.424 L1037.42495,326.857 C1037.22494,327.059 1036.91993,327.059 1036.71792,326.857 L1035.14487,325.284 C1034.94286,325.082 1034.94286,324.779 1035.14487,324.577 L1035.57789,324.144 C1035.77989,323.942 1036.0829,323.942 1036.28491,324.144 L1036.28491,324.144 Z M1032.8748,326.004 C1032.57479,325.98 1032.20877,326.064 1031.93676,326.338 L1021.64642,336.646 C1021.45942,336.836 1021.26141,337.032 1021.1434,337.338 C1021.0264,337.644 1021.0014,337.978 1021.0014,338.5 L1021.0014,340 C1021.0014,340.505 1021.43141,341 1022.00143,341 L1023.50148,341 C1024.0255,341 1024.36651,340.97 1024.67152,340.852 C1024.97753,340.732 1025.17454,340.535 1025.35555,340.354 L1035.64589,330.044 C1036.1409,329.548 1036.0959,328.788 1035.64589,328.338 L1033.64582,326.338 C1033.43381,326.128 1033.17581,326.028 1032.8758,326.004 L1032.8748,326.004 Z M1032.9368,327.044 L1034.93686,329.044 C1034.97487,329.082 1035.01287,329.262 1034.93686,329.338 L1024.64652,339.646 C1024.46652,339.826 1024.41351,339.879 1024.30951,339.92 C1024.20451,339.96 1023.9775,340 1023.49948,340 L1022.00043,340 L1022.00043,338.5 C1022.00043,338.02 1022.03843,337.795 1022.07744,337.695 C1022.11544,337.595 1022.16744,337.542 1022.35445,337.355 L1032.64479,327.045 C1032.73479,326.955 1032.8918,327 1032.9368,327.045 L1032.9368,327.044 Z M1013.50015,328 L1026.50058,328 C1026.77759,328 1027.0006,328.223 1027.0006,328.5 C1027.0006,328.777 1026.77759,329 1026.50058,329 L1013.50015,329 C1013.22314,329 1013.00013,328.777 1013.00013,328.5 C1013.00013,328.223 1013.22314,328 1013.50015,328 Z M1013.50015,325 L1026.50058,325 C1026.77759,325 1027.0006,325.223 1027.0006,325.5 C1027.0006,325.777 1026.77759,326 1026.50058,326 L1013.50015,326 C1013.22314,326 1013.00013,325.777 1013.00013,325.5 C1013.00013,325.223 1013.22314,325 1013.50015,325 Z M1013.50015,322 L1026.50058,322 C1026.77759,322 1027.0006,322.223 1027.0006,322.5 C1027.0006,322.777 1026.77759,323 1026.50058,323 L1013.50015,323 C1013.22314,323 1013.00013,322.777 1013.00013,322.5 C1013.00013,322.223 1013.22314,322 1013.50015,322 Z M1010.50005,317 C1009.67802,317 1009,317.678 1009,318.5 L1009,345.5 C1009,346.322 1009.67802,347 1010.50005,347 L1029.50068,347 C1030.32271,347 1031.00073,346.322 1031.00073,345.5 L1031.00073,337.5 C1031.00073,336.832 1030.0007,336.852 1030.0007,337.5 L1030.0007,345.5 C1030.0007,345.786 1029.78669,346 1029.50068,346 L1010.50005,346 C1010.21404,346 1010.00003,345.786 1010.00003,345.5 L1010.00003,318.5 C1010.00003,318.214 1010.21404,318 1010.50005,318 L1029.50068,318 C1029.78669,318 1030.0007,318.214 1030.0007,318.5 L1030.0007,325.5 C1030.0007,326.172 1031.00073,326.148 1031.00073,325.5 L1031.00073,318.5 C1031.00073,317.678 1030.32271,317 1029.50068,317 L1010.50005,317 Z" id="Shape"></path>
        </g>
    </g>
</svg>