<?xml version="1.0" encoding="UTF-8"?>
<svg width="30px" height="30px" viewBox="0 0 30 30" version="1.1" xmlns="http://www.w3.org/2000/svg" xmlns:xlink="http://www.w3.org/1999/xlink">
    <!-- Generator: Sketch 45.2 (43514) - http://www.bohemiancoding.com/sketch -->
    <title>thefactory/element/icons/icnthefactory/element/icons/icn-64</title>
    <desc>Created with Sketch.</desc>
    <defs></defs>
    <g id="Ressources" stroke="none" stroke-width="1" fill="none" fill-rule="evenodd">
        <g id="thefactory/element/icn/inc-artboard" transform="translate(-770.000000, -916.000000)" fill-rule="nonzero" fill="#000000">
            <path d="M794.240838,916.008427 C793.414928,916.058428 792.621014,916.318433 791.91909,916.71644 C791.219167,917.112448 790.629231,917.626458 790.072291,918.119467 L773.28012,932.972751 C772.570197,933.600763 771.837277,934.264776 771.245341,935.086791 C770.653406,935.909807 770.225452,936.866825 770.069469,937.886845 C769.911486,938.906864 770.027474,939.954884 770.371436,940.916903 C770.713399,941.878921 771.269339,942.739938 771.931266,943.483952 C772.591195,944.226966 773.379109,944.878979 774.29101,945.333987 C775.20391,945.787996 776.232798,946 777.256687,946 C778.286575,946 779.283466,945.659994 780.171369,945.176984 C781.059273,944.692975 781.808191,944.050963 782.521114,943.426951 L796.819557,930.892711 C797.321502,930.452703 796.661574,929.698688 796.159629,930.138697 L781.861185,942.673936 C781.157262,943.290948 780.461338,943.880959 779.695421,944.297967 C778.929505,944.713975 778.077597,944.997981 777.22569,944.997981 C776.378782,944.997981 775.507877,944.819977 774.735961,944.43597 C773.962045,944.049963 773.269121,943.481952 772.678185,942.817939 C772.08625,942.151926 771.603302,941.395912 771.312334,940.579896 C771.022365,939.766881 770.926376,938.881864 771.056362,938.037848 C771.186348,937.193832 771.544309,936.377816 772.054253,935.667803 C772.564198,934.959789 773.239124,934.342777 773.942048,933.720765 L790.73022,918.864481 C791.28216,918.377472 791.823101,917.916463 792.410037,917.584457 C792.995973,917.254451 793.647902,917.044447 794.299831,917.004446 C794.94976,916.964445 795.619687,917.097448 796.215623,917.374453 C796.815557,917.654458 797.355498,918.080466 797.80245,918.591476 C798.249401,919.101486 798.600363,919.691497 798.802341,920.318509 C799.000319,920.946521 799.050314,921.622534 798.932327,922.264546 C798.81234,922.904559 798.525371,923.52457 798.128414,924.067581 C797.731458,924.610591 797.211514,925.0926 796.665574,925.58361 L779.762414,940.7669 C779.380455,941.109907 779.012496,941.426913 778.622538,941.643917 C778.230581,941.863921 777.797628,941.993923 777.368674,942.013924 C776.938721,942.031924 776.49477,941.938922 776.093813,941.751919 C775.691857,941.564915 775.320897,941.28191 774.989933,940.945903 C774.669968,940.620897 774.403997,940.26089 774.233016,939.872883 C774.063034,939.488876 773.988043,939.062867 774.028038,938.65786 C774.068034,938.254852 774.226017,937.852844 774.46799,937.504838 C774.709964,937.156831 775.051927,936.840825 775.424886,936.514819 L789.816319,923.894577 C790.319265,923.454569 789.659336,922.699555 789.156391,923.139563 L774.763958,935.760804 C774.383999,936.093811 773.976044,936.458818 773.64708,936.932827 C773.317116,937.407836 773.09014,937.964846 773.031147,938.558858 C772.973153,939.151869 773.083141,939.74288 773.317116,940.273891 C773.55009,940.803901 773.897052,941.256909 774.279011,941.645917 C774.674968,942.047924 775.136917,942.405931 775.671859,942.655936 C776.2118,942.907941 776.809735,943.039943 777.41367,943.013943 C778.019604,942.987942 778.598541,942.803939 779.111485,942.517933 C779.624429,942.231928 780.043383,941.860921 780.431341,941.510914 L797.3375,926.330624 C797.89044,925.834615 798.465378,925.308605 798.939326,924.660592 C799.414274,924.01058 799.769236,923.260565 799.919219,922.44755 C800.069203,921.637534 800.00721,920.797518 799.759237,920.017503 C799.509264,919.237488 799.08331,918.537475 798.556368,917.935464 C798.028425,917.335452 797.384495,916.818442 796.641576,916.472436 C795.897657,916.125429 795.068747,915.959426 794.241837,916.008427 L794.240838,916.008427 Z" id="Shape"></path>
        </g>
    </g>
</svg>