<?xml version="1.0" encoding="UTF-8"?>
<svg width="30px" height="22px" viewBox="0 0 30 22" version="1.1" xmlns="http://www.w3.org/2000/svg" xmlns:xlink="http://www.w3.org/1999/xlink">
    <!-- Generator: Sketch 45.2 (43514) - http://www.bohemiancoding.com/sketch -->
    <title>thefactory/element/icons/icnthefactory/element/icons/icn-06</title>
    <desc>Created with Sketch.</desc>
    <defs></defs>
    <g id="Ressources" stroke="none" stroke-width="1" fill="none" fill-rule="evenodd">
        <g id="thefactory/element/icn/inc-artboard" transform="translate(-999.000000, -847.000000)" fill-rule="nonzero" fill="#000000">
            <path d="M1016.50051,858 C1015.70348,858 1015.04446,858.314 1014.62045,858.793 C1014.19644,859.273 1014.00043,859.891 1014.00043,860.5 C1014.00043,861.28 1013.43242,861.918 1013.19041,862.107 C1012.8184,862.401 1013.02541,862.999 1013.50042,863 L1016.00049,863 C1016.78652,863 1017.51754,862.77 1018.07255,862.338 C1018.62757,861.906 1019.00058,861.248 1019.00058,860.5 C1019.00058,859.817 1018.80757,859.18 1018.37056,858.715 C1017.93055,858.25 1017.27353,858 1016.50051,858 Z M1016.50051,859 C1017.07052,859 1017.41453,859.16 1017.64054,859.4 C1017.86755,859.64 1018.00055,860.002 1018.00055,860.5 C1018.00055,860.932 1017.81054,861.276 1017.46053,861.55 C1017.10752,861.822 1016.58851,862 1016.00049,862 L1014.57745,862 C1014.81446,861.6 1014.99946,861.1 1014.99946,860.5 C1014.99946,860.11 1015.12947,859.728 1015.36747,859.457 C1015.60748,859.187 1015.95049,859 1016.49951,859 L1016.50051,859 Z M1028.28485,848.01 C1028.15884,848.025 1028.05184,848.058 1027.93284,848.1 C1027.69483,848.18 1027.41982,848.31 1027.09481,848.474 C1026.4448,848.804 1025.61777,849.287 1024.74475,849.839 C1022.9947,850.942 1021.08464,852.296 1020.10261,853.277 C1019.16758,854.211 1018.48656,855.061 1018.16656,855.914 C1017.84655,856.766 1017.98055,857.691 1018.64457,858.354 C1019.30959,859.019 1020.23462,859.154 1021.08664,858.834 C1021.93966,858.514 1022.78969,857.832 1023.72372,856.898 C1024.70374,855.915 1026.05878,854.005 1027.16382,852.258 C1027.71583,851.382 1028.19885,850.554 1028.52886,849.905 C1028.69386,849.581 1028.82186,849.305 1028.90387,849.067 C1028.94387,848.947 1028.97587,848.841 1028.98987,848.715 C1029.00287,848.589 1029.03687,848.388 1028.82286,848.175 C1028.60886,847.96 1028.40985,847.995 1028.28285,848.008 L1028.28485,848.01 Z M1027.63783,849.454 C1027.33082,850.057 1026.85781,850.87 1026.31779,851.724 C1025.23776,853.437 1023.85772,855.352 1023.0177,856.192 C1022.12967,857.079 1021.33965,857.672 1020.73463,857.899 C1020.13061,858.124 1019.7806,858.076 1019.35159,857.649 C1018.92458,857.219 1018.87658,856.869 1019.10158,856.265 C1019.32959,855.661 1019.92161,854.871 1020.81163,853.985 C1021.65166,853.145 1023.56571,851.765 1025.27776,850.685 C1026.13379,850.143 1026.94581,849.67 1027.54983,849.363 C1027.68383,849.327 1027.67983,849.385 1027.63983,849.453 L1027.63783,849.454 Z M1001.50007,851 L1018.50056,851 C1018.77757,851 1019.00058,851.223 1019.00058,851.5 C1019.00058,851.777 1018.77757,852 1018.50056,852 L1001.50007,852 C1001.22306,852 1001.00006,851.777 1001.00006,851.5 C1001.00006,851.223 1001.22306,851 1001.50007,851 Z M1006.0002,849.5 C1006.0002,849.776 1005.7762,850 1005.50019,850 C1005.22418,850 1005.00017,849.776 1005.00017,849.5 C1005.00017,849.224 1005.22418,849 1005.50019,849 C1005.7762,849 1006.0002,849.224 1006.0002,849.5 Z M1004.00014,849.5 C1004.00014,849.776 1003.77614,850 1003.50013,850 C1003.22412,850 1003.00012,849.776 1003.00012,849.5 C1003.00012,849.224 1003.22412,849 1003.50013,849 C1003.77614,849 1004.00014,849.224 1004.00014,849.5 Z M1002.00009,849.5 C1002.00009,849.776 1001.77608,850 1001.50007,850 C1001.22406,850 1001.00006,849.776 1001.00006,849.5 C1001.00006,849.224 1001.22406,849 1001.50007,849 C1001.77608,849 1002.00009,849.224 1002.00009,849.5 Z M1000.50004,847 C999.67802,847 999,847.678 999,848.5 L999,867.5 C999,868.322 999.67802,869 1000.50004,869 L1025.50077,869 C1026.32279,869 1027.00081,868.322 1027.00081,867.5 L1027.00081,855.5 C1027.00081,854.832 1026.00078,854.835 1026.00078,855.5 L1026.00078,867.5 C1026.00078,867.786 1025.78678,868 1025.50077,868 L1000.50004,868 C1000.21404,868 1000.00003,867.786 1000.00003,867.5 L1000.00003,848.5 C1000.00003,848.214 1000.21404,848 1000.50004,848 L1025.50077,848 C1026.16579,848 1026.15779,847 1025.50077,847 L1000.50004,847 Z" id="Shape"></path>
        </g>
    </g>
</svg>