<?xml version="1.0" encoding="UTF-8"?>
<svg width="30px" height="30px" viewBox="0 0 30 30" version="1.1" xmlns="http://www.w3.org/2000/svg" xmlns:xlink="http://www.w3.org/1999/xlink">
    <!-- Generator: Sketch 45.2 (43514) - http://www.bohemiancoding.com/sketch -->
    <title>thefactory/element/icons/icnthefactory/element/icons/icn-103</title>
    <desc>Created with Sketch.</desc>
    <defs></defs>
    <g id="Ressources" stroke="none" stroke-width="1" fill="none" fill-rule="evenodd">
        <g id="thefactory/element/icn/inc-artboard" transform="translate(-551.000000, -393.000000)" fill-rule="nonzero" fill="#000000">
            <path d="M551,408.214842 C551,415.348575 555.836,421.345251 562.375,422.986425 C562.675,423.064528 563.01,422.793704 563,422.479264 L563,415.822263 C563,415.484494 563.197,415.160925 563.563,414.966175 C563.933,414.778525 563.843,414.097915 563.438,414.015754 C561.538,413.630312 559.918,412.856383 558.781,411.82786 C557.646,410.798322 557,409.547662 557,408.214842 C557,407.286737 557.327,406.396161 557.906,405.583689 C557.966,405.500514 557.998,405.401111 558,405.299678 L558,400.448172 L561.97,402.603608 C562.092,402.670554 562.243,402.681711 562.375,402.634038 C563.488,402.299312 564.698,402.128905 566,402.128905 C567.302,402.128905 568.512,402.299312 569.625,402.636067 C569.757,402.68374 569.908,402.671568 570.031,402.605637 L574,400.448172 L574,405.296635 C574.002,405.398068 574.035,405.4995 574.094,405.582675 C574.674,406.394133 575,407.286737 575,408.213828 C575,409.547662 574.355,410.798322 573.22,411.82786 C572.082,412.856383 570.46,413.629297 568.563,414.01474 C568.157,414.095886 568.068,414.775482 568.438,414.964146 C568.803,415.158896 569,415.481451 569,415.820235 L569,422.477235 C568.99,422.791675 569.326,423.0625 569.625,422.984397 C576.165,421.345251 581,415.34756 581,408.214842 C581,399.818278 574.278,393 566,393 C557.722,393 551,399.818278 551,408.214842 Z M566,394.014323 C573.738,394.014323 580,400.366012 580,408.214842 C580,414.635506 575.76,419.927228 570,421.685049 L570,415.822263 C570,415.416534 569.846,415.055435 569.625,414.744038 C571.288,414.280493 572.807,413.552209 573.905,412.557158 C575.206,411.383587 576,409.878332 576,408.214842 C576,407.116331 575.606,406.111137 575,405.202303 L575,399.593098 C575.003,399.238085 574.554,398.971318 574.25,399.149839 L569.656,401.652174 C568.516,401.337734 567.296,401.114583 566,401.114583 C564.705,401.114583 563.483,401.335705 562.344,401.652174 L557.75,399.150854 C557.446,398.972333 556.997,399.2391 557,399.594113 L557,405.203318 C556.394,406.112151 556,407.117345 556,408.215857 C556,409.879346 556.795,411.383587 558.094,412.557158 C559.194,413.553223 560.714,414.281507 562.374,414.746067 C562.154,415.05645 562,415.41552 562,415.823278 L562,417.535455 C560.91,417.94727 560.193,418.035516 559.75,417.94727 C559.272,417.851923 559.014,417.6024 558.72,417.186527 C558.128,416.35174 557.547,414.813012 555.625,414.309908 C554.971,414.132401 554.75,415.121366 555.375,415.293801 C556.883,415.689387 557.18,416.762541 557.905,417.789035 C558.269,418.301268 558.791,418.775971 559.563,418.930148 C560.206,419.057953 560.985,418.960578 562,418.612665 L562,421.686063 C556.242,419.928242 552,414.635506 552,408.214842 C552,400.366012 558.262,394.014323 566,394.014323 Z" id="Shape"></path>
        </g>
    </g>
</svg>