<?xml version="1.0" encoding="UTF-8"?>
<svg width="30px" height="18px" viewBox="0 0 30 18" version="1.1" xmlns="http://www.w3.org/2000/svg" xmlns:xlink="http://www.w3.org/1999/xlink">
    <!-- Generator: Sketch 45.2 (43514) - http://www.bohemiancoding.com/sketch -->
    <title>thefactory/element/icons/icnthefactory/element/icons/icn-09</title>
    <desc>Created with Sketch.</desc>
    <defs></defs>
    <g id="Ressources" stroke="none" stroke-width="1" fill="none" fill-rule="evenodd">
        <g id="thefactory/element/icn/inc-artboard" transform="translate(-774.000000, -847.000000)" fill-rule="nonzero" fill="#000000">
            <path d="M801.5,859 C801.223,859 801,859.223 801,859.5 L801,862.5 C801,862.777 801.223,863 801.5,863 C801.777,863 802,862.777 802,862.5 L802,859.5 C802,859.223 801.777,859 801.5,859 Z M801.5,854 C801.223,854 801,854.223 801,854.5 L801,857.5 C801,857.777 801.223,858 801.5,858 C801.777,858 802,857.777 802,857.5 L802,854.5 C802,854.223 801.777,854 801.5,854 Z M803.5,864 L801.5,864 C801.223,864 801,864.223 801,864.5 C801,864.777 801.223,865 801.5,865 L803.5,865 C803.777,865 804,864.777 804,864.5 C804,864.223 803.777,864 803.5,864 Z M801.5,849 C801.223,849 801,849.223 801,849.5 L801,852.5 C801,852.777 801.223,853 801.5,853 C801.777,853 802,852.777 802,852.5 L802,849.5 C802,849.223 801.777,849 801.5,849 Z M803.5,847 L801.5,847 C801.223,847 801,847.223 801,847.5 C801,847.777 801.223,848 801.5,848 L803.5,848 C803.777,848 804,847.777 804,847.5 C804,847.223 803.777,847 803.5,847 Z M776.5,859 C776.777,859 777,859.223 777,859.5 L777,862.5 C777,862.777 776.777,863 776.5,863 C776.223,863 776,862.777 776,862.5 L776,859.5 C776,859.223 776.223,859 776.5,859 Z M776.5,854 C776.777,854 777,854.223 777,854.5 L777,857.5 C777,857.777 776.777,858 776.5,858 C776.223,858 776,857.777 776,857.5 L776,854.5 C776,854.223 776.223,854 776.5,854 Z M774.5,864 L776.5,864 C776.777,864 777,864.223 777,864.5 C777,864.777 776.777,865 776.5,865 L774.5,865 C774.223,865 774,864.777 774,864.5 C774,864.223 774.223,864 774.5,864 Z M776.5,849 C776.777,849 777,849.223 777,849.5 L777,852.5 C777,852.777 776.777,853 776.5,853 C776.223,853 776,852.777 776,852.5 L776,849.5 C776,849.223 776.223,849 776.5,849 Z M774.5,847 L776.5,847 C776.777,847 777,847.223 777,847.5 C777,847.777 776.777,848 776.5,848 L774.5,848 C774.223,848 774,847.777 774,847.5 C774,847.223 774.223,847 774.5,847 Z M779.5,847 C778.678,847 778,847.678 778,848.5 L778,863.5 C778,864.322 778.678,865 779.5,865 L798.5,865 C799.322,865 800,864.322 800,863.5 L800,848.5 C800,847.678 799.322,847 798.5,847 L779.5,847 Z M779.5,848 L798.5,848 C798.786,848 799,848.214 799,848.5 L799,863.5 C799,863.786 798.786,864 798.5,864 L779.5,864 C779.214,864 779,863.786 779,863.5 L779,848.5 C779,848.214 779.214,848 779.5,848 Z M786.855,851.064 C786.35,851.227 786,851.744 786,852.312 L786,859.686 C786,860.26 786.354,860.78 786.86,860.94 C787.37,861.1 787.943,860.936 788.436,860.533 L791.998,857.615 C792.583,857.135 792.998,856.623 793,856 C793.002,855.377 792.585,854.855 791.994,854.38 C791.364,853.874 789.624,852.437 788.436,851.463 C787.939,851.056 787.361,850.901 786.856,851.063 L786.855,851.064 Z M787.803,852.24 C788.989,853.21 790.72,854.64 791.367,855.16 C791.852,855.55 792.001,855.828 792,856 C792,856.172 791.845,856.445 791.363,856.84 L787.803,859.758 C787.363,860.198 787,859.941 787,859.686 L787,852.312 C787,851.769 787.476,851.912 787.803,852.24 L787.803,852.24 Z" id="Shape"></path>
        </g>
    </g>
</svg>