<?xml version="1.0" encoding="UTF-8"?>
<svg width="30px" height="20px" viewBox="0 0 30 20" version="1.1" xmlns="http://www.w3.org/2000/svg" xmlns:xlink="http://www.w3.org/1999/xlink">
    <!-- Generator: Sketch 45.2 (43514) - http://www.bohemiancoding.com/sketch -->
    <title>thefactory/element/icons/icnthefactory/element/icons/icn-32</title>
    <desc>Created with Sketch.</desc>
    <defs></defs>
    <g id="Ressources" stroke="none" stroke-width="1" fill="none" fill-rule="evenodd">
        <g id="thefactory/element/icn/inc-artboard" transform="translate(-185.000000, -772.000000)" fill-rule="nonzero" fill="#000000">
            <path d="M185.498984,780.994249 C185.295785,780.994675 185.113052,781.117947 185.036678,781.306121 C184.960304,781.494295 185.005481,781.709943 185.150972,781.851701 L195.139307,791.833318 C195.262814,791.97139 195.452607,792.029875 195.632476,791.985287 C195.812345,791.9407 195.952785,791.800355 195.997402,791.620607 C196.042019,791.440859 195.983495,791.251193 195.845331,791.127769 L185.856996,781.146152 C185.76258,781.048811 185.632639,780.993984 185.496984,780.994249 L185.498984,780.994249 Z M214.489955,772 C214.359951,772.003997 214.235947,772.056964 214.144944,772.149904 L197.162375,789.119054 C196.672358,789.588753 197.398383,790.315289 197.869398,789.825602 L214.851967,772.856452 C215.175978,772.538656 214.92897,772 214.488955,772 L214.489955,772 Z" id="Shape"></path>
        </g>
    </g>
</svg>