<?xml version="1.0" encoding="UTF-8"?>
<svg width="30px" height="19px" viewBox="0 0 30 19" version="1.1" xmlns="http://www.w3.org/2000/svg" xmlns:xlink="http://www.w3.org/1999/xlink">
    <!-- Generator: Sketch 45.2 (43514) - http://www.bohemiancoding.com/sketch -->
    <title>thefactory/element/icons/icnthefactory/element/icons/icn-05</title>
    <desc>Created with Sketch.</desc>
    <defs></defs>
    <g id="Ressources" stroke="none" stroke-width="1" fill="none" fill-rule="evenodd">
        <g id="thefactory/element/icn/inc-artboard" transform="translate(-844.000000, -927.000000)" fill-rule="nonzero" fill="#000000">
            <path d="M858.995113,927 C853.292516,927 847.671871,929.713 844.123988,934.178 C844.002346,934.316812 843.967047,934.511398 844.032173,934.684131 C844.0973,934.856864 844.252252,934.979633 844.435215,935.003461 C844.618178,935.027289 844.799376,934.948297 844.906521,934.798 C848.257521,930.582 853.611326,927.998 858.998111,927.998 C864.384897,927.998 869.738701,930.582 873.089702,934.798 C873.195803,934.951046 873.37813,935.032392 873.562819,935.009084 C873.747508,934.985776 873.903938,934.861677 873.968738,934.687063 C874.033537,934.51245 873.995962,934.31627 873.871235,934.178 C870.320354,929.713 864.701708,927 858.997112,927 L858.995113,927 Z M858.995113,933 C855.102436,933 851.294709,935.005 849.091024,938.214 C848.984366,938.361074 848.96585,938.55447 849.042661,938.719131 C849.119473,938.883791 849.279519,938.993791 849.460685,939.006439 C849.64185,939.019087 849.815612,938.932392 849.914532,938.78 C851.923334,935.856 855.447231,934 858.995113,934 C862.542996,934 866.067892,935.856 868.075694,938.78 C868.174614,938.932392 868.348376,939.019087 868.529542,939.006439 C868.710708,938.993791 868.870754,938.883791 868.947565,938.719131 C869.024377,938.55447 869.005861,938.361074 868.899202,938.214 C866.695518,935.004 862.88779,933 858.995113,933 Z M858.995113,939 C857.162207,939 855.363281,939.798 854.135014,941.158 C854.002529,941.288045 853.952987,941.480847 854.006355,941.658705 C854.059722,941.836563 854.207206,941.970176 854.38937,942.005696 C854.571534,942.041216 854.758366,941.972793 854.874572,941.828 C855.906956,940.684 857.455032,939.998 858.995113,939.998 C860.534195,939.998 862.08327,940.684 863.114655,941.828 C863.230861,941.972793 863.417693,942.041216 863.599857,942.005696 C863.782021,941.970176 863.929505,941.836563 863.982872,941.658705 C864.03624,941.480847 863.986698,941.288045 863.854213,941.158 C862.627945,939.798 860.829019,939 858.995113,939 Z M859.994517,945 C859.994517,945.552285 859.547069,946 858.995113,946 C858.443158,946 857.99571,945.552285 857.99571,945 C857.99571,944.447715 858.443158,944 858.995113,944 C859.547069,944 859.994517,944.447715 859.994517,945 Z" id="Shape"></path>
        </g>
    </g>
</svg>