<?xml version="1.0" encoding="UTF-8"?>
<svg width="30px" height="26px" viewBox="0 0 30 26" version="1.1" xmlns="http://www.w3.org/2000/svg" xmlns:xlink="http://www.w3.org/1999/xlink">
    <!-- Generator: Sketch 45.2 (43514) - http://www.bohemiancoding.com/sketch -->
    <title>thefactory/element/icons/icnthefactory/element/icons/icn-137</title>
    <desc>Created with Sketch.</desc>
    <defs></defs>
    <g id="Ressources" stroke="none" stroke-width="1" fill="none" fill-rule="evenodd">
        <g id="thefactory/element/icn/inc-artboard" transform="translate(-185.000000, -241.000000)" fill-rule="nonzero" fill="#000000">
            <path d="M195.5,241 C194.678,241 194,241.678 194,242.5 L194,244.5 C194,245.17 195.01,245.16 195,244.5 L195,242.5 C195,242.214 195.214,242 195.5,242 L204.5,242 C204.786,242 205,242.214 205,242.5 L205,244.5 C205,245.16 206,245.17 206,244.5 L206,242.5 C206,241.678 205.322,241 204.5,241 L195.5,241 Z M212.492,248 C212.344,248 212.207,248.058 212.119,248.178 L206.619,254.678 C206.159,255.22 205.864,255.562 205.599,255.742 C205.433,255.855 205.239,255.916 204.999,255.955 L204.999,255.5 C204.999,255.223 204.776,255 204.499,255 C204.222,255 203.999,255.223 203.999,255.5 L203.999,256 L195.999,256 L195.999,255.5 C195.999,255.223 195.776,255 195.499,255 C195.222,255 194.999,255.223 194.999,255.5 L194.999,255.955 C194.759,255.915 194.565,255.855 194.399,255.742 C194.134,255.562 193.839,255.22 193.379,254.678 L187.879,248.178 C187.783,248.06 187.652,247.998 187.499,248 C187.079,248 186.839,248.502 187.119,248.822 L192.619,255.322 C193.073,255.86 193.396,256.268 193.837,256.568 C194.165,256.791 194.544,256.921 194.999,256.973 L194.999,257.5 C194.999,257.777 195.222,258 195.499,258 C195.776,258 195.999,257.777 195.999,257.5 L195.999,257 L203.999,257 L203.999,257.5 C203.999,257.777 204.222,258 204.499,258 C204.776,258 204.999,257.777 204.999,257.5 L204.999,256.973 C205.454,256.921 205.833,256.791 206.161,256.568 C206.601,256.268 206.925,255.86 207.381,255.322 L212.881,248.822 C213.151,248.55 212.921,248 212.491,248 L212.492,248 Z M186.5,246 C185.678,246 185,246.678 185,247.5 L185,265.5 C185,266.322 185.678,267 186.5,267 L213.5,267 C214.322,267 215,266.322 215,265.5 L215,247.5 C215,246.678 214.322,246 213.5,246 L186.5,246 Z M186.5,247 L213.5,247 C213.786,247 214,247.214 214,247.5 L214,265.5 C214,265.786 213.786,266 213.5,266 L186.5,266 C186.214,266 186,265.786 186,265.5 L186,247.5 C186,247.214 186.214,247 186.5,247 Z" id="Shape"></path>
        </g>
    </g>
</svg>