<?xml version="1.0" encoding="UTF-8"?>
<svg width="29px" height="19px" viewBox="0 0 29 19" version="1.1" xmlns="http://www.w3.org/2000/svg" xmlns:xlink="http://www.w3.org/1999/xlink">
    <!-- Generator: Sketch 45.2 (43514) - http://www.bohemiancoding.com/sketch -->
    <title>thefactory/element/icons/icnthefactory/element/icons/icn-130</title>
    <desc>Created with Sketch.</desc>
    <defs></defs>
    <g id="Ressources" stroke="none" stroke-width="1" fill="none" fill-rule="evenodd">
        <g id="thefactory/element/icn/inc-artboard" transform="translate(-710.000000, -241.000000)" fill-rule="nonzero" fill="#000000">
            <path d="M715.5,241 C714.845,241 714.84,242.01 715.5,242 L737.5,242 C737.786,242 738,242.214 738,242.5 L738,255.5 C738,256.16 739,256.16 739,255.5 L739,242.5 C739,241.678 738.322,241 737.5,241 L715.5,241 Z M713.5,243 C712.846,243 712.846,244 713.5,244 L735.5,244 C735.786,244 736,244.214 736,244.5 L736,257.5 C736,258.165 737.01,258.16 737,257.5 L737,244.5 C737,243.678 736.322,243 735.5,243 L713.5,243 Z M711.5,245 C710.678,245 710,245.678 710,246.5 L710,258.5 C710,259.322 710.678,260 711.5,260 L733.5,260 C734.322,260 735,259.322 735,258.5 L735,246.5 C735,245.678 734.322,245 733.5,245 L711.5,245 Z M711.5,246 L733.5,246 C733.786,246 734,246.214 734,246.5 L734,258.5 C734,258.786 733.786,259 733.5,259 L711.5,259 C711.214,259 711,258.786 711,258.5 L711,246.5 C711,246.214 711.214,246 711.5,246 Z M712.5,247 C712.224,247 712,247.224 712,247.5 L712,249.5 C712,250.172 713,250.156 713,249.5 L713,248 L714.5,248 C715.172,248 715.156,247 714.5,247 L712.5,247 Z M722.5,247 C719.468,247 717,249.468 717,252.5 C717,255.532 719.468,258 722.5,258 C725.532,258 728,255.532 728,252.5 C728,249.468 725.532,247 722.5,247 Z M730.5,247 C729.844,247 729.828,248 730.5,248 L732,248 L732,249.5 C732,250.156 733,250.172 733,249.5 L733,247.5 C733,247.224 732.776,247 732.5,247 L730.5,247 Z M722.5,248 C724.99,248 727,250.01 727,252.5 C727,254.99 724.99,257 722.5,257 C720.01,257 718,254.99 718,252.5 C718,250.01 720.01,248 722.5,248 Z M722.5,249 C722.223,249 722,249.223 722,249.5 L722,250.094 C721.422,250.304 721,250.854 721,251.5 C721,252.32 721.68,253 722.5,253 C722.78,253 723,253.212 723,253.5 C723,253.788 722.78,254 722.5,254 L721.5,254 C721.162,253.995 721,254.248 721,254.5 C721,254.752 721.162,255.005 721.5,255 L722,255 L722,255.5 C722,255.777 722.223,256 722.5,256 C722.777,256 723,255.777 723,255.5 L723,254.906 C723.578,254.696 724,254.146 724,253.5 C724,252.68 723.32,252 722.5,252 C722.22,252 722,251.788 722,251.5 C722,251.212 722.22,251 722.5,251 L723.5,251 C723.838,251.005 724,250.752 724,250.5 C724,250.248 723.838,249.995 723.5,250 L723,250 L723,249.5 C723,249.223 722.777,249 722.5,249 Z M712.5,255.002 C712.25,255 712,255.164 712,255.5 L712,257.5 C712,257.776 712.224,258 712.5,258 L714.5,258 C715.156,258 715.172,257 714.5,257 L713,257 L713,255.5 C713,255.172 712.75,255.004 712.5,255.002 Z M732.5,255.002 C732.25,255.004 732,255.172 732,255.5 L732,257 L730.5,257 C729.828,257 729.844,258 730.5,258 L732.5,258 C732.776,258 733,257.776 733,257.5 L733,255.5 C733,255.164 732.75,255 732.5,255.002 Z" id="Shape"></path>
        </g>
    </g>
</svg>