<?xml version="1.0" encoding="UTF-8"?>
<svg width="30px" height="25px" viewBox="0 0 30 25" version="1.1" xmlns="http://www.w3.org/2000/svg" xmlns:xlink="http://www.w3.org/1999/xlink">
    <!-- Generator: Sketch 45.2 (43514) - http://www.bohemiancoding.com/sketch -->
    <title>thefactory/element/icons/icnthefactory/element/icons/icn-123</title>
    <desc>Created with Sketch.</desc>
    <defs></defs>
    <g id="Ressources" stroke="none" stroke-width="1" fill="none" fill-rule="evenodd">
        <g id="thefactory/element/icn/inc-artboard" transform="translate(-697.000000, -993.000000)" fill-rule="nonzero" fill="#000000">
            <path d="M709.5,1006 L722.5,1006 C722.777,1006 723,1006.223 723,1006.5 C723,1006.777 722.777,1007 722.5,1007 L709.5,1007 C709.223,1007 709,1006.777 709,1006.5 C709,1006.223 709.223,1006 709.5,1006 Z M709.5,1009 L722.5,1009 C722.777,1009 723,1009.223 723,1009.5 C723,1009.777 722.777,1010 722.5,1010 L709.5,1010 C709.223,1010 709,1009.777 709,1009.5 C709,1009.223 709.223,1009 709.5,1009 Z M709.5,1003 L722.5,1003 C722.777,1003 723,1003.223 723,1003.5 C723,1003.777 722.777,1004 722.5,1004 L709.5,1004 C709.223,1004 709,1003.777 709,1003.5 C709,1003.223 709.223,1003 709.5,1003 Z M701.5,1002 C700.678,1002 700,1002.678 700,1003.5 L700,1009.5 C700,1010.322 700.678,1011 701.5,1011 L705.5,1011 C706.322,1011 707,1010.322 707,1009.5 L707,1003.5 C707,1002.678 706.322,1002 705.5,1002 L701.5,1002 Z M701.5,1003 L705.5,1003 C705.786,1003 706,1003.214 706,1003.5 L706,1009.5 C706,1009.786 705.786,1010 705.5,1010 L701.5,1010 C701.214,1010 701,1009.786 701,1009.5 L701,1003.5 C701,1003.214 701.214,1003 701.5,1003 Z M703.5,993 C703.777,993 704,993.223 704,993.5 L704,997.5 C704,997.777 703.777,998 703.5,998 C703.223,998 703,997.777 703,997.5 L703,993.5 C703,993.223 703.223,993 703.5,993 Z M720.5,993 C720.777,993 721,993.223 721,993.5 L721,997.5 C721,997.777 720.777,998 720.5,998 C720.223,998 720,997.777 720,997.5 L720,993.5 C720,993.223 720.223,993 720.5,993 Z M698.5,995 C697.678,995 697,995.678 697,996.5 L697,1016.5 C697,1017.322 697.678,1018 698.5,1018 L725.5,1018 C726.322,1018 727,1017.322 727,1016.5 L727,996.5 C727,995.678 726.322,995 725.5,995 L722.5,995 C721.84,995 721.836,996 722.5,996 L725.5,996 C725.786,996 726,996.214 726,996.5 L726,1016.5 C726,1016.786 725.786,1017 725.5,1017 L698.5,1017 C698.214,1017 698,1016.786 698,1016.5 L698,996.5 C698,996.214 698.214,996 698.5,996 L701.5,996 C702.17,996 702.154,995 701.5,995 L698.5,995 Z M705.5,995 C704.87,995 704.817,996 705.5,996 L718.5,996 C719.16,996 719.16,995 718.5,995 L705.5,995 Z" id="Shape"></path>
        </g>
    </g>
</svg>