<?xml version="1.0" encoding="UTF-8"?>
<svg width="30px" height="22px" viewBox="0 0 30 22" version="1.1" xmlns="http://www.w3.org/2000/svg" xmlns:xlink="http://www.w3.org/1999/xlink">
    <!-- Generator: Sketch 45.2 (43514) - http://www.bohemiancoding.com/sketch -->
    <title>thefactory/element/icons/icnthefactory/element/icons/icn-36</title>
    <desc>Created with Sketch.</desc>
    <defs></defs>
    <g id="Ressources" stroke="none" stroke-width="1" fill="none" fill-rule="evenodd">
        <g id="thefactory/element/icn/inc-artboard" transform="translate(-1013.000000, -696.000000)" fill-rule="nonzero" fill="#000000">
            <path d="M1025.5,710 L1038.5,710 C1038.777,710 1039,710.223 1039,710.5 C1039,710.777 1038.777,711 1038.5,711 L1025.5,711 C1025.223,711 1025,710.777 1025,710.5 C1025,710.223 1025.223,710 1025.5,710 Z M1025.5,707 L1038.5,707 C1038.777,707 1039,707.223 1039,707.5 C1039,707.777 1038.777,708 1038.5,708 L1025.5,708 C1025.223,708 1025,707.777 1025,707.5 C1025,707.223 1025.223,707 1025.5,707 Z M1018.5,705 C1017.678,705 1017,705.678 1017,706.5 L1017,711.5 C1017,712.322 1017.678,713 1018.5,713 L1021.5,713 C1022.322,713 1023,712.322 1023,711.5 L1023,706.5 C1023,705.678 1022.322,705 1021.5,705 L1018.5,705 Z M1018.5,706 L1021.5,706 C1021.786,706 1022,706.214 1022,706.5 L1022,711.5 C1022,711.786 1021.786,712 1021.5,712 L1018.5,712 C1018.214,712 1018,711.786 1018,711.5 L1018,706.5 C1018,706.214 1018.214,706 1018.5,706 Z M1015.5,700 L1040.5,700 C1040.777,700 1041,700.223 1041,700.5 C1041,700.777 1040.777,701 1040.5,701 L1015.5,701 C1015.223,701 1015,700.777 1015,700.5 C1015,700.223 1015.223,700 1015.5,700 Z M1020,698.5 C1020,698.776142 1019.77614,699 1019.5,699 C1019.22386,699 1019,698.776142 1019,698.5 C1019,698.223858 1019.22386,698 1019.5,698 C1019.77614,698 1020,698.223858 1020,698.5 Z M1018,698.5 C1018,698.776142 1017.77614,699 1017.5,699 C1017.22386,699 1017,698.776142 1017,698.5 C1017,698.223858 1017.22386,698 1017.5,698 C1017.77614,698 1018,698.223858 1018,698.5 Z M1016,698.5 C1016,698.776142 1015.77614,699 1015.5,699 C1015.22386,699 1015,698.776142 1015,698.5 C1015,698.223858 1015.22386,698 1015.5,698 C1015.77614,698 1016,698.223858 1016,698.5 Z M1014.5,696 C1013.678,696 1013,696.678 1013,697.5 L1013,716.5 C1013,717.322 1013.678,718 1014.5,718 L1041.5,718 C1042.322,718 1043,717.322 1043,716.5 L1043,697.5 C1043,696.678 1042.322,696 1041.5,696 L1014.5,696 Z M1014.5,697 L1041.5,697 C1041.786,697 1042,697.214 1042,697.5 L1042,716.5 C1042,716.786 1041.786,717 1041.5,717 L1014.5,717 C1014.214,717 1014,716.786 1014,716.5 L1014,697.5 C1014,697.214 1014.214,697 1014.5,697 Z" id="Shape"></path>
        </g>
    </g>
</svg>