<?xml version="1.0" encoding="UTF-8"?>
<svg width="27px" height="30px" viewBox="0 0 27 30" version="1.1" xmlns="http://www.w3.org/2000/svg" xmlns:xlink="http://www.w3.org/1999/xlink">
    <!-- Generator: Sketch 45.2 (43514) - http://www.bohemiancoding.com/sketch -->
    <title>thefactory/element/icons/icnthefactory/element/icons/icn-26</title>
    <desc>Created with Sketch.</desc>
    <defs></defs>
    <g id="Ressources" stroke="none" stroke-width="1" fill="none" fill-rule="evenodd">
        <g id="thefactory/element/icn/inc-artboard" transform="translate(-625.000000, -772.000000)" fill-rule="nonzero" fill="#000000">
            <path d="M633.497213,783.000069 C633.222221,783.000069 632.997229,783.225071 632.997229,783.500072 L632.997229,786.500091 C632.997229,787.166095 633.997197,787.163095 633.997197,786.500091 L633.997197,784.70208 L638.129066,788.837106 C638.599051,789.327109 639.323028,788.602104 638.834044,788.132101 L634.697175,784.000075 L636.487118,783.997075 C637.157097,783.997075 637.173096,783.000069 636.487118,783.000069 L633.497213,783.000069 Z M638.497054,785.000082 C637.827076,785.000082 637.840075,786.000088 638.497054,786.000088 C639.88401,786.000088 640.996975,787.113095 640.996975,788.500104 C640.996975,789.887112 639.88401,791.000119 638.497054,791.000119 C637.110098,791.000119 635.997134,789.887112 635.997134,788.500104 C635.997134,787.8351 634.997165,787.8471 634.997165,788.500104 C634.997165,790.427116 636.570115,792.000126 638.497054,792.000126 C640.423993,792.000126 641.996944,790.427116 641.996944,788.500104 C641.996944,786.573092 640.423993,785.000082 638.497054,785.000082 Z M636.497118,772 C636.220126,772 635.997134,772.223001 635.997134,772.500003 C635.997134,772.777005 636.220126,773.000006 636.497118,773.000006 L637.99707,773.000006 L637.99707,776.500028 C637.99707,776.77703 638.220063,777.000031 638.497054,777.000031 C638.774046,777.000031 638.997039,776.77703 638.997039,776.500028 L638.997039,776.020025 C644.604861,776.245027 649.403709,780.177051 650.676669,785.686086 C651.986627,791.358122 649.212715,797.178158 643.980881,799.732174 C638.751046,802.28719 632.455246,800.895182 628.788362,796.372153 C625.122478,791.852125 625.06248,785.402084 628.643366,780.812055 C629.053353,780.286052 628.263378,779.672048 627.853391,780.197052 C623.990514,785.151083 624.055512,792.122126 628.013386,797.002157 C631.968261,801.882188 638.777046,803.387197 644.422867,800.63218 C650.066688,797.875163 653.066593,791.582123 651.652638,785.462085 C650.273681,779.503047 645.064846,775.24502 638.997039,775.020019 L638.997039,773.000006 L640.496991,773.000006 C640.773982,773.000006 640.996975,772.777005 640.996975,772.500003 C640.996975,772.223001 640.773982,772 640.496991,772 L636.497118,772 Z" id="Shape"></path>
        </g>
    </g>
</svg>