<?xml version="1.0" encoding="UTF-8"?>
<svg width="30px" height="30px" viewBox="0 0 30 30" version="1.1" xmlns="http://www.w3.org/2000/svg" xmlns:xlink="http://www.w3.org/1999/xlink">
    <!-- Generator: Sketch 45.2 (43514) - http://www.bohemiancoding.com/sketch -->
    <title>thefactory/element/icons/icnthefactory/element/icons/icn-80</title>
    <desc>Created with Sketch.</desc>
    <defs></defs>
    <g id="Ressources" stroke="none" stroke-width="1" fill="none" fill-rule="evenodd">
        <g id="thefactory/element/icn/inc-artboard" transform="translate(-929.000000, -916.000000)" fill-rule="nonzero" fill="#000000">
            <path d="M937.500179,916 C936.678186,916 936.000192,916.678 936.000192,917.5 L936.000192,923.5 C936.000192,924.165 937.000183,924.17 937.000183,923.5 L937.000183,917.5 C937.000183,917.214 937.214182,917 937.500179,917 L957.500012,917 C957.78601,917 958.000008,917.214 958.000008,917.5 L958.000008,944.5 C958.000008,944.786 957.78601,945 957.500012,945 L937.500179,945 C937.214182,945 937.000183,944.786 937.000183,944.5 L937.000183,937.5 C937.000183,936.84 936.000192,936.846 936.000192,937.5 L936.000192,944.5 C936.000192,945.322 936.678186,946 937.500179,946 L957.500012,946 C958.322006,946 959,945.322 959,944.5 L959,917.5 C959,916.678 958.322006,916 957.500012,916 L937.500179,916 Z M933.500212,935 C933.950209,935 934.143207,934.437 933.85421,934.146 L930.20724,930.5 L933.85421,926.854 C934.296206,926.428 933.600212,925.694 933.146215,926.146 L929.146249,930.146 C928.95125,930.342 928.95125,930.658 929.146249,930.854 L933.146215,934.854 C933.241215,934.951 933.366214,935 933.500212,935 Z M946.500104,931 L932.500221,931 C932.223223,931 932.000225,930.777 932.000225,930.5 C932.000225,930.223 932.223223,930 932.500221,930 L946.500104,930 C946.777102,930 947.0001,930.223 947.0001,930.5 C947.0001,930.777 946.777102,931 946.500104,931 Z" id="Shape"></path>
        </g>
    </g>
</svg>