<?xml version="1.0" encoding="UTF-8"?>
<svg width="29px" height="28px" viewBox="0 0 29 28" version="1.1" xmlns="http://www.w3.org/2000/svg" xmlns:xlink="http://www.w3.org/1999/xlink">
    <!-- Generator: Sketch 45.2 (43514) - http://www.bohemiancoding.com/sketch -->
    <title>thefactory/element/icons/icnthefactory/element/icons/icn-38</title>
    <desc>Created with Sketch.</desc>
    <defs></defs>
    <g id="Ressources" stroke="none" stroke-width="1" fill="none" fill-rule="evenodd">
        <g id="thefactory/element/icn/inc-artboard" transform="translate(-862.000000, -696.000000)" fill-rule="nonzero" fill="#000000">
            <path d="M882.495205,709 C882.772005,709 882.994844,709.223 882.994844,709.5 L882.994844,718.5 C882.994844,718.777 882.772005,719 882.495205,719 C882.218404,719 881.995565,718.777 881.995565,718.5 L881.995565,709.5 C881.995565,709.223 882.218404,709 882.495205,709 Z M876.49953,709 C876.77633,709 876.999169,709.223 876.999169,709.5 L876.999169,718.5 C876.999169,718.777 876.77633,719 876.49953,719 C876.22273,719 875.99989,718.777 875.99989,718.5 L875.99989,709.5 C875.99989,709.223 876.22273,709 876.49953,709 Z M870.503855,709 C870.780655,709 871.003495,709.223 871.003495,709.5 L871.003495,718.5 C871.003495,718.777 870.780655,719 870.503855,719 C870.227055,719 870.004215,718.777 870.004215,718.5 L870.004215,709.5 C870.004215,709.223 870.227055,709 870.503855,709 Z M880.522628,696 C880.652534,696 880.775445,696.058 880.86538,696.15 L886.851063,702.15 C887.292744,702.595 886.59125,703.305 886.144572,702.858 L880.15889,696.858 C879.837122,696.54 880.013995,696 880.522628,696 Z M872.476432,696 C872.346526,696 872.223614,696.058 872.133679,696.15 L866.147997,702.15 C865.706316,702.595 866.40781,703.305 866.854487,702.858 L872.84017,696.858 C873.163936,696.54 872.986064,696 872.477431,696 L872.476432,696 Z M863.508901,704 C863.095199,704 862.712475,704.16 862.423684,704.432 C862.133893,704.704 861.938034,705.132 862.017976,705.586 L865.015814,722.586 C865.077769,722.936 865.218667,723.276 865.468487,723.546 C865.718307,723.814 866.094036,724 866.507738,724 L886.493321,724 C886.907022,724 887.282751,723.814 887.532571,723.545 C887.782391,723.275 887.92229,722.937 887.984245,722.585 L890.982083,705.585 C891.062025,705.132 890.865167,704.705 890.576375,704.432 C890.285585,704.16 889.90386,704 889.490159,704 L863.508901,704 Z M863.508901,705 L889.490159,705 C889.989798,705 890.053752,705.205 889.997793,705.414 L886.999955,722.414 C886.880042,722.858 886.770121,723 886.492321,723 L866.506738,723 C866.142001,723 866.097034,722.78 865.999104,722.414 L863.001267,705.414 C862.939312,705.084 863.259081,705 863.508901,705 Z" id="Shape"></path>
        </g>
    </g>
</svg>