<?xml version="1.0" encoding="UTF-8"?>
<svg width="26px" height="30px" viewBox="0 0 26 30" version="1.1" xmlns="http://www.w3.org/2000/svg" xmlns:xlink="http://www.w3.org/1999/xlink">
    <!-- Generator: Sketch 45.2 (43514) - http://www.bohemiancoding.com/sketch -->
    <title>thefactory/element/icons/icnthefactory/element/icons/icn-151</title>
    <desc>Created with Sketch.</desc>
    <defs></defs>
    <g id="Ressources" stroke="none" stroke-width="1" fill="none" fill-rule="evenodd">
        <g id="thefactory/element/icn/inc-artboard" transform="translate(-260.000000, -165.000000)" fill-rule="nonzero" fill="#000000">
            <path d="M271.5,192 C271.224,192.004 270.996,192.224 271,192.5 L271,193 C271,194.1 271.9,195 273,195 C274.1,195 275,194.1 275,193 L275,192.5 C275,192.167 274.75,192 274.5,192 C274.25,192 274,192.162 274,192.5 L274,193 C274,193.563 273.563,194 273,194 C272.437,194 272,193.563 272,193 L272,192.5 C272.004,192.218 271.782,191.996 271.5,192 Z M273,165 C271.35,165 270,166.35 270,168 L270,168.5 C270,169.15 271,169.16 271,168.5 L271,168 C271,166.89 271.89,166 273,166 C274.11,166 275,166.89 275,168 L275,168.5 C275,169.154 276,169.16 276,168.5 L276,168 C276,166.35 274.65,165 273,165 Z M280.5,168 C283.534,168 286,170.468 286,173.5 C286,174.165 285,174.165 285,173.5 C285,171.01 282.994,169 280.5,169 C279.833,169 279.837,168 280.5,168 Z M265.5,168 C262.468,168 260,170.468 260,173.5 C260,174.165 261,174.165 261,173.5 C261,171.01 263.01,169 265.5,169 C266.168,169 266.165,168 265.5,168 Z M273,170 C268.68,170 266.312,171.81 265.162,174.102 C264.012,176.394 264,179.096 264,181 C264,183 264,186.817 261.12,190.174 C260.992488,190.322285 260.963135,190.531301 261.044872,190.708972 C261.126609,190.886642 261.30443,191.000349 261.5,191 L284.5,191 C284.69557,191.000349 284.873391,190.886642 284.955128,190.708972 C285.036865,190.531301 285.007512,190.322285 284.88,190.174 C282,186.817 282,183 282,181 C282,179.096 281.987,176.394 280.838,174.102 C279.688,171.81 277.32,170 273,170 Z M273,171 C277.054,171 278.937,172.543 279.943,174.55 C280.95,176.56 281,179.108 281,181 C281,182.852 281.107,186.567 283.586,190 L262.414,190 C264.894,186.567 265,182.852 265,181 C265,179.107 265.05,176.56 266.057,174.55 C267.063,172.544 268.947,171 273,171 Z" id="Shape"></path>
        </g>
    </g>
</svg>