<?xml version="1.0" encoding="UTF-8"?>
<svg width="30px" height="30px" viewBox="0 0 30 30" version="1.1" xmlns="http://www.w3.org/2000/svg" xmlns:xlink="http://www.w3.org/1999/xlink">
    <!-- Generator: Sketch 45.2 (43514) - http://www.bohemiancoding.com/sketch -->
    <title>thefactory/element/icons/icnthefactory/element/icons/icn-129</title>
    <desc>Created with Sketch.</desc>
    <defs></defs>
    <g id="Ressources" stroke="none" stroke-width="1" fill="none" fill-rule="evenodd">
        <g id="thefactory/element/icn/inc-artboard" transform="translate(-784.000000, -241.000000)" fill-rule="nonzero" fill="#000000">
            <path d="M788.500071,262.999999 C786.886085,262.999999 785.903093,263.883999 785.460097,264.866999 C785.013101,265.849999 785.000101,266.914999 785.000101,267.499999 C785.000101,267.996999 784.886102,268.639999 784.715104,269.163999 C784.602104,269.581999 784.410106,269.959999 784.252108,270.065999 C783.807111,270.321999 783.98911,271.000999 784.502105,270.999999 L788.000075,270.999999 C789.415063,270.999999 790.457054,270.271999 791.090049,269.431999 C791.722043,268.591999 792.000041,267.671999 792.000041,266.999999 C792.000041,266.474999 791.990041,265.519999 791.533045,264.639999 C791.076049,263.755999 790.093057,262.999999 788.500071,262.999999 Z M788.500071,263.999999 C789.80706,263.999999 790.326055,264.484999 790.644052,265.099999 C790.96205,265.713999 791.000049,266.507999 791.000049,266.999999 C791.000049,267.344999 790.780051,268.174999 790.290055,268.829999 C789.79506,269.484999 789.083066,269.999999 788.000075,269.999999 L785.440097,269.999999 C785.517097,269.829999 785.600096,269.667999 785.664095,269.474999 C785.867094,268.854999 786.000092,268.142999 786.000092,267.499999 C786.000092,266.944999 786.040092,266.009999 786.370089,265.276999 C786.703086,264.544999 787.216082,263.999999 788.500071,263.999999 Z M813.423856,241.002 C813.321857,240.996 813.241858,241.008 813.160858,241.022 C812.99886,241.055 812.830861,241.112 812.627863,241.189 C812.223866,241.344 811.697871,241.589 811.061876,241.921 C809.789887,242.581 808.078902,243.579 806.151919,244.823 C802.294952,247.313 797.577993,250.785 793.847025,254.517 C792.537036,255.826999 791.990041,257.222999 792.002041,258.488999 C792.014041,259.755999 792.572036,260.866999 793.352029,261.648999 C794.135022,262.431999 795.235013,262.986999 796.502002,262.998999 C797.768991,263.010999 799.174979,262.465999 800.484968,261.154999 C804.216935,257.424999 807.688905,252.707 810.177884,248.851 C811.422873,246.923 812.417865,245.211 813.080859,243.938 C813.410856,243.301 813.656854,242.775 813.810853,242.371 C813.890852,242.169 813.945851,242.001 813.977851,241.838 C813.993851,241.756 814.004851,241.676 813.997851,241.574 C813.993851,241.472 813.975851,241.32 813.827852,241.172 C813.677854,241.022 813.527855,241.006 813.424856,241 L813.423856,241.002 Z M812.781862,242.219 C812.643863,242.549 812.466864,242.947 812.191867,243.479 C811.551872,244.711 810.566881,246.402 809.336891,248.309 C806.876912,252.119 803.428942,256.795999 799.776974,260.448999 C798.616984,261.608999 797.478993,262.008999 796.500002,261.998999 C795.52001,261.988999 794.674018,261.558999 794.058023,260.941999 C793.442028,260.326999 793.008032,259.457999 793.000032,258.478999 C792.990032,257.500999 793.390029,256.383999 794.552019,255.223999 C798.204987,251.571 802.879947,248.124 806.691914,245.664 C808.597898,244.434 810.288883,243.448 811.521872,242.808 C812.051868,242.531 812.448864,242.355 812.781862,242.218 L812.781862,242.219 Z" id="Shape"></path>
        </g>
    </g>
</svg>