<?xml version="1.0" encoding="UTF-8"?>
<svg width="30px" height="16px" viewBox="0 0 30 16" version="1.1" xmlns="http://www.w3.org/2000/svg" xmlns:xlink="http://www.w3.org/1999/xlink">
    <!-- Generator: Sketch 45.2 (43514) - http://www.bohemiancoding.com/sketch -->
    <title>thefactory/element/icons/icnthefactory/element/icons/icn-07</title>
    <desc>Created with Sketch.</desc>
    <defs></defs>
    <g id="Ressources" stroke="none" stroke-width="1" fill="none" fill-rule="evenodd">
        <g id="thefactory/element/icn/inc-artboard" transform="translate(-924.000000, -847.000000)" fill-rule="nonzero" fill="#000000">
            <path d="M935.5,858 C935.8,858 936,858.2 936,858.5 C936,858.8 935.8,859 935.5,859 C935.2,859 935,858.8 935,858.5 C935,858.2 935.2,858 935.5,858 Z M942.5,858 C942.8,858 943,858.2 943,858.5 C943,858.8 942.8,859 942.5,859 C942.2,859 942,858.8 942,858.5 C942,858.2 942.2,858 942.5,858 Z M942.5,851 C942.8,851 943,851.2 943,851.5 C943,851.8 942.8,852 942.5,852 C942.2,852 942,851.8 942,851.5 C942,851.2 942.2,851 942.5,851 Z M935.5,851 C935.8,851 936,851.2 936,851.5 C936,851.8 935.8,852 935.5,852 C935.2,852 935,851.8 935,851.5 C935,851.2 935.2,851 935.5,851 Z M943,854 C943.6,854 944,854.4 944,855 C944,855.6 943.6,856 943,856 C942.4,856 942,855.6 942,855 C942,854.4 942.4,854 943,854 Z M935,854 C935.6,854 936,854.4 936,855 C936,855.6 935.6,856 935,856 C934.4,856 934,855.6 934,855 C934,854.4 934.4,854 935,854 Z M940,859 C940,859.6 939.6,860 939,860 C938.4,860 938,859.6 938,859 C938,858.4 938.4,858 939,858 C939.6,858 940,858.4 940,859 Z M940,851 C940,851.6 939.6,852 939,852 C938.4,852 938,851.6 938,851 C938,850.4 938.4,850 939,850 C939.6,850 940,850.4 940,851 Z M939,853 C938,853 937,854 937,855 C937,856 938,857 939,857 C940,857 941,856 941,855 C941,854 940,853 939,853 Z M939,854 C939.6,854 940,854.4 940,855 C940,855.6 939.6,856 939,856 C938.4,856 938,855.6 938,855 C938,854.4 938.4,854 939,854 Z M932.5,847 C931.7,847 931,847.7 931,848.5 L931,849 L925.4,850 C925.1,850 924.7,850.2 924.4,850.5 C924.2,850.7 924,851.1 924,851.5 L924,858.5 C924,858.9 924.2,859.3 924.5,859.5 C924.7,859.8 925.1,859.9 925.5,860 L931,861 L931,861.5 C931,862.3 931.7,863 932.5,863 L945.5,863 C946.3,863 947,862.3 947,861.5 L947,861 L952.6,860 C952.9,860 953.3,859.8 953.6,859.5 C953.8,859.3 954,858.9 954,858.5 L954,851.5 C954,851.1 953.8,850.7 953.5,850.5 C953.3,850.2 952.9,850.1 952.5,850 L947,849 L947,848.5 C947,847.7 946.3,847 945.5,847 L932.5,847 Z M946,861.5 C946,861.8 945.8,862 945.5,862 L932.5,862 C932.2,862 932,861.8 932,861.5 L932,848.5 C932,848.2 932.2,848 932.5,848 L945.5,848 C945.8,848 946,848.2 946,848.5 L946,861.5 Z M931,850 L931,860 L925.6,859 C925.2,859 925,858.8 925,858.5 L925,851.5 C925,851.2 925.2,851.1 925.6,851 L931,850 Z M947,850 L952.4,851 C952.9,851 953,851.3 953,851.5 L953,858.5 C953,858.8 952.8,858.9 952.4,859 L947,860 L947,850 Z" id="Shape"></path>
        </g>
    </g>
</svg>