<?xml version="1.0" encoding="UTF-8"?>
<svg width="30px" height="22px" viewBox="0 0 30 22" version="1.1" xmlns="http://www.w3.org/2000/svg" xmlns:xlink="http://www.w3.org/1999/xlink">
    <!-- Generator: Sketch 45.2 (43514) - http://www.bohemiancoding.com/sketch -->
    <title>thefactory/element/icons/icnthefactory/element/icons/icn-28</title>
    <desc>Created with Sketch.</desc>
    <defs></defs>
    <g id="Ressources" stroke="none" stroke-width="1" fill="none" fill-rule="evenodd">
        <g id="thefactory/element/icn/inc-artboard" transform="translate(-476.000000, -772.000000)" fill-rule="nonzero" fill="#000000">
            <path d="M481.5,774 C481.777,774 482,774.223 482,774.5 L482,791.5 C482,791.777 481.777,792 481.5,792 C481.223,792 481,791.777 481,791.5 L481,774.5 C481,774.223 481.223,774 481.5,774 Z M480,783 C480,783.552 479.552,784 479,784 C478.448,784 478,783.552 478,783 C478,782.448 478.448,782 479,782 C479.552,782 480,782.448 480,783 Z M477.5,772 C476.678,772 476,772.678 476,773.5 L476,792.5 C476,793.322 476.678,794 477.5,794 L504.5,794 C505.322,794 506,793.322 506,792.5 L506,773.5 C506,772.678 505.322,772 504.5,772 L477.5,772 Z M477.5,773 L504.5,773 C504.786,773 505,773.214 505,773.5 L505,792.5 C505,792.786 504.786,793 504.5,793 L477.5,793 C477.214,793 477,792.786 477,792.5 L477,773.5 C477,773.214 477.214,773 477.5,773 Z" id="Shape"></path>
        </g>
    </g>
</svg>