<?xml version="1.0" encoding="UTF-8"?>
<svg width="30px" height="26px" viewBox="0 0 30 26" version="1.1" xmlns="http://www.w3.org/2000/svg" xmlns:xlink="http://www.w3.org/1999/xlink">
    <!-- Generator: Sketch 45.2 (43514) - http://www.bohemiancoding.com/sketch -->
    <title>thefactory/element/icons/icnthefactory/element/icons/icn-98</title>
    <desc>Created with Sketch.</desc>
    <defs></defs>
    <g id="Ressources" stroke="none" stroke-width="1" fill="none" fill-rule="evenodd">
        <g id="thefactory/element/icn/inc-artboard" transform="translate(-926.000000, -394.000000)" fill-rule="nonzero" fill="#000000">
            <path d="M926.5,408.000364 L929.5,408.000364 C929.777,408.000364 930,408.223354 930,408.500341 C930,408.777328 929.777,409.000318 929.5,409.000318 L926.5,409.000318 C926.223,409.000318 926,408.777328 926,408.500341 C926,408.223354 926.223,408.000364 926.5,408.000364 Z M926.5,403.000591 L929.5,403.000591 C929.777,403.000591 930,403.223581 930,403.500568 C930,403.777556 929.777,404.000546 929.5,404.000546 L926.5,404.000546 C926.223,404.000546 926,403.777556 926,403.500568 C926,403.223581 926.223,403.000591 926.5,403.000591 Z M926.5,398.000818 L929.5,398.000818 C929.777,398.000818 930,398.223808 930,398.500795 C930,398.777783 929.777,399.000773 929.5,399.000773 L926.5,399.000773 C926.223,399.000773 926,398.777783 926,398.500795 C926,398.223808 926.223,398.000818 926.5,398.000818 Z M933.5,394.001 C932.678,394.001 932,394.677969 932,395.500932 L932,412.500159 C932,413.322122 932.678,414.000091 933.5,414.000091 L936,414.000091 L936,418.499887 C936,418.846871 936.052,419.146857 936.184,419.407845 C936.316,419.667834 936.558,419.887824 936.842,419.96282 C937.412,420.110813 937.918,419.798828 938.358,419.348848 C939.882,417.788919 942.585,415.112041 943.708,413.999091 L954.5,413.999091 C955.322,413.999091 956,413.321122 956,412.499159 L956,395.499932 C956,394.676969 955.322,394 954.5,394 L933.5,394.001 Z M933.5,395.000955 L954.5,395.000955 C954.786,395.000955 955,395.214945 955,395.500932 L955,412.500159 C955,412.785146 954.786,413.000137 954.5,413.000137 L943.5,413.000137 C943.37,413.000137 943.243,413.052134 943.15,413.14413 C942.09,414.194082 939.222,417.033953 937.643,418.64988 C937.091,419.201855 937,418.846871 937,418.499887 L937,413.500114 C937,413.224126 936.777,413.000137 936.5,413.000137 L933.5,413.000137 C933.214,413.000137 933,412.785146 933,412.500159 L933,395.500932 C933,395.214945 933.214,395.000955 933.5,395.000955 Z" id="Shape"></path>
        </g>
    </g>
</svg>