<?xml version="1.0" encoding="UTF-8"?>
<svg width="30px" height="20px" viewBox="0 0 30 20" version="1.1" xmlns="http://www.w3.org/2000/svg" xmlns:xlink="http://www.w3.org/1999/xlink">
    <!-- Generator: Sketch 45.2 (43514) - http://www.bohemiancoding.com/sketch -->
    <title>thefactory/element/icons/icnthefactory/element/icons/icn-53</title>
    <desc>Created with Sketch.</desc>
    <defs></defs>
    <g id="Ressources" stroke="none" stroke-width="1" fill="none" fill-rule="evenodd">
        <g id="thefactory/element/icn/inc-artboard" transform="translate(-850.000000, -620.000000)" fill-rule="nonzero" fill="#000000">
            <path d="M872.5,620 C871.07,620 869.65,620.619972 868.62,621.624926 C867.585,622.634879 867,623.989817 867,625.499748 C867,626.889684 867.616,628.172625 868.332,629.265575 C869.046,630.355525 869.89,631.295482 870.592,632.288437 C870.998,632.86141 871.358,633.451383 871.612,634.072355 C871.868,634.692326 872.017,635.359296 872,635.998267 C871.968,637.22121 871.272,638.426155 870.234,639.074126 C869.787,639.352113 870.047,640.094079 870.592,639.990084 C873.239,639.490106 875.685,638.040173 877.392,635.955269 C879.096,633.871364 880,631.193487 880,628.49961 C880,626.499702 879.36,624.315802 878.035,622.673877 C877.372,621.853915 876.541,621.160947 875.585,620.686969 C874.632,620.21299 873.576,620 872.5,620 Z M872.5,620.999954 C873.402,620.999954 874.327,621.179946 875.14,621.583927 C875.955,621.987909 876.68,622.583882 877.258,623.300849 C878.414,624.732783 879,626.527701 879,628.49961 C879,630.951498 878.17,633.423385 876.617,635.321298 C875.503,636.683235 873.977,637.608193 872.344,638.271162 C872.742,637.588194 872.979,636.80123 873,635.999267 C873.02,635.189304 872.833,634.413339 872.537,633.692372 C872.241,632.972405 871.84,632.319435 871.407,631.710463 C870.663,630.658511 869.829,629.723554 869.17,628.7176 C868.513,627.714646 868,626.617697 868,625.500748 C868,624.342801 868.48,623.156855 869.316,622.340893 C870.156,621.52093 871.316,621.000954 872.5,621.000954 L872.5,620.999954 Z M855.5,620 C854.07,620 852.65,620.619972 851.62,621.624926 C850.585,622.634879 850,623.989817 850,625.499748 C850,626.889684 850.616,628.172625 851.332,629.265575 C852.046,630.355525 852.89,631.295482 853.592,632.288437 C853.998,632.86141 854.358,633.451383 854.612,634.072355 C854.868,634.692326 855.017,635.359296 855,635.998267 C854.968,637.22121 854.272,638.426155 853.234,639.074126 C852.787,639.352113 853.047,640.094079 853.592,639.990084 C856.239,639.490106 858.685,638.040173 860.392,635.955269 C862.096,633.871364 863,631.193487 863,628.49961 C863,626.499702 862.36,624.315802 861.035,622.673877 C860.372,621.853915 859.541,621.160947 858.585,620.686969 C857.632,620.21299 856.576,620 855.5,620 Z M855.5,620.999954 C856.402,620.999954 857.327,621.179946 858.14,621.583927 C858.955,621.987909 859.68,622.583882 860.258,623.300849 C861.414,624.732783 862,626.527701 862,628.49961 C862,630.951498 861.17,633.423385 859.617,635.321298 C858.503,636.683235 856.977,637.608193 855.344,638.271162 C855.742,637.588194 855.979,636.80123 856,635.999267 C856.02,635.189304 855.833,634.413339 855.537,633.692372 C855.241,632.972405 854.84,632.319435 854.407,631.710463 C853.663,630.658511 852.829,629.723554 852.17,628.7176 C851.513,627.713646 851,626.616697 851,625.499748 C851,624.341801 851.48,623.155855 852.316,622.339893 C853.156,621.51993 854.316,620.999954 855.5,620.999954 Z" id="Shape"></path>
        </g>
    </g>
</svg>