<?xml version="1.0" encoding="UTF-8"?>
<svg width="30px" height="21px" viewBox="0 0 30 21" version="1.1" xmlns="http://www.w3.org/2000/svg" xmlns:xlink="http://www.w3.org/1999/xlink">
    <!-- Generator: Sketch 45.2 (43514) - http://www.bohemiancoding.com/sketch -->
    <title>thefactory/element/icons/icnthefactory/element/icons/icn-76</title>
    <desc>Created with Sketch.</desc>
    <defs></defs>
    <g id="Ressources" stroke="none" stroke-width="1" fill="none" fill-rule="evenodd">
        <g id="thefactory/element/icn/inc-artboard" transform="translate(-259.000000, -544.000000)" fill-rule="nonzero" fill="#000000">
            <path d="M259.5,564.000286 L288.5,564.000286 C288.777,564.000286 289,564.223222 289,564.500143 C289,564.777064 288.777,565 288.5,565 L259.5,565 C259.223,565 259,564.777064 259,564.500143 C259,564.223222 259.223,564.000286 259.5,564.000286 Z M259.5,554.000143 L288.5,554.000143 C288.777,554.000143 289,554.223079 289,554.5 C289,554.776921 288.777,554.999857 288.5,554.999857 L259.5,554.999857 C259.223,554.999857 259,554.776921 259,554.5 C259,554.223079 259.223,554.000143 259.5,554.000143 Z M259.5,544 L288.5,544 C288.777,544 289,544.222936 289,544.499857 C289,544.776778 288.777,544.999714 288.5,544.999714 L259.5,544.999714 C259.223,544.999714 259,544.776778 259,544.499857 C259,544.222936 259.223,544 259.5,544 Z" id="Shape"></path>
        </g>
    </g>
</svg>