<?xml version="1.0" encoding="UTF-8"?>
<svg width="30px" height="28px" viewBox="0 0 30 28" version="1.1" xmlns="http://www.w3.org/2000/svg" xmlns:xlink="http://www.w3.org/1999/xlink">
    <!-- Generator: Sketch 45.2 (43514) - http://www.bohemiancoding.com/sketch -->
    <title>thefactory/element/icons/icnthefactory/element/icons/icn-146</title>
    <desc>Created with Sketch.</desc>
    <defs></defs>
    <g id="Ressources" stroke="none" stroke-width="1" fill="none" fill-rule="evenodd">
        <g id="thefactory/element/icn/inc-artboard" transform="translate(-632.000000, -166.000000)" fill-rule="nonzero" fill="#000000">
            <path d="M656.527158,166.001 C656.922146,166.001 657.117141,166.456984 656.925146,166.764973 L653.930233,171.757794 C653.590242,172.323774 652.770266,171.767794 653.070257,171.243813 L656.067171,166.249991 C656.161168,166.085997 656.339163,166 656.527158,166 L656.527158,166.001 Z M637.473707,166.001 C637.098717,166.008 636.883724,166.455984 637.075718,166.764973 L640.070632,171.757794 C640.408622,172.320774 641.244598,171.767794 640.930607,171.243813 L637.932693,166.250991 C637.840696,166.085997 637.660701,165.996 637.473707,166.001 Z M651.500303,178.000571 C650.678326,178.000571 650.000346,178.678547 650.000346,179.500518 L650.000346,181.500446 C650.000346,182.322417 650.678326,183.000393 651.500303,183.000393 C652.322279,183.000393 653.000259,182.322417 653.000259,181.500446 L653.000259,179.500518 C653.000259,178.678547 652.322279,178.000571 651.500303,178.000571 Z M651.500303,179.000536 C651.786294,179.000536 652.000288,179.214528 652.000288,179.500518 L652.000288,181.500446 C652.000288,181.786436 651.786294,182.000429 651.500303,182.000429 C651.214311,182.000429 651.000317,181.786436 651.000317,181.500446 L651.000317,179.500518 C651.000317,179.214528 651.214311,179.000536 651.500303,179.000536 Z M642.500562,178.000571 C641.678585,178.000571 641.000605,178.678547 641.000605,179.500518 L641.000605,181.500446 C641.000605,182.322417 641.678585,183.000393 642.500562,183.000393 C643.322538,183.000393 644.000519,182.322417 644.000519,181.500446 L644.000519,179.500518 C644.000519,178.678547 643.322538,178.000571 642.500562,178.000571 Z M642.500562,179.000536 C642.786554,179.000536 643.000547,179.214528 643.000547,179.500518 L643.000547,181.500446 C643.000547,181.786436 642.786554,182.000429 642.500562,182.000429 C642.21457,182.000429 642.000576,181.786436 642.000576,181.500446 L642.000576,179.500518 C642.000576,179.214528 642.21457,179.000536 642.500562,179.000536 Z M633.500821,187.00025 C632.678845,187.00025 632.000864,187.678226 632.000864,188.500196 L632.000864,192.500054 C632.000864,193.322024 632.678845,194 633.500821,194 L660.500043,194 C661.32202,194 662,193.322024 662,192.500054 L662,188.500196 C662,187.678226 661.32202,187.00025 660.500043,187.00025 L633.500821,187.00025 Z M633.500821,188.000214 L660.500043,188.000214 C660.786035,188.000214 661.000029,188.214207 661.000029,188.500196 L661.000029,192.500054 C661.000029,192.786043 660.786035,193.000036 660.500043,193.000036 L633.500821,193.000036 C633.214829,193.000036 633.000836,192.786043 633.000836,192.500054 L633.000836,188.500196 C633.000836,188.214207 633.214829,188.000214 633.500821,188.000214 Z M647.000432,172.000786 C639.937636,172.010785 633.772813,176.695618 632.062863,183.377379 L632.059863,183.389379 C632.059863,183.389379 631.905867,183.983358 632.091862,184.636334 C632.184859,184.962323 632.375854,185.32131 632.721844,185.5863 C633.068834,185.849291 633.54682,185.999286 634.141803,185.999286 L659.853062,185.999286 C660.448045,185.999286 660.928031,185.849291 661.273021,185.585301 C661.621011,185.32131 661.813005,184.962323 661.905003,184.635334 C662.091997,183.983358 661.942002,183.388379 661.942002,183.388379 L661.938002,183.375379 C660.230051,176.694618 654.064229,172.007785 647.000432,172.000786 Z M647.000432,173.00075 C653.620241,173.00675 659.370076,177.386593 660.96703,183.613371 C660.96703,183.615371 661.045028,184.016357 660.94503,184.363344 C660.895032,184.537338 660.815034,184.678333 660.670038,184.789329 C660.523043,184.899325 660.287049,184.999321 659.854062,184.999321 L634.144803,184.999321 C633.709815,184.999321 633.474822,184.899325 633.328826,184.789329 C633.18283,184.677333 633.104833,184.536338 633.055834,184.362344 C632.957837,184.018356 633.032835,183.62637 633.033835,183.618371 C634.630789,177.390593 640.380623,173.01075 647.000432,173.00075 Z" id="Shape"></path>
        </g>
    </g>
</svg>