<?xml version="1.0" encoding="UTF-8"?>
<svg width="30px" height="30px" viewBox="0 0 30 30" version="1.1" xmlns="http://www.w3.org/2000/svg" xmlns:xlink="http://www.w3.org/1999/xlink">
    <!-- Generator: Sketch 45.2 (43514) - http://www.bohemiancoding.com/sketch -->
    <title>thefactory/element/icons/icnthefactory/element/icons/icn-104</title>
    <desc>Created with Sketch.</desc>
    <defs></defs>
    <g id="Ressources" stroke="none" stroke-width="1" fill="none" fill-rule="evenodd">
        <g id="thefactory/element/icn/inc-artboard" transform="translate(-476.000000, -393.000000)" fill-rule="nonzero" fill="#000000">
            <path d="M484.5,393 C483.504,393 482.542,393.55 481.906,394.307 C481.27,395.06 481,395.967 481,397 C481,397.653 481.233,398.314 481.57,398.875 C481.834,399.315 482.182,399.692 482.584,400 L478,400 C476.9,400 476,400.9 476,402 L476,406 C476,407.1 476.9,408 478,408 L504,408 C505.1,408 506,407.1 506,406 L506,402 C506,400.9 505.1,400 504,400 L498.158,400 C498.435,399.714 498.655,399.374 498.798,399 C498.992,398.495 499.042,397.95 498.968,397.426 C498.881,396.826 498.628,396.241 498.195,395.786 C497.758,395.325 497.163,395 496.5,395 C495.857,395 495.265,395.22 494.787,395.55 C494.314,395.878 493.945,396.283 493.607,396.666 C492.817,397.566 492.087,398.516 491.395,399.494 C490.791,398.362 490.137,397.256 489.398,396.207 C488.846,395.423 488.232,394.627 487.418,394.002 C486.598,393.372 485.596,393 484.5,393 Z M484.5,393.996 C485.28,393.996 486.135,394.276 486.81,394.796 C487.488,395.318 488.05,396.028 488.584,396.786 C489.302,397.804 489.914,398.899 490.5,400 L486.5,400 C485.933,400 485.383,399.99 484.873,399.904 C484.363,399.819 483.875,399.651 483.455,399.394 C483.035,399.134 482.675,398.776 482.425,398.359 C482.172,397.94 482,397.487 482,397 C482,396.283 482.207,395.497 482.668,394.95 C483.128,394.403 483.795,393.996 484.5,393.996 Z M496.5,396 C496.88,396 497.203,396.19 497.47,396.473 C497.742,396.757 497.92,397.153 497.98,397.566 C498.033,397.93 497.995,398.308 497.867,398.641 C497.74,398.973 497.514,399.275 497.232,399.493 C496.952,399.713 496.599,399.86 496.225,399.933 C495.849,400.005 495.445,400.009 495,400.001 L492.326,400.001 C492.966,399.104 493.626,398.155 494.356,397.327 C494.682,396.957 495.001,396.617 495.354,396.372 C495.702,396.132 496.139,396.002 496.5,396.002 L496.5,396 Z M478,401 L504,401 C504.563,401 505,401.437 505,402 L505,406 C505,406.563 504.563,407 504,407 L478,407 C477.437,407 477,406.563 477,406 L477,402 C477,401.437 477.437,401 478,401 Z M489.5,402 C489.223,402 489,402.223 489,402.5 L489,404.5 C489,404.777 489.223,405 489.5,405 C489.777,405 490,404.777 490,404.5 L490,402.5 C490,402.223 489.777,402 489.5,402 Z M492.5,402 C492.223,402 492,402.223 492,402.5 L492,404.5 C492,404.777 492.223,405 492.5,405 C492.777,405 493,404.777 493,404.5 L493,402.5 C493,402.223 492.777,402 492.5,402 Z M479.492,408.992 C479.216,408.996 478.996,409.224 479,409.5 L479,421 C479,422.1 479.9,423 481,423 L501,423 C502.1,423 503,422.1 503,421 L503,409.5 C503.01,408.824 501.99,408.824 502,409.5 L502,421 C502,421.563 501.563,422 501,422 L493,422 L493,409.5 C493,409.223 492.777,409 492.5,409 C492.223,409 492,409.223 492,409.5 L492,422 L490,422 L490,409.5 C490,409.223 489.777,409 489.5,409 C489.223,409 489,409.223 489,409.5 L489,422 L481,422 C480.437,422 480,421.563 480,421 L480,409.5 C480.004,409.218 479.774,408.988 479.492,408.992 Z" id="Shape"></path>
        </g>
    </g>
</svg>