<?xml version="1.0" encoding="UTF-8"?>
<svg width="30px" height="30px" viewBox="0 0 30 30" version="1.1" xmlns="http://www.w3.org/2000/svg" xmlns:xlink="http://www.w3.org/1999/xlink">
    <!-- Generator: Sketch 45.2 (43514) - http://www.bohemiancoding.com/sketch -->
    <title>thefactory/element/icons/icnthefactory/element/icons/icn-46</title>
    <desc>Created with Sketch.</desc>
    <defs></defs>
    <g id="Ressources" stroke="none" stroke-width="1" fill="none" fill-rule="evenodd">
        <g id="thefactory/element/icn/inc-artboard" transform="translate(-260.000000, -696.000000)" fill-rule="nonzero" fill="#000000">
            <path d="M268.495087,713.004321 L277.497562,713.004321 C277.774639,713.004321 277.9977,713.227377 277.9977,713.504448 C277.9977,713.781518 277.774639,714.004575 277.497562,714.004575 L268.495087,714.004575 C268.218011,714.004575 267.99495,713.781518 267.99495,713.504448 C267.99495,713.227377 268.218011,713.004321 268.495087,713.004321 Z M272.996325,715.004829 C271.896022,715.004829 270.995775,715.905058 270.995775,717.005337 C270.995775,718.105617 271.896022,719.005846 272.996325,719.005846 C274.096627,719.005846 274.996875,718.105617 274.996875,717.005337 C274.996875,715.905058 274.096627,715.004829 272.996325,715.004829 Z M272.996325,716.005083 C273.554478,716.005083 273.9966,716.447196 273.9966,717.005337 C273.9966,717.563479 273.554478,718.005592 272.996325,718.005592 C272.438171,718.005592 271.99605,717.563479 271.99605,717.005337 C271.99605,716.447196 272.438171,716.005083 272.996325,716.005083 Z M272.996325,708.00305 C271.896022,708.00305 270.995775,708.903279 270.995775,710.003558 C270.995775,711.103838 271.896022,712.004067 272.996325,712.004067 C274.096627,712.004067 274.996875,711.103838 274.996875,710.003558 C274.996875,708.903279 274.096627,708.00305 272.996325,708.00305 Z M272.996325,709.003304 C273.554478,709.003304 273.9966,709.445416 273.9966,710.003558 C273.9966,710.5617 273.554478,711.003812 272.996325,711.003812 C272.438171,711.003812 271.99605,710.5617 271.99605,710.003558 C271.99605,709.445416 272.438171,709.003304 272.996325,709.003304 Z M284.999625,699.000762 C283.899323,699.000762 282.999075,699.900991 282.999075,701.001271 C282.999075,702.10155 283.899323,703.001779 284.999625,703.001779 C286.099928,703.001779 287.000175,702.10155 287.000175,701.001271 C287.000175,699.900991 286.099928,699.000762 284.999625,699.000762 Z M284.999625,700.001017 C285.557779,700.001017 285.9999,700.443129 285.9999,701.001271 C285.9999,701.559413 285.557779,702.001525 284.999625,702.001525 C284.441472,702.001525 283.99935,701.559413 283.99935,701.001271 C283.99935,700.443129 284.441472,700.001017 284.999625,700.001017 Z M260.438872,711.673983 C259.851711,712.25413 259.855712,713.216375 260.438872,713.798523 L272.202106,725.561512 C272.782266,726.143659 273.74453,726.148661 274.32569,725.561512 L288.855685,710.853774 C289.102753,710.603711 289.387832,710.373652 289.623897,709.997557 C289.858961,709.621461 290,709.127336 290,708.453164 L290,697.500381 C290,696.677172 289.321814,696 288.499587,696 L277.496562,696 C276.338244,696 275.67206,696.624159 275.145916,697.145291 L260.438872,711.673983 Z M261.142065,712.386164 L275.847109,697.856472 C276.380255,697.330338 276.655331,697.000254 277.497562,697.000254 L288.500588,697.000254 C288.785666,697.000254 289.000725,697.214309 289.000725,697.500381 L289.000725,708.455165 C289.000725,709.002304 288.9077,709.260369 288.776664,709.468422 C288.646628,709.678476 288.432569,709.862522 288.14649,710.152596 L273.612494,724.856332 C273.41544,725.056383 273.112357,725.056383 272.909301,724.854332 L261.146066,713.091343 C260.943011,712.888291 260.94101,712.583214 261.142065,712.385163 L261.142065,712.386164 Z" id="Shape"></path>
        </g>
    </g>
</svg>