<?xml version="1.0" encoding="UTF-8"?>
<svg width="52px" height="52px" viewBox="0 0 52 52" version="1.1" xmlns="http://www.w3.org/2000/svg" xmlns:xlink="http://www.w3.org/1999/xlink">
    <!-- Generator: Sketch 45.2 (43514) - http://www.bohemiancoding.com/sketch -->
    <title>thefactory/element/icons/icn-01</title>
    <desc>Created with Sketch.</desc>
    <defs></defs>
    <g id="Template" stroke="none" stroke-width="1" fill="none" fill-rule="evenodd">
        <g transform="translate(-234.000000, -996.000000)" id="Picto-presentation" fill-rule="nonzero" fill="#000000">
            <g transform="translate(80.000000, 810.000000)">
                <g id="mbri-growing-chart" transform="translate(154.000000, 186.000000)">
                    <path d="M46.9887742,20.8 C46.7669802,20.8073243 46.5566877,20.9018046 46.4023548,21.0634667 L31.8769355,35.9424 C31.8034194,36.0169333 31.5110645,36.1504 31.1964839,36.1504 C30.8819032,36.1504 30.6049355,36.0221333 30.5399677,35.9528 L23.7012581,28.7126667 C23.1780968,28.158 22.477129,27.9777333 21.8069355,27.9794667 C21.1401613,27.9794667 20.4426129,28.1632 19.9143226,28.7022667 L3.67580645,45.3093333 C3.34391004,45.6501298 3.34735456,46.199178 3.6835,46.5356667 C4.01964544,46.8721554 4.56120036,46.8686632 4.89309677,46.5278667 L21.1281935,29.9173333 C21.2017097,29.8410667 21.4940645,29.7093333 21.8086452,29.7093333 C22.1232258,29.7058667 22.4019032,29.8376 22.466871,29.9069333 L29.3055806,37.1470667 C29.8304516,37.7017333 30.5314194,37.882 31.1999032,37.8802667 C31.8700968,37.8802667 32.5676452,37.6965333 33.0925161,37.1574667 L47.6196452,22.2768 C47.8694236,22.0260063 47.9422947,21.6457518 47.8033144,21.3183814 C47.664334,20.9910109 47.341842,20.783279 46.9904839,20.7948 L46.9887742,20.8 Z M45.3064516,17.3333333 C44.1712258,17.3333333 44.1917419,19.0666667 45.3064516,19.0666667 L49.5806452,19.0666667 L49.5806452,23.4 C49.5806452,24.5648 51.2903226,24.5301333 51.2903226,23.4 L51.2903226,18.2 C51.2903226,17.7216 50.9073548,17.3333333 50.4354839,17.3333333 L45.3064516,17.3333333 Z M0.85483871,1.35525272e-20 C0.382967742,0.00693333333 -0.00683870968,0.388266667 -9.48676901e-20,0.866666667 L-9.48676901e-20,51.1333333 C-9.48676901e-20,51.6117333 0.382967742,52 0.85483871,52 L50.4354839,52 C51.5912258,52.0173333 51.5912258,50.2493333 50.4354839,50.2666667 L1.70967742,50.2666667 L1.70967742,0.866666667 C1.71651613,0.377866667 1.33696774,-0.00693333333 0.85483871,1.35525272e-20 Z" id="Shape"></path>
                </g>
            </g>
        </g>
    </g>
</svg>