<?xml version="1.0" encoding="UTF-8"?>
<svg width="30px" height="24px" viewBox="0 0 30 24" version="1.1" xmlns="http://www.w3.org/2000/svg" xmlns:xlink="http://www.w3.org/1999/xlink">
    <!-- Generator: Sketch 45.2 (43514) - http://www.bohemiancoding.com/sketch -->
    <title>thefactory/element/icons/icnthefactory/element/icons/icn-132</title>
    <desc>Created with Sketch.</desc>
    <defs></defs>
    <g id="Ressources" stroke="none" stroke-width="1" fill="none" fill-rule="evenodd">
        <g id="thefactory/element/icn/inc-artboard" transform="translate(-560.000000, -241.000000)" fill-rule="nonzero" fill="#000000">
            <path d="M585.499569,241 C583.019332,241 580.999138,243.02 580.999138,245.5 C580.999138,247.98 583.019332,250 585.499569,250 C587.979807,250 590,247.98 590,245.5 C590,243.02 587.979807,241 585.499569,241 Z M585.499569,242 C587.439755,242 588.999904,243.56 588.999904,245.5 C588.999904,247.44 587.439755,249 585.499569,249 C583.559384,249 581.999234,247.44 581.999234,245.5 C581.999234,243.56 583.559384,242 585.499569,242 Z M585.499569,243 C585.222543,243 584.999521,243.223 584.999521,243.5 L584.999521,245 L583.499378,245 C583.222351,245 582.99933,245.223 582.99933,245.5 C582.99933,245.777 583.222351,246 583.499378,246 L584.999521,246 L584.999521,247.5 C584.999521,247.777 585.222543,248 585.499569,248 C585.776596,248 585.999617,247.777 585.999617,247.5 L585.999617,246 L587.499761,246 C587.776787,246 587.999809,245.777 587.999809,245.5 C587.999809,245.223 587.776787,245 587.499761,245 L585.999617,245 L585.999617,243.5 C585.999617,243.223 585.776596,243 585.499569,243 Z M570.498133,254 L583.499378,254 C583.776404,254 583.999426,254.223 583.999426,254.5 C583.999426,254.777 583.776404,255 583.499378,255 L570.498133,255 C570.221107,255 569.998085,254.777 569.998085,254.5 C569.998085,254.223 570.221107,254 570.498133,254 Z M569.498038,250 L581.499186,250 C581.776213,250 581.999234,250.223 581.999234,250.5 C581.999234,250.777 581.776213,251 581.499186,251 L569.498038,251 C569.221011,251 568.99799,250.777 568.99799,250.5 C568.99799,250.223 569.221011,250 569.498038,250 Z M581.499186,260 C580.124055,260 578.998947,261.125 578.998947,262.5 C578.998947,263.875 580.124055,265 581.499186,265 C582.874318,265 583.999426,263.875 583.999426,262.5 C583.999426,261.125 582.874318,260 581.499186,260 Z M581.499186,261 C582.333266,261 582.99933,261.666 582.99933,262.5 C582.99933,263.334 582.333266,264 581.499186,264 C580.665106,264 579.999043,263.334 579.999043,262.5 C579.999043,261.666 580.665106,261 581.499186,261 Z M571.498229,260 C570.123097,260 568.99799,261.125 568.99799,262.5 C568.99799,263.875 570.123097,265 571.498229,265 C572.873361,265 573.998468,263.875 573.998468,262.5 C573.998468,261.125 572.873361,260 571.498229,260 Z M571.498229,261 C572.332309,261 572.998373,261.666 572.998373,262.5 C572.998373,263.334 572.332309,264 571.498229,264 C570.664149,264 569.998085,263.334 569.998085,262.5 C569.998085,261.666 570.664149,261 571.498229,261 Z M560.505177,242 C559.835113,242 559.828112,243 560.505177,243 L564.097521,243 C564.171528,243.355 564.737582,246.055 565.411646,249.23 C565.769681,250.916 566.135716,252.636 566.429744,253.996 C566.722772,255.356 566.934792,256.323 567.0178,256.629 C567.149813,257.123 567.273825,257.684 567.63786,258.173 C567.999894,258.661 568.637955,258.999 569.498038,258.999 L583.491377,258.999 C584.351459,258.999 584.98952,258.661 585.353555,258.173 C585.71659,257.683 585.839602,257.123 585.973615,256.628 C586.060623,256.296 586.197636,255.525 586.383654,254.558 C586.566671,253.588 586.783692,252.465 586.983711,251.611 C587.148727,250.998 586.127629,250.731 586.011618,251.385 C585.805599,252.269 585.584577,253.397 585.39956,254.369 C585.214542,255.342 585.052526,256.201 585.007522,256.369 C584.871509,256.875 584.744497,257.314 584.550478,257.575 C584.35646,257.837 584.130438,257.999 583.492377,257.999 L569.498038,257.999 C568.859976,257.999 568.633955,257.837 568.437936,257.575 C568.244918,257.315 568.117905,256.875 567.981892,256.37 C567.931888,256.177 567.701866,255.143 567.407837,253.785 C567.114809,252.427 566.747774,250.709 566.39074,249.021 C565.674672,245.648 564.990606,242.397 564.990606,242.397 C564.942602,242.167 564.738582,242.001 564.500559,242.001 L560.505177,242 Z M568.499942,246 C567.834878,246 567.842879,247 568.499942,247 L578.492899,247 C579.164963,247 579.149961,246 578.492899,246 L568.499942,246 Z" id="Shape"></path>
        </g>
    </g>
</svg>