<?xml version="1.0" encoding="UTF-8"?>
<svg width="30px" height="26px" viewBox="0 0 30 26" version="1.1" xmlns="http://www.w3.org/2000/svg" xmlns:xlink="http://www.w3.org/1999/xlink">
    <!-- Generator: Sketch 45.2 (43514) - http://www.bohemiancoding.com/sketch -->
    <title>thefactory/element/icons/icnthefactory/element/icons/icn-40</title>
    <desc>Created with Sketch.</desc>
    <defs></defs>
    <g id="Ressources" stroke="none" stroke-width="1" fill="none" fill-rule="evenodd">
        <g id="thefactory/element/icn/inc-artboard" transform="translate(-710.000000, -696.000000)" fill-rule="nonzero" fill="#000000">
            <path d="M732.474625,696.000067 C732.19963,696.005067 731.999633,696.233066 731.999633,696.500065 L731.999633,700.104056 C729.617673,700.237056 727.606707,701.158053 726.243729,702.754049 C724.777754,704.470045 723.999767,706.840039 723.999767,709.500032 C723.999767,710.013031 724.677755,710.19403 724.933751,709.750031 C726.940718,706.27304 729.975667,706.083041 731.999633,706.064041 L731.999633,709.500032 C731.999633,709.936031 732.519625,710.16403 732.839619,709.867031 L739.839503,703.367048 C740.053499,703.169048 740.053499,702.831049 739.839503,702.63305 L732.839619,696.133066 C732.739621,696.041067 732.609623,695.998067 732.474625,696.000067 Z M732.999617,697.646062 L738.765521,703.000049 L732.999617,708.354035 L732.999617,705.500042 C732.999617,705.224043 732.77562,705.000044 732.499625,705.000044 C730.779654,705.000044 727.634706,705.244043 725.251746,707.852036 C725.508742,706.118041 726.031733,704.542045 727.005717,703.402048 C728.289695,701.900052 730.129665,701.000054 732.499625,701.000054 C732.77562,701.000054 732.999617,700.776054 732.999617,700.500055 L732.999617,697.646062 Z M711.499975,701.000054 C710.677989,701.000054 710,701.678052 710,702.50005 L710,720.500004 C710,721.322002 710.677989,722 711.499975,722 L737.499542,722 C738.321528,722 738.999517,721.322002 738.999517,720.500004 L738.999517,709.500032 C738.999517,708.840034 737.999533,708.858034 737.999533,709.500032 L737.999533,720.500004 C737.999533,720.786003 737.785537,721.000003 737.499542,721.000003 L711.499975,721.000003 C711.21398,721.000003 710.999983,720.786003 710.999983,720.500004 L710.999983,702.50005 C710.999983,702.214051 711.21398,702.000051 711.499975,702.000051 L723.499775,702.000051 C724.153764,702.000051 724.169764,701.000054 723.499775,701.000054 L711.499975,701.000054 Z" id="Shape"></path>
        </g>
    </g>
</svg>