<?xml version="1.0" encoding="UTF-8"?>
<svg width="24px" height="30px" viewBox="0 0 24 30" version="1.1" xmlns="http://www.w3.org/2000/svg" xmlns:xlink="http://www.w3.org/1999/xlink">
    <!-- Generator: Sketch 45.2 (43514) - http://www.bohemiancoding.com/sketch -->
    <title>thefactory/element/icons/icnthefactory/element/icons/icn-61</title>
    <desc>Created with Sketch.</desc>
    <defs></defs>
    <g id="Ressources" stroke="none" stroke-width="1" fill="none" fill-rule="evenodd">
        <g id="thefactory/element/icn/inc-artboard" transform="translate(-265.000000, -620.000000)" fill-rule="nonzero" fill="#000000">
            <path d="M277,627 C274.244,627 272,629.244 272,632 C272,634.756 274.244,637 277,637 C279.756,637 282,634.756 282,632 C282,629.244 279.756,627 277,627 Z M277,628 C279.215,628 281,629.785 281,632 C281,634.215 279.215,636 277,636 C274.785,636 273,634.215 273,632 C273,629.785 274.785,628 277,628 Z M277,620 C270.38,620 265,625.38 265,632 C265,635.95 267.326,640.374 269.934,643.86 C271.237,645.605 272.616,647.11 273.842,648.195 C274.455,648.737 275.029,649.173 275.549,649.485 C276.069,649.795 276.523,650 276.999,650 C277.475,650 277.929,649.796 278.449,649.484 C278.969,649.174 279.544,648.737 280.157,648.194 C281.383,647.111 282.762,645.604 284.065,643.861 C286.674,640.375 289,635.95 289,632 C289,625.38 283.62,620 277,620 Z M277,621 C283.08,621 288,625.92 288,632 C288,635.55 285.798,639.876 283.266,643.264 C281.999,644.957 280.656,646.42 279.496,647.444 C278.916,647.958 278.38,648.362 277.938,648.627 C277.495,648.892 277.134,649 277,649 C276.866,649 276.505,648.892 276.062,648.627 C275.62,648.362 275.084,647.957 274.504,647.445 C273.344,646.42 272.001,644.957 270.734,643.265 C268.202,639.874 266,635.548 266,632 C266,625.92 270.92,621 277,621 Z" id="Shape"></path>
        </g>
    </g>
</svg>