<?xml version="1.0" encoding="UTF-8"?>
<svg width="30px" height="28px" viewBox="0 0 30 28" version="1.1" xmlns="http://www.w3.org/2000/svg" xmlns:xlink="http://www.w3.org/1999/xlink">
    <!-- Generator: Sketch 45.2 (43514) - http://www.bohemiancoding.com/sketch -->
    <title>thefactory/element/icons/icnthefactory/element/icons/icn-17</title>
    <desc>Created with Sketch.</desc>
    <defs></defs>
    <g id="Ressources" stroke="none" stroke-width="1" fill="none" fill-rule="evenodd">
        <g id="thefactory/element/icn/inc-artboard" transform="translate(-185.000000, -847.000000)" fill-rule="nonzero" fill="#000000">
            <path d="M195.499974,862 C194.124978,862 192.99998,863.125 192.99998,864.5 C192.99998,865.27 193.405979,865.945 193.999978,866.414 L193.999978,868.5 C193.999978,869.322 194.677976,870 195.499974,870 C196.321972,870 196.99997,869.322 196.99997,868.5 L196.99997,866.412 C197.593969,865.942 197.999968,865.269 197.999968,864.5 C197.999968,863.125 196.874971,862 195.499974,862 Z M195.499974,863 C196.333972,863 196.99997,863.666 196.99997,864.5 C196.99997,865.036 196.713971,865.527 196.249972,865.795 C196.094966,865.884493 195.99962,866.050015 195.999973,866.229 L195.999973,868.499 C195.999973,868.785 195.785973,868.999 195.499974,868.999 C195.213975,868.999 194.999975,868.785 194.999975,868.499 L194.999975,866.229 C194.999971,866.050372 194.904672,865.885314 194.749976,865.796 C194.285977,865.53 193.999978,865.037 193.999978,864.5 C193.999978,863.666 194.665976,863 195.499974,863 Z M186.499996,857 C185.677998,857 185,857.678 185,858.5 L185,873.5 C185,874.322 185.677998,875 186.499996,875 L204.499952,875 C205.32195,875 205.999948,874.322 205.999948,873.5 L205.999948,858.5 C205.999948,857.678 205.32195,857 204.499952,857 L186.499996,857 Z M186.499996,858 L204.499952,858 C204.785951,858 204.999951,858.214 204.999951,858.5 L204.999951,873.5 C204.999951,873.786 204.785951,874 204.499952,874 L186.499996,874 C186.213997,874 185.999998,873.786 185.999998,873.5 L185.999998,858.5 C185.999998,858.214 186.213997,858 186.499996,858 Z M207.499945,847 C203.363955,847 199.999963,850.364 199.999963,854.5 L199.999963,855.5 C199.999963,856.172 200.999961,856.157 200.999961,855.5 L200.999961,854.5 C200.999961,850.904 203.903954,848 207.499945,848 C211.095936,848 213.999929,850.904 213.999929,854.5 L213.999929,855.5 C213.999929,856.176 215.009926,856.157 214.999926,855.5 L214.999926,854.5 C214.999926,850.364 211.635935,847 207.499945,847 Z" id="Shape"></path>
        </g>
    </g>
</svg>