<?xml version="1.0" encoding="UTF-8"?>
<svg width="30px" height="30px" viewBox="0 0 30 30" version="1.1" xmlns="http://www.w3.org/2000/svg" xmlns:xlink="http://www.w3.org/1999/xlink">
    <!-- Generator: Sketch 45.2 (43514) - http://www.bohemiancoding.com/sketch -->
    <title>thefactory/element/icons/icnthefactory/element/icons/icn-101</title>
    <desc>Created with Sketch.</desc>
    <defs></defs>
    <g id="Ressources" stroke="none" stroke-width="1" fill="none" fill-rule="evenodd">
        <g id="thefactory/element/icn/inc-artboard" transform="translate(-700.000000, -393.000000)" fill-rule="nonzero" fill="#000000">
            <path d="M719.5,396 C718.972,396.01 718.814,396.738 719.252,396.947 C719.51,397.077 719.734,397.297 719.862,397.557 C719.992,397.815 720.036,398.127 719.984,398.41 C719.934,398.686 719.791,398.973 719.596,399.25 C719.399,399.528 719.171,399.804 718.916,400.113 C718.66,400.423 718.396,400.773 718.216,401.197 C718.034,401.627 717.942,402.131 718.07,402.639 C718.173,403.045 718.402,403.386 718.678,403.653 C718.951,403.919 719.264,404.109 719.574,404.257 C720.194,404.552 720.796,404.699 721.271,404.944 C721.739,405.184 722.175,405.556 722.653,405.942 C723.133,406.329 723.671,406.739 724.337,406.972 C724.762,407.12 725.049,407.172 725.351,407.278 C725.501,407.33 725.633,407.394 725.735,407.468 C725.835,407.542 725.912,407.631 725.952,407.715 C726.009,407.831 726.022,407.999 725.975,408.148 C725.927,408.302 725.82,408.458 725.675,408.578 C725.382,408.825 725.028,408.946 724.535,408.984 C724.037,409.024 723.472,408.99 722.863,409.086 C722.559,409.134 722.245,409.218 721.943,409.366 C721.638,409.516 721.35,409.734 721.133,410.029 C720.828,410.441 720.729,410.879 720.618,411.222 C720.563,411.392 720.508,411.542 720.44,411.665 C720.374,411.787 720.294,411.885 720.214,411.945 C720.1,412.035 719.901,412.103 719.644,412.175 C719.381,412.248 719.047,412.331 718.734,412.569 C718.402,412.819 718.204,413.169 718.102,413.522 C717.999,413.87 718.004,414.212 718.004,414.524 C718.004,415.508 718.404,416.468 718.994,417.257 C719.584,418.045 720.41,418.647 721.34,418.972 C721.97,419.19 722.285,418.242 721.668,418.026 C720.928,417.769 720.265,417.281 719.795,416.656 C719.325,416.029 719.005,415.256 719.005,414.474 C719.005,414.224 719.005,413.996 719.062,413.804 C719.117,413.616 719.222,413.456 719.339,413.366 C719.455,413.278 719.654,413.21 719.913,413.138 C720.175,413.063 720.511,412.978 720.825,412.738 C721.048,412.568 721.203,412.355 721.319,412.143 C721.435,411.931 721.509,411.723 721.571,411.529 C721.695,411.146 721.789,410.826 721.939,410.624 C722.044,410.481 722.201,410.356 722.386,410.264 C722.573,410.174 722.79,410.112 723.024,410.074 C723.492,410.001 724.029,410.03 724.617,409.984 C725.213,409.937 725.883,409.799 726.423,409.344 C726.696,409.114 726.823,408.812 726.935,408.444 C727.049,408.072 727.041,407.657 726.861,407.282 C726.734,407.019 726.639,406.814 726.429,406.662 C726.219,406.509 725.999,406.409 725.784,406.335 C725.359,406.187 724.974,406.132 724.671,406.025 C724.198,405.861 723.748,405.535 723.288,405.165 C722.828,404.793 722.343,404.365 721.738,404.055 C721.118,403.735 720.506,403.589 720.014,403.355 C719.769,403.237 719.551,403.1 719.384,402.937 C719.217,402.775 719.097,402.581 719.049,402.392 C718.989,402.155 719.029,401.862 719.146,401.587 C719.266,401.307 719.464,401.029 719.696,400.747 C719.929,400.465 720.199,400.173 720.446,399.825 C720.692,399.475 720.891,399.067 720.978,398.589 C721.068,398.087 720.992,397.565 720.764,397.109 C720.536,396.652 720.189,396.279 719.734,396.052 C719.65,396.013 719.583,396 719.5,396 Z M703.5,404 C702.85,404 702.83,405 703.5,405 L704.5,405 C704.746,405 704.944,405.016 705.078,405.07 C705.212,405.124 705.341,405.233 705.428,405.37 C705.518,405.51 705.588,405.718 705.67,405.97 C705.754,406.23 705.86,406.567 706.146,406.854 C706.433,407.14 706.771,407.246 707.029,407.33 C707.281,407.412 707.489,407.482 707.629,407.572 C707.766,407.659 707.875,407.788 707.929,407.922 C707.983,408.056 707.999,408.254 707.999,408.5 L707.999,410.2 C707.999,410.45 708.002,410.766 708.149,411.098 C708.299,411.432 708.563,411.693 708.889,411.842 C709.209,411.987 709.731,411.998 709.995,412 C710.255,412.002 710.243,412.005 710.37,412.04 C710.472,412.066 710.577,412.124 710.662,412.205 C710.748,412.285 710.822,412.395 710.875,412.52 C710.979,412.764 711,413.118 711,413.5 L711,418 C711,418.312 711,418.648 711.066,419.008 C711.132,419.368 711.262,419.732 711.486,420.058 C711.711,420.382 712.019,420.651 712.386,420.82 C712.756,420.99 713.094,420.996 713.5,420.996 C714.173,420.996 714.167,420.004 713.5,420.004 C713.29,420.004 712.998,419.999 712.805,419.91 C712.611,419.82 712.435,419.67 712.309,419.488 C712.181,419.304 712.095,419.075 712.049,418.828 C712.005,418.581 711.999,418.306 711.999,418 L711.999,413.5 C711.999,413.1 711.996,412.602 711.794,412.127 C711.694,411.891 711.547,411.667 711.349,411.479 C711.149,411.289 710.905,411.145 710.629,411.071 C710.296,410.983 710.219,411.001 710.003,410.999 C709.793,410.997 709.416,410.982 709.303,410.931 C709.199,410.883 709.105,410.789 709.061,410.691 C709.018,410.59 709,410.42 709,410.2 L709,408.5 C709,408.227 708.997,407.895 708.857,407.55 C708.717,407.202 708.469,406.92 708.167,406.73 C707.873,406.54 707.579,406.457 707.337,406.38 C707.103,406.303 706.933,406.226 706.854,406.146 C706.774,406.066 706.697,405.896 706.621,405.662 C706.544,405.422 706.461,405.127 706.271,404.832 C706.081,404.532 705.799,404.282 705.451,404.142 C705.106,404.002 704.774,404 704.501,404 L703.5,404 Z M715,393 C706.722,393 700,399.722 700,408 C700,416.278 706.722,423 715,423 C723.278,423 730,416.278 730,408 C730,399.722 723.278,393 715,393 Z M715,394 C722.738,394 729,400.262 729,408 C729,415.738 722.738,422 715,422 C707.262,422 701,415.738 701,408 C701,400.262 707.262,394 715,394 Z" id="Shape"></path>
        </g>
    </g>
</svg>