<?xml version="1.0" encoding="UTF-8"?>
<svg width="30px" height="26px" viewBox="0 0 30 26" version="1.1" xmlns="http://www.w3.org/2000/svg" xmlns:xlink="http://www.w3.org/1999/xlink">
    <!-- Generator: Sketch 45.2 (43514) - http://www.bohemiancoding.com/sketch -->
    <title>thefactory/element/icons/icnthefactory/element/icons/icn-114</title>
    <desc>Created with Sketch.</desc>
    <defs></defs>
    <g id="Ressources" stroke="none" stroke-width="1" fill="none" fill-rule="evenodd">
        <g id="thefactory/element/icn/inc-artboard" transform="translate(-784.000000, -317.000000)" fill-rule="nonzero" fill="#000000">
            <path d="M799.5,342.999945 C799.63,342.997945 799.76,342.944945 799.853,342.853946 L803.847,338.859954 C804.311,338.413955 803.587,337.689957 803.141,338.153956 L799.501,341.793948 L795.861,338.153956 C795.407,337.680957 794.686,338.409955 795.154,338.859954 L799.148,342.853946 C799.244,342.948945 799.366,343.001945 799.501,342.999945 L799.5,342.999945 Z M799.5,339.999952 C799.223,339.999952 799,339.776952 799,339.499953 L799,332.499967 C799,332.222968 799.223,331.999968 799.5,331.999968 C799.777,331.999968 800,332.222968 800,332.499967 L800,339.499953 C800,339.776952 799.777,339.999952 799.5,339.999952 Z M806.5,336.999958 L809,336.999958 C811.756,336.999958 814,334.755963 814,331.999968 C814,329.601974 812.266,327.626978 809.96,327.163979 C809.976,326.943979 810,326.66998 810,326.49998 C810,321.279991 805.74,317 800.5,317 C796.99,317.005 793.814,318.972996 792.17,322.049989 C791.948,322.029989 791.726,321.999989 791.5,321.999989 C787.352,321.999989 784,325.363982 784,329.499974 C784,333.635965 787.364,336.999958 791.5,336.999958 L792.5,336.999958 C793.163,336.999958 793.168,335.99996 792.5,335.99996 L791.5,335.99996 C787.904,335.99996 785,333.095966 785,329.499974 C785,325.905981 787.902,323.001987 791.496,322.999987 C791.781,323.001987 792.066,323.022987 792.348,323.062987 C792.562,323.092987 792.772,322.982987 792.868,322.786988 C794.287,319.861994 797.247,318.004998 800.5,317.999998 C805.2,317.999998 809,321.79999 809,326.49998 C808.998,326.821979 808.978,327.142979 808.94,327.462978 C808.905,327.742977 809.107,327.992977 809.387,328.020977 C811.44,328.219976 813,329.937973 813,331.999968 C813,334.214964 811.215,335.99996 809,335.99996 L806.5,335.99996 C805.815,335.99996 805.862,336.999958 806.5,336.999958 Z" id="Shape"></path>
        </g>
    </g>
</svg>