<?xml version="1.0" encoding="UTF-8"?>
<svg width="30px" height="29px" viewBox="0 0 30 29" version="1.1" xmlns="http://www.w3.org/2000/svg" xmlns:xlink="http://www.w3.org/1999/xlink">
    <!-- Generator: Sketch 45.2 (43514) - http://www.bohemiancoding.com/sketch -->
    <title>thefactory/element/icons/icnthefactory/element/icons/icn-68</title>
    <desc>Created with Sketch.</desc>
    <defs></defs>
    <g id="Ressources" stroke="none" stroke-width="1" fill="none" fill-rule="evenodd">
        <g id="thefactory/element/icn/inc-artboard" transform="translate(-800.000000, -544.000000)" fill-rule="nonzero" fill="#000000">
            <path d="M829.501222,549.00839 L807.500311,549.00839 C806.830283,549.00839 806.850284,548.008323 807.500311,548.008323 L829.501222,548.008323 C830.16125,548.008323 830.17125,549.00839 829.501222,549.00839 Z M829.501222,559.009061 L807.500311,559.009061 C806.830283,559.009061 806.850284,558.008994 807.500311,558.008994 L829.501222,558.008994 C830.16125,558.008994 830.17125,559.009061 829.501222,559.009061 Z M829.501222,569.009732 L807.500311,569.009732 C806.830283,569.009732 806.850284,568.009665 807.500311,568.009665 L829.501222,568.009665 C830.16125,568.009665 830.17125,569.009732 829.501222,569.009732 Z M802.500104,563.999396 C801.124047,563.999396 800,565.123471 800,566.499564 C800,567.216612 801.000041,567.104604 801.000041,566.499564 C801.000041,565.659507 801.660069,564.999463 802.500104,564.999463 C803.340138,564.999463 804.000166,565.659507 804.000166,566.499564 C804.000166,567.33962 803.340138,567.999664 802.500104,567.999664 C801.840076,567.999664 801.838076,568.999732 802.500104,568.999732 C803.340138,568.999732 804.000166,569.659776 804.000166,570.499832 C804.000166,571.339889 803.340138,571.999933 802.500104,571.999933 C801.660069,571.999933 801.000041,571.339889 801.000041,570.499832 C801.000041,569.857789 800,569.824787 800,570.499832 C800,571.875925 801.124047,573 802.500104,573 C803.876161,573 805.000207,571.875925 805.000207,570.499832 C805.000207,569.679777 804.614191,568.955729 804.000166,568.499698 C804.605191,568.042667 805.000207,567.313618 805.000207,566.499564 C805.000207,565.123471 803.876161,563.999396 802.500104,563.999396 Z M802.500104,553.998725 C801.125047,553.998725 800,555.1238 800,556.498893 C800,557.186939 801.000041,557.148936 801.000041,556.498893 C801.000041,555.664837 801.666069,554.998792 802.500104,554.998792 C803.334138,554.998792 804.000166,555.664837 804.000166,556.498893 C804.000166,556.922921 803.830159,557.283945 803.500145,557.668971 C803.170131,558.051997 802.694112,558.429022 802.187091,558.856051 C801.175049,559.709108 800,560.78318 800,562.499295 C800,562.761313 800.23801,562.999329 800.500021,562.999329 L804.500186,562.999329 C805.177215,562.999329 805.152213,561.999262 804.500186,561.999262 L801.156048,561.999262 C801.359056,561.039197 801.976082,560.309148 802.813117,559.606101 C803.306137,559.190073 803.830159,558.782046 804.250176,558.293013 C804.670193,557.80298 805.000207,557.214941 805.000207,556.498893 C805.000207,555.1238 803.875161,553.998725 802.500104,553.998725 Z M802.156089,544.136063 L800.156006,546.136197 C799.681987,546.610229 800.411017,547.286274 800.844035,546.856245 L802.000083,545.698168 L802.000083,552.498624 C802.000083,553.228673 803.000124,553.108665 803.000124,552.498624 L803.000124,544.498087 C803.000124,543.908048 802.372098,543.920048 802.156089,544.136063 Z" id="Shape"></path>
        </g>
    </g>
</svg>