<?xml version="1.0" encoding="UTF-8"?>
<svg width="25px" height="30px" viewBox="0 0 25 30" version="1.1" xmlns="http://www.w3.org/2000/svg" xmlns:xlink="http://www.w3.org/1999/xlink">
    <!-- Generator: Sketch 45.2 (43514) - http://www.bohemiancoding.com/sketch -->
    <title>thefactory/element/icons/icnthefactory/element/icons/icn-95</title>
    <desc>Created with Sketch.</desc>
    <defs></defs>
    <g id="Ressources" stroke="none" stroke-width="1" fill="none" fill-rule="evenodd">
        <g id="thefactory/element/icn/inc-artboard" transform="translate(-626.000000, -990.000000)" fill-rule="nonzero" fill="#000000">
            <path d="M647.5,994 C647.946,994 648.17,994.543 647.85,994.854 L646.855,995.847 C646.408,996.313 645.689,995.59 646.153,995.145 L647.146,994.151 C647.24,994.056 647.366,994.001 647.5,994.001 L647.5,994 Z M630.5,994 C630.054,994 629.83,994.543 630.15,994.854 L631.145,995.847 C631.592,996.313 632.315,995.594 631.847,995.145 L630.854,994.151 C630.76,994.056 630.634,994 630.5,994 Z M634.5,1019 L642.5,1019 C642.777,1019 643,1019.223 643,1019.5 C643,1019.777 642.777,1020 642.5,1020 L634.5,1020 C634.223,1020 634,1019.777 634,1019.5 C634,1019.223 634.223,1019 634.5,1019 Z M634.5,1016 L642.5,1016 C642.777,1016 643,1016.223 643,1016.5 C643,1016.777 642.777,1017 642.5,1017 L634.5,1017 C634.223,1017 634,1016.777 634,1016.5 C634,1016.223 634.223,1016 634.5,1016 Z M638.5,996 C636.652,996 635.004,997.065 633.85,998.7 C632.695,1000.338 632,1002.558 632,1005 C632,1007.443 632.695,1009.663 633.85,1011.3 C635.004,1012.935 636.652,1014 638.5,1014 C640.348,1014 641.996,1012.935 643.15,1011.3 C644.305,1009.662 645,1007.442 645,1005 C645,1002.557 644.305,1000.337 643.15,998.7 C641.996,997.066 640.348,996 638.5,996 Z M638.5,997 C639.965,997 641.317,997.837 642.334,999.277 C643.35,1000.717 644,1002.747 644,1005 C644,1007.252 643.35,1009.282 642.334,1010.723 C641.677,1011.653 640.877,1012.327 640,1012.691 C639.99,1011.501 639.972,1010.394 640.145,1009.478 C640.343,1008.418 640.753,1007.598 641.77,1006.923 C642.19,1006.653 641.998,1006 641.5,1006.001 C641.4,1006.001 641.305,1006.031 641.223,1006.087 C639.985,1006.911 639.399,1008.059 639.168,1009.292 C638.952,1010.442 638.992,1011.684 639,1012.965 C638.76,1013.002 638.265,1013.002 638,1012.965 C638.008,1011.685 638.048,1010.443 637.832,1009.293 C637.602,1008.061 637.015,1006.913 635.777,1006.089 C635.695,1006.03 635.6,1006 635.5,1006 C635.002,1006 634.81,1006.653 635.23,1006.922 C636.247,1007.598 636.657,1008.417 636.855,1009.477 C637.028,1010.393 637.009,1011.501 637,1012.691 C636.123,1012.328 635.323,1011.654 634.666,1010.724 C633.65,1009.283 633,1007.253 633,1005 C633,1002.748 633.65,1000.718 634.666,999.277 C635.683,997.837 637.036,997 638.5,997 Z M648.5,1004 L650.5,1004 C650.777,1004 651,1004.223 651,1004.5 C651,1004.777 650.777,1005 650.5,1005 L648.5,1005 C648.223,1005 648,1004.777 648,1004.5 C648,1004.223 648.223,1004 648.5,1004 Z M639,990.5 L639,992.5 C639,992.777 638.777,993 638.5,993 C638.223,993 638,992.777 638,992.5 L638,990.5 C638,990.223 638.223,990 638.5,990 C638.777,990 639,990.223 639,990.5 Z M626.5,1004 L628.5,1004 C628.777,1004 629,1004.223 629,1004.5 C629,1004.777 628.777,1005 628.5,1005 L626.5,1005 C626.223,1005 626,1004.777 626,1004.5 C626,1004.223 626.223,1004 626.5,1004 Z" id="Shape"></path>
        </g>
    </g>
</svg>