<?xml version="1.0" encoding="UTF-8"?>
<svg width="30px" height="28px" viewBox="0 0 30 28" version="1.1" xmlns="http://www.w3.org/2000/svg" xmlns:xlink="http://www.w3.org/1999/xlink">
    <!-- Generator: Sketch 45.2 (43514) - http://www.bohemiancoding.com/sketch -->
    <title>thefactory/element/icons/icnthefactory/element/icons/icn-116</title>
    <desc>Created with Sketch.</desc>
    <defs></defs>
    <g id="Ressources" stroke="none" stroke-width="1" fill="none" fill-rule="evenodd">
        <g id="thefactory/element/icn/inc-artboard" transform="translate(-635.000000, -317.000000)" fill-rule="nonzero" fill="#000000">
            <path d="M639,327 C639,327.552285 638.552285,328 638,328 C637.447715,328 637,327.552285 637,327 C637,326.447715 637.447715,326 638,326 C638.552285,326 639,326.447715 639,327 Z M642.5,338 C641.83,338 641.264,338.452 641.074,339.063 L638.418,339.506 C638.176,339.546 638,339.756 638,340 L638,343 C638,343.245 638.176,343.454 638.418,343.494 L641.074,343.937 C641.264,344.547 641.83,345 642.5,345 L646.5,345 C647.17,345 647.736,344.548 647.926,343.937 L650.582,343.494 C650.824,343.454 651,343.244 651,343 L651,340 C651,339.755 650.824,339.546 650.582,339.506 L647.926,339.062 C647.736,338.453 647.17,338 646.5,338 L642.5,338 Z M642.5,339 L646.5,339 C646.786,339 647,339.214 647,339.5 L647,343.5 C647,343.786 646.786,344 646.5,344 L642.5,344 C642.214,344 642,343.786 642,343.5 L642,339.5 C642,339.214 642.214,339 642.5,339 Z M641,340.092 L641,342.908 L639,342.576 L639,340.424 L641,340.092 Z M648,340.092 L650,340.424 L650,342.576 L648,342.908 L648,340.092 Z M640.5,319 C640.224,319 640,319.224 640,319.5 L640,334.5 C640,334.776 640.224,335 640.5,335 L651.5,335 C652.17,335 652.154,334 651.5,334 L641,334 L641,320 L659,320 L659,324.5 C659,325.16 660,325.17 660,324.5 L660,319.5 C660,319.224 659.776,319 659.5,319 L640.5,319 Z M636.5,317 C635.678,317 635,317.678 635,318.5 L635,335.5 C635,336.322 635.678,337 636.5,337 L651.5,337 C652.17,337 652.16,336 651.5,336 L636.5,336 C636.214,336 636,335.786 636,335.5 L636,318.5 C636,318.214 636.214,318 636.5,318 L660.5,318 C660.786,318 661,318.214 661,318.5 L661,324.5 C661,325.177 662,325.16 662,324.5 L662,318.5 C662,317.678 661.322,317 660.5,317 L636.5,317 Z M657.5,328 L660.5,328 C660.777,328 661,328.223 661,328.5 C661,328.777 660.777,329 660.5,329 L657.5,329 C657.223,329 657,328.777 657,328.5 C657,328.223 657.223,328 657.5,328 Z M654.5,326 C653.678,326 653,326.678 653,327.5 L653,343.5 C653,344.322 653.678,345 654.5,345 L663.5,345 C664.322,345 665,344.322 665,343.5 L665,327.5 C665,326.678 664.322,326 663.5,326 L654.5,326 Z M654.5,327 L663.5,327 C663.786,327 664,327.214 664,327.5 L664,343.5 C664,343.786 663.786,344 663.5,344 L654.5,344 C654.214,344 654,343.786 654,343.5 L654,327.5 C654,327.214 654.214,327 654.5,327 Z M659,341 C659.554,341 660,341.446 660,342 C660,342.554 659.554,343 659,343 C658.446,343 658,342.554 658,342 C658,341.446 658.446,341 659,341 Z" id="Shape"></path>
        </g>
    </g>
</svg>