<?xml version="1.0" encoding="UTF-8"?>
<svg width="30px" height="22px" viewBox="0 0 30 22" version="1.1" xmlns="http://www.w3.org/2000/svg" xmlns:xlink="http://www.w3.org/1999/xlink">
    <!-- Generator: Sketch 45.2 (43514) - http://www.bohemiancoding.com/sketch -->
    <title>thefactory/element/icons/icnthefactory/element/icons/icn-113</title>
    <desc>Created with Sketch.</desc>
    <defs></defs>
    <g id="Ressources" stroke="none" stroke-width="1" fill="none" fill-rule="evenodd">
        <g id="thefactory/element/icn/inc-artboard" transform="translate(-934.000000, -317.000000)" fill-rule="nonzero" fill="#000000">
            <path d="M948,325.487 C948.004,325.357 948.058,325.235 948.15,325.144 L949.15,324.146 C949.346,323.951 949.662,323.951 949.857,324.146 L950.857,325.144 C951.307,325.594 950.587,326.284 950.15,325.85 L949.504,325.205 L948.857,325.85 C948.539,326.174 948,325.936 948,325.487 L948,325.487 Z M948,333.513 C948.004,333.643 948.058,333.765 948.15,333.856 L949.15,334.854 C949.346,335.049 949.662,335.049 949.857,334.854 L950.857,333.856 C951.307,333.406 950.587,332.716 950.15,333.15 L949.504,333.795 L948.857,333.15 C948.539,332.826 948,333.064 948,333.513 L948,333.513 Z M953.513,328 C953.643,328.004 953.765,328.058 953.856,328.15 L954.854,329.15 C955.049,329.346 955.049,329.662 954.854,329.857 L953.856,330.857 C953.406,331.307 952.716,330.587 953.15,330.15 L953.795,329.504 L953.15,328.857 C952.826,328.539 953.064,328 953.513,328 L953.513,328 Z M945.487,328 C945.357,328.004 945.235,328.058 945.144,328.15 L944.146,329.15 C943.951,329.346 943.951,329.662 944.146,329.857 L945.144,330.857 C945.594,331.307 946.284,330.587 945.85,330.15 L945.205,329.504 L945.85,328.857 C946.174,328.539 945.936,328 945.487,328 L945.487,328 Z M949.5,326 C949.223,326 949,326.223 949,326.5 L949,329 L946.5,329 C946.223,329 946,329.223 946,329.5 C946,329.777 946.223,330 946.5,330 L949,330 L949,332.5 C949,332.777 949.223,333 949.5,333 C949.777,333 950,332.777 950,332.5 L950,330 L952.5,330 C952.777,330 953,329.777 953,329.5 C953,329.223 952.777,329 952.5,329 L950,329 L950,326.5 C950,326.223 949.777,326 949.5,326 L949.5,326 Z M936.5,321 L961.5,321 C961.777,321 962,321.223 962,321.5 C962,321.777 961.777,322 961.5,322 L936.5,322 C936.223,322 936,321.777 936,321.5 C936,321.223 936.223,321 936.5,321 Z M941,319.5 C941,319.776142 940.776142,320 940.5,320 C940.223858,320 940,319.776142 940,319.5 C940,319.223858 940.223858,319 940.5,319 C940.776142,319 941,319.223858 941,319.5 Z M939,319.5 C939,319.776142 938.776142,320 938.5,320 C938.223858,320 938,319.776142 938,319.5 C938,319.223858 938.223858,319 938.5,319 C938.776142,319 939,319.223858 939,319.5 Z M937,319.5 C937,319.776142 936.776142,320 936.5,320 C936.223858,320 936,319.776142 936,319.5 C936,319.223858 936.223858,319 936.5,319 C936.776142,319 937,319.223858 937,319.5 Z M935.5,317 C934.678,317 934,317.678 934,318.5 L934,337.5 C934,338.322 934.678,339 935.5,339 L962.5,339 C963.322,339 964,338.322 964,337.5 L964,318.5 C964,317.678 963.322,317 962.5,317 L935.5,317 Z M935.5,318 L962.5,318 C962.786,318 963,318.214 963,318.5 L963,337.5 C963,337.786 962.786,338 962.5,338 L935.5,338 C935.214,338 935,337.786 935,337.5 L935,318.5 C935,318.214 935.214,318 935.5,318 Z" id="Shape"></path>
        </g>
    </g>
</svg>