<?xml version="1.0" encoding="UTF-8"?>
<svg width="30px" height="30px" viewBox="0 0 30 30" version="1.1" xmlns="http://www.w3.org/2000/svg" xmlns:xlink="http://www.w3.org/1999/xlink">
    <!-- Generator: Sketch 45.2 (43514) - http://www.bohemiancoding.com/sketch -->
    <title>thefactory/element/icons/icnthefactory/element/icons/icn-43</title>
    <desc>Created with Sketch.</desc>
    <defs></defs>
    <g id="Ressources" stroke="none" stroke-width="1" fill="none" fill-rule="evenodd">
        <g id="thefactory/element/icn/inc-artboard" transform="translate(-485.000000, -696.000000)" fill-rule="nonzero" fill="#000000">
            <path d="M507.49925,710.9995 C506.677277,710.9995 505.9993,711.677477 505.9993,712.49945 L505.9993,713.284424 C505.606313,713.39842 505.229326,713.551415 504.869338,713.749408 L504.556348,713.435419 C503.974368,712.853438 503.016399,712.853438 502.436419,713.435419 C501.853438,714.015399 501.853438,714.975367 502.436419,715.555348 L502.749408,715.870338 C502.549415,716.230326 502.39542,716.606313 502.279424,717.0003 L501.49945,717.0003 C500.677477,717.0003 499.9995,717.678277 499.9995,718.50025 C499.9995,719.322223 500.677477,720.0002 501.49945,720.0002 L502.284424,720.0002 C502.39842,720.393187 502.551415,720.770174 502.749408,721.130162 L502.435419,721.443152 C501.853438,722.025132 501.853438,722.983101 502.435419,723.563081 C503.015399,724.146062 503.975367,724.146062 504.555348,723.563081 L504.870338,723.250092 C505.230326,723.450085 505.606313,723.60408 506.0003,723.720076 L506.0003,724.50005 C506.0003,725.322023 506.678277,726 507.50025,726 C508.322223,726 509.0002,725.322023 509.0002,724.50005 L509.0002,723.715076 C509.393187,723.60108 509.770174,723.448085 510.130162,723.250092 L510.443152,723.564081 C511.025132,724.146062 511.983101,724.146062 512.563081,723.564081 C513.146062,722.984101 513.146062,722.024133 512.563081,721.444152 L512.250092,721.129162 C512.450085,720.769174 512.60408,720.393187 512.720076,719.9992 L513.50005,719.9992 C514.322023,719.9992 515,719.321223 515,718.49925 C515,717.677277 514.322023,716.9993 513.50005,716.9993 L512.715076,716.9993 C512.60108,716.606313 512.448085,716.229326 512.250092,715.869338 L512.564081,715.556348 C513.146062,714.974368 513.146062,714.016399 512.564081,713.436419 C511.984101,712.853438 511.024133,712.853438 510.444152,713.436419 L510.129162,713.749408 C509.769174,713.549415 509.393187,713.39542 508.9992,713.279424 L508.9992,712.49945 C508.9992,711.677477 508.321223,710.9995 507.49925,710.9995 Z M507.49925,711.999467 C507.78524,711.999467 507.999233,712.21346 507.999233,712.49945 L507.999233,713.499417 C507.999233,713.827406 508.083231,714.0074 508.379221,714.087397 C508.949202,714.202393 509.491184,714.427386 509.976167,714.747375 C510.174161,714.879371 510.438152,714.853372 510.606146,714.685377 L511.149128,714.142395 C511.351122,713.940402 511.654112,713.940402 511.856105,714.142395 C512.058098,714.344389 512.058098,714.647378 511.856105,714.849372 L511.313123,715.392354 C511.145128,715.559348 511.118129,715.822339 511.249125,716.020333 C511.569114,716.506316 511.793107,717.048298 511.907103,717.617279 C511.9871,717.919269 512.251092,718.000267 512.499083,718.000267 L513.49905,718.000267 C513.78504,718.000267 513.999033,718.21426 513.999033,718.50025 C513.999033,718.78624 513.78504,719.000233 513.49905,719.000233 L512.499083,719.000233 C512.105096,719.000233 511.971101,719.158228 511.911103,719.380221 C511.796107,719.950202 511.571114,720.492184 511.251125,720.977167 C511.119129,721.175161 511.145128,721.439152 511.313123,721.607146 L511.856105,722.150128 C512.058098,722.352122 512.058098,722.655111 511.856105,722.857105 C511.654112,723.059098 511.351122,723.059098 511.149128,722.857105 L510.606146,722.314123 C510.439152,722.146128 510.176161,722.119129 509.978167,722.250125 C509.492184,722.570114 508.950202,722.794107 508.381221,722.908103 C508.117229,722.978101 507.998233,723.248092 507.998233,723.500083 L507.998233,724.50005 C507.998233,724.78604 507.784241,725.000033 507.49825,725.000033 C507.21226,725.000033 506.998267,724.78604 506.998267,724.50005 L506.998267,723.500083 C506.998267,723.130096 506.860271,722.977101 506.618279,722.912103 C506.048298,722.797107 505.506316,722.572114 505.021333,722.252125 C504.823339,722.120129 504.559348,722.146128 504.391354,722.314123 L503.848372,722.857105 C503.646378,723.059098 503.343389,723.059098 503.141395,722.857105 C502.939402,722.655111 502.939402,722.352122 503.141395,722.150128 L503.684377,721.607146 C503.852372,721.440152 503.879371,721.177161 503.748375,720.979167 C503.428386,720.493184 503.204393,719.951202 503.090397,719.382221 C503.040399,719.130229 502.828406,718.999233 502.498417,718.999233 L501.49845,718.999233 C501.21246,718.999233 500.998467,718.78524 500.998467,718.49925 C500.998467,718.21326 501.21246,717.999267 501.49845,717.999267 L502.498417,717.999267 C502.943402,717.999267 503.022399,717.856271 503.086397,717.619279 C503.201393,717.049298 503.426386,716.507316 503.746375,716.022333 C503.878371,715.824339 503.852372,715.560348 503.684377,715.392354 L503.141395,714.849372 C502.939402,714.647378 502.939402,714.344389 503.141395,714.142395 C503.343389,713.940402 503.646378,713.940402 503.848372,714.142395 L504.391354,714.685377 C504.558348,714.853372 504.821339,714.880371 505.019333,714.749375 C505.505316,714.429386 506.047298,714.205393 506.616279,714.091397 C507.018266,713.9994 506.999267,713.68541 506.999267,713.499417 L506.999267,712.49945 C506.999267,712.21346 507.21326,711.999467 507.49925,711.999467 Z M507.49925,715.999333 C506.124296,715.999333 504.999333,717.124296 504.999333,718.49925 C504.999333,719.874204 506.124296,720.999167 507.49925,720.999167 C508.874204,720.999167 509.999167,719.874204 509.999167,718.49925 C509.999167,717.124296 508.874204,715.999333 507.49925,715.999333 Z M507.49925,716.9993 C508.333222,716.9993 508.9992,717.665278 508.9992,718.49925 C508.9992,719.333222 508.333222,719.9992 507.49925,719.9992 C506.665278,719.9992 505.9993,719.333222 505.9993,718.49925 C505.9993,717.665278 506.665278,716.9993 507.49925,716.9993 Z M497.499583,703.999733 C495.019666,703.999733 492.999733,706.019666 492.999733,708.499583 C492.999733,710.979501 495.019666,712.999433 497.499583,712.999433 C499.979501,712.999433 501.999433,710.979501 501.999433,708.499583 C501.999433,706.019666 499.979501,703.999733 497.499583,703.999733 Z M497.499583,704.9997 C499.439519,704.9997 500.999467,706.559648 500.999467,708.499583 C500.999467,710.439519 499.439519,711.999467 497.499583,711.999467 C495.559648,711.999467 493.9997,710.439519 493.9997,708.499583 C493.9997,706.559648 495.559648,704.9997 497.499583,704.9997 Z M496.499617,696 C495.677644,696 494.999667,696.677977 494.999667,697.49995 L494.999667,699.409886 C494.236692,699.619879 493.505716,699.919869 492.817739,700.309856 L490.942802,698.436919 C490.360821,697.854938 489.402853,697.854938 488.819873,698.436919 L487.40592,699.849872 C486.825939,700.429852 486.825939,701.38982 487.40592,701.969801 L489.292857,703.856738 C488.91087,704.533716 488.61288,705.250692 488.405886,705.999667 L486.49995,705.999667 C485.677977,705.999667 485,706.677644 485,707.499617 L485,709.49955 C485,710.321523 485.677977,710.9995 486.49995,710.9995 L488.407886,710.9995 C488.61488,711.756475 488.91487,712.479451 489.300857,713.163428 L487.40692,715.056365 C486.824939,715.638345 486.824939,716.596313 487.40692,717.179294 L488.820873,718.593247 C489.402853,719.175227 490.360821,719.175227 490.943802,718.593247 L492.840739,716.69331 C493.520716,717.083297 494.244692,717.383287 495.000667,717.59128 L495.000667,719.499217 C495.000667,720.321189 495.678644,720.999167 496.500617,720.999167 L498.50055,720.999167 C499.164528,720.999167 499.160528,719.9992 498.50055,719.9992 L496.500617,719.9992 C496.214626,719.9992 496.000633,719.785207 496.000633,719.499217 L496.000633,717.265291 C496.000633,717.031299 495.840639,716.828306 495.610646,716.775307 C494.680677,716.563315 493.790707,716.195327 492.980734,715.685344 C492.784741,715.561348 492.528749,715.590347 492.363755,715.753342 L492.357755,715.763341 L492.354755,715.767341 L490.236825,717.88727 C490.036832,718.087264 489.729842,718.087264 489.526849,717.88727 L488.113896,716.472318 C487.913903,716.270324 487.913903,715.964335 488.113896,715.762341 L490.236825,713.642412 L490.240825,713.638412 L490.242825,713.635412 C490.40482,713.470418 490.432819,713.215426 490.309823,713.019433 C489.80184,712.20946 489.435852,711.319489 489.224859,710.38952 C489.172861,710.159528 488.969868,709.999533 488.734876,709.999533 L486.49995,709.999533 C486.21396,709.999533 485.999967,709.78554 485.999967,709.49955 L485.999967,707.499617 C485.999967,707.213626 486.21396,706.999633 486.49995,706.999633 L488.733876,706.999633 C488.967868,706.999633 489.170861,706.839639 489.223859,706.609646 C489.433852,705.686677 489.79784,704.803707 490.300823,703.999733 C490.425819,703.80174 490.39582,703.545748 490.230826,703.379754 L488.112896,701.264825 C487.910903,701.062831 487.910903,700.759841 488.112896,700.557848 L489.526849,699.143895 C489.728842,698.941902 490.034832,698.941902 490.236825,699.143895 L492.339755,701.247825 C492.50475,701.41282 492.759741,701.441819 492.959735,701.317823 C493.773708,700.80584 494.669678,700.437852 495.606646,700.224859 C495.834639,700.172861 495.996633,699.969868 495.996633,699.734876 L495.996633,697.49995 C495.996633,697.21396 496.210626,696.999967 496.496617,696.999967 L498.49655,696.999967 C498.782541,696.999967 498.996533,697.21396 498.996533,697.49995 L498.996533,699.733876 C498.996533,699.967868 499.156528,700.170861 499.38652,700.223859 C500.316489,700.435852 501.20346,700.80384 502.012433,701.312823 C502.209426,701.435819 502.466418,701.40682 502.632412,701.242825 L504.732342,699.142895 C504.934336,698.940902 505.237325,698.940902 505.439319,699.142895 L506.853272,700.556848 C507.055265,700.758841 507.055265,701.061831 506.853272,701.263825 L504.763341,703.359755 C504.598347,703.523749 504.569348,703.779741 504.693344,703.979734 C505.199327,704.789707 505.563315,705.676677 505.773308,706.609646 C505.826306,706.837639 506.029299,706.999633 506.263291,706.999633 L508.499217,706.999633 C508.785207,706.999633 508.9992,707.213626 508.9992,707.499617 L508.9992,709.49955 C508.9992,710.167528 509.999167,710.151528 509.999167,709.49955 L509.999167,707.499617 C509.999167,706.677644 509.321189,705.999667 508.499217,705.999667 L506.59128,705.999667 C506.384287,705.243692 506.086297,704.519716 505.70131,703.835739 L507.563248,701.970801 C508.145228,701.39082 508.145228,700.430852 507.563248,699.850872 L506.149295,698.435919 C505.569314,697.853938 504.609346,697.853938 504.029366,698.435919 L502.159428,700.305856 C501.479451,699.915869 500.754475,699.615879 499.9995,699.407886 L499.9995,697.49995 C499.9995,696.677977 499.321523,696 498.49955,696 L496.499617,696 Z" id="Shape"></path>
        </g>
    </g>
</svg>