<?xml version="1.0" encoding="UTF-8"?>
<svg width="20px" height="30px" viewBox="0 0 20 30" version="1.1" xmlns="http://www.w3.org/2000/svg" xmlns:xlink="http://www.w3.org/1999/xlink">
    <!-- Generator: Sketch 45.2 (43514) - http://www.bohemiancoding.com/sketch -->
    <title>thefactory/element/icons/icnthefactory/element/icons/icn-21</title>
    <desc>Created with Sketch.</desc>
    <defs></defs>
    <g id="Ressources" stroke="none" stroke-width="1" fill="none" fill-rule="evenodd">
        <g id="thefactory/element/icn/inc-artboard" transform="translate(-1002.000000, -772.000000)" fill-rule="nonzero" fill="#000000">
            <path d="M1015.49856,784 C1015.79244,784 1016.02335,784.246 1015.99536,784.54 L1014.99577,796.524 C1014.94179,797.217 1013.9412,797.134 1014.00218,796.442 L1015.00177,784.458 C1015.01776,784.196 1015.23567,784 1015.49756,784 L1015.49856,784 Z M1008.50144,784 C1008.20756,784 1007.97665,784.246 1008.00464,784.54 L1009.00423,796.524 C1009.05821,797.217 1010.0588,797.134 1009.99782,796.442 L1008.99823,784.458 C1008.98224,784.196 1008.76433,784 1008.50244,784 L1008.50144,784 Z M1009.50103,772 C1008.67937,772 1008.00164,772.678 1008.00164,773.5 L1008.00164,776 L1002.5039,776 C1002.22702,776 1002.00411,776.223 1002.00411,776.5 C1002.00411,776.777 1002.22702,777 1002.5039,777 L1021.4961,777 C1021.77298,777 1021.99589,776.777 1021.99589,776.5 C1021.99589,776.223 1021.77298,776 1021.4961,776 L1015.99836,776 L1015.99836,773.5 C1015.99836,772.678 1015.32063,772 1014.49897,772 L1009.50103,772 Z M1009.50103,773 L1014.49897,773 C1014.78486,773 1014.99877,773.214 1014.99877,773.5 L1014.99877,776 L1009.00123,776 L1009.00123,773.5 C1009.00123,773.214 1009.21514,773 1009.50103,773 Z M1003.50349,778 C1002.67983,778 1001.92414,778.673 1002.00611,779.547 L1004.00529,800.547 C1004.07726,801.307 1004.67901,802 1005.50267,802 L1018.49733,802 C1019.32099,802 1019.92274,801.308 1019.99471,800.547 L1021.99389,779.547 C1022.07586,778.673 1021.32017,778 1020.49651,778 L1003.50349,778 Z M1003.50349,779 L1020.49651,779 C1020.78039,779 1021.02029,779.224 1020.9983,779.453 L1018.99912,800.453 C1018.96614,800.795 1018.78121,801 1018.49733,801 L1005.50267,801 C1005.21879,801 1005.03286,800.795 1005.00088,800.453 L1003.0017,779.453 C1002.97971,779.223 1003.21961,779 1003.50349,779 Z" id="Shape"></path>
        </g>
    </g>
</svg>