<?xml version="1.0" encoding="UTF-8"?>
<svg width="30px" height="30px" viewBox="0 0 30 30" version="1.1" xmlns="http://www.w3.org/2000/svg" xmlns:xlink="http://www.w3.org/1999/xlink">
    <!-- Generator: Sketch 45.2 (43514) - http://www.bohemiancoding.com/sketch -->
    <title>thefactory/element/icons/icnthefactory/element/icons/icn-108</title>
    <desc>Created with Sketch.</desc>
    <defs></defs>
    <g id="Ressources" stroke="none" stroke-width="1" fill="none" fill-rule="evenodd">
        <g id="thefactory/element/icn/inc-artboard" transform="translate(-185.000000, -393.000000)" fill-rule="nonzero" fill="#000000">
            <path d="M207.00525,393.000028 C206.811248,392.998028 206.633246,393.105027 206.547245,393.276027 L204.35022,397.656023 L199.430164,398.356023 C199.017159,398.416023 198.852157,398.916022 199.152161,399.202022 L202.957204,402.609019 L202.004193,407.419014 C201.934192,407.825014 202.367197,408.134014 202.737202,407.942014 L207.00025,405.670016 L211.286299,407.943014 C211.656303,408.133014 212.086308,407.825014 212.018307,407.421014 L211.076296,402.611019 L214.846339,399.203022 C215.146343,398.917022 214.982341,398.416023 214.568336,398.357023 L209.65228,397.657023 L207.452255,393.277027 C207.368254,393.110027 207.195252,393.002028 207.00525,393.000028 Z M207.00025,394.615026 L208.863271,398.325023 C208.936272,398.473023 209.079274,398.575022 209.243275,398.598022 L213.411323,399.193022 L210.184286,402.083019 C210.064285,402.195019 210.011284,402.359019 210.039285,402.519019 L210.852294,406.599015 L207.236253,404.672017 C207.089251,404.596017 206.914249,404.596017 206.766247,404.672017 L203.176207,406.598015 L203.999216,402.518019 C204.027216,402.358019 203.972216,402.193019 203.854214,402.080019 L200.592177,399.190022 L204.758225,398.596022 C204.923226,398.573022 205.065228,398.471023 205.138229,398.324023 L207.00025,394.615026 Z M201.500187,411.000011 C200.678178,411.000011 200.00017,411.67801 200.00017,412.50001 L200.00017,421.500001 C200.00017,422.322001 200.678178,423 201.500187,423 L210.50029,423 C211.322299,423 212.000307,422.322001 212.000307,421.500001 L212.000307,412.50001 C212.000307,411.67801 211.322299,411.000011 210.50029,411.000011 L201.500187,411.000011 Z M201.500187,412.00001 L210.50029,412.00001 C210.786293,412.00001 211.000295,412.21401 211.000295,412.50001 L211.000295,421.500001 C211.000295,421.786001 210.786293,422.000001 210.50029,422.000001 L201.500187,422.000001 C201.214184,422.000001 201.000182,421.786001 201.000182,421.500001 L201.000182,412.50001 C201.000182,412.21401 201.214184,412.00001 201.500187,412.00001 Z M186.500017,396.000025 C185.678008,396.000025 185,396.678024 185,397.500023 L185,406.500015 C185,407.322014 185.678008,408.000014 186.500017,408.000014 L195.500119,408.000014 C196.322129,408.000014 197.000136,407.322014 197.000136,406.500015 L197.000136,397.500023 C197.000136,396.678024 196.322129,396.000025 195.500119,396.000025 L186.500017,396.000025 Z M186.500017,397.000024 L195.500119,397.000024 C195.786123,397.000024 196.000125,397.214024 196.000125,397.500023 L196.000125,406.500015 C196.000125,406.786015 195.786123,407.000015 195.500119,407.000015 L186.500017,407.000015 C186.214014,407.000015 186.000011,406.786015 186.000011,406.500015 L186.000011,397.500023 C186.000011,397.214024 186.214014,397.000024 186.500017,397.000024 Z M186.500017,411.000011 C185.678008,411.000011 185,411.67801 185,412.50001 L185,421.500001 C185,422.322001 185.678008,423 186.500017,423 L195.500119,423 C196.322129,423 197.000136,422.322001 197.000136,421.500001 L197.000136,412.50001 C197.000136,411.67801 196.322129,411.000011 195.500119,411.000011 L186.500017,411.000011 Z M186.500017,412.00001 L195.500119,412.00001 C195.786123,412.00001 196.000125,412.21401 196.000125,412.50001 L196.000125,421.500001 C196.000125,421.786001 195.786123,422.000001 195.500119,422.000001 L186.500017,422.000001 C186.214014,422.000001 186.000011,421.786001 186.000011,421.500001 L186.000011,412.50001 C186.000011,412.21401 186.214014,412.00001 186.500017,412.00001 Z" id="Shape"></path>
        </g>
    </g>
</svg>