<?xml version="1.0" encoding="UTF-8"?>
<svg width="30px" height="26px" viewBox="0 0 30 26" version="1.1" xmlns="http://www.w3.org/2000/svg" xmlns:xlink="http://www.w3.org/1999/xlink">
    <!-- Generator: Sketch 45.2 (43514) - http://www.bohemiancoding.com/sketch -->
    <title>thefactory/element/icons/icnthefactory/element/icons/icn-73</title>
    <desc>Created with Sketch.</desc>
    <defs></defs>
    <g id="Ressources" stroke="none" stroke-width="1" fill="none" fill-rule="evenodd">
        <g id="thefactory/element/icn/inc-artboard" transform="translate(-460.000000, -544.000000)" fill-rule="nonzero" fill="#000000">
            <path d="M487,561 C486.5,560.998 486.303,561.64 486.723,561.912 L488.223,562.912 C488.753,563.278 489.325,562.432 488.777,562.08 L487.277,561.08 C487.195,561.023 487.1,561 487,561 Z M483.5,565 C483.098,565.002 482.872,565.466 483.084,565.773 L484.084,567.273 C484.451,567.843 485.3,567.276 484.916,566.719 L483.916,565.219 C483.824,565.075 483.67,564.999 483.5,564.999 L483.5,565 Z M488.5,550 C488.404,550 488.302,550.03 488.223,550.084 L486.723,551.084 C486.183,551.431 486.755,552.276 487.277,551.916 L488.777,550.916 C489.174,550.66 489.004,550 488.5,550 Z M484.5,545.5 C484.335,545.5 484.173,545.584 484.084,545.723 L483.084,547.223 C482.724,547.743 483.564,548.325 483.916,547.777 L484.916,546.277 C485.148,545.94 484.913,545.5 484.5,545.5 Z M478,568.5 L478,566.5 C478,566.223 478.223,566 478.5,566 C478.777,566 479,566.223 479,566.5 L479,568.5 C479,568.777 478.777,569 478.5,569 C478.223,569 478,568.777 478,568.5 Z M478,546.5 L478,544.5 C478,544.223 478.223,544 478.5,544 C478.777,544 479,544.223 479,544.5 L479,546.5 C479,546.777 478.777,547 478.5,547 C478.223,547 478,546.777 478,546.5 Z M487.5,556 L489.5,556 C489.777,556 490,556.223 490,556.5 C490,556.777 489.777,557 489.5,557 L487.5,557 C487.223,557 487,556.777 487,556.5 C487,556.223 487.223,556 487.5,556 Z M477.527,549 C476.832,549 476.832,550 477.527,550 C481.107,550 484,552.903 484,556.5 C484,560.097 481.107,563 477.527,563 C476.847,563 476.824,564 477.527,564 C481.65,564 485,560.635 485,556.5 C485,552.365 481.65,549 477.527,549 Z M469,567 C469,567.552 468.552,568 468,568 C467.448,568 467,567.552 467,567 C467,566.448 467.448,566 468,566 C468.552,566 469,566.448 469,567 Z M466.5,546 L469.5,546 C469.777,546 470,546.223 470,546.5 C470,546.777 469.777,547 469.5,547 L466.5,547 C466.223,547 466,546.777 466,546.5 C466,546.223 466.223,546 466.5,546 Z M461.5,544 C460.678,544 460,544.678 460,545.5 L460,568.5 C460,569.322 460.678,570 461.5,570 L474.5,570 C475.322,570 476,569.322 476,568.5 L476,545.5 C476,544.678 475.322,544 474.5,544 L461.5,544 Z M461.5,545 L474.5,545 C474.786,545 475,545.214 475,545.5 L475,568.5 C475,568.786 474.786,569 474.5,569 L461.5,569 C461.214,569 461,568.786 461,568.5 L461,545.5 C461,545.214 461.214,545 461.5,545 Z" id="Shape"></path>
        </g>
    </g>
</svg>