<?xml version="1.0" encoding="UTF-8"?>
<svg width="30px" height="29px" viewBox="0 0 30 29" version="1.1" xmlns="http://www.w3.org/2000/svg" xmlns:xlink="http://www.w3.org/1999/xlink">
    <!-- Generator: Sketch 45.2 (43514) - http://www.bohemiancoding.com/sketch -->
    <title>thefactory/element/icons/icnthefactory/element/icons/icn-49</title>
    <desc>Created with Sketch.</desc>
    <defs></defs>
    <g id="Ressources" stroke="none" stroke-width="1" fill="none" fill-rule="evenodd">
        <g id="thefactory/element/icn/inc-artboard" transform="translate(-474.000000, -991.000000)" fill-rule="nonzero" fill="#000000">
            <path d="M474.000053,1005.49786 C474.004053,1005.7739 474.224051,1006.00194 474.500048,1005.99794 L500.499785,1005.99794 C501.159779,1005.99794 501.163779,1004.99777 500.499785,1004.99777 L474.500048,1004.99777 C474.218051,1004.99377 473.996053,1005.21581 474.000053,1005.49786 Z M488.999902,1019.50026 C488.999902,1019.95034 489.553896,1020.16338 489.853893,1019.85433 L503.853751,1005.85192 C504.04875,1005.65688 504.04875,1005.34183 503.853751,1005.14479 L489.853893,991.142386 C489.427897,990.69931 488.686905,991.390429 489.1469,991.849508 L502.792762,1005.49786 L489.1469,1019.1482 C489.048901,1019.24322 488.999902,1019.36624 488.999902,1019.50126 L488.999902,1019.50026 Z" id="Shape"></path>
        </g>
    </g>
</svg>