<?xml version="1.0" encoding="UTF-8"?>
<svg width="30px" height="30px" viewBox="0 0 30 30" version="1.1" xmlns="http://www.w3.org/2000/svg" xmlns:xlink="http://www.w3.org/1999/xlink">
    <!-- Generator: Sketch 45.2 (43514) - http://www.bohemiancoding.com/sketch -->
    <title>thefactory/element/icons/icnthefactory/element/icons/icn-41</title>
    <desc>Created with Sketch.</desc>
    <defs></defs>
    <g id="Ressources" stroke="none" stroke-width="1" fill="none" fill-rule="evenodd">
        <g id="thefactory/element/icn/inc-artboard" transform="translate(-635.000000, -696.000000)" fill-rule="nonzero" fill="#000000">
            <path d="M648.5,696 C647.678,696 647,696.678 647,697.5 L647,699.465 C645.932,699.74 644.912,700.16 643.96,700.715 L642.68,699.435 C642.098,698.855 641.14,698.855 640.557,699.435 L638.437,701.557 C637.854,702.139 637.854,703.097 638.437,703.68 L639.719,704.963 C639.159,705.913 638.735,706.933 638.456,708 L636.5,708 C635.678,708 635,708.678 635,709.5 L635,712.5 C635,713.322 635.678,714 636.5,714 L638.465,714 C638.74,715.068 639.16,716.088 639.715,717.04 L638.435,718.32 C637.855,718.902 637.855,719.86 638.435,720.443 L640.557,722.563 C641.139,723.146 642.097,723.146 642.68,722.563 L643.963,721.281 C644.913,721.841 645.933,722.265 647,722.544 L647,724.5 C647,725.322 647.678,726 648.5,726 L651.5,726 C652.322,726 653,725.322 653,724.5 L653,722.535 C654.068,722.26 655.088,721.84 656.04,721.285 L657.32,722.565 C657.902,723.145 658.86,723.145 659.443,722.565 L661.563,720.443 C662.146,719.861 662.146,718.903 661.563,718.32 L660.281,717.037 C660.841,716.087 661.265,715.067 661.544,714 L663.5,714 C664.322,714 665,713.322 665,712.5 L665,709.5 C665,708.678 664.322,708 663.5,708 L661.535,708 C661.26,706.932 660.84,705.912 660.285,704.96 L661.565,703.68 C662.145,703.098 662.145,702.14 661.565,701.557 L659.443,699.437 C658.861,698.854 657.903,698.854 657.32,699.437 L656.037,700.719 C655.087,700.159 654.067,699.735 653,699.456 L653,697.5 C653,696.678 652.322,696 651.5,696 L648.5,696 Z M648.5,697 L651.5,697 C651.786,697 652,697.214 652,697.5 L652,699.783 C651.999883,700.016854 652.161875,700.219552 652.39,700.271 C653.633,700.551 654.818,701.041 655.893,701.726 C656.09066,701.850294 656.348029,701.821236 656.513,701.656 L658.027,700.144 C658.229,699.942 658.535,699.942 658.737,700.144 L660.857,702.264 C661.059,702.466 661.059,702.772 660.857,702.974 L659.35,704.48 C659.183728,704.645281 659.154623,704.903896 659.28,705.102 C659.96,706.178 660.447,707.364 660.72,708.607 C660.770397,708.83705 660.974496,709.000745 661.21,709 L663.5,709 C663.786,709 664,709.214 664,709.5 L664,712.5 C664,712.786 663.786,713 663.5,713 L661.217,713 C660.983146,712.999883 660.780448,713.161875 660.729,713.39 C660.449,714.633 659.959,715.818 659.274,716.893 C659.149706,717.09066 659.178764,717.348029 659.344,717.513 L660.856,719.027 C661.058,719.229 661.058,719.535 660.856,719.737 L658.736,721.857 C658.534,722.059 658.228,722.059 658.026,721.857 L656.52,720.35 C656.354719,720.183728 656.096104,720.154623 655.898,720.28 C654.822,720.96 653.636,721.447 652.393,721.72 C652.16295,721.770397 651.999255,721.974496 652,722.21 L652,724.5 C652,724.786 651.786,725 651.5,725 L648.5,725 C648.214,725 648,724.786 648,724.5 L648,722.217 C648.000117,721.983146 647.838125,721.780448 647.61,721.729 C646.367,721.449 645.182,720.959 644.107,720.274 C643.90934,720.149706 643.651971,720.178764 643.487,720.344 L641.973,721.856 C641.771,722.058 641.465,722.058 641.263,721.856 L639.143,719.736 C638.941,719.534 638.941,719.228 639.143,719.026 L640.65,717.52 C640.816272,717.354719 640.845377,717.096104 640.72,716.898 C640.04,715.822 639.553,714.636 639.28,713.393 C639.229603,713.16295 639.025504,712.999255 638.79,713 L636.5,713 C636.214,713 636,712.786 636,712.5 L636,709.5 C636,709.214 636.214,709 636.5,709 L638.783,709 C639.016854,709.000117 639.219552,708.838125 639.271,708.61 C639.551,707.367 640.041,706.182 640.726,705.107 C640.850294,704.90934 640.821236,704.651971 640.656,704.487 L639.144,702.972 C638.942,702.77 638.942,702.464 639.144,702.262 L641.264,700.142 C641.466,699.94 641.772,699.94 641.974,700.142 L643.48,701.65 C643.645281,701.816272 643.903896,701.845377 644.102,701.72 C645.178,701.04 646.364,700.553 647.607,700.28 C647.83705,700.229603 648.000745,700.025504 648,699.79 L648,697.5 C648,697.214 648.214,697 648.5,697 Z M650,706 C647.244,706 645,708.244 645,711 C645,713.756 647.244,716 650,716 C652.756,716 655,713.756 655,711 C655,708.244 652.756,706 650,706 Z M650,707 C652.215,707 654,708.785 654,711 C654,713.215 652.215,715 650,715 C647.785,715 646,713.215 646,711 C646,708.785 647.785,707 650,707 Z" id="Shape"></path>
        </g>
    </g>
</svg>