<?xml version="1.0" encoding="UTF-8"?>
<svg width="30px" height="28px" viewBox="0 0 30 28" version="1.1" xmlns="http://www.w3.org/2000/svg" xmlns:xlink="http://www.w3.org/1999/xlink">
    <!-- Generator: Sketch 45.2 (43514) - http://www.bohemiancoding.com/sketch -->
    <title>thefactory/element/icons/icnthefactory/element/icons/icn-23</title>
    <desc>Created with Sketch.</desc>
    <defs></defs>
    <g id="Ressources" stroke="none" stroke-width="1" fill="none" fill-rule="evenodd">
        <g id="thefactory/element/icn/inc-artboard" transform="translate(-849.000000, -772.000000)" fill-rule="nonzero" fill="#000000">
            <path d="M870.226911,781.05097 C869.869963,781.126978 869.537011,781.290995 869.257052,781.531021 C868.963095,781.786049 868.743127,782.118084 868.621145,782.488124 C868.554154,782.695146 868.591149,782.908169 868.58615,783.118191 C868.342185,782.986177 867.786266,782.961174 867.440317,783.054184 C866.998381,783.157195 866.560445,783.361217 866.223494,783.704254 C865.719567,784.214309 865.586586,784.644355 865.623581,785.212416 C865.463604,785.140408 865.313626,785.048398 865.133652,785.022395 C864.837695,784.97639 864.541738,785.002393 864.263779,785.089402 C863.987819,785.176412 863.743854,785.316427 863.531885,785.481444 C863.236928,785.711469 862.984965,786.007501 862.816989,786.361539 C862.697007,786.611566 862.687008,786.891596 862.667011,787.168625 L860.425337,785.127407 C860.139379,784.867379 859.825425,784.583348 859.431482,784.360324 C859.03554,784.1353 858.571607,783.982284 858.074679,783.998286 C857.557755,784.015287 857.056828,784.216309 856.676883,784.576347 C856.296938,784.938386 856.068971,785.429439 856.030977,785.946494 C855.990983,786.461549 856.140961,786.953602 856.387925,787.366646 C856.633889,787.77669 856.954842,788.086724 857.242801,788.361753 L865.249635,796.000571 L863.49789,796.000571 C863.257925,796.000571 862.991964,796.000571 862.703006,796.053577 C862.413048,796.105583 862.12309,796.209594 861.859129,796.385613 C861.595167,796.562632 861.375199,796.800657 861.224221,797.085688 C861.074243,797.368718 860.998254,797.685752 860.998254,798.000786 C860.998254,798.31782 861.074243,798.632854 861.225221,798.916884 C861.377199,799.200914 861.597167,799.43894 861.861128,799.614959 C862.12409,799.791978 862.416048,799.894989 862.704006,799.946994 C862.991964,800 863.258925,800 863.49789,800 L871.496726,800 C872.182626,800 872.141632,798.999893 871.496726,798.999893 L863.49789,798.999893 C863.264924,798.999893 863.057954,798.994892 862.88098,798.962889 C862.705006,798.930885 862.543029,798.870879 862.414048,798.78487 C862.286067,798.698861 862.178082,798.579848 862.108093,798.446834 C862.038103,798.313819 861.998109,798.156803 861.998109,797.999786 C861.998109,797.844769 862.038103,797.685752 862.108093,797.552738 C862.178082,797.419724 862.286067,797.300711 862.414048,797.214702 C862.544029,797.128692 862.704006,797.068686 862.88098,797.036683 C863.057954,797.004679 863.264924,796.999679 863.49789,796.999679 L866.497454,796.999679 C866.947388,796.999679 867.169356,796.44962 866.843403,796.139586 L857.9347,787.638676 C857.654741,787.368647 857.404777,787.11862 857.2468,786.852591 C857.089823,786.590563 857.006835,786.290531 857.028832,786.020502 C857.048829,785.752473 857.173811,785.482445 857.364783,785.300425 C857.554755,785.120406 857.832715,785.007394 858.104675,784.998393 C858.371636,784.990392 858.664594,785.078401 858.936554,785.231418 C859.208514,785.385434 859.471476,785.614459 859.752435,785.869486 C861.222221,787.202629 862.694007,788.534772 864.161794,789.869915 C864.614728,790.281959 865.28363,789.561882 864.857692,789.155838 L864.351766,788.645783 C864.141797,788.432761 863.954824,788.23874 863.827842,788.039719 C863.70286,787.842697 863.621872,787.623674 863.603875,787.412651 C863.583878,787.202629 863.626871,786.979605 863.718858,786.785584 C863.811845,786.590563 863.961823,786.410544 864.146796,786.265528 C864.278777,786.163518 864.420756,786.085509 864.560736,786.041504 C864.698716,785.9985 864.846694,785.985498 864.982674,786.006501 C865.116655,786.028503 865.258634,786.083509 865.387615,786.166518 C865.517596,786.252527 865.651577,786.380541 865.803555,786.530557 L867.14336,787.853699 L867.146359,787.855699 C867.618291,788.305747 868.296192,787.669679 867.846257,787.205629 L867.35133,786.645569 C867.106365,786.36954 866.8654,786.141515 866.73142,785.891488 C866.596439,785.643462 866.537448,785.361432 866.571443,785.108404 C866.601439,784.855377 866.73142,784.60135 866.921392,784.41633 C867.113364,784.23031 867.379325,784.094296 867.667284,784.026289 C868.051228,783.924278 868.397177,784.108297 868.644141,784.353324 L869.643996,785.353431 L870.143923,785.853484 C870.615854,786.305533 871.303754,785.617459 870.85182,785.146409 L870.351893,784.646355 C870.143923,784.436332 869.95695,784.244312 869.81897,784.046291 C869.68099,783.84927 869.582005,783.636247 869.539011,783.426224 C869.497017,783.216202 869.509016,782.993178 869.573006,782.798157 C869.634997,782.603136 869.75598,782.420116 869.910957,782.286102 C870.057936,782.160089 870.240909,782.069079 870.432881,782.029075 C870.622853,781.98907 870.832823,781.995071 871.032794,782.049077 C871.230765,782.101082 871.432736,782.203093 871.617709,782.339108 C871.804681,782.475122 871.985655,782.654142 872.182626,782.851163 L878.129761,788.829803 C878.599693,789.319856 879.327587,788.593778 878.836658,788.122727 L872.893523,782.145087 C872.693552,781.945066 872.473584,781.728042 872.206623,781.533021 C871.939662,781.339001 871.636706,781.175983 871.292756,781.082973 C870.948806,780.992964 870.582859,780.974962 870.225911,781.05097 L870.226911,781.05097 Z M862.498036,783.001179 C862.774995,782.996178 863.003962,782.776155 862.997963,782.501125 L862.997963,779.500804 C862.997963,779.224774 862.774995,779.00075 862.498036,779.00075 L859.498472,779.00075 C858.851566,779.00075 858.82457,780.000857 859.498472,780.000857 L861.288212,780.000857 L859.153522,782.141087 C858.82857,782.458121 859.053537,783.001179 859.499472,783.001179 C859.629453,783.001179 859.769433,782.939172 859.85942,782.846162 L861.999108,780.698932 L861.999108,782.499125 C861.995109,782.781155 862.217077,783.004179 862.499036,782.999178 L862.498036,783.001179 Z M851.499636,786.0015 C851.225676,786.005501 850.996709,786.225524 850.999709,786.501554 L850.999709,789.501875 C850.999709,789.776905 851.225676,790.001929 851.499636,790.001929 L854.4992,790.001929 C855.149105,790.001929 855.176101,789.001822 854.4992,789.001822 L852.71246,789.001822 L854.848149,786.861592 C855.174102,786.543558 854.960133,786.0015 854.502199,786.0015 C854.372218,786.0045 854.234238,786.061507 854.142252,786.154517 L852.002563,788.300747 L852.002563,786.500554 C852.007562,786.220524 851.784595,785.9965 851.502636,786.0005 L851.499636,786.0015 Z M857.998691,796.002572 C857.998691,796.552631 857.552755,797.002679 856.998836,797.002679 C856.448916,797.002679 855.998982,796.552631 855.998982,796.002572 C855.998982,795.449512 856.448916,795.002465 856.998836,795.002465 C857.552755,795.002465 857.998691,795.449512 857.998691,796.002572 Z M855.499054,774.000214 L858.498618,774.000214 C858.776577,774.000214 858.998545,774.222238 858.998545,774.500268 C858.998545,774.776297 858.776577,775.000321 858.498618,775.000321 L855.499054,775.000321 C855.223094,775.000321 854.999127,774.776297 854.999127,774.500268 C854.999127,774.222238 855.223094,774.000214 855.499054,774.000214 Z M850.499782,772 C849.679901,772 849,772.677073 849,773.500161 L849,797.502732 C849,798.324821 849.679901,799.002893 850.499782,799.002893 L859.498472,799.002893 C860.175374,799.012894 860.175374,797.992785 859.498472,798.002786 L850.499782,798.002786 C850.215823,798.002786 849.999855,797.787763 849.999855,797.502732 L849.999855,773.500161 C849.999855,773.21413 850.215823,773.000107 850.499782,773.000107 L863.49789,773.000107 C863.784849,773.000107 863.997818,773.21413 863.997818,773.500161 L863.997818,782.501125 C863.989819,783.176197 865.007671,783.176197 864.997672,782.501125 L864.997672,773.500161 C864.997672,772.677073 864.32177,772 863.49789,772 L850.499782,772 Z" id="Shape"></path>
        </g>
    </g>
</svg>