<?xml version="1.0" encoding="UTF-8"?>
<svg width="30px" height="24px" viewBox="0 0 30 24" version="1.1" xmlns="http://www.w3.org/2000/svg" xmlns:xlink="http://www.w3.org/1999/xlink">
    <!-- Generator: Sketch 45.2 (43514) - http://www.bohemiancoding.com/sketch -->
    <title>thefactory/element/icons/icnthefactory/element/icons/icn-67</title>
    <desc>Created with Sketch.</desc>
    <defs></defs>
    <g id="Ressources" stroke="none" stroke-width="1" fill="none" fill-rule="evenodd">
        <g id="thefactory/element/icn/inc-artboard" transform="translate(-876.000000, -544.000000)" fill-rule="nonzero" fill="#000000">
            <path d="M880.775744,552 C879.945764,552 879.240781,552.61 879.051786,553.422 L876.040858,566.352 C875.94686,566.758 876.014858,567.178 876.246853,567.494 C876.478847,567.81 876.870838,568 877.286828,568 L901.226255,568 C902.054236,568 902.760219,567.39 902.949214,566.578 L905.959142,553.648 C906.05314,553.242 905.985142,552.822 905.753147,552.506 C905.521153,552.19 905.129162,552 904.713172,552 L880.775744,552 Z M880.775744,553 L904.715172,553 C905.061164,553 905.037164,553.225 904.985166,553.422 L901.975238,566.352 C901.895239,566.688 901.500249,567 901.225255,567 L877.285828,567 C876.969836,567 876.953836,566.813 877.015834,566.578 L880.025762,553.648 C880.103761,553.315 880.501751,553 880.775744,553 Z M877.500823,544 C876.678842,544 876.000859,544.678 876.000859,545.5 L876.000859,559.5 C875.990859,560.176 877.010835,560.176 877.000835,559.5 L877.000835,545.5 C877.000835,545.214 877.21483,545 877.500823,545 L884.29366,545 L888.146568,548.854 C888.240566,548.947 888.366563,549 888.50056,549 L901.500249,549 C901.786242,549 902.000237,549.214 902.000237,549.5 L902.000237,550.5 C901.990237,551.176 903.010213,551.176 903.000213,550.5 L903.000213,549.5 C903.000213,548.678 902.322229,548 901.500249,548 L888.707555,548 L884.854647,544.146 C884.760649,544.053 884.634652,544 884.500655,544 L877.500823,544 Z" id="Shape"></path>
        </g>
    </g>
</svg>