<?xml version="1.0" encoding="UTF-8"?>
<svg width="29px" height="29px" viewBox="0 0 29 29" version="1.1" xmlns="http://www.w3.org/2000/svg" xmlns:xlink="http://www.w3.org/1999/xlink">
    <!-- Generator: Sketch 45.2 (43514) - http://www.bohemiancoding.com/sketch -->
    <title>thefactory/element/icons/icnthefactory/element/icons/icn-153</title>
    <desc>Created with Sketch.</desc>
    <defs></defs>
    <g id="Ressources" stroke="none" stroke-width="1" fill="none" fill-rule="evenodd">
        <g id="thefactory/element/icn/inc-artboard" transform="translate(-859.000000, -317.000000)" fill-rule="nonzero" fill="#000000">
            <path d="M863.843,335.125312 L860.203188,331.481501 L863.843,327.869688 C864.306976,327.419711 863.609012,326.66975 863.133036,327.159724 L859.140243,331.126519 C858.953252,331.31251 858.953252,331.651492 859.140243,331.836483 L863.133036,335.836276 C863.621011,336.32625 864.312975,335.598288 863.843,335.126312 L863.843,335.125312 Z M883.156001,327.873688 L886.795812,331.517499 L883.156001,335.127312 C882.692025,335.580289 883.389988,336.32925 883.865964,335.839276 L887.859757,331.872481 C888.046748,331.68649 888.046748,331.347508 887.859757,331.162517 L883.866964,327.162724 C883.378989,326.67275 882.687025,327.400712 883.157,327.872688 L883.156001,327.873688 Z M877.126312,341.156001 L873.481501,344.795812 L869.871688,341.156001 C869.418711,340.692025 868.66975,341.390988 869.159724,341.865964 L873.126519,345.859757 C873.31251,346.046748 873.651492,346.046748 873.836483,345.859757 L877.836276,341.866964 C878.32625,341.378989 877.598288,340.687025 877.126312,341.157 L877.126312,341.156001 Z M869.872688,321.843 L873.516499,318.203188 L877.128312,321.843 C877.578289,322.306976 878.32825,321.608012 877.838276,321.133036 L873.872481,317.140243 C873.68649,316.953252 873.347508,316.953252 873.162517,317.140243 L869.162724,321.133036 C868.67275,321.621011 869.400712,322.312975 869.872688,321.843 Z M872.999526,320.500069 L872.999526,330.999526 L862.500069,330.999526 C861.850103,330.999526 861.845103,331.999474 862.500069,331.999474 L872.999526,331.999474 L872.999526,342.498931 C872.999526,343.168896 873.999474,343.163897 873.999474,342.498931 L873.999474,331.999474 L884.498931,331.999474 C885.165897,331.999474 885.163897,330.999526 884.498931,330.999526 L873.999474,330.999526 L873.999474,320.500069 C873.999474,319.818104 872.999526,319.862102 872.999526,320.500069 Z" id="Shape"></path>
        </g>
    </g>
</svg>