<?xml version="1.0" encoding="UTF-8"?>
<svg width="30px" height="26px" viewBox="0 0 30 26" version="1.1" xmlns="http://www.w3.org/2000/svg" xmlns:xlink="http://www.w3.org/1999/xlink">
    <!-- Generator: Sketch 45.2 (43514) - http://www.bohemiancoding.com/sketch -->
    <title>thefactory/element/icons/icnthefactory/element/icons/icn-45</title>
    <desc>Created with Sketch.</desc>
    <defs></defs>
    <g id="Ressources" stroke="none" stroke-width="1" fill="none" fill-rule="evenodd">
        <g id="thefactory/element/icn/inc-artboard" transform="translate(-335.000000, -696.000000)" fill-rule="nonzero" fill="#000000">
            <path d="M341.494025,707.994 C341.044027,707.994 340.824027,708.541 341.146026,708.854 L349.145993,716.854 C349.333992,717.04 349.633991,717.049 349.83199,716.874 L358.831952,708.874 C359.37895,708.434 358.667953,707.634 358.167955,708.127 L349.519991,715.812 L341.854023,708.146 C341.759024,708.049 341.630024,707.994 341.494025,707.994 Z M349.499991,696 C349.77699,696 349.999989,696.223 349.999989,696.5 L349.999989,714.5 C349.999989,714.777 349.77699,715 349.499991,715 C349.222992,715 348.999993,714.777 348.999993,714.5 L348.999993,696.5 C348.999993,696.223 349.222992,696 349.499991,696 Z M335.50005,716 C335.224051,716.004 334.996052,716.224 335.000052,716.5 L335.000052,720.5 C335.000052,721.322 335.678049,722 336.500046,722 L363.499933,722 C364.321929,722 364.999926,721.322 364.999926,720.5 L364.999926,716.5 C365.009926,715.84 363.99993,715.843 363.99993,716.5 L363.99993,720.5 C363.99993,720.786 363.785931,721 363.499933,721 L336.500046,721 C336.214047,721 336.000048,720.786 336.000048,720.5 L336.000048,716.5 C336.004048,716.218 335.782049,715.996 335.50005,716 Z" id="Shape"></path>
        </g>
    </g>
</svg>