<?xml version="1.0" encoding="UTF-8"?>
<svg width="29px" height="29px" viewBox="0 0 29 29" version="1.1" xmlns="http://www.w3.org/2000/svg" xmlns:xlink="http://www.w3.org/1999/xlink">
    <!-- Generator: Sketch 45.2 (43514) - http://www.bohemiancoding.com/sketch -->
    <title>thefactory/element/icons/icnthefactory/element/icons/icn-59</title>
    <desc>Created with Sketch.</desc>
    <defs></defs>
    <g id="Ressources" stroke="none" stroke-width="1" fill="none" fill-rule="evenodd">
        <g id="thefactory/element/icn/inc-artboard" transform="translate(-404.000000, -620.000000)" fill-rule="nonzero" fill="#000000">
            <path d="M420,634.5 C420,634.2 420.2,634 420.5,634 L432.5,634 C432.8,634 433,634.2 433,634.5 C433,634.8 432.8,635 432.5,635 L420.5,635 C420.2,635 420,634.8 420,634.5 Z M404,634.5 C404,634.2 404.2,634 404.5,634 L416.5,634 C416.8,634 417,634.2 417,634.5 C417,634.8 416.8,635 416.5,635 L404.5,635 C404.2,635 404,634.8 404,634.5 Z M418.5,620 C418.8,620 419,620.2 419,620.5 L419,648.5 C419,648.8 418.8,649 418.5,649 C418.2,649 418,648.8 418,648.5 L418,620.5 C418,620.2 418.2,620 418.5,620 Z" id="Shape"></path>
        </g>
    </g>
</svg>