<?xml version="1.0" encoding="UTF-8"?>
<svg width="30px" height="30px" viewBox="0 0 30 30" version="1.1" xmlns="http://www.w3.org/2000/svg" xmlns:xlink="http://www.w3.org/1999/xlink">
    <!-- Generator: Sketch 45.2 (43514) - http://www.bohemiancoding.com/sketch -->
    <title>thefactory/element/icons/icnthefactory/element/icons/icn-63</title>
    <desc>Created with Sketch.</desc>
    <defs></defs>
    <g id="Ressources" stroke="none" stroke-width="1" fill="none" fill-rule="evenodd">
        <g id="thefactory/element/icn/inc-artboard" transform="translate(-397.000000, -917.000000)" fill-rule="nonzero" fill="#000000">
            <path d="M418.167,929 C417.765,929 417.407,929.207 417.147,929.48 L411.154,935.776 C410.894,936.066 410.611,936.044 410.362,935.776 L407.366,932.526 C407.066,932.202 406.68,932.006 406.259,932 C405.837,931.995 405.445,932.205 405.144,932.543 L400.16,938.136 C399.68,938.616 400.42,939.346 400.897,938.818 L405.883,933.225 C406.238,932.815 406.509,933.071 406.659,933.243 L409.655,936.493 C409.953,936.818 410.341,937 410.757,937 C411.173,937 411.557,936.813 411.859,936.494 L417.852,930.197 C418.162,929.88 418.47,930.035 418.644,930.197 L423.131,934.833 C423.601,935.331 424.328,934.593 423.838,934.115 L419.35,929.48 C419.012,929.13 418.584,929 418.165,929 L418.167,929 Z M400.5,941 L423.5,941 C423.777,941 424,941.223 424,941.5 C424,941.777 423.777,942 423.5,942 L400.5,942 C400.223,942 400,941.777 400,941.5 C400,941.223 400.223,941 400.5,941 Z M405.5,923 C404.125,923 403,924.125 403,925.5 C403,926.875 404.125,928 405.5,928 C406.875,928 408,926.875 408,925.5 C408,924.125 406.875,923 405.5,923 Z M405.5,924 C406.334,924 407,924.666 407,925.5 C407,926.334 406.334,927 405.5,927 C404.666,927 404,926.334 404,925.5 C404,924.666 404.666,924 405.5,924 Z M398.5,917 C397.678,917 397,917.678 397,918.5 L397,945.5 C397,946.322 397.678,947 398.5,947 L425.5,947 C426.322,947 427,946.322 427,945.5 L427,918.5 C427,917.678 426.322,917 425.5,917 L398.5,917 Z M398.5,918 L425.5,918 C425.786,918 426,918.214 426,918.5 L426,945.5 C426,945.786 425.786,946 425.5,946 L398.5,946 C398.214,946 398,945.786 398,945.5 L398,918.5 C398,918.214 398.214,918 398.5,918 Z" id="Shape"></path>
        </g>
    </g>
</svg>