<?xml version="1.0" encoding="UTF-8"?>
<svg width="30px" height="30px" viewBox="0 0 30 30" version="1.1" xmlns="http://www.w3.org/2000/svg" xmlns:xlink="http://www.w3.org/1999/xlink">
    <!-- Generator: Sketch 45.2 (43514) - http://www.bohemiancoding.com/sketch -->
    <title>thefactory/element/icons/icnthefactory/element/icons/icn-81</title>
    <desc>Created with Sketch.</desc>
    <defs></defs>
    <g id="Ressources" stroke="none" stroke-width="1" fill="none" fill-rule="evenodd">
        <g id="thefactory/element/icn/inc-artboard" transform="translate(-319.000000, -1052.000000)" fill-rule="nonzero" fill="#000000">
            <path d="M327.5,1052 C326.678,1052 326,1052.678 326,1053.5 L326,1059.5 C326,1060.165 327,1060.17 327,1059.5 L327,1053.5 C327,1053.214 327.214,1053 327.5,1053 L347.5,1053 C347.786,1053 348,1053.214 348,1053.5 L348,1080.5 C348,1080.786 347.786,1081 347.5,1081 L327.5,1081 C327.214,1081 327,1080.786 327,1080.5 L327,1073.5 C327,1072.84 326,1072.846 326,1073.5 L326,1080.5 C326,1081.322 326.678,1082 327.5,1082 L347.5,1082 C348.322,1082 349,1081.322 349,1080.5 L349,1053.5 C349,1052.678 348.322,1052 347.5,1052 L327.5,1052 Z M332.5,1062 C332.05,1062 331.856,1062.563 332.146,1062.854 L335.793,1066.5 L332.146,1070.146 C331.704,1070.572 332.4,1071.306 332.854,1070.854 L336.854,1066.854 C337.049,1066.658 337.049,1066.342 336.854,1066.146 L332.854,1062.146 C332.759,1062.049 332.634,1062 332.5,1062 Z M319.5,1066 L333.5,1066 C333.777,1066 334,1066.223 334,1066.5 C334,1066.777 333.777,1067 333.5,1067 L319.5,1067 C319.223,1067 319,1066.777 319,1066.5 C319,1066.223 319.223,1066 319.5,1066 Z" id="Shape"></path>
        </g>
    </g>
</svg>