<?xml version="1.0" encoding="UTF-8"?>
<svg width="30px" height="30px" viewBox="0 0 30 30" version="1.1" xmlns="http://www.w3.org/2000/svg" xmlns:xlink="http://www.w3.org/1999/xlink">
    <!-- Generator: Sketch 45.2 (43514) - http://www.bohemiancoding.com/sketch -->
    <title>thefactory/element/icons/icnthefactory/element/icons/icn-111</title>
    <desc>Created with Sketch.</desc>
    <defs></defs>
    <g id="Ressources" stroke="none" stroke-width="1" fill="none" fill-rule="evenodd">
        <g id="thefactory/element/icn/inc-artboard" transform="translate(-240.000000, -1052.000000)" fill-rule="nonzero" fill="#000000">
            <path d="M265.965,1052.435 C265.383,1051.855 264.425,1051.855 263.845,1052.435 L261.435,1054.84498 C260.855,1055.42498 260.855,1056.38297 261.435,1056.96497 L265.035,1060.56494 C265.615,1061.14494 266.575,1061.14494 267.155,1060.56494 L269.565,1058.15496 C270.145,1057.57496 270.145,1056.61497 269.565,1056.03497 L265.965,1052.435 Z M265.258,1053.14199 L268.858,1056.74197 C269.058,1056.94197 269.058,1057.24597 268.858,1057.44796 L266.448,1059.85595 C266.246,1060.05795 265.943,1060.05795 265.741,1059.85595 L262.143,1056.25597 C261.941,1056.05597 261.941,1055.75197 262.143,1055.54998 L264.553,1053.13999 C264.753,1052.93999 265.057,1052.93999 265.259,1053.13999 L265.258,1053.14199 Z M259.762,1057.01197 C259.259,1057.08197 258.896,1057.38496 258.615,1057.66596 L241.145,1075.14885 C240.651,1075.64384 240.357,1076.02584 240.187,1076.41284 C240.017,1076.79883 240,1077.16283 240,1077.49883 L240,1080.49881 C240,1081.08181 240.177,1081.5488 240.534,1081.7888 C240.892,1082.0288 241.25,1081.9988 241.5,1081.9988 L244.5,1081.9988 C245.14,1081.9988 245.605,1081.8718 245.97,1081.6428 C246.336,1081.4128 246.564,1081.13081 246.842,1080.85281 L264.312,1063.36792 C264.834,1062.84493 265.065,1062.28493 264.982,1061.77793 C264.902,1061.27194 264.582,1060.93194 264.312,1060.66194 L261.318,1057.66496 C260.818,1057.16497 260.264,1056.94197 259.762,1057.01097 L259.762,1057.01197 Z M259.898,1058.00196 C260.053,1057.97996 260.248,1058.00796 260.612,1058.37196 L263.607,1061.36994 C263.837,1061.59994 263.974,1061.80193 263.997,1061.93993 C264.019,1062.07993 264,1062.26993 263.607,1062.66293 L246.137,1080.14581 C245.825,1080.45581 245.635,1080.67281 245.44,1080.79581 C245.245,1080.91781 245.022,1080.99881 244.5,1080.99881 L241.5,1080.99881 C241.043,1080.99881 241,1080.83581 241,1080.49881 L241,1077.49883 C241,1077.19083 241.008,1077.02883 241.102,1076.81483 C241.196,1076.59984 241.402,1076.30484 241.85,1075.85684 L259.32,1058.37196 C259.54,1058.15396 259.743,1058.02196 259.898,1058.00196 Z" id="Shape"></path>
        </g>
    </g>
</svg>