<?xml version="1.0" encoding="UTF-8"?>
<svg width="30px" height="28px" viewBox="0 0 30 28" version="1.1" xmlns="http://www.w3.org/2000/svg" xmlns:xlink="http://www.w3.org/1999/xlink">
    <!-- Generator: Sketch 45.2 (43514) - http://www.bohemiancoding.com/sketch -->
    <title>thefactory/element/icons/icnthefactory/element/icons/icn-57</title>
    <desc>Created with Sketch.</desc>
    <defs></defs>
    <g id="Ressources" stroke="none" stroke-width="1" fill="none" fill-rule="evenodd">
        <g id="thefactory/element/icn/inc-artboard" transform="translate(-553.000000, -620.000000)" fill-rule="nonzero" fill="#000000">
            <path d="M573.5,630 L575.5,630 C575.777,630 576,630.223 576,630.5 C576,630.777 575.777,631 575.5,631 L573.5,631 C573.223,631 573,630.777 573,630.5 C573,630.223 573.223,630 573.5,630 Z M578.5,630 L580.5,630 C580.777,630 581,630.223 581,630.5 C581,630.777 580.777,631 580.5,631 L578.5,631 C578.223,631 578,630.777 578,630.5 C578,630.223 578.223,630 578.5,630 Z M561.5,642 L574.5,642 C574.777,642 575,642.223 575,642.5 C575,642.777 574.777,643 574.5,643 L561.5,643 C561.223,643 561,642.777 561,642.5 C561,642.223 561.223,642 561.5,642 Z M561.5,639 L574.5,639 C574.777,639 575,639.223 575,639.5 C575,639.777 574.777,640 574.5,640 L561.5,640 C561.223,640 561,639.777 561,639.5 C561,639.223 561.223,639 561.5,639 Z M556.5,636 L579.5,636 C579.777,636 580,636.223 580,636.5 C580,636.777 579.777,637 579.5,637 L556.5,637 C556.223,637 556,636.777 556,636.5 C556,636.223 556.223,636 556.5,636 Z M554.5,628 C553.678,628 553,628.678 553,629.5 L553,640.5 C553,641.322 553.678,642 554.5,642 L558,642 L558,646.5 C558,647.322 558.678,648 559.5,648 L576.5,648 C577.322,648 578,647.322 578,646.5 L578,642 L581.5,642 C582.322,642 583,641.322 583,640.5 L583,629.5 C583,628.678 582.322,628 581.5,628 L554.5,628 Z M554.5,629 L581.5,629 C581.786,629 582,629.214 582,629.5 L582,640.5 C582,640.786 581.786,641 581.5,641 L578,641 L578,638.5 C578,637.836 577,637.836 577,638.5 L577,641.42 C576.99,641.474 576.99,641.528 577,641.582 L577,646.5 C577,646.786 576.786,647 576.5,647 L559.5,647 C559.214,647 559,646.786 559,646.5 L559,641.58 C559.01,641.526 559.01,641.472 559,641.418 L559,638.5 C559.004,638.218 558.782,637.996 558.5,638 C558.224,638.004 557.996,638.224 558,638.5 L558,641 L554.5,641 C554.214,641 554,640.786 554,640.5 L554,629.5 C554,629.214 554.214,629 554.5,629 Z M559.5,620 C558.678,620 558,620.678 558,621.5 L558,625.5 C558,626.173 559,626.156 559,625.5 L559,621.5 C559,621.214 559.214,621 559.5,621 L576.5,621 C576.786,621 577,621.214 577,621.5 L577,625.5 C577,626.17 578,626.148 578,625.5 L578,621.5 C578,620.678 577.322,620 576.5,620 L559.5,620 Z" id="Shape"></path>
        </g>
    </g>
</svg>