<?xml version="1.0" encoding="UTF-8"?>
<svg width="30px" height="22px" viewBox="0 0 30 22" version="1.1" xmlns="http://www.w3.org/2000/svg" xmlns:xlink="http://www.w3.org/1999/xlink">
    <!-- Generator: Sketch 45.2 (43514) - http://www.bohemiancoding.com/sketch -->
    <title>thefactory/element/icons/icnthefactory/element/icons/icn-136</title>
    <desc>Created with Sketch.</desc>
    <defs></defs>
    <g id="Ressources" stroke="none" stroke-width="1" fill="none" fill-rule="evenodd">
        <g id="thefactory/element/icn/inc-artboard" transform="translate(-260.000000, -241.000000)" fill-rule="nonzero" fill="#000000">
            <path d="M262.5,245 L287.5,245 C287.777,245 288,245.223 288,245.5 C288,245.777 287.777,246 287.5,246 L262.5,246 C262.223,246 262,245.777 262,245.5 C262,245.223 262.223,245 262.5,245 Z M267,243.5 C267,243.776142 266.776142,244 266.5,244 C266.223858,244 266,243.776142 266,243.5 C266,243.223858 266.223858,243 266.5,243 C266.776142,243 267,243.223858 267,243.5 Z M265,243.5 C265,243.776142 264.776142,244 264.5,244 C264.223858,244 264,243.776142 264,243.5 C264,243.223858 264.223858,243 264.5,243 C264.776142,243 265,243.223858 265,243.5 Z M263,243.5 C263,243.776142 262.776142,244 262.5,244 C262.223858,244 262,243.776142 262,243.5 C262,243.223858 262.223858,243 262.5,243 C262.776142,243 263,243.223858 263,243.5 Z M261.5,241 C260.678,241 260,241.678 260,242.5 L260,261.5 C260,262.322 260.678,263 261.5,263 L288.5,263 C289.322,263 290,262.322 290,261.5 L290,242.5 C290,241.678 289.322,241 288.5,241 L261.5,241 Z M261.5,242 L288.5,242 C288.786,242 289,242.214 289,242.5 L289,261.5 C289,261.786 288.786,262 288.5,262 L261.5,262 C261.214,262 261,261.786 261,261.5 L261,242.5 C261,242.214 261.214,242 261.5,242 Z" id="Shape"></path>
        </g>
    </g>
</svg>