<?xml version="1.0" encoding="UTF-8"?>
<svg width="28px" height="30px" viewBox="0 0 28 30" version="1.1" xmlns="http://www.w3.org/2000/svg" xmlns:xlink="http://www.w3.org/1999/xlink">
    <!-- Generator: Sketch 45.2 (43514) - http://www.bohemiancoding.com/sketch -->
    <title>thefactory/element/icons/icnthefactory/element/icons/icn-139</title>
    <desc>Created with Sketch.</desc>
    <defs></defs>
    <g id="Ressources" stroke="none" stroke-width="1" fill="none" fill-rule="evenodd">
        <g id="thefactory/element/icn/inc-artboard" transform="translate(-849.000000, -990.000000)" fill-rule="nonzero" fill="#000000">
            <path d="M854.5,1002.99982 L871.5,1002.99982 C871.777,1002.99982 872,1003.22282 872,1003.49982 C872,1003.77681 871.777,1003.99981 871.5,1003.99981 L854.5,1003.99981 C854.223,1003.99981 854,1003.77681 854,1003.49982 C854,1003.22282 854.223,1002.99982 854.5,1002.99982 Z M854.5,998.999878 L871.5,998.999878 C871.777,998.999878 872,999.222875 872,999.499871 C872,999.776867 871.777,999.999864 871.5,999.999864 L854.5,999.999864 C854.223,999.999864 854,999.776867 854,999.499871 C854,999.222875 854.223,998.999878 854.5,998.999878 Z M854.5,994.999932 L871.5,994.999932 C871.777,994.999932 872,995.222929 872,995.499925 C872,995.776921 871.777,995.999918 871.5,995.999918 L854.5,995.999918 C854.223,995.999918 854,995.776921 854,995.499925 C854,995.222929 854.223,994.999932 854.5,994.999932 Z M850.514,990 C849.684,990 849,990.683991 849,991.513979 L849,1018.36661 C849,1018.88161 849.237,1019.3626 849.643,1019.6796 C850.048,1019.99659 850.673,1020.10959 851.24,1019.82959 L863,1014.05667 L874.773,1019.82959 C875.235,1020.05659 875.783,1020.06359 876.236,1019.80959 C876.69,1019.5526 877,1019.01461 877,1018.36661 L877,991.49998 C877,990.677991 876.322,990 875.5,990 L850.514,990 Z M850.514,990.999986 L875.5,990.999986 C875.8,990.999986 876,991.199984 876,991.49998 L876,1018.36661 C876,1018.73261 875.88,1018.85961 875.744,1018.93661 C875.607,1019.01461 875.4,1019.02361 875.214,1018.93161 L863.221,1013.05169 C863.082215,1012.98369 862.919785,1012.98369 862.781,1013.05169 L850.8,1018.92961 C850.545,1019.0546 850.41,1019.00661 850.26,1018.88961 C850.11,1018.77361 850,1018.54661 850,1018.36461 L850,991.513979 C850,991.219983 850.22,990.999986 850.514,990.999986 Z" id="Shape"></path>
        </g>
    </g>
</svg>