<?xml version="1.0" encoding="UTF-8"?>
<svg width="30px" height="30px" viewBox="0 0 30 30" version="1.1" xmlns="http://www.w3.org/2000/svg" xmlns:xlink="http://www.w3.org/1999/xlink">
    <!-- Generator: Sketch 45.2 (43514) - http://www.bohemiancoding.com/sketch -->
    <title>thefactory/element/icons/icnthefactory/element/icons/icn-47</title>
    <desc>Created with Sketch.</desc>
    <defs></defs>
    <g id="Ressources" stroke="none" stroke-width="1" fill="none" fill-rule="evenodd">
        <g id="thefactory/element/icn/inc-artboard" transform="translate(-185.000000, -696.000000)" fill-rule="nonzero" fill="#000000">
            <path d="M204.5,706 C204.777,706 205,706.223 205,706.5 L205,709.5 C205,709.777 204.777,710 204.5,710 C204.223,710 204,709.777 204,709.5 L204,706.5 C204,706.223 204.223,706 204.5,706 Z M195.5,706 C195.777,706 196,706.223 196,706.5 L196,709.5 C196,709.777 195.777,710 195.5,710 C195.223,710 195,709.777 195,709.5 L195,706.5 C195,706.223 195.223,706 195.5,706 Z M200,716 C197.896,716 195.814,716.756 194.202,718.104 C193.66,718.504 194.35,719.327 194.84,718.864 C196.268,717.67 198.137,717 200,717 C201.863,717 203.732,717.67 205.16,718.864 C205.638,719.314 206.336,718.5 205.798,718.104 C204.186,716.756 202.104,716 200,716 Z M200,696 C191.722,696 185,702.722 185,711 C185,719.278 191.722,726 200,726 C208.278,726 215,719.278 215,711 C215,702.722 208.278,696 200,696 Z M200,697 C207.738,697 214,703.262 214,711 C214,718.738 207.738,725 200,725 C192.262,725 186,718.738 186,711 C186,703.262 192.262,697 200,697 Z" id="Shape"></path>
        </g>
    </g>
</svg>