<?xml version="1.0" encoding="UTF-8"?>
<svg width="26px" height="30px" viewBox="0 0 26 30" version="1.1" xmlns="http://www.w3.org/2000/svg" xmlns:xlink="http://www.w3.org/1999/xlink">
    <!-- Generator: Sketch 45.2 (43514) - http://www.bohemiancoding.com/sketch -->
    <title>thefactory/element/icons/icnthefactory/element/icons/icn-145</title>
    <desc>Created with Sketch.</desc>
    <defs></defs>
    <g id="Ressources" stroke="none" stroke-width="1" fill="none" fill-rule="evenodd">
        <g id="thefactory/element/icn/inc-artboard" transform="translate(-707.000000, -165.000000)" fill-rule="nonzero" fill="#000000">
            <path d="M724.467785,165 C721.56782,165.15 719.14985,167.568 718.999852,170.47 C718.990914,170.613473 719.044159,170.753851 719.145996,170.855307 C719.247833,170.956762 719.388409,171.009478 719.531846,171 C722.43181,170.85 724.84978,168.434 724.999778,165.533 C725.008716,165.389527 724.955471,165.249149 724.853634,165.147693 C724.751797,165.046238 724.611221,164.993522 724.467785,165.003 L724.467785,165 Z M723.811793,166.188 C723.408798,167.982 721.981815,169.408 720.187837,169.812 C720.589832,168.018 722.017815,166.59 723.811793,166.188 Z M714.611906,172 C713.001926,172 711.08195,172.436 709.569968,173.938 C708.055987,175.438 707,177.954 707,182 C707,186.076 708.439982,189.29 710.076962,191.5 C710.894952,192.605 711.766941,193.476 712.550932,194.063 C713.336922,194.649 713.970914,195 714.613906,195 C716.209886,195 717.080876,194.722 717.786867,194.47 C718.491858,194.215 719.003852,194 720.196837,194 C721.390823,194 721.902816,194.215 722.606808,194.47 C723.313799,194.722 724.184788,195 725.780769,195 C726.758756,195 728.10374,194.392 729.490723,193.03 C730.880706,191.67 732.260689,189.542 732.98068,186.437 C733.018952,186.304338 732.999856,186.162008 732.927908,186.043673 C732.855961,185.925337 732.737552,185.841504 732.600684,185.812 C730.147715,185.232 728.318737,183.099 728.318737,180.5 C728.318737,178.316 729.595721,176.42 731.458699,175.53 C731.585819,175.464682 731.678971,175.349525 731.715162,175.21295 C731.751352,175.076376 731.727211,174.931108 731.648696,174.813 C730.075716,172.42 727.673745,172 725.779769,172 C724.199788,172 723.103802,172.275 722.259812,172.53 C721.412822,172.788 720.844829,173 720.196837,173 C719.546845,173 718.979852,172.788 718.134863,172.53 C717.289873,172.276 716.191887,172 714.612906,172 L714.611906,172 Z M714.611906,173 C716.079888,173 717.013877,173.225 717.816867,173.47 C718.620857,173.712 719.321848,174 720.196837,174 C721.070827,174 721.771818,173.712 722.576808,173.47 C723.379798,173.225 724.312787,173 725.779769,173 C727.422748,173 729.206726,173.34 730.53771,175.063 C728.642733,176.206 727.30175,178.156 727.30175,180.5 C727.30175,183.355 729.201726,185.726 731.806694,186.594 C731.104703,189.267 729.971717,191.157 728.792731,192.312 C727.545747,193.535 726.246763,194 725.779769,194 C724.295787,194 723.641795,193.778 722.955803,193.53 C722.270812,193.285 721.525821,193 720.195837,193 C718.865854,193 718.121863,193.285 717.435871,193.53 C716.75088,193.778 716.097888,194 714.612906,194 C714.472908,194 713.848916,193.77 713.152924,193.25 C712.459933,192.73 711.632943,191.967 710.869952,190.937 C709.344971,188.877 708.014987,185.847 708.014987,182 C708.014987,178.123 708.988975,175.893 710.26696,174.625 C711.544944,173.357 713.179924,173 714.612906,173 L714.611906,173 Z" id="Shape"></path>
        </g>
    </g>
</svg>