<?xml version="1.0" encoding="UTF-8"?>
<svg width="30px" height="30px" viewBox="0 0 30 30" version="1.1" xmlns="http://www.w3.org/2000/svg" xmlns:xlink="http://www.w3.org/1999/xlink">
    <!-- Generator: Sketch 45.2 (43514) - http://www.bohemiancoding.com/sketch -->
    <title>thefactory/element/icons/icnthefactory/element/icons/icn-12</title>
    <desc>Created with Sketch.</desc>
    <defs></defs>
    <g id="Ressources" stroke="none" stroke-width="1" fill="none" fill-rule="evenodd">
        <g id="thefactory/element/icn/inc-artboard" transform="translate(-549.000000, -847.000000)" fill-rule="nonzero" fill="#000000">
            <path d="M564,853 C562.45,853 561.186,853.786 560.334,854.78 C559.482,855.778 559,856.975 559,858 L559,860.5 C559,861.167 559.334,861.652 559.584,862.027 C559.834,862.402 560,862.667 560,863 L560,864 C560,864.61 559.938,865.174 559.252,865.566 L555.752,867.566 C554.952,868.023 554.48,868.466 554.234,868.982 C553.99,869.498 554,870.002 554,870.5 C554,871.17 555,871.16 555,870.5 C555,870 555.008,869.682 555.137,869.412 C555.265,869.142 555.543,868.837 556.247,868.434 L559.747,866.434 C560.813,865.826 561,864.734 561,864 L561,863 C561,862.333 560.666,861.848 560.416,861.473 C560.166,861.098 560,860.833 560,860.5 L560,858 C560,857.31 560.387,856.257 561.094,855.432 C561.8,854.606 562.784,854 564,854 C565.215,854 566.2,854.606 566.906,855.432 C567.613,856.257 568,857.312 568,858 L568,860.5 C568,860.833 567.834,861.098 567.584,861.473 C567.334,861.848 567,862.333 567,863 L567,864 C567,864.735 567.188,865.826 568.252,866.434 L571.752,868.434 C572.457,868.837 572.735,869.142 572.862,869.412 C572.992,869.682 573,869.999 573,870.5 C573,871.17 574,871.172 574,870.5 C574,870 574.01,869.498 573.766,868.982 C573.52,868.467 573.046,868.022 572.248,867.566 L568.748,865.566 C568.062,865.174 568,864.61 568,864 L568,863 C568,862.667 568.166,862.402 568.416,862.027 C568.666,861.652 569,861.167 569,860.5 L569,858 C569,856.974 568.518,855.777 567.666,854.78 C566.814,853.787 565.55,853 564,853 Z M564,847 C555.722,847 549,853.722 549,862 C549,870.278 555.722,877 564,877 C572.278,877 579,870.278 579,862 C579,853.722 572.278,847 564,847 Z M564,848 C571.738,848 578,854.262 578,862 C578,869.738 571.738,876 564,876 C556.262,876 550,869.738 550,862 C550,854.262 556.262,848 564,848 Z" id="Shape"></path>
        </g>
    </g>
</svg>