<?xml version="1.0" encoding="UTF-8"?>
<svg width="30px" height="22px" viewBox="0 0 30 22" version="1.1" xmlns="http://www.w3.org/2000/svg" xmlns:xlink="http://www.w3.org/1999/xlink">
    <!-- Generator: Sketch 45.2 (43514) - http://www.bohemiancoding.com/sketch -->
    <title>thefactory/element/icons/icnthefactory/element/icons/icn-89</title>
    <desc>Created with Sketch.</desc>
    <defs></defs>
    <g id="Ressources" stroke="none" stroke-width="1" fill="none" fill-rule="evenodd">
        <g id="thefactory/element/icn/inc-artboard" transform="translate(-469.000000, -468.000000)" fill-rule="nonzero" fill="#000000">
            <path d="M469.5,486 C469.224,486 469,486.224 469,486.5 C469,488.386 470.293,490 472,490 L496,490 C497.707,490 499,488.386 499,486.5 C499,486.224 498.776,486 498.5,486 L469.5,486 Z M470.168,487 L497.832,487 C497.62,488.135 496.914,489 496,489 L472,489 C471.086,489 470.38,488.135 470.168,487 Z M474.5,470 C473.678,470 473,470.678 473,471.5 L473,484.5 C473,484.776 473.224,485 473.5,485 L494.5,485 C494.776,485 495,484.776 495,484.5 L495,471.5 C495,470.678 494.322,470 493.5,470 L474.5,470 Z M474.5,471 L493.5,471 C493.786,471 494,471.214 494,471.5 L494,484 L474,484 L474,471.5 C474,471.214 474.214,471 474.5,471 Z M473.5,468 C472.124,468 471,469.124 471,470.5 L471,484.5 C470.99,485.176 472.01,485.176 472,484.5 L472,470.5 C472,469.66 472.66,469 473.5,469 L494.5,469 C495.34,469 496,469.66 496,470.5 L496,484.5 C495.99,485.176 497.01,485.176 497,484.5 L497,470.5 C497,469.124 495.876,468 494.5,468 L473.5,468 Z" id="Shape"></path>
        </g>
    </g>
</svg>