<svg width="1025" height="920" xmlns="http://www.w3.org/2000/svg"><defs><linearGradient x1="50%" y1="100%" x2="50%" y2="0%" id="a"><stop stop-color="gray" stop-opacity=".25" offset="0%"/><stop stop-color="gray" stop-opacity=".12" offset="54%"/><stop stop-color="gray" stop-opacity=".1" offset="100%"/></linearGradient><linearGradient x1="79820%" y1="58315%" x2="79820%" y2="45815%" id="b"><stop stop-color="gray" stop-opacity=".25" offset="0%"/><stop stop-color="gray" stop-opacity=".12" offset="54%"/><stop stop-color="gray" stop-opacity=".1" offset="100%"/></linearGradient><linearGradient x1="23836%" y1="42830%" x2="23836%" y2="11958%" id="c"><stop stop-color="gray" stop-opacity=".25" offset="0%"/><stop stop-color="gray" stop-opacity=".12" offset="54%"/><stop stop-color="gray" stop-opacity=".1" offset="100%"/></linearGradient><linearGradient x1="45908%" y1="42830%" x2="45908%" y2="11958%" id="d"><stop stop-color="gray" stop-opacity=".25" offset="0%"/><stop stop-color="gray" stop-opacity=".12" offset="54%"/><stop stop-color="gray" stop-opacity=".1" offset="100%"/></linearGradient><linearGradient x1="51808%" y1="51330%" x2="51808%" y2="20458%" id="e"><stop stop-color="gray" stop-opacity=".25" offset="0%"/><stop stop-color="gray" stop-opacity=".12" offset="54%"/><stop stop-color="gray" stop-opacity=".1" offset="100%"/></linearGradient><linearGradient x1="23272%" y1="41394%" x2="25072%" y2="41394%" id="f"><stop stop-color="gray" stop-opacity=".25" offset="0%"/><stop stop-color="gray" stop-opacity=".12" offset="54%"/><stop stop-color="gray" stop-opacity=".1" offset="100%"/></linearGradient><linearGradient x1="8687.367%" y1="38593%" x2="9923.084%" y2="7693%" id="g"><stop stop-color="gray" stop-opacity=".25" offset="0%"/><stop stop-color="gray" stop-opacity=".12" offset="54%"/><stop stop-color="gray" stop-opacity=".1" offset="100%"/></linearGradient><linearGradient x1="48950%" y1="75783%" x2="48950%" y2="55387%" id="h"><stop stop-color="gray" stop-opacity=".25" offset="0%"/><stop stop-color="gray" stop-opacity=".12" offset="54%"/><stop stop-color="gray" stop-opacity=".1" offset="100%"/></linearGradient><linearGradient x1="45884%" y1="82189%" x2="45884%" y2="61869%" id="i"><stop stop-color="gray" stop-opacity=".25" offset="0%"/><stop stop-color="gray" stop-opacity=".12" offset="54%"/><stop stop-color="gray" stop-opacity=".1" offset="100%"/></linearGradient><linearGradient x1="41951%" y1="80841%" x2="41951%" y2="60521%" id="j"><stop stop-color="gray" stop-opacity=".25" offset="0%"/><stop stop-color="gray" stop-opacity=".12" offset="54%"/><stop stop-color="gray" stop-opacity=".1" offset="100%"/></linearGradient><linearGradient x1="31506%" y1="71886%" x2="31506%" y2="51566%" id="k"><stop stop-color="gray" stop-opacity=".25" offset="0%"/><stop stop-color="gray" stop-opacity=".12" offset="54%"/><stop stop-color="gray" stop-opacity=".1" offset="100%"/></linearGradient></defs><g fill="none" fill-rule="evenodd"><g transform="translate(-1 199)" fill-rule="nonzero"><circle fill="url(#a)" cx="721.55" cy="430.76" r="105"/><circle fill="#F5F5F5" cx="721.55" cy="430.76" r="100"/><path d="M86.35.3C53.596-.835 25.528 23.523 22.04 56.11h-18A3.64 3.64 0 0 0 .4 59.75v6a3.64 3.64 0 0 0 3.64 3.64h18c3.54 33.19 32.532 57.74 65.851 55.763 33.319-1.978 59.204-29.787 58.792-63.162C146.27 28.616 119.707 1.455 86.35.3z" opacity=".5" transform="translate(638 368)" fill="url(#b)"/><path d="M723.54 372.04c-30.776-1.045-57.136 21.851-60.41 52.47h-17.42a2.92 2.92 0 0 0-2.92 2.92v6.68a2.92 2.92 0 0 0 2.92 2.92h17.42c3.356 31.192 30.627 54.245 61.942 52.36 31.316-1.885 55.626-28.041 55.216-59.411-.41-31.37-25.394-56.883-56.748-57.949v.01z" fill="#FFF"/><circle fill="#A1887F" cx="721.55" cy="430.76" r="41.25"/><path d="M742.8 410.76s11.77 18.28 8.41 32.5c-.01 0 13.44-22.34-8.41-32.5z" fill="#FFF" opacity=".2"/><circle fill="#FFF" opacity=".2" cx="747.8" cy="453.26" r="3.75"/><path fill="url(#c)" transform="rotate(-12.75 139.061 222.823)" d="M32.426 68.463h213.27v308.72H32.426z"/><path fill="url(#d)" transform="rotate(-12.75 354.36 174.11)" d="M247.725 19.75h213.27v308.72h-213.27z"/><path fill="#FFF" d="M5.185 99.627l203.81-45.754 66.443 295.97-203.81 45.754z"/><path fill="#F5F5F5" d="M218.64 50.382L421.484 4.483l66.652 294.563-202.842 45.899z"/><path fill="#E0E0E0" d="M210.548 92.724l21.818-4.937.658 2.907-21.818 4.937zm2.31 10.18l21.818-4.937.658 2.907-21.818 4.937zm2.302 10.191l21.818-4.937.658 2.907-21.818 4.937zm2.3 10.181l21.818-4.937.658 2.907-21.818 4.937zm2.31 10.179l21.818-4.937.658 2.907-21.818 4.937zm2.3 10.182l21.818-4.937.658 2.907-21.818 4.937zm2.309 10.179l21.818-4.937.658 2.907-21.818 4.937zm2.302 10.191l21.818-4.937.658 2.907-21.818 4.937zm2.309 10.179l21.82-4.937.657 2.907-21.818 4.937zm2.3 10.181l21.82-4.937.657 2.907-21.818 4.937zm2.311 10.18l21.818-4.937.658 2.907-21.818 4.937zm2.302 10.191l21.818-4.937.658 2.907-21.818 4.937zm2.3 10.182l21.818-4.938.658 2.907-21.818 4.937zm2.3 10.178l21.818-4.937.658 2.907-21.818 4.937zm2.3 10.182l21.818-4.937.658 2.907-21.818 4.937zm2.312 10.19l21.818-4.938.658 2.907-21.818 4.937zm2.3 10.18l21.818-4.937.658 2.907-21.818 4.937zm2.31 10.18l21.818-4.938.658 2.907-21.818 4.937zm2.3 10.181l21.818-4.937.658 2.907-21.818 4.937zm2.311 10.189l21.818-4.937.658 2.907-21.818 4.937zm2.3 10.181l21.818-4.937.658 2.907-21.818 4.937zm2.3 10.181l21.818-4.937.658 2.907-21.818 4.937zm2.31 10.179l21.818-4.937.658 2.907-21.818 4.937zm2.3 10.182l21.818-4.937.658 2.907-21.818 4.937z"/><path fill="#294ACE" opacity=".3" d="M48.136 122.474l121.8-27.56 4.594 20.296-121.801 27.56zm-9.198 53.648l162.394-36.746 1.148 5.072-162.395 36.746zm2.677 11.848l162.394-36.747 1.148 5.072L42.763 193.04zm2.689 11.845l162.394-36.746 1.148 5.072-162.395 36.746zm2.673 11.845l77.813-17.608 1.147 5.072-77.813 17.607zm2.684 11.832l89.654-20.286 1.147 5.072-89.653 20.286zm2.674 11.843l162.394-36.746 1.148 5.072-162.394 36.746zm2.687 11.847l162.395-36.746 1.147 5.072L56.17 252.254zm2.678 11.841l150.554-34.067 1.148 5.072-150.554 34.066zm2.676 11.832L222.77 234.11l1.148 5.072-162.394 36.746zm2.676 11.853l84.582-19.14 1.148 5.073L64.2 287.779zm222.981-36.228l89.653-20.286 1.148 5.072-89.654 20.286zm2.673 11.842L451.1 221.576l1.148 5.072-162.395 36.746zm2.687 11.838l162.394-36.747 1.148 5.072-162.394 36.746zm2.678 11.84l150.554-34.067 1.148 5.072-150.554 34.066zm2.676 11.842l162.394-36.746 1.148 5.072-162.394 36.746zm2.676 11.844l84.582-19.14 1.148 5.073-84.582 19.138zm-170.881-16.47l98.11-22.2 15.312 67.67-98.11 22.2zM244.694 63.783l98.11-22.2 15.312 67.67-98.11 22.2zm96.022 70.732l98.11-22.2 15.312 67.67-98.11 22.2z"/><rect fill="url(#e)" transform="rotate(-12.75 430.661 243.998)" x="324.026" y="89.638" width="213.27" height="308.72" rx="13.44"/><rect fill="#294ACE" transform="rotate(-12.75 429.689 244.602)" x="325.704" y="93.597" width="207.97" height="302.01" rx="13.44"/><path fill="#BDBDBD" d="M289.781 161.952l21.818-4.937.658 2.907-21.818 4.937zm2.31 10.179l21.818-4.937.658 2.907-21.818 4.937zm2.299 10.181l21.82-4.937.657 2.907-21.818 4.937zm2.313 10.189l21.818-4.937.658 2.907-21.818 4.937zm2.3 10.182l21.818-4.937.658 2.907-21.818 4.937zm2.309 10.179l21.818-4.937.658 2.907-21.818 4.937zm2.3 10.181l21.818-4.937.658 2.907-21.818 4.937zm2.3 10.179l21.818-4.937.658 2.907-21.818 4.937zm2.302 10.191l21.818-4.937.658 2.907-21.818 4.937zm2.3 10.182l21.818-4.937.658 2.907-21.818 4.937zm2.31 10.179l21.818-4.937.658 2.907-21.818 4.937zm2.3 10.181l21.818-4.937.658 2.907-21.818 4.937zm2.312 10.189l21.818-4.937.658 2.907-21.818 4.937zm2.3 10.182l21.818-4.937.658 2.907-21.818 4.937zm2.31 10.179l21.818-4.937.658 2.907-21.818 4.937zm2.3 10.181l21.818-4.937.658 2.907-21.818 4.937zm2.312 10.189l21.818-4.937.658 2.907-21.818 4.937zm2.3 10.182l21.818-4.937.658 2.907-21.818 4.937zm2.3 10.181l21.818-4.937.658 2.907-21.818 4.937zm2.309 10.179l21.818-4.937.658 2.907-21.818 4.937zm2.293 10.191l21.818-4.937.658 2.907-21.818 4.937zm2.309 10.179l21.818-4.937.658 2.907-21.818 4.937zm2.3 10.183l21.818-4.938.658 2.907-21.818 4.937zm2.31 10.178l21.818-4.937.658 2.907-21.818 4.937z"/><path fill="#69F0AE" d="M171.46 373.393l9.754-2.206 20.083 88.756-9.753 2.207z"/><path transform="rotate(-12.75 1588.472 -519.922)" d="M5.246 1.639h18v46h-18z" opacity=".5" fill="url(#f)"/><path fill="#69F0AE" d="M161.292 339.808l14.63-3.31 9.49 41.94-14.63 3.31z"/><path fill="#FFF" opacity=".3" d="M161.292 339.808l14.63-3.31 9.49 41.94-14.63 3.31z"/><path fill="#69F0AE" d="M193.278 460.729l5.852-1.324 1.324 5.852-5.852 1.324zM164.76 348.24l-3.9.88-1.95.44.44 1.95 3.75 16.58 1.95-.44-3.75-16.58 3.9-.88z"/><path fill="#FFF" opacity=".3" d="M164.76 348.24l-3.9.88-1.95.44.44 1.95 3.75 16.58 1.95-.44-3.75-16.58 3.9-.88z"/><g opacity=".5" fill="#47E6B1"><path d="M184.55 654.76h3v17h-3z"/><path d="M194.55 661.76v3h-17v-3z"/></g><g opacity=".5" fill="#47E6B1"><path d="M727.55 32.76h3v17h-3z"/><path d="M737.55 39.76v3h-17v-3z"/></g><g opacity=".5" fill="#47E6B1"><path d="M637.55 249.76h3v17h-3z"/><path d="M647.55 256.76v3h-17v-3z"/></g><g opacity=".5" fill="#47E6B1"><path d="M895.15 288.76h3v17h-3z"/><path d="M905.15 295.77v3h-17v-3z"/></g><path d="M359.24 653.11a3.67 3.67 0 0 1-2-4.44c.043-.133.07-.27.08-.41a1.84 1.84 0 0 0-3.31-1.22 1.77 1.77 0 0 0-.2.36 3.67 3.67 0 0 1-4.44 2 1.77 1.77 0 0 0-.41-.08 1.84 1.84 0 0 0-1.22 3.31c.112.08.233.148.36.2a3.67 3.67 0 0 1 2 4.44 1.77 1.77 0 0 0-.08.41 1.84 1.84 0 0 0 3.33 1.23 1.77 1.77 0 0 0 .2-.36 3.67 3.67 0 0 1 4.44-2c.133.043.27.07.41.08a1.84 1.84 0 0 0 1.22-3.31 1.77 1.77 0 0 0-.38-.21zm183 12a3.67 3.67 0 0 1-2-4.44c.043-.133.07-.27.08-.41a1.84 1.84 0 0 0-3.31-1.22 1.77 1.77 0 0 0-.2.36 3.67 3.67 0 0 1-4.44 2 1.77 1.77 0 0 0-.41-.08 1.84 1.84 0 0 0-1.22 3.31c.112.08.233.148.36.2a3.67 3.67 0 0 1 2 4.44 1.77 1.77 0 0 0-.08.41 1.84 1.84 0 0 0 3.33 1.23 1.77 1.77 0 0 0 .2-.36 3.67 3.67 0 0 1 4.44-2c.133.043.27.07.41.08a1.84 1.84 0 0 0 1.22-3.31 1.77 1.77 0 0 0-.38-.21zm219-431a3.67 3.67 0 0 1-2-4.44c.043-.133.07-.27.08-.41a1.84 1.84 0 0 0-3.31-1.22 1.77 1.77 0 0 0-.2.36 3.67 3.67 0 0 1-4.44 2 1.77 1.77 0 0 0-.41-.08 1.84 1.84 0 0 0-1.22 3.31c.112.08.233.148.36.2a3.67 3.67 0 0 1 2 4.44 1.77 1.77 0 0 0-.08.41 1.84 1.84 0 0 0 3.33 1.23 1.77 1.77 0 0 0 .2-.36 3.67 3.67 0 0 1 4.44-2c.133.043.27.07.41.08a1.84 1.84 0 0 0 1.22-3.31 1.77 1.77 0 0 0-.38-.21zm152 161a3.67 3.67 0 0 1-2-4.44c.043-.133.07-.27.08-.41a1.84 1.84 0 0 0-3.31-1.22 1.77 1.77 0 0 0-.2.36 3.67 3.67 0 0 1-4.44 2 1.77 1.77 0 0 0-.41-.08 1.84 1.84 0 0 0-1.22 3.31c.112.08.233.148.36.2a3.67 3.67 0 0 1 2 4.44 1.77 1.77 0 0 0-.08.41 1.84 1.84 0 0 0 3.33 1.23 1.77 1.77 0 0 0 .2-.36 3.67 3.67 0 0 1 4.44-2c.133.043.27.07.41.08a1.84 1.84 0 0 0 1.22-3.31 1.77 1.77 0 0 0-.38-.21z" fill="#4D8AF0" opacity=".5"/><circle fill="#F55F44" opacity=".5" cx="106.55" cy="599.76" r="6"/><circle fill="#4D8AF0" opacity=".5" cx="524.55" cy="50.76" r="6"/><circle fill="#47E6B1" opacity=".5" cx="499.55" cy="489.76" r="6"/><circle fill="#F55F44" opacity=".5" cx="845.55" cy="639.76" r="6"/><path d="M-20.814 84.083h286a6.28 6.28 0 0 1 6.28 6.28v152.94a6.29 6.29 0 0 1-6.29 6.29h-286a6.28 6.28 0 0 1-6.28-6.28V90.383a6.28 6.28 0 0 1 6.29-6.3z" transform="rotate(-73.39 517.036 -355.995)" opacity=".5" fill="url(#g)"/><rect fill="#FFF" transform="rotate(16.809 905.943 176.3)" x="825.204" y="30.566" width="161.478" height="291.467" rx="13.64"/><path d="M983.5 51.11a13.05 13.05 0 0 1-15.5 7l-53.29-16a13.05 13.05 0 0 1-9.15-14.32l-28.21-8.37a6.12 6.12 0 0 0-7.61 4.11l-75.47 252.82a6.12 6.12 0 0 0 4.11 7.61l134.84 40.23a6.12 6.12 0 0 0 7.61-4.11l75.44-252.82a6.12 6.12 0 0 0-4.11-7.61l-28.66-8.54z" fill="#E0E0E0"/><rect fill="#DBDBDB" transform="rotate(15.89 942.044 43.496)" x="924.104" y="42.376" width="35.88" height="2.24" rx="1.12"/><circle fill="#DBDBDB" transform="rotate(-74.11 966.645 50.297)" cx="966.645" cy="50.297" r="1.35"/><path fill="#FFF" d="M872.586 69.416l42.42 11.685-10.091 36.635-42.42-11.684z"/><path fill="#294ACE" opacity=".3" d="M857.97 122.433l42.42 11.685-10.09 36.635-42.42-11.684z"/><path fill="#FFF" d="M843.371 175.472l42.42 11.684-10.09 36.636-42.42-11.685z"/><path fill="#3AD29F" opacity=".3" d="M828.767 228.488l42.42 11.684-10.091 36.636-42.42-11.684z"/><path fill="#FFF" d="M923.216 92.7l55.918 15.403-1.062 3.856-55.918-15.402zm-3.188 11.569l55.918 15.402-1.062 3.856-55.918-15.402zm-11.152 40.485l55.918 15.402-1.062 3.856-55.918-15.402zm-3.188 11.576l55.918 15.403-1.062 3.856-55.918-15.402zm-11.152 40.487l55.918 15.402-1.062 3.856-55.918-15.402zm-3.188 11.567l55.918 15.402-1.062 3.856-55.918-15.402zm-11.152 40.495l55.918 15.402-1.062 3.856-55.918-15.402zm-3.188 11.568l55.918 15.402-1.062 3.856-55.918-15.402z"/><path transform="rotate(-52.76 760.191 59.72)" d="M-15.015 68.962h203.96v62.36h-203.96z" opacity=".5" fill="url(#h)"/><path fill="#E0E0E0" d="M422.713 522.463l47.201 35.88-121.775 160.2-47.201-35.88z"/><path fill="#4D8AF0" d="M427.718 530.335l33.365 25.362-25.362 33.365-33.365-25.362z"/><path fill="#4D8AF0" opacity=".5" d="M397.105 570.622l33.364 25.362-25.362 33.365-33.364-25.362z"/><path fill="#4D8AF0" opacity=".3" d="M366.475 610.904l33.365 25.362-25.363 33.365-33.364-25.363z"/><path transform="rotate(-71.1 561.11 159.69)" d="M-38.229 75.12h203.2v62.36h-203.2z" opacity=".5" fill="url(#i)"/><path fill="#F5F5F5" d="M354.227 509l56.094 19.206-64.936 189.662-56.093-19.206z"/><path fill="#FF5252" d="M361.438 514.89l39.65 13.576-13.575 39.65-39.65-13.575z"/><path fill="#FF5252" opacity=".5" d="M345.055 562.761l39.65 13.576-13.575 39.65-39.65-13.575z"/><path fill="#FF5252" opacity=".3" d="M328.66 610.64l39.65 13.575-13.575 39.65-39.65-13.574z"/><path transform="rotate(-82.8 475.298 197.023)" d="M-57.408 74.045h203.2v62.36h-203.2z" opacity=".5" fill="url(#j)"/><path fill="#F5F5F5" d="M313.91 510.15l58.822 7.43-25.126 198.89-58.822-7.43z"/><path fill="#69F0AE" d="M322.135 514.455l41.58 5.253-5.254 41.58-41.58-5.254z"/><path fill="#69F0AE" opacity=".5" d="M315.793 564.654l41.58 5.253-5.254 41.58-41.58-5.254z"/><path fill="#69F0AE" opacity=".3" d="M309.45 614.853l41.58 5.253-5.253 41.58-41.58-5.254z"/><path d="M.88.66h62.36v203.2H.88z" opacity=".5" transform="translate(284 515)" fill="url(#k)"/><path fill="#FFF" d="M286.92 517.02h59.29v200.47h-59.29z"/><path fill="#294ACE" d="M295.61 520.26h41.91v41.91h-41.91z"/><path fill="#294ACE" opacity=".5" d="M295.61 570.86h41.91v41.91h-41.91z"/><path fill="#294ACE" opacity=".3" d="M295.61 621.47h41.91v41.91h-41.91z"/></g><path d="M377.21 96c-9.766 0-18.31-3.052-25.635-9.155-7.324-6.104-10.986-14.038-10.986-23.804v-7.324c0-9.766 3.662-17.7 10.986-23.804 7.324-6.103 15.894-9.155 25.708-9.155 11.719 0 21.46 4.15 29.224 12.451l-14.649 10.986c-4.394-4.394-9.277-6.591-14.648-6.591-4.883 0-9.155 1.953-12.817 5.859-3.663 3.906-5.494 8.545-5.494 13.916s1.71 10.01 5.127 13.916c3.418 3.906 7.813 5.86 13.184 5.86 5.371 0 10.254-2.198 14.648-6.593l14.649 10.987C398.694 91.849 388.929 96 377.21 96zm45.337-64.453c9.277-5.86 20.02-8.79 32.226-8.79 8.79 0 15.747 2.442 20.874 7.325 5.127 4.883 7.69 12.207 7.69 21.973V96H462.83v-5.86c-5.957 3.907-11.328 5.86-16.113 5.86-9.766 0-17.09-2.075-21.973-6.226-4.883-4.15-7.324-9.887-7.324-17.212 0-6.835 2.307-12.939 6.921-18.31 4.615-5.371 12.073-8.057 22.376-8.057 4.736 0 10.107 1.465 16.113 4.395v-2.197c-.098-5.372-4.004-8.301-11.719-8.79-8.789 0-15.625 1.465-20.507 4.395l-8.057-12.451zm40.283 42.48v-8.276c-1.953-3.76-6.592-5.64-13.916-5.64-8.789.977-13.428 4.395-13.916 10.254.488 5.81 5.127 8.96 13.916 9.448 7.324 0 11.963-1.928 13.916-5.786zm57.715-43.213c5.225-5.37 11.597-8.056 19.116-8.056 2.393 0 4.663.195 6.812.586l-3.223 20.215c-2.393-2.149-5.81-3.296-10.254-3.443-4.98.342-9.13 3.955-12.451 10.84V96h-20.508V24.882l20.508-2.197v8.13zm84.595 61.744C601.624 94.853 597.596 96 593.055 96c-8.301 0-14.893-2.32-19.776-6.958-4.883-4.639-7.324-10.62-7.324-17.944V39.384H554.97V22.83h10.986V2.982l20.58-2.197v22.046h10.986v16.553h-10.986v28.784c0 3.906.818 6.653 2.454 8.24 1.635 1.587 3.747 2.38 6.335 2.38.781 0 2.612-.317 5.493-.952l4.322 14.722zm13.842-61.011c9.278-5.86 20.02-8.79 32.227-8.79 8.79 0 15.747 2.442 20.874 7.325 5.127 4.883 7.69 12.207 7.69 21.973V96h-20.507v-5.86c-5.957 3.907-11.328 5.86-16.114 5.86-9.765 0-17.09-2.075-21.972-6.226-4.883-4.15-7.325-9.887-7.325-17.212 0-6.835 2.308-12.939 6.922-18.31 4.614-5.371 12.073-8.057 22.375-8.057 4.737 0 10.108 1.465 16.114 4.395v-2.197c-.098-5.372-4.004-8.301-11.72-8.79-8.788 0-15.624 1.465-20.507 4.395l-8.057-12.451zm40.284 42.48v-8.276c-1.954-3.76-6.592-5.64-13.916-5.64-8.79.977-13.428 4.395-13.916 10.254.488 5.81 5.127 8.96 13.916 9.448 7.324 0 11.962-1.928 13.916-5.786z" fill="#262B3A"/></g></svg>