<svg width="1460" height="76" xmlns="http://www.w3.org/2000/svg"><path d="M38.77 13.673c0-5.52-5.25-7.27-9.693-7.135v.539c2.692.27 4.711 1.346 4.711 3.096 0 1.212-.942 2.827-3.5 2.827-2.153 0-5.519-1.212-8.884-2.288-3.635-1.212-7-2.424-9.827-2.424-5.52 0-9.827 4.174-9.827 9.289 0 4.173 3.23 5.52 4.442 6.058l.135-.27c-.808-.538-1.346-1.211-1.346-2.961 0-1.48 1.077-3.5 3.904-3.5 2.557 0 5.923 1.211 10.5 2.423 3.903 1.077 8.077 2.154 10.365 2.423v9.02l-4.308 3.634 4.308 3.77v12.384c-2.288 1.346-4.846 1.75-7.135 1.75-4.173 0-7.942-1.212-11.038-4.577l11.711-5.654V22.288L9.02 28.75c1.481-3.77 4.308-6.596 7.404-8.48l-.135-.27C7.808 22.288 0 30.096 0 39.788c0 11.577 9.288 20.058 19.923 20.058 11.577 0 18.308-9.02 18.173-18.577h-.27c-1.75 3.635-4.441 7.135-7.672 9.02V38.172l4.577-3.635-4.577-3.634v-9.02c4.308-.134 8.615-2.96 8.615-8.21zm-24.097 31.77l-3.365 1.75c-2.02-2.693-3.366-6.328-3.366-11.174 0-2.019.27-4.711.943-6.596l5.923-2.692-.135 18.711zm53.712-15.885l-2.289 1.75-6.73-6.058-7.943 6.058V7.885l-10.77 7.403c1.212.404 2.693 1.077 2.693 3.904V51.77l-3.634 2.827.403.404L42 53.654l6.327 5.788 8.615-5.654-.404-.538-2.153 1.48-2.962-2.96V32.114l2.02-1.48 4.71 4.038V51.77c0 10.77-2.422 13.058-7.268 14.808v.27c8.077.403 15.346-2.424 15.346-16.29V31.982l2.423-2.02-.27-.403zm14.403 29.75l12.385-9.962-.404-.538-6.461 5.115-7.539-5.788V44.5l12.923-9.154-6.461-10.096-14.404 7.942v18.712L70 54.058l.404.404 2.692-2.154 9.692 7zM80.77 43.692V29.558l6.193 9.827-6.193 4.307zm65.827-32.711c0-.943-.27-1.616-.538-2.693h-.27c-.942 2.424-1.884 3.635-4.576 3.635-2.424 0-4.308-1.48-5.385-2.558 0 .135-8.212 9.423-8.212 9.423l.404.404 2.289-2.692c1.75 1.346 3.365 2.962 7.269 2.962v23.826L121.02 14.346c-1.346-2.154-3.5-5.384-7.404-5.384-4.442 0-7.942 3.903-7.403 10.365h.269c.404-1.615 1.346-3.635 3.23-3.635 1.616 0 2.827 1.481 3.635 2.827v9.289c-5.115 0-8.077 2.423-8.077 6.461 0 1.75 1.212 5.385 4.712 5.923v-.269c-.539-.538-.943-.942-.943-1.885 0-1.615 1.212-2.423 3.231-2.423.404 0 .808.135 1.077.135v12.115c-6.058.135-10.77 3.366-10.77 9.154 0 5.385 4.712 7.943 9.559 7.673v-.269c-3.097-.404-4.577-1.885-4.577-4.173 0-2.423 1.75-3.77 4.038-3.77 2.289 0 3.904 1.482 5.385 3.097l8.211-9.154-.404-.404-2.153 2.423c-3.097-2.827-5.116-4.038-8.75-4.577V19.327l23.019 40.115h1.211v-39.98c4.577-.27 8.481-3.5 8.481-8.481zm7.808 48.327l12.384-9.962-.403-.538-6.462 5.115L152.385 48v-3.635l12.923-9.153-6.462-10.097-14.404 7.943v18.711l-2.827 2.154.404.404 2.693-2.154 9.692 7.135zm-1.885-15.616V29.558l6.193 9.827-6.193 4.307zm58.423-15.211l-1.884 1.48-5.385-4.576-6.327 5.653 2.558 2.424V54.73l-6.462-4.443v-17.23l2.289-1.616-6.596-6.192-6.193 5.654 2.558 2.423v20.596l-.404.27-6.058-4.443V32.923c0-3.904-2.019-5.115-4.442-6.596-2.154-1.346-3.23-2.558-3.23-4.442 0-2.154 1.884-3.097 2.557-3.366-2.154-.134-8.211 2.154-8.346 7.673-.135 2.827 1.346 4.039 2.692 5.385 1.481 1.346 2.827 2.692 2.827 4.98v16.558l-2.961 2.289.403.404 2.827-2.154 7.27 5.923 7-4.846 7.673 4.846 14.942-8.885v-19.25l3.365-2.557-.673-.404zm50.077-16.154l-2.827 2.558-6.327-5.52-8.615 7V9.904h-.538v46.711c-.943-.134-2.962-.673-5.116-1.077V16.5c0-2.827-2.02-6.73-7.134-6.73-5.25 0-8.347 4.307-8.347 8.076h.27c.269-1.75 1.48-3.23 3.096-3.23 1.75 0 3.23 1.076 3.23 4.846v11.173c-4.846.269-7.807 3.23-7.807 6.461 0 1.885 1.211 5.25 4.846 5.385v-.27c-1.212-.538-1.48-1.211-1.48-1.884 0-1.615 1.615-2.154 3.768-2.154h.539v17.904c-4.173 1.48-6.058 4.173-6.058 7.673 0 4.712 3.77 8.48 9.423 8.48 3.904 0 6.731-.672 10.366-1.48 2.961-.673 6.057-1.346 7.807-1.346 2.154 0 3.097.942 3.097 2.558 0 2.019-.808 2.961-1.885 3.365v.27c4.711-.943 7.404-3.635 7.404-7.809 0-4.307-4.173-7-8.75-7-2.423 0-6.731.808-10.231 1.616-3.904.942-7.404 1.346-8.615 1.346-2.02 0-4.443-.942-4.443-3.5 0-2.423 2.02-4.308 6.866-4.308 2.692 0 5.25.404 8.48 1.212 3.5.808 5.789 1.75 8.885 1.75 4.173 0 7.539-1.48 7.539-7.539V15.558l3.096-2.827-.539-.404zm-11.711 18.711c-.808.808-1.616 1.481-3.096 1.481-1.616 0-2.424-.807-3.097-1.48v-14l2.02-1.616 4.173 3.5v12.115zm0 6.731c-.673-.673-1.616-1.346-3.096-1.346-1.481 0-2.558.808-3.097 1.346v-5.923c.673.539 1.616 1.346 3.097 1.346 1.48 0 2.423-.673 3.096-1.346v5.923zm0 14c0 2.289-1.212 4.846-4.173 4.846-.539 0-1.616-.134-2.02-.134V38.442c.673-.673 1.616-1.48 3.097-1.48 1.48 0 2.288.673 3.096 1.48V51.77zm24.23 7.539l13.866-8.616V31.846l-9.02-6.596-13.865 7.942v18.712l-2.692 2.154.27.404 2.288-1.885 9.153 6.73zm-.942-9.693V29.423l7 5.115v20.058l-7-4.98zm41.327-23.961c-1.077.808-2.02 1.211-3.096 1.211-1.077 0-2.423-.673-3.096-1.615 0 .135-5.116 5.52-5.116 5.52l-5.115-5.52-8.48 5.788.268.539 2.289-1.48 3.096 3.365v18.307l-3.635 2.827.404.404 1.885-1.346 6.865 5.788 8.75-5.788-.269-.404-2.288 1.346-3.5-3.23V31.307c1.48 1.615 3.096 2.961 4.98 2.961 3.231 0 5.654-4.173 6.058-8.615zm32.846 27.058l-2.557 1.615-14.404-21.404.807-1.077c1.616.942 2.962 2.289 5.923 2.289 2.962 0 6.731-3.097 7.135-8.885-.808 1.077-2.288 2.288-4.711 2.288-1.75 0-3.5-1.211-4.577-2.288l-9.827 14.404 12.923 19.788 9.423-6.192-.135-.538zm-17.5.538l-2.154 1.48-2.961-2.96V7.884l-10.77 7.403c1.212.404 2.693 1.077 2.693 3.904V51.77l-3.635 2.827.404.404 1.885-1.346 6.327 5.788 8.615-5.654-.404-.538zm63.135-39.577c0-5.52-5.25-7.27-9.692-7.135v.539c2.692.27 4.711 1.346 4.711 3.096 0 1.212-.942 2.827-3.5 2.827-2.154 0-5.52-1.212-8.885-2.288-3.634-1.212-7-2.424-9.826-2.424-5.52 0-9.827 4.174-9.827 9.289 0 4.173 3.23 5.52 4.442 6.058l.135-.27c-.808-.538-1.347-1.211-1.347-2.961 0-1.48 1.077-3.5 3.904-3.5 2.558 0 5.923 1.211 10.5 2.423 3.904 1.077 8.077 2.154 10.366 2.423v9.02l-4.308 3.634 4.308 3.77v12.384c-2.289 1.346-4.847 1.75-7.135 1.75-4.173 0-7.942-1.212-11.038-4.577l11.711-5.654V22.288l-14.404 6.327c1.481-3.769 4.308-6.596 7.404-8.48l-.135-.27c-8.48 2.289-16.288 10.097-16.288 19.789 0 11.577 9.288 20.058 19.923 20.058 11.577 0 18.308-9.02 18.173-18.577h-.27c-1.75 3.634-4.441 7.134-7.672 9.019V38.038l4.577-3.634-4.577-3.635V21.75c4.442 0 8.75-2.827 8.75-8.077zm-24.23 31.77l-3.366 1.75c-2.02-2.693-3.366-6.328-3.366-11.174 0-2.019.27-4.711.943-6.596l5.923-2.692-.135 18.711zm32.98-33.924L395.23 16.5l5.115 5.788 5.923-4.98-5.115-5.789zm9.154 41.731l-2.154 1.48-2.962-2.96V31.98l2.558-2.018-.404-.404-2.154 1.615-4.98-5.923L392 30.904l.27.538 2.018-1.346 2.693 3.366v18.307l-3.635 2.827.404.404 1.885-1.346 6.327 5.788 8.615-5.654-.27-.538zm45.769-.27l-2.02 1.347-3.23-3.096V31.98l2.558-2.02-.404-.403-2.289 1.75-6.73-6.058-7.674 5.923-6.73-5.923-7.539 5.923-5.115-5.923-8.212 5.654.27.538 2.019-1.346 2.961 3.366v18.173l-2.288 2.288 6.461 5.52 6.327-5.655-2.557-2.423V31.846l1.75-1.211 4.711 4.038v16.962l-2.154 2.288 6.596 5.52 6.193-5.655-2.558-2.423V31.846l1.615-1.346 4.712 4.173v16.692l-1.885 2.02 6.597 6.057 8.75-5.923-.135-.538zm23.827-4.038l-6.462 5.116-7.538-5.923V44.5l12.923-9.154-6.462-10.096-14.403 7.942v19.116l9.826 7.134 12.385-9.961-.27-.539zm-14-5.25V29.558l6.192 9.827-6.192 4.307zM504.808 41l-5.52-4.173c3.635-3.23 4.981-7.27 4.981-10.23 0-.405-.134-1.212-.134-1.885h-.27c-.538 1.48-2.019 2.826-4.173 2.826s-3.5-1.211-4.846-2.692l-12.654 7v10.23l4.846 3.77c-4.846 4.308-5.788 7-5.788 9.423 0 2.558 1.48 4.577 3.904 5.52l.27-.404c-.674-.539-1.212-.943-1.212-2.154 0-.943.942-2.423 3.096-2.423 2.827 0 4.442 1.884 5.384 2.961 0-.134 12.116-7.404 12.116-7.404V41zm-2.827-8.346c-1.885 3.365-6.058 6.73-8.616 8.615l-3.096-2.557V28.75c1.212 2.692 3.77 4.98 7 4.98 2.02 0 3.231-.403 4.712-1.076zM496.73 55c-1.481-3.23-4.443-5.52-7.943-5.52-.807 0-3.365-.134-5.519 1.347 1.346-2.154 5.116-6.058 10.096-9.02l3.366 2.828V55zm370.462-20c0 19.33-15.67 35-35 35s-35-15.67-35-35 15.67-35 35-35 35 15.67 35 35zm-30.333 0h-9.917V24.5h9.917a5.25 5.25 0 0 1 0 10.5zm0-17.5h-16.917v35h7V42h9.917c6.765 0 12.25-5.485 12.25-12.25 0-6.766-5.485-12.25-12.25-12.25zm67.103 13.222c0-1.925-1.48-3.094-3.402-3.094h-5.155v6.152h5.155c1.922 0 3.402-1.168 3.402-3.058zm-13.436 15.945V23.333h10.72c4.983 0 7.697 3.368 7.697 7.389 0 3.986-2.748 7.353-7.698 7.353h-5.84v8.592h-4.88zm21.385 0V29.655h4.363v2.235c1.203-1.444 3.232-2.646 5.294-2.646v4.26c-.31-.068-.689-.102-1.203-.102-1.444 0-3.37.824-4.091 1.89v11.375h-4.363zm24.336-8.729c0-2.577-1.514-4.811-4.262-4.811-2.717 0-4.228 2.234-4.228 4.811 0 2.612 1.511 4.845 4.228 4.845 2.748 0 4.262-2.233 4.262-4.845m-13.026 0c0-4.708 3.3-8.694 8.764-8.694 5.498 0 8.797 3.986 8.797 8.694s-3.299 8.729-8.797 8.729c-5.465 0-8.764-4.021-8.764-8.729m32.246 2.955v-5.876c-.722-1.1-2.303-1.89-3.747-1.89-2.507 0-4.225 1.958-4.225 4.81 0 2.887 1.718 4.846 4.225 4.846 1.444 0 3.025-.79 3.747-1.89zm0 5.774v-2.544c-1.307 1.65-3.092 2.544-5.12 2.544-4.159 0-7.354-3.162-7.354-8.73 0-5.394 3.128-8.693 7.353-8.693 1.959 0 3.814.824 5.12 2.542v-8.453h4.4v23.334h-4.4zm19.942 0v-2.509c-1.133 1.237-3.126 2.509-5.84 2.509-3.643 0-5.361-1.994-5.361-5.224V29.656h4.362v10.069c0 2.302 1.203 3.058 3.058 3.058 1.685 0 3.025-.928 3.78-1.89V29.655h4.366v17.012h-4.365zm7.641-8.729c0-5.085 3.71-8.694 8.798-8.694 3.402 0 5.464 1.478 6.564 2.99l-2.854 2.68c-.79-1.169-1.993-1.787-3.503-1.787-2.648 0-4.503 1.925-4.503 4.811s1.855 4.845 4.503 4.845c1.51 0 2.714-.687 3.503-1.822l2.854 2.68c-1.1 1.513-3.162 3.026-6.564 3.026-5.087 0-8.798-3.608-8.798-8.729m19.114 4.158v-8.625h-2.748v-3.815h2.748V25.12h4.365v4.536h3.366v3.815h-3.366v7.457c0 1.064.549 1.855 1.511 1.855.652 0 1.273-.24 1.511-.515l.93 3.333c-.653.584-1.823 1.066-3.644 1.066-3.059 0-4.673-1.581-4.673-4.571m35.686 4.571v-10.07h-10.826v10.07h-4.877V23.333h4.877v9.003h10.826v-9.003h4.913v23.334zm20.53 0v-2.509c-1.134 1.237-3.126 2.509-5.84 2.509-3.643 0-5.362-1.994-5.362-5.224V29.656h4.363v10.069c0 2.302 1.203 3.058 3.058 3.058 1.684 0 3.025-.928 3.78-1.89V29.655h4.365v17.012h-4.365zm19.905 0V36.22c0-2.303-1.2-3.093-3.058-3.093-1.718 0-3.022.962-3.78 1.925v11.615h-4.363V29.655h4.363v2.131c1.066-1.236 3.128-2.542 5.808-2.542 3.677 0 5.429 2.061 5.429 5.291v12.132h-4.399zm9.6-4.571v-8.625h-2.748v-3.815h2.748V25.12h4.365v4.536h3.366v3.815h-3.366v7.457c0 1.064.549 1.855 1.511 1.855.652 0 1.273-.24 1.514-.515l.926 3.333c-.652.584-1.822 1.066-3.643 1.066-3.058 0-4.673-1.581-4.673-4.571m113.03-14.996V12.75c-6.3 0-10.745 2.66-13.3 7.98v-7h-14.77v51.835h15.75v-25.34c0-9.765 2.065-13.09 11.935-13.09h.385V27.1zm258.51 16.45c0-19.075-11.165-30.8-27.475-30.8-6.965 0-13.72 2.87-18.9 8.015a26.708 26.708 0 0 0-6.16 9.52V-2.93h-15.575v22.365c-3.5-4.55-8.435-6.685-14.84-6.685-6.685 0-12.705 2.45-17.64 7.28-3.57 3.43-6.055 7.455-7.35 11.935a27.15 27.15 0 0 0-7.28-11.795c-5.145-4.865-11.55-7.455-19.005-7.455-6.965 0-13.755 2.87-18.9 8.015-2.765 2.765-4.865 6.02-6.195 9.59-4.48-11.41-13.51-17.57-25.55-17.57-5.425 0-10.255 1.47-14.525 4.375l-7.42 17.955c-2.835-14-12.915-22.33-26.635-22.33-6.965 0-13.72 2.87-18.9 8.015-5.075 5.04-7.84 11.62-7.84 18.76 0 7.245 2.59 13.72 7.525 18.97 5.25 5.53 11.55 8.19 19.355 8.19 5.845 0 10.92-1.435 15.155-4.235l4.9-11.9h-11.76c-2.275 1.995-4.76 2.87-7.805 2.87-6.58 0-10.5-2.87-11.83-8.295h33.67c1.015 4.97 3.325 9.555 6.965 13.37 5.25 5.53 11.515 8.19 19.32 8.19 11.725 0 21.14-6.475 25.41-17.43 1.26 3.395 3.22 6.475 5.81 9.205 5.25 5.53 11.55 8.225 19.39 8.225 7.735 0 14.245-2.765 19.495-8.015 3.185-3.185 5.39-6.825 6.58-10.99 1.4 4.9 4.13 9.205 8.155 12.81 4.62 4.13 10.15 6.195 16.555 6.195 6.3 0 11.025-1.68 15.645-6.195v5.04h15.085V49.08c1.26 3.43 3.22 6.615 5.88 9.415 5.25 5.53 11.55 8.19 19.355 8.19 11.445 0 19.95-5.425 24.885-16.135h-16.59c-2.275 1.995-4.76 2.87-7.805 2.87-6.58 0-10.5-2.87-11.83-8.295h38.64V43.55h.035zm-245.105-9.065c1.05-4.865 5.53-8.12 11.83-8.12 6.02 0 10.29 2.87 12.11 8.12h-23.94zm70.525 12.6c-2.485 3.325-5.81 5.04-9.905 5.04-7.245 0-12.18-4.865-12.18-12.67 0-7.035 4.935-12.18 11.725-12.18 4.935 0 8.47 1.89 10.57 5.425h14.28c-.595 2.205-.875 4.48-.875 6.86 0 2.59.35 5.11 1.015 7.525h-14.63zm40.635 5.635c-6.755 0-12.46-5.775-12.46-12.95 0-7.245 5.6-13.055 12.46-13.055 6.86 0 12.46 5.775 12.46 13.055 0 7.175-5.6 12.95-12.46 12.95zm54.145 0c-7.945 0-13.65-5.6-13.65-12.95 0-7.07 5.705-13.055 13.055-13.055 7.245 0 12.845 5.705 12.845 13.23.035 7.28-5.565 12.775-12.25 12.775zm40.705-18.235c1.05-4.865 5.53-8.12 11.83-8.12 6.02 0 10.29 2.87 12.11 8.12h-23.94zM651 0v23.333h-23.333V70h-23.334V23.333H581V0zm23.333 23.333H721V0h-46.667zm0 0v23.334H721V70h-70V23.333z" fill="#B8B8B8"/></svg>