<?xml version="1.0" encoding="iso-8859-1"?>
<!-- Generator: Adobe Illustrator 18.0.0, SVG Export Plug-In . SVG Version: 6.00 Build 0)  -->
<!DOCTYPE svg PUBLIC "-//W3C//DTD SVG 1.1//EN" "http://www.w3.org/Graphics/SVG/1.1/DTD/svg11.dtd">
<svg version="1.1" id="Capa_1" xmlns="http://www.w3.org/2000/svg" xmlns:xlink="http://www.w3.org/1999/xlink" x="0px" y="0px"
	 viewBox="0 0 185.944 185.944" style="enable-background:new 0 0 185.944 185.944;" xml:space="preserve">
<g>
	<g style="opacity:0.08;">
		<path d="M44.773,102.838l0.021,0.004c0.414,0.053,0.829,0.107,1.243,0.168C45.615,102.949,45.194,102.893,44.773,102.838z"/>
	</g>
	<g>
		<path style="fill-rule:evenodd;clip-rule:evenodd;fill:#E7B791;" d="M78.9,60.941c3.473,1.724,5.7,4.101,9.173,5.826
			c2.434-4.902,4.866-9.804,7.299-14.705c-3.473-1.725-6.947-3.448-10.419-5.173C82.519,51.792,80.688,54.946,78.9,60.941z"/>
		<path style="fill-rule:evenodd;clip-rule:evenodd;fill:#FFD8B8;" d="M62.615,91.755l7.097-20.754
			c2.757-4.779,5.758-8.934,10.735-13.914c3.012,2.412,5.807,5.366,9.543,6.771c1.673,2.526-0.375,10.624-3.922,15.412
			L73.041,97.621L62.615,91.755z"/>
		
			<ellipse transform="matrix(-0.4087 -0.9127 0.9127 -0.4087 68.1754 106.9541)" style="fill-rule:evenodd;clip-rule:evenodd;fill:#91613A;" cx="68.736" cy="31.391" rx="15.362" ry="15.517"/>
		<path style="fill-rule:evenodd;clip-rule:evenodd;fill:#FFFFFF;" d="M73.751,42.244c0.019,0.046,0.032,0.096,0.042,0.143
			c0.125-0.018,0.256-0.008,0.383,0.037c0.428,0.148,0.656,0.613,0.509,1.042c-0.017,0.048-0.037,0.094-0.062,0.136
			c0.108,0.065,0.202,0.158,0.271,0.274c0.232,0.389,0.108,0.893-0.281,1.126c-0.044,0.025-0.088,0.048-0.135,0.064
			c0.04,0.12,0.053,0.252,0.032,0.385c-0.071,0.446-0.492,0.752-0.938,0.682c-0.05-0.008-0.099-0.021-0.144-0.036
			c-0.047,0.117-0.122,0.226-0.224,0.314c-0.342,0.296-0.86,0.261-1.157-0.081c-0.033-0.037-0.062-0.079-0.086-0.121
			c-0.112,0.06-0.239,0.095-0.374,0.097c-0.452,0.008-0.826-0.353-0.834-0.805c-0.001-0.051,0.004-0.101,0.011-0.149
			c-0.124-0.025-0.243-0.08-0.348-0.166c-0.351-0.285-0.406-0.801-0.122-1.153c0.032-0.04,0.067-0.075,0.104-0.107
			c-0.078-0.099-0.135-0.217-0.16-0.35c-0.087-0.444,0.204-0.876,0.649-0.962c0.048-0.01,0.099-0.015,0.146-0.015
			c0.005-0.128,0.037-0.255,0.103-0.373c0.221-0.396,0.719-0.538,1.116-0.319c0.044,0.024,0.085,0.052,0.122,0.084
			c0.084-0.095,0.191-0.171,0.318-0.219C73.116,41.61,73.589,41.821,73.751,42.244z"/>
		<path style="fill-rule:evenodd;clip-rule:evenodd;fill:#FFFFFF;" d="M73.786,36.609c0.018,0.048,0.031,0.095,0.04,0.144
			c0.125-0.019,0.256-0.008,0.384,0.036c0.429,0.148,0.656,0.614,0.509,1.042c-0.017,0.049-0.038,0.094-0.062,0.136
			c0.108,0.067,0.202,0.159,0.271,0.275c0.234,0.388,0.108,0.892-0.28,1.125c-0.044,0.026-0.088,0.048-0.133,0.065
			c0.04,0.12,0.053,0.251,0.03,0.385c-0.071,0.446-0.491,0.752-0.938,0.682c-0.05-0.009-0.098-0.02-0.145-0.037
			c-0.046,0.117-0.121,0.226-0.223,0.314c-0.342,0.297-0.86,0.262-1.157-0.08c-0.033-0.039-0.062-0.079-0.087-0.121
			c-0.11,0.061-0.237,0.095-0.374,0.097c-0.453,0.009-0.827-0.353-0.834-0.806c0-0.051,0.004-0.1,0.011-0.148
			c-0.122-0.026-0.243-0.08-0.348-0.164c-0.351-0.286-0.406-0.802-0.121-1.155c0.031-0.039,0.067-0.074,0.104-0.106
			c-0.078-0.099-0.135-0.219-0.16-0.351c-0.086-0.444,0.203-0.876,0.649-0.962c0.049-0.01,0.099-0.015,0.148-0.015
			c0.003-0.126,0.038-0.253,0.102-0.372c0.22-0.396,0.718-0.539,1.115-0.319c0.045,0.024,0.086,0.052,0.123,0.083
			c0.085-0.094,0.192-0.17,0.317-0.218C73.149,35.975,73.624,36.186,73.786,36.609z"/>
		<path style="fill-rule:evenodd;clip-rule:evenodd;fill:#FFFFFF;" d="M75.457,31.264c0.018,0.048,0.032,0.097,0.041,0.144
			c0.124-0.018,0.255-0.007,0.384,0.037c0.429,0.146,0.655,0.614,0.508,1.042c-0.017,0.048-0.036,0.093-0.061,0.136
			c0.107,0.066,0.201,0.158,0.271,0.275c0.232,0.389,0.107,0.892-0.281,1.125c-0.044,0.025-0.088,0.047-0.135,0.064
			c0.04,0.121,0.052,0.252,0.03,0.386c-0.071,0.446-0.49,0.752-0.938,0.681c-0.05-0.008-0.098-0.021-0.144-0.036
			c-0.047,0.118-0.121,0.227-0.224,0.314c-0.342,0.297-0.86,0.261-1.157-0.081c-0.033-0.037-0.063-0.078-0.088-0.12
			c-0.111,0.06-0.238,0.095-0.372,0.097c-0.453,0.009-0.827-0.353-0.835-0.806c-0.001-0.051,0.003-0.1,0.012-0.147
			c-0.124-0.026-0.243-0.082-0.349-0.166c-0.353-0.286-0.406-0.802-0.122-1.154c0.032-0.039,0.068-0.075,0.104-0.106
			c-0.078-0.099-0.136-0.218-0.161-0.351c-0.087-0.445,0.204-0.876,0.648-0.962c0.05-0.009,0.1-0.015,0.15-0.015
			c0.002-0.127,0.037-0.255,0.101-0.373c0.22-0.395,0.719-0.539,1.115-0.319c0.044,0.025,0.085,0.053,0.123,0.084
			c0.083-0.095,0.191-0.171,0.317-0.219C74.82,30.63,75.294,30.842,75.457,31.264z"/>
		<path style="fill-rule:evenodd;clip-rule:evenodd;fill:#FFFFFF;" d="M79.62,26.082c0.049-0.009,0.098-0.023,0.144-0.04
			c0.051,0.114,0.129,0.221,0.234,0.306c0.352,0.284,0.869,0.23,1.154-0.122c0.032-0.039,0.059-0.081,0.083-0.123
			c0.113,0.057,0.242,0.087,0.376,0.084c0.454-0.008,0.815-0.381,0.806-0.834c-0.002-0.051-0.006-0.1-0.016-0.148
			c0.123-0.029,0.241-0.089,0.342-0.178c0.341-0.297,0.378-0.815,0.081-1.156c-0.033-0.039-0.068-0.073-0.107-0.104
			c0.075-0.102,0.127-0.223,0.149-0.356c0.07-0.448-0.235-0.869-0.683-0.939c-0.05-0.008-0.099-0.011-0.148-0.01
			c-0.008-0.126-0.046-0.252-0.115-0.369c-0.234-0.388-0.737-0.513-1.125-0.279c-0.044,0.026-0.084,0.055-0.121,0.088
			c-0.087-0.092-0.197-0.164-0.325-0.208c-0.428-0.147-0.895,0.081-1.044,0.508c-0.015,0.049-0.027,0.097-0.034,0.146
			c-0.127-0.014-0.257,0.001-0.383,0.049c-0.422,0.162-0.634,0.637-0.472,1.061c0.018,0.047,0.041,0.092,0.064,0.133
			c-0.104,0.071-0.195,0.166-0.26,0.285c-0.22,0.395-0.077,0.895,0.319,1.114c0.044,0.025,0.091,0.045,0.136,0.06
			c-0.036,0.123-0.043,0.254-0.017,0.386C78.746,25.88,79.176,26.169,79.62,26.082z"/>
		<path style="fill-rule:evenodd;clip-rule:evenodd;fill:#FFFFFF;" d="M75.973,30.333c0.05-0.01,0.098-0.023,0.143-0.043
			c0.05,0.116,0.13,0.221,0.235,0.308c0.352,0.285,0.868,0.229,1.153-0.122c0.032-0.039,0.059-0.08,0.083-0.123
			c0.113,0.056,0.242,0.086,0.376,0.084c0.453-0.009,0.814-0.383,0.806-0.835c-0.001-0.05-0.006-0.1-0.017-0.148
			c0.123-0.03,0.242-0.089,0.343-0.177c0.341-0.298,0.377-0.816,0.081-1.156c-0.034-0.039-0.07-0.073-0.107-0.104
			c0.075-0.103,0.127-0.223,0.148-0.356c0.07-0.448-0.234-0.869-0.682-0.939c-0.051-0.008-0.1-0.012-0.148-0.011
			c-0.009-0.125-0.046-0.252-0.116-0.366c-0.233-0.39-0.738-0.516-1.126-0.282c-0.044,0.026-0.084,0.056-0.12,0.089
			c-0.087-0.092-0.198-0.164-0.325-0.207c-0.428-0.148-0.895,0.079-1.042,0.507c-0.017,0.048-0.028,0.097-0.036,0.145
			c-0.126-0.014-0.257,0.002-0.383,0.051c-0.422,0.163-0.633,0.636-0.471,1.06c0.017,0.047,0.04,0.092,0.065,0.134
			c-0.105,0.069-0.195,0.166-0.26,0.284c-0.22,0.395-0.077,0.894,0.319,1.114c0.044,0.024,0.09,0.044,0.136,0.06
			c-0.036,0.121-0.043,0.253-0.018,0.386C75.098,30.129,75.529,30.418,75.973,30.333z"/>
		
			<ellipse transform="matrix(-0.4087 -0.9127 0.9127 -0.4087 94.7834 140.9357)" style="fill-rule:evenodd;clip-rule:evenodd;fill:#FFD8B8;" cx="93.048" cy="39.763" rx="19.555" ry="20.202"/>
		<path style="fill-rule:evenodd;clip-rule:evenodd;fill:#E7B791;" d="M113.122,38.276c0.507-0.549,1.016,1.294,0.515,2.438
			c0.253,1.04,0.047,1.704-0.303,1.94C112.301,43.351,110.543,41.659,113.122,38.276z"/>
		<path style="fill-rule:evenodd;clip-rule:evenodd;fill:#FCF7F9;" d="M69.711,71.001c1.236,0.725,14.902-2.127,19.094,2.855
			c-0.635,1.915-1.553,3.814-2.738,5.414l-11.994,17.44l-3.986-1.33l-7.479-2.288L69.711,71.001z"/>
		<path style="fill-rule:evenodd;clip-rule:evenodd;fill:#91613A;" d="M101.18,21.595c-5.429,1.679-12.992,23.434-11.808,37.586
			c-6.343-1.011-12.003-4.998-14.762-11.161c-4.415-9.857,0.262-21.544,10.446-26.104C90.415,19.518,96.229,19.57,101.18,21.595z"/>
		
			<ellipse transform="matrix(-0.6041 -0.7969 0.7969 -0.6041 108.1083 143.9854)" style="fill-rule:evenodd;clip-rule:evenodd;fill:#FFD8B8;" cx="89.817" cy="45.141" rx="5.761" ry="3.687"/>
		<path style="fill-rule:evenodd;clip-rule:evenodd;fill:#91613A;" d="M107.854,65.87c-16.355-19.885-12.596-40.061-6.485-44.375
			C90.748,23.657,86.396,45.357,107.854,65.87z"/>
		<path style="fill-rule:evenodd;clip-rule:evenodd;fill:#F9EDF2;" d="M73.214,16.955c-13.968,22.827-16.094,46.57-8.225,74.156
			c-18.359,5.118-31.24,4.571-45.342-3.797C22.46,61.265,42.583,6.326,73.214,16.955z"/>
		
			<ellipse transform="matrix(-0.0064 -1 1 -0.0064 -108.1882 255.9622)" style="fill-rule:evenodd;clip-rule:evenodd;fill:#FFFFFF;" cx="73.074" cy="181.731" rx="4.212" ry="8.387"/>
		<g>
			<path style="fill-rule:evenodd;clip-rule:evenodd;fill:#FFD8B8;" d="M84.438,66.789c3.868,11.663,12.199,27.646,22.739,38.729
				l-3.099,2.824c-11.198-9.014-23.656-25.313-27.674-33.935C71.606,64.109,80.535,55.023,84.438,66.789z"/>
			<path style="fill-rule:evenodd;clip-rule:evenodd;fill:#FFD8B8;" d="M113.336,105.793c-1.052-1.316-2-1.201-2.61-0.178
				c-1.3-2.133-3.893-2.658-4.916-1.838c-1.992,1.592-1.852,5.078,0.313,7.785c2.165,2.707,5.534,3.609,7.526,2.016
				C115.642,111.984,115.502,108.5,113.336,105.793z"/>
		</g>
		<g>
			<path style="fill-rule:evenodd;clip-rule:evenodd;fill:#FCF7F9;" d="M75.786,90.165c7.215,5.004,8.532,38.417,9.004,43.911
				c0.859,9.973,0.936,35.166,5.271,42.619c4.335,7.451-2.326,8.848-8.296,6.123c-5.617-2.563-9.38-3.512-13.125-2.586
				c-5.356,1.322-7.997,0.139-13.735-2.469c-5.341-2.43-9.039-3.848-17.016-4.65c-6.257-0.631-9.157-2.537-11.531-5.006
				c-3.423-3.563-5.808-3.758-11.724-4.875c-5.916-1.117-11.364-5.672-3.702-9.623c7.662-3.951,20.848-25.275,26.934-33.223
				c6.087-7.947,12.368-20.273,18.759-25.627c3.407-2.854,5.203-4.193,6.128-5.299L75.786,90.165z"/>
			<path style="fill-rule:evenodd;clip-rule:evenodd;fill:#FFE0E9;" d="M27.455,169.162c-0.382-0.34-0.744-0.691-1.095-1.057
				c-3.224-3.353-5.527-3.723-10.727-4.686c7.85-6.848,26.576-31.031,32.449-42.662C45.308,135.201,32.612,160.807,27.455,169.162z"
				/>
			<path style="fill-rule:evenodd;clip-rule:evenodd;fill:#FFE0E9;" d="M80.903,182.43c-5.146-2.268-8.712-3.076-12.261-2.199
				c-0.265,0.066-0.522,0.125-0.775,0.18c0.228-10.227,3.296-37.938,8.627-51.363C75.193,141.998,77.968,172.408,80.903,182.43z"/>
			<path style="fill-rule:evenodd;clip-rule:evenodd;fill:#FFE0E9;" d="M54.274,177.477c-4.327-1.947-7.688-3.211-13.457-4.016
				c7.79-13.365,19.166-41.432,21.558-48.857C60.393,132.166,54.878,162.039,54.274,177.477z"/>
		</g>
		<path style="fill-rule:evenodd;clip-rule:evenodd;fill:#91613A;" d="M152.511,26.675c-14.636-10.602-45.267,0.76-43.712-20.611
			c6.754,6.455,8.917,3.839,18.263,3.026C136.49,8.27,148.403,12.211,152.511,26.675z"/>
		<path style="fill-rule:evenodd;clip-rule:evenodd;fill:#91613A;" d="M153.195,27.599C140.526,14.708,108.432,20.814,113.522,0
			c5.586,7.489,8.154,5.269,17.505,6.024C140.459,6.784,151.551,12.653,153.195,27.599z"/>
		<g>
			<polygon style="fill-rule:evenodd;clip-rule:evenodd;fill:#323232;" points="146.59,144.176 145.54,123.967 145.13,111.103 
				144.674,97.527 161.165,96.58 159.266,141.992 			"/>
			<polygon style="fill-rule:evenodd;clip-rule:evenodd;fill:#323232;" points="144.986,106.816 145.192,106.81 145.13,111.105 
				145.13,111.103 			"/>
		</g>
		<path style="fill-rule:evenodd;clip-rule:evenodd;fill:#323232;" d="M149.422,178.947l-2.877-38.611l12.722,1.717l-0.891,36.711
			C155.392,178.824,152.407,178.887,149.422,178.947z"/>
		
			<ellipse transform="matrix(-0.2029 -0.9792 0.9792 -0.2029 3.481 362.3003)" style="fill-rule:evenodd;clip-rule:evenodd;fill:#1A1A1A;" cx="149.198" cy="179.733" rx="4.619" ry="9.197"/>
		
			<rect x="131.561" y="48.14" transform="matrix(-0.9732 0.2301 -0.2301 -0.9732 281.8711 69.0667)" style="fill-rule:evenodd;clip-rule:evenodd;fill:#FFFFFF;" width="10.696" height="5.655"/>
		<polygon style="fill-rule:evenodd;clip-rule:evenodd;fill:#1A1A1A;" points="139.288,99.824 162.72,91.73 164.663,96.363 
			140.941,104.557 		"/>
		<path style="fill-rule:evenodd;clip-rule:evenodd;fill:#FFFFFF;" d="M135.812,50.759c8.508,17.407,10.938,29.108,6.807,39.299
			l-4.888-9.223l-3.717-22.653l-2.896-6.867L135.812,50.759z"/>
		<g>
			<path style="fill-rule:evenodd;clip-rule:evenodd;fill:#212E36;" d="M130.464,53.185c0.243-0.818,0.681-3.69,1.143-3.149
				c0.634,0.744,2.262,5.669,2.196,6.645c-0.048,0.709-2.111-1.336-2.795-1.85C130.73,54.44,130.475,53.667,130.464,53.185z"/>
			<path style="fill-rule:evenodd;clip-rule:evenodd;fill:#405059;" d="M130.168,52.82l0.601-0.08
				c0.154-0.021,0.296,0.089,0.317,0.243l0.261,1.962c0.021,0.154-0.088,0.297-0.242,0.317l-0.601,0.08
				c-0.154,0.021-0.296-0.089-0.317-0.242l-0.261-1.963C129.905,52.983,130.014,52.841,130.168,52.82z"/>
		</g>
		<polygon style="fill-rule:evenodd;clip-rule:evenodd;fill:#323232;" points="164.02,94.82 143.042,48.729 135.992,53.056 
			134.872,85.935 140.333,102.881 		"/>
		<path style="fill-rule:evenodd;clip-rule:evenodd;fill:#1A1A1A;" d="M136.757,59.548c-3.902,12.897-12.57,30.661-23.801,43.112
			l3.48,3.008c12.013-10.207,25.195-28.437,29.348-38.004C150.745,56.237,140.693,46.538,136.757,59.548z"/>
		<path style="fill-rule:evenodd;clip-rule:evenodd;fill:#FFD8B8;" d="M108.887,101.816c-1.337,1.025-1.239,1.975-0.228,2.605
			c-2.159,1.258-2.735,3.84-1.937,4.879c1.554,2.023,5.041,1.953,7.79-0.158c2.75-2.109,3.719-5.461,2.166-7.484
			S111.637,99.705,108.887,101.816z"/>
		
			<ellipse transform="matrix(0.0504 -0.9987 0.9987 0.0504 99.1548 161.7862)" style="fill-rule:evenodd;clip-rule:evenodd;fill:#FFD8B8;" cx="134.652" cy="28.753" rx="21.443" ry="22.152"/>
		<path style="fill-rule:evenodd;clip-rule:evenodd;fill:#91613A;" d="M119.124,13.411c4.793,15.103,31.911,22.187,26.996,33.728
			c6.083-3.552,10.285-9.875,10.658-17.271c0.596-11.827-8.826-21.914-21.045-22.53C129.302,7.013,123.38,9.376,119.124,13.411z"/>
		
			<ellipse transform="matrix(0.2745 -0.9616 0.9616 0.2745 69.9362 158.6234)" style="fill-rule:evenodd;clip-rule:evenodd;fill:#FFD8B8;" cx="140.089" cy="32.964" rx="6.317" ry="4.043"/>
		<path style="fill-rule:evenodd;clip-rule:evenodd;fill:#91613A;" d="M115.058,18.115c4.721,1.668,9.091,3.688,14.243,8.204
			c5.663,4.965,19.977-15.92,11.084-18.41C131.491,5.422,120.823,4.455,115.058,18.115z"/>
		<path style="fill-rule:evenodd;clip-rule:evenodd;fill:#91613A;" d="M113.835,36.034c3.774-0.738,10.216-2.273,11.435-0.327
			c1.22,1.946,1.187,9.926,4.254,11.569c3.065,1.641,6.417-1.482,6.131-7.075c-0.286-5.593,0.234-8.696-2.718-11.187
			c-2.952-2.49,2.947-7.817,3.065-3.392c0.119,4.424,2.452,20.754-0.608,23.522c-1.781,1.61-8.178,1.13-12.323-1.217
			c-1.943-1.101-3.92-2.627-5.436-5.578c0.857,0.874,6.261,4.483,7.857,4.102c1.52-0.364-0.028-8.532-1.383-10.057
			c-1.354-1.525-9.089,0.771-9.785,0.785C113.628,37.193,113.393,36.12,113.835,36.034z"/>
		<path style="fill-rule:evenodd;clip-rule:evenodd;fill:#1A1A1A;" d="M178.78,115.336c-7.393,0.107-19.094-9.166-23.861-15.756
			l3.64-14.581C158.558,84.999,173.777,105.373,178.78,115.336z"/>
		<path style="fill-rule:evenodd;clip-rule:evenodd;fill:#323232;" d="M155.481,97.328l3.077-12.329c0,0,13.085,17.3,18.81,27.716
			C170.954,113.068,160.217,102.973,155.481,97.328z"/>
		<path style="fill-rule:evenodd;clip-rule:evenodd;fill:#666666;" d="M105.363,34.112c1.728,1.869,6.06-0.436,4.747-2.523
			C110.128,33.272,106.768,34.47,105.363,34.112z"/>
		<path style="fill-rule:evenodd;clip-rule:evenodd;fill:#666666;" d="M114.249,29.806c1.26,2.213,6.001,0.948,5.196-1.383
			C119.081,30.067,115.537,30.472,114.249,29.806z"/>
		<path style="fill-rule:evenodd;clip-rule:evenodd;fill:#E7B791;" d="M114.774,37.952c-0.684-0.301-0.415,1.592,0.501,2.44
			c0.183,1.056,0.637,1.582,1.053,1.658C117.553,42.277,118.49,40.024,114.774,37.952z"/>
	</g>
</g>
<g>
</g>
<g>
</g>
<g>
</g>
<g>
</g>
<g>
</g>
<g>
</g>
<g>
</g>
<g>
</g>
<g>
</g>
<g>
</g>
<g>
</g>
<g>
</g>
<g>
</g>
<g>
</g>
<g>
</g>
</svg>
