<?xml version="1.0" encoding="iso-8859-1"?>
<!-- Generator: Adobe Illustrator 16.0.0, SVG Export Plug-In . SVG Version: 6.00 Build 0)  -->
<!DOCTYPE svg PUBLIC "-//W3C//DTD SVG 1.1//EN" "http://www.w3.org/Graphics/SVG/1.1/DTD/svg11.dtd">
<svg version="1.1" id="Capa_1" xmlns="http://www.w3.org/2000/svg" xmlns:xlink="http://www.w3.org/1999/xlink" x="0px" y="0px"
	 width="218.38px" height="218.38px" viewBox="0 0 218.38 218.38" style="enable-background:new 0 0 218.38 218.38;"
	 xml:space="preserve">
<g>
	<g>
		<path d="M218.204,101.506c-0.354-1.561-1.266-2.927-2.521-3.873c1.013-1.197,1.577-2.711,1.577-4.354
			c0-1.145-0.285-2.218-0.839-3.232c-0.733-1.324-1.872-2.354-3.243-2.917c0.227-1.463-0.031-2.982-0.775-4.288
			c-0.548-1.004-1.339-1.848-2.288-2.426c-1.345-0.83-2.953-1.181-4.53-0.949c-0.127-1.566-0.807-3.056-1.946-4.179
			c-0.817-0.805-1.793-1.39-2.884-1.685c-1.445-0.412-2.996-0.334-4.356,0.227c-0.87-1.21-2.125-2.086-3.575-2.508
			c-1.081-0.319-2.252-0.335-3.338-0.092c-1.566,0.364-2.933,1.282-3.876,2.55c-2.041-1.701-5.147-2.102-7.578-0.751
			c-1.323,0.751-2.336,1.891-2.905,3.24c-1.456-0.221-2.996,0.056-4.282,0.772c-1.002,0.552-1.819,1.324-2.437,2.312
			c-0.865,1.382-1.187,2.975-0.954,4.525c-1.577,0.129-3.069,0.82-4.192,1.949c-0.786,0.812-1.377,1.809-1.683,2.879
			c-0.417,1.458-0.327,2.979,0.232,4.358c-1.208,0.868-2.089,2.123-2.495,3.562c-0.316,1.097-0.337,2.257-0.089,3.349
			c0.353,1.566,1.271,2.932,2.536,3.865c-1.013,1.205-1.587,2.734-1.577,4.327c-0.01,1.142,0.285,2.271,0.839,3.256
			c0.517,0.934,1.292,1.651,2.162,2.241c-3.354,2.289-9.244,7.151-12.735,10.537c-1.798,1.74-3.56,3.633-5.337,5.526
			c-0.301,0.327-0.601,0.644-0.907,0.97c1.213-4.271,0.712-8.453-1.582-12.266c0.944,0.264,1.957,0.464,3.043,0.464
			c2.626,0,6.413-1.044,9.556-6.049c4.836-7.699,0.976-13.958-8.369-23.503c-3.386-3.491-6.154-7.691-8.659-16.822
			c-0.021-0.097-0.1-0.145-0.132-0.227c-0.042-0.081-0.068-0.129-0.11-0.2c-0.189-0.248-0.427-0.453-0.743-0.532l0,0l0,0l0,0
			c-0.322-0.093-0.617,0-0.902,0.145c-0.084,0.042-0.132,0.077-0.2,0.119c-0.068,0.053-0.147,0.073-0.211,0.129
			c-0.717,0.799-17.603,19.915-15.62,35.29c0.659,5.075,3.291,9.178,7.831,12.189c1.07,0.717,2.779,1.149,4.451,1.149
			c2.689,0,4.819-1.055,6.186-2.911c4.862,5.695,4.478,12.551-1.018,19.443c-5.537,4.904-11.834,8.443-20.345,7.314
			c-2.073-0.285-3.977-0.96-5.743-1.856c1.442-1.197,2.773-2.51,3.845-4.087c3.575-5.247,4.683-12.081,3.037-18.789
			c-0.18-0.717-0.896-1.171-1.63-1.002c-0.728,0.18-1.17,0.907-0.991,1.646c1.461,5.959,0.49,12.028-2.652,16.632
			c-1.112,1.635-2.516,2.953-4.065,4.093c-1.545-1.14-2.954-2.458-4.066-4.093c-3.143-4.614-4.11-10.684-2.652-16.632
			c0.179-0.738-0.264-1.466-0.989-1.646c-0.728-0.169-1.45,0.285-1.629,1.002c-1.643,6.708-0.53,13.558,3.04,18.789
			c1.073,1.577,2.407,2.89,3.844,4.087c-1.772,0.896-3.673,1.571-5.746,1.856c-8.511,1.139-14.802-2.395-20.332-7.304
			c-5.513-6.871-5.906-13.764-1.031-19.459c1.371,1.856,3.499,2.911,6.188,2.911c1.68,0,3.38-0.433,4.451-1.15
			c4.541-3.016,7.182-7.103,7.833-12.189c1.983-15.391-14.902-34.491-15.62-35.29c-0.061-0.071-0.142-0.093-0.211-0.13
			c-0.071-0.061-0.118-0.103-0.2-0.118c-0.277-0.146-0.577-0.237-0.901-0.146l0,0l0,0l0,0c-0.319,0.079-0.557,0.285-0.747,0.538
			c-0.047,0.066-0.079,0.113-0.113,0.19c-0.042,0.087-0.113,0.134-0.134,0.232c-2.505,9.131-5.276,13.331-8.656,16.81
			c-9.342,9.558-13.202,15.817-8.375,23.506c3.138,5.015,6.921,6.049,9.553,6.049c1.094,0,2.104-0.2,3.045-0.464
			c-2.291,3.802-2.792,7.989-1.582,12.266c-0.303-0.332-0.606-0.644-0.91-0.976c-1.774-1.909-3.536-3.792-5.334-5.532
			c-3.488-3.375-9.384-8.242-12.738-10.53c0.87-0.58,1.64-1.292,2.154-2.226c0.566-1.008,0.859-2.136,0.849-3.256
			c0.005-1.592-0.569-3.132-1.579-4.337c1.26-0.938,2.178-2.305,2.534-3.865c0.258-1.097,0.227-2.257-0.087-3.349
			c-0.409-1.458-1.294-2.7-2.495-3.57c0.562-1.376,0.649-2.903,0.232-4.361c-0.309-1.065-0.892-2.069-1.685-2.879
			c-1.113-1.124-2.613-1.814-4.185-1.949c0.232-1.54-0.087-3.132-0.949-4.514c-0.617-0.994-1.437-1.761-2.426-2.312
			c-1.308-0.728-2.85-1.004-4.292-0.772c-0.572-1.36-1.582-2.5-2.911-3.251c-2.415-1.34-5.529-0.976-7.575,0.762
			c-0.941-1.258-2.307-2.175-3.868-2.55c-1.107-0.269-2.262-0.231-3.343,0.093c-1.456,0.411-2.71,1.297-3.578,2.502
			c-1.361-0.564-2.917-0.633-4.343-0.234c-1.097,0.319-2.067,0.886-2.879,1.69c-1.145,1.124-1.825,2.621-1.954,4.187
			c-1.562-0.237-3.18,0.108-4.525,0.949c-0.952,0.572-1.746,1.442-2.289,2.421c-0.741,1.305-1.01,2.813-0.778,4.292
			c-1.369,0.567-2.507,1.593-3.241,2.917c-0.556,1.004-0.838,2.088-0.838,3.233c0,1.637,0.567,3.153,1.577,4.358
			c-1.252,0.941-2.165,2.302-2.521,3.85c-0.259,1.107-0.232,2.27,0.076,3.343c0.409,1.458,1.295,2.71,2.495,3.586
			c-0.562,1.374-0.649,2.898-0.232,4.348c0.319,1.102,0.886,2.072,1.69,2.895c1.118,1.118,2.618,1.804,4.19,1.925
			c-0.227,1.551,0.098,3.175,0.944,4.525c0.601,0.975,1.416,1.745,2.42,2.314c1.303,0.728,2.84,1.002,4.292,0.77
			c0.572,1.361,1.587,2.5,2.911,3.244c2.386,1.318,5.529,0.985,7.575-0.744c0.936,1.255,2.292,2.168,3.878,2.537
			c0.485,0.11,0.989,0.168,1.49,0.168c0.622,0,1.242-0.09,1.846-0.264c1.458-0.411,2.705-1.292,3.575-2.488
			c1.371,0.559,2.932,0.643,4.348,0.231c1.097-0.312,2.102-0.896,2.89-1.688c1.139-1.128,1.819-2.615,1.949-4.182
			c1.566,0.237,3.174-0.11,4.529-0.954c0.968-0.602,1.762-1.456,2.297-2.41c0.425-0.775,0.641-1.593,0.749-2.437
			c2.404,1.688,6.296,4.83,9.598,7.778c-5.548-1.709-10.948-0.591-15.538,3.502c-0.557,0.506-0.599,1.354-0.103,1.914
			c0.493,0.548,1.35,0.58,1.906,0.105c5.854-5.247,13.07-4.831,20.316,1.197c0.076,0.068,0.169,0.042,0.248,0.095
			c0.253,0.274,0.509,0.517,0.762,0.791c2.333,2.51,4.778,5.078,7.42,7.446c0.15,0.179,0.264,0.363,0.427,0.559
			c0.103,0.116,0.27,0.116,0.398,0.185c5.028,4.292,10.85,7.578,18.28,7.578c1.139,0,2.326-0.085,3.546-0.243
			c2.853-0.379,5.493-1.328,7.836-2.71c2.344,1.382,4.983,2.336,7.842,2.71c1.224,0.158,2.399,0.243,3.544,0.243
			c7.425,0,13.252-3.286,18.282-7.578c0.127-0.079,0.296-0.068,0.396-0.185c0.164-0.189,0.274-0.375,0.428-0.559
			c2.642-2.368,5.083-4.937,7.42-7.446c0.253-0.285,0.506-0.527,0.765-0.791c0.079-0.053,0.174-0.026,0.247-0.095
			c7.246-6.022,14.46-6.429,20.313-1.197c0.564,0.501,1.419,0.448,1.914-0.105c0.496-0.564,0.443-1.414-0.11-1.914
			c-4.593-4.108-9.993-5.221-15.541-3.502c3.307-2.964,7.198-6.096,9.604-7.778c0.11,0.844,0.321,1.688,0.743,2.431
			c0.543,0.976,1.334,1.814,2.31,2.416c1.351,0.833,2.948,1.176,4.524,0.954c0.127,1.566,0.802,3.054,1.936,4.171
			c0.797,0.802,1.804,1.393,2.89,1.693c1.44,0.416,2.979,0.332,4.361-0.227c0.865,1.196,2.12,2.077,3.57,2.488
			c0.606,0.174,1.229,0.264,1.851,0.264c0.501,0,1.008-0.058,1.487-0.168c1.588-0.354,2.942-1.261,3.882-2.537
			c2.03,1.698,5.157,2.083,7.567,0.744c1.323-0.744,2.347-1.883,2.916-3.244c1.45,0.232,2.99-0.042,4.292-0.77
			c1.008-0.564,1.814-1.34,2.41-2.299c0.854-1.371,1.182-2.99,0.955-4.541c1.571-0.121,3.068-0.807,4.192-1.936
			c0.796-0.812,1.365-1.782,1.688-2.89c0.416-1.444,0.332-2.969-0.232-4.342c1.208-0.875,2.088-2.138,2.494-3.576
			C218.437,103.758,218.463,102.601,218.204,101.506z M52.218,112.095c-0.396,0.079-0.736,0.327-0.931,0.67
			c-0.193,0.348-0.227,0.775-0.079,1.145c0.43,1.123,0.345,2.367-0.232,3.406c-0.324,0.585-0.788,1.07-1.368,1.445
			c-1.197,0.749-2.727,0.796-3.974,0.158c-0.47-0.253-1.042-0.18-1.463,0.142c-0.422,0.327-0.599,0.876-0.464,1.393
			c0.351,1.366-0.055,2.826-1.06,3.823c-0.475,0.479-1.047,0.817-1.717,1.013c-1.134,0.332-2.37,0.11-3.37-0.559
			c-0.33-0.228-0.744-0.291-1.128-0.18c-0.382,0.116-0.696,0.391-0.857,0.76c-0.477,1.097-1.411,1.908-2.566,2.235
			c-0.653,0.19-1.339,0.2-1.988,0.068c-1.392-0.332-2.484-1.334-2.921-2.7c-0.161-0.511-0.604-0.869-1.134-0.933
			c-0.053-0.011-0.103-0.011-0.15-0.011c-0.469,0-0.912,0.242-1.163,0.654c-1.067,1.793-3.475,2.521-5.381,1.455
			c-1.044-0.564-1.767-1.577-1.978-2.753c-0.077-0.39-0.319-0.738-0.669-0.938s-0.778-0.222-1.145-0.09
			c-1.107,0.438-2.376,0.348-3.407-0.232c-0.596-0.326-1.076-0.785-1.437-1.376c-0.751-1.197-0.814-2.716-0.169-3.955
			c0.246-0.479,0.19-1.044-0.145-1.466c-0.33-0.406-0.854-0.569-1.393-0.464c-1.339,0.337-2.842-0.079-3.812-1.028
			c-0.48-0.501-0.823-1.07-1.015-1.735c-0.33-1.134-0.124-2.368,0.551-3.354c0.227-0.338,0.29-0.757,0.182-1.129
			c-0.113-0.385-0.382-0.709-0.749-0.865c-1.102-0.499-1.917-1.426-2.246-2.586c-0.185-0.628-0.2-1.313-0.045-1.978
			c0.319-1.397,1.324-2.479,2.684-2.911c0.509-0.161,0.875-0.604,0.934-1.139c0.061-0.536-0.193-1.031-0.651-1.306
			c-1.221-0.73-1.951-2.025-1.951-3.467c0-0.681,0.168-1.313,0.503-1.912c0.578-1.044,1.582-1.767,2.753-1.982
			c0.396-0.074,0.735-0.33,0.936-0.67c0.192-0.351,0.227-0.783,0.079-1.149c-0.432-1.124-0.345-2.365,0.243-3.407
			c0.33-0.596,0.802-1.097,1.355-1.447c1.184-0.762,2.718-0.81,3.976-0.169c0.475,0.256,1.047,0.19,1.458-0.14
			c0.414-0.335,0.593-0.875,0.464-1.387c-0.345-1.371,0.053-2.824,1.057-3.812c0.488-0.491,1.061-0.82,1.725-1.01
			c1.149-0.335,2.376-0.13,3.356,0.551c0.33,0.222,0.746,0.301,1.137,0.177c0.382-0.113,0.701-0.388,0.862-0.772
			c0.479-1.084,1.416-1.909,2.57-2.239c0.633-0.185,1.318-0.195,1.988-0.045c1.366,0.325,2.484,1.345,2.916,2.695
			c0.161,0.509,0.604,0.87,1.129,0.928c0.538,0.077,1.042-0.192,1.315-0.646c1.076-1.809,3.528-2.484,5.379-1.464
			c1.05,0.578,1.767,1.593,1.978,2.758c0.069,0.401,0.319,0.757,0.67,0.947c0.356,0.192,0.778,0.219,1.149,0.084
			c1.092-0.419,2.35-0.345,3.412,0.245c0.583,0.316,1.07,0.781,1.437,1.371c0.762,1.208,0.815,2.679,0.156,3.942
			c-0.243,0.475-0.192,1.041,0.137,1.463c0.33,0.398,0.873,0.588,1.387,0.47c1.376-0.335,2.855,0.076,3.823,1.036
			c0.48,0.488,0.835,1.086,1.02,1.722c0.33,1.158,0.124,2.368-0.556,3.364c-0.227,0.335-0.298,0.757-0.185,1.134
			c0.108,0.385,0.385,0.71,0.751,0.865c1.107,0.49,1.922,1.427,2.252,2.576c0.189,0.644,0.206,1.339,0.05,1.993
			c-0.319,1.393-1.329,2.479-2.694,2.903c-0.509,0.158-0.875,0.601-0.937,1.131c-0.058,0.533,0.195,1.042,0.654,1.315
			c1.21,0.726,1.962,2.041,1.948,3.468c0.005,0.678-0.155,1.311-0.501,1.917C54.403,111.157,53.399,111.879,52.218,112.095z
			 M65.754,100.441l15.412,9.767c-0.572,1.36-1.303,2.473-2.204,3.312l-14.85-9.205c0,0,0,0-0.005,0
			C64.41,103.104,64.905,101.841,65.754,100.441z M70.134,94.761l12.625,8.807c-0.161,1.427-0.406,2.758-0.712,3.992L67.3,98.221
			C68.104,97.148,69.021,96.009,70.134,94.761z M78.137,85.008l4.422,3.153c0.152,1.517,0.276,3.062,0.369,4.612l-6.645-4.915
			C76.905,87.023,77.527,86.071,78.137,85.008z M89.999,87.416l-4.379,5.06c-0.074-1.337-0.177-2.655-0.301-3.947
			c0.042-0.053,0.129-0.058,0.161-0.113l2.468-4.448C88.649,85.04,89.324,86.213,89.999,87.416z M93.176,93.995
			c-0.061,0.042-0.132,0.01-0.185,0.053l-7.259,5.6c0.04-1.047,0.04-2.138,0.024-3.211l5.598-6.449
			C92.019,91.294,92.631,92.634,93.176,93.995z M95.404,102.282l-10.497,4.688c0.248-1.191,0.448-2.428,0.583-3.726l8.604-6.637
			C94.703,98.508,95.196,100.41,95.404,102.282z M94.635,110.096c-0.132,0-0.246-0.078-0.375-0.036l-11.923,3.564
			c0.638-0.976,1.179-2.052,1.616-3.265l11.475-5.128c-0.016,0.562,0.063,1.139-0.005,1.685
			C95.28,108.04,95.006,109.089,94.635,110.096z M84.8,84.056c-0.304-2.272-0.625-4.318-0.934-6.056
			c0.746,1.004,1.566,2.138,2.418,3.38L84.8,84.056z M82.145,84.544l-2.75-1.959c0.606-1.261,1.205-2.674,1.787-4.306
			C81.522,80.186,81.852,82.308,82.145,84.544z M88.775,117.206c-0.509,0.332-1.653,0.695-2.961,0.695
			c-1.004,0-2.536-0.253-3.684-1.402l10.731-3.228C91.797,114.748,90.471,116.077,88.775,117.206z M74.601,89.976l8.456,6.254
			c0.026,1.438,0.011,2.84-0.056,4.211L71.99,92.763c0.493-0.525,0.912-1.01,1.458-1.551C73.833,90.82,74.216,90.409,74.601,89.976z
			 M65.43,111.415c-0.87-1.387-1.397-2.71-1.577-4.076l12.764,7.905c-1.073,0.49-2.423,0.949-3.929,0.949
			C69.862,116.193,67.418,114.584,65.43,111.415z M123.736,110.096c-0.369-1.007-0.639-2.056-0.786-3.174
			c-0.068-0.557,0.005-1.129-0.005-1.685l11.475,5.118c0.438,1.224,0.98,2.305,1.619,3.265l-11.924-3.56
			C123.979,110.018,123.868,110.096,123.736,110.096z M124.279,96.613l8.601,6.631c0.132,1.298,0.338,2.55,0.58,3.726l-10.499-4.688
			C123.177,100.41,123.673,98.508,124.279,96.613z M127.016,89.976l5.601,6.452c-0.011,1.075-0.011,2.151,0.021,3.219l-7.257-5.6
			c-0.058-0.042-0.121-0.021-0.185-0.053C125.74,92.634,126.362,91.294,127.016,89.976z M130.428,83.946l2.463,4.448
			c0.031,0.065,0.116,0.071,0.158,0.113c-0.121,1.292-0.227,2.607-0.306,3.947l-4.383-5.06
			C129.052,86.213,129.731,85.05,130.428,83.946z M142.088,87.859l-6.64,4.909c0.095-1.55,0.216-3.09,0.369-4.617l4.419-3.143
			C140.843,86.071,141.471,87.023,142.088,87.859z M151.079,98.226l-14.745,9.339c-0.316-1.239-0.559-2.589-0.712-4.002
			l12.625-8.802C149.354,96.009,150.267,97.148,151.079,98.226z M154.264,104.314L154.264,104.314l-14.855,9.205
			c-0.901-0.833-1.629-1.951-2.198-3.312l15.414-9.767C153.468,101.841,153.963,103.104,154.264,104.314z M136.229,84.544
			c0.296-2.247,0.622-4.364,0.965-6.265c0.58,1.632,1.177,3.034,1.788,4.306L136.229,84.544z M133.576,84.056l-1.477-2.665
			c0.844-1.237,1.672-2.387,2.41-3.386C134.198,79.743,133.871,81.784,133.576,84.056z M145.679,116.193
			c-1.492,0-2.843-0.459-3.929-0.949l12.762-7.905c-0.174,1.366-0.707,2.689-1.577,4.076
			C150.952,114.584,148.505,116.193,145.679,116.193z M146.38,92.768l-11.006,7.678c-0.068-1.371-0.084-2.779-0.058-4.216
			l8.448-6.249c0.39,0.443,0.775,0.85,1.16,1.242C145.463,91.769,145.89,92.244,146.38,92.768z M129.595,117.206
			c-1.692-1.118-3.032-2.458-4.092-3.935l10.726,3.228c-1.139,1.149-2.674,1.402-3.681,1.402
			C131.251,117.901,130.106,117.542,129.595,117.206z M215.525,104.098c-0.327,1.149-1.139,2.088-2.246,2.587
			c-0.364,0.155-0.639,0.479-0.749,0.852c-0.111,0.385-0.042,0.799,0.179,1.128c0.676,1.009,0.881,2.217,0.554,3.357
			c-0.194,0.664-0.537,1.244-1.012,1.729c-0.749,0.749-1.777,1.181-2.821,1.181c-0.333,0-0.67-0.053-0.997-0.121
			c-0.517-0.11-1.06,0.053-1.393,0.464c-0.337,0.417-0.39,1.002-0.147,1.466c0.648,1.24,0.586,2.779-0.169,3.966
			c-0.353,0.575-0.833,1.039-1.434,1.366c-1.028,0.58-2.3,0.67-3.407,0.232c-0.369-0.133-0.791-0.111-1.145,0.089
			c-0.348,0.2-0.596,0.549-0.669,0.944c-0.211,1.171-0.939,2.156-1.983,2.747c-1.866,1.044-4.303,0.358-5.384-1.455
			c-0.27-0.454-0.76-0.686-1.308-0.644c-0.533,0.063-0.976,0.422-1.14,0.934c-0.433,1.365-1.523,2.367-2.916,2.694
			c-0.654,0.147-1.334,0.138-1.993-0.063c-1.149-0.332-2.089-1.139-2.563-2.235c-0.158-0.354-0.475-0.644-0.859-0.754
			c-0.121-0.042-0.248-0.059-0.374-0.059c-0.264,0-0.533,0.085-0.76,0.232c-0.991,0.67-2.199,0.907-3.38,0.548
			c-0.659-0.179-1.239-0.521-1.714-1.012c-1.002-0.986-1.397-2.447-1.044-3.812c0.126-0.518-0.053-1.055-0.465-1.393
			c-0.416-0.332-0.991-0.396-1.466-0.143c-1.244,0.639-2.784,0.564-3.971-0.158c-0.58-0.358-1.044-0.854-1.371-1.45
			c-0.575-1.028-0.664-2.278-0.227-3.401c0.137-0.369,0.116-0.785-0.085-1.145c-0.189-0.343-0.532-0.59-0.928-0.67
			c-1.182-0.221-2.184-0.938-2.769-1.998c-0.338-0.586-0.506-1.234-0.496-1.917c-0.005-1.411,0.744-2.721,1.946-3.451
			c0.459-0.274,0.717-0.789,0.654-1.316c-0.063-0.53-0.428-0.973-0.934-1.128c-1.366-0.433-2.368-1.519-2.695-2.911
			c-0.147-0.654-0.132-1.339,0.059-1.993c0.332-1.139,1.145-2.081,2.252-2.571c0.363-0.16,0.638-0.479,0.748-0.864
			c0.116-0.383,0.048-0.791-0.179-1.134c-0.675-0.992-0.881-2.212-0.56-3.356c0.18-0.639,0.538-1.237,1.013-1.725
			c0.976-0.989,2.458-1.382,3.829-1.042c0.511,0.114,1.049-0.065,1.387-0.469c0.332-0.417,0.38-1,0.132-1.464
			c-0.659-1.258-0.596-2.75,0.163-3.947c0.364-0.585,0.844-1.049,1.45-1.371c1.039-0.58,2.3-0.664,3.401-0.245
			c0.369,0.143,0.786,0.113,1.149-0.079c0.349-0.195,0.597-0.546,0.67-0.946c0.211-1.166,0.929-2.159,1.967-2.753
			c1.878-1.044,4.314-0.351,5.385,1.458c0.279,0.454,0.775,0.728,1.318,0.646c0.532-0.059,0.976-0.419,1.128-0.929
			c0.433-1.35,1.551-2.375,2.927-2.7c0.654-0.14,1.345-0.129,1.988,0.05c1.149,0.335,2.083,1.145,2.568,2.241
			c0.158,0.366,0.475,0.646,0.859,0.765c0.391,0.118,0.802,0.05,1.134-0.172c0.991-0.68,2.194-0.896,3.37-0.545
			c0.653,0.166,1.233,0.519,1.725,1.01c0.996,0.984,1.397,2.442,1.049,3.807c-0.126,0.512,0.048,1.047,0.464,1.387
			c0.417,0.34,0.986,0.39,1.461,0.148c1.255-0.644,2.79-0.586,3.977,0.15c0.559,0.345,1.022,0.846,1.365,1.463
			c0.58,1.031,0.665,2.278,0.237,3.401c-0.142,0.372-0.11,0.794,0.079,1.145c0.201,0.346,0.544,0.591,0.939,0.67
			c1.17,0.216,2.172,0.938,2.752,1.978c0.333,0.599,0.507,1.236,0.507,1.917c0,1.447-0.733,2.731-1.951,3.462
			c-0.454,0.279-0.712,0.788-0.654,1.315c0.063,0.524,0.428,0.973,0.938,1.129c1.361,0.432,2.363,1.519,2.689,2.921
			C215.731,102.769,215.721,103.455,215.525,104.098z"/>
		<path d="M189.564,84.436c-0.021-0.005-0.021-0.031-0.042-0.047c-0.148-0.055-0.301,0.016-0.448,0.01
			c-0.09,0-0.158-0.023-0.248-0.023c-0.095,0-0.174,0.034-0.264,0.034c-0.032,0.011-0.059,0-0.085,0.011
			c-2.119,0.042-4.176,0.464-6.144,1.305c-2.141,0.936-3.96,2.27-5.458,3.889c-0.147,0.129-0.337,0.222-0.411,0.422
			c-0.011,0.031,0.011,0.063,0,0.103c-2.347,2.742-3.712,6.173-3.902,9.77c-0.005,0.021-0.026,0.021-0.037,0.047
			c-0.042,0.114,0.017,0.211,0.006,0.319c-0.074,2.339,0.306,4.707,1.286,6.998c2.584,5.987,8.485,9.869,15.02,9.869
			c2.235,0,4.413-0.454,6.48-1.351c8.279-3.586,12.103-13.233,8.522-21.513C201.351,88.492,195.798,84.715,189.564,84.436z
			 M199.516,109.168l-5.959-2.365l2.927-7.393l5.916,2.36C202.194,104.464,201.187,107.03,199.516,109.168z M187.697,114.257
			c-2.763-0.242-5.289-1.286-7.377-2.984l2.336-5.88l7.394,2.932L187.697,114.257z M183.647,102.888l2.927-7.399l7.394,2.932
			l-2.927,7.394L183.647,102.888z M178.264,92.202l5.801,2.299l-2.927,7.394l-5.838-2.318
			C175.537,96.871,176.565,94.319,178.264,92.202z M189.849,87.234c2.764,0.211,5.295,1.236,7.404,2.905l-2.289,5.767l-7.388-2.932
			L189.849,87.234z M202.305,98.817l-4.836-1.912l1.904-4.801c0.791,0.973,1.481,2.041,1.998,3.235
			C201.867,96.473,202.131,97.633,202.305,98.817z M183.41,88.204c1.134-0.485,2.315-0.773,3.512-0.928l-1.872,4.704l-4.714-1.875
			C181.279,89.377,182.271,88.708,183.41,88.204z M175.357,102.503l4.788,1.901l-1.919,4.849c-0.754-0.933-1.424-1.948-1.914-3.076
			C175.785,104.971,175.516,103.742,175.357,102.503z M194.252,113.288c-1.176,0.517-2.399,0.791-3.648,0.959l1.945-4.925
			l4.915,1.935C196.499,112.047,195.46,112.765,194.252,113.288z"/>
		<path d="M45.839,99.94c-0.005-0.016-0.026-0.026-0.037-0.039c-0.195-3.597-1.562-7.035-3.9-9.78c-0.011-0.037,0.016-0.068,0-0.105
			c-0.082-0.195-0.264-0.298-0.417-0.422c-1.49-1.616-3.32-2.953-5.458-3.884c-1.962-0.841-4.029-1.263-6.146-1.305
			c-0.026-0.011-0.053,0-0.082-0.011c-0.092,0-0.171-0.034-0.264-0.034c-0.087,0-0.161,0.011-0.248,0.011
			c-0.153,0.013-0.298-0.063-0.448,0c-0.021,0.013-0.021,0.044-0.044,0.05c-6.226,0.285-11.786,4.055-14.289,9.812
			c-3.578,8.271,0.245,17.921,8.522,21.507c2.067,0.896,4.25,1.351,6.486,1.351c6.534,0,12.429-3.876,15.021-9.872
			c0.988-2.283,1.36-4.653,1.286-6.992C45.823,100.146,45.882,100.043,45.839,99.94z M28.326,108.32l7.394-2.933l2.333,5.88
			c-2.091,1.688-4.612,2.742-7.377,2.985L28.326,108.32z M27.332,105.815l-2.927-7.394l7.394-2.932l2.927,7.399L27.332,105.815z
			 M18.86,109.168c-1.674-2.138-2.679-4.704-2.885-7.409l5.92-2.354l2.927,7.388L18.86,109.168z M30.8,92.979l-7.394,2.932
			l-2.283-5.766c2.106-1.675,4.638-2.695,7.403-2.906L30.8,92.979z M34.309,94.49l5.801-2.299c1.701,2.128,2.731,4.669,2.969,7.375
			l-5.837,2.317L34.309,94.49z M38.024,90.116l-4.712,1.875l-1.87-4.715c1.2,0.169,2.381,0.443,3.515,0.941
			C36.102,88.708,37.096,89.377,38.024,90.116z M19,92.098l1.901,4.802l-4.833,1.912c0.168-1.184,0.438-2.354,0.928-3.488
			C17.511,94.139,18.201,93.072,19,92.098z M20.906,111.256l4.915-1.935l1.949,4.925c-1.248-0.168-2.479-0.442-3.655-0.959
			C22.91,112.765,21.869,112.047,20.906,111.256z M40.157,109.252l-1.922-4.849l4.785-1.901c-0.158,1.239-0.427,2.468-0.946,3.673
			C41.578,107.304,40.903,108.32,40.157,109.252z"/>
	</g>
</g>
<g>
</g>
<g>
</g>
<g>
</g>
<g>
</g>
<g>
</g>
<g>
</g>
<g>
</g>
<g>
</g>
<g>
</g>
<g>
</g>
<g>
</g>
<g>
</g>
<g>
</g>
<g>
</g>
<g>
</g>
</svg>
