<?xml version="1.0" encoding="iso-8859-1"?>
<!-- Generator: Adobe Illustrator 16.0.0, SVG Export Plug-In . SVG Version: 6.00 Build 0)  -->
<!DOCTYPE svg PUBLIC "-//W3C//DTD SVG 1.1//EN" "http://www.w3.org/Graphics/SVG/1.1/DTD/svg11.dtd">
<svg version="1.1" id="Capa_1" xmlns="http://www.w3.org/2000/svg" xmlns:xlink="http://www.w3.org/1999/xlink" x="0px" y="0px"
	 width="240.688px" height="240.688px" viewBox="0 0 240.688 240.688" style="enable-background:new 0 0 240.688 240.688;"
	 xml:space="preserve">
<g>
	<g>
		<path d="M239.359,122.671c-11.009-1.714-17.421,6.345-24.874,15.673c-1.693,2.107-3.301,4.36-4.944,6.649
			c-0.165,0.231-0.354,0.463-0.512,0.707c0.67-5.56-1.242-10.632-5.663-14.712c0.207-0.427,0.487-0.804,0.615-1.267
			c0.444-1.766,0.177-3.593-0.743-5.176c-1.851-3.117-6.235-4.25-9.377-2.387c-1.571,0.926-2.686,2.411-3.13,4.177
			c-0.457,1.778-0.188,3.617,0.749,5.2c1.218,2.059,3.471,3.337,5.857,3.337c1.218,0,2.442-0.341,3.495-0.962
			c0.22-0.128,0.365-0.354,0.566-0.512c5.669,5.358,6.107,12.599,1.279,20.472c-5.17,5.907-11.302,10.485-20.393,10.485
			c-0.067,0-0.122,0-0.165,0c-4.536-0.023-8.652-1.607-11.946-4.341c4.798-2.941,8.963-6.875,12.147-11.667
			c5.827-8.701,7.903-19.193,5.846-29.487c-0.085-0.438-0.348-0.78-0.676-0.999c3.105-0.305,7.167-0.743,7.502-7.079
			c0.128-2.53-1.693-4.932,2.447-11.435c0,0-4.786-0.341-8.622,3.374c-0.627-4.506-3.934-5.952-2.655-10.498
			c0,0-8.896,2.923-5.967,11.752c-4.737-2.737-9.365-1.147-9.365-1.147c5.633,5.228,4.542,8.013,5.322,10.439
			c2.033,6.333,6.369,5.325,9.523,4.82c-0.39,0.356-0.658,0.828-0.549,1.376c1.888,9.478-0.024,19.11-5.37,27.136
			c-3.118,4.664-7.24,8.33-11.947,11.059c-3.678-4.396-5.425-10.4-4.762-16.66c1.163-2.825,1.772-5.84,1.827-8.866
			c2.606-1.419,8.189-5.56,0.201-12.367c-1.443-1.218-4.726-3.766-6.156-7.882c0,0-8.757,18.69,2.801,20.518
			c-0.128,4.037-1.376,8.037-3.763,11.508c-3.331,4.848-8.397,8.16-14.255,9.329c-4.695,0.919-9.475,0.012-13.381-2.606
			c-2.671-1.777-4.665-4.201-5.943-7.002c-0.487-1.328-0.971-2.655-1.267-4.08c0-0.012-0.012-0.012-0.012-0.024
			c-0.548-3.337,0.183-6.71,2.146-9.56c2.058-2.984,5.169-5.018,8.781-5.736c2.825-0.561,5.724-0.012,8.11,1.57
			c2.29,1.523,3.836,3.824,4.372,6.467c0.858,4.299-2.058,8.525-6.516,9.427c-0.84,0.17-1.388,0.986-1.211,1.839
			c0.164,0.828,0.913,1.389,1.839,1.218c6.119-1.242,10.138-7.112,8.951-13.092c-0.683-3.478-2.729-6.467-5.7-8.458
			c-3.075-2.058-6.795-2.773-10.448-2.034c-4.375,0.892-8.16,3.355-10.672,6.959v-2.569c2.013-1.278,14.045-9.414,13.825-21.425
			c-0.104-3.727-2.539-7.115-4.7-10.104c-1.918-2.634-3.721-5.127-3.389-7.042c0.28-1.608,1.458-2.168,3.389-2.887
			c1.504-0.584,3.58-1.364,3.525-3.629c-0.098-4.664-6.284-8.193-14.41-8.193l-0.499,0.013c-5.325,0.101-10.181,1.802-12.702,4.421
			c-1.251,1.315-1.9,2.825-1.863,4.359c0.049,2.262,2.152,2.959,3.693,3.471c1.942,0.652,3.148,1.176,3.489,2.765
			c0.393,1.9-1.291,4.457-3.084,7.17c-2.034,3.069-4.348,6.552-4.29,10.275c0.204,10.888,10.437,18.194,13.899,20.393v4.073
			c-2.366-4.006-6.336-7.087-11.292-8.062c-3.611-0.703-7.271-0.049-10.321,1.942c-3.06,1.985-5.13,5.018-5.842,8.549
			c-0.585,2.917,0.024,5.883,1.714,8.361c1.689,2.472,4.253,4.146,7.204,4.736c0.898,0.141,1.677-0.383,1.833-1.199
			c0.155-0.846-0.387-1.687-1.215-1.845c-2.165-0.42-4.021-1.669-5.252-3.446c-1.202-1.766-1.665-3.909-1.227-5.992
			c0.536-2.697,2.131-5.023,4.481-6.539c2.363-1.535,5.228-2.07,8.013-1.511c7.258,1.456,12.047,8.251,10.9,15.296
			c0,0.013-0.012,0.024-0.012,0.037c-0.292,1.431-0.78,2.758-1.267,4.086c-3.254,7.045-11.204,11.234-19.336,9.596
			c-10.406-2.07-17.688-10.924-18.027-20.837c11.554-1.827,2.807-20.511,2.807-20.511c-1.44,4.117-4.725,6.653-6.159,7.913
			c-7.989,6.79-2.414,10.931,0.204,12.343c0.058,2.569,0.6,5.036,1.41,7.411c-0.387,0.316-0.661,0.755-0.63,1.303
			c0.694,6.145-0.977,12.062-4.509,16.459c-12.501-7.685-19.577-22.591-16.535-37.802c0.125-0.581-0.161-1.06-0.584-1.422
			c3.142,0.497,7.526,1.559,9.563-4.807c0.779-2.439-0.354-5.212,5.319-10.44c0,0-4.637-1.607-9.353,1.148
			c2.92-8.83-5.979-11.752-5.979-11.752c1.291,4.545-2.024,5.992-2.667,10.513c-3.812-3.73-8.601-3.374-8.601-3.374
			c4.116,6.503,2.32,8.915,2.451,11.448c0.332,6.36,4.442,6.759,7.545,7.075c-0.372,0.207-0.648,0.551-0.74,1.011
			c-3.249,16.298,4.177,32.264,17.403,40.728c-3.367,2.99-7.657,4.725-12.385,4.75c-0.061,0-0.131,0-0.161,0
			c-9.061,0-15.208-4.573-20.396-10.498c-4.808-7.904-4.384-15.113,1.285-20.46c0.207,0.146,0.35,0.384,0.566,0.512
			c1.054,0.627,2.259,0.95,3.499,0.95c2.402,0,4.64-1.279,5.854-3.325c0.938-1.595,1.206-3.435,0.749-5.212
			c-0.441-1.754-1.559-3.252-3.13-4.178c-3.136-1.863-7.52-0.715-9.377,2.412c-0.917,1.57-1.185,3.397-0.743,5.163
			c0.131,0.45,0.387,0.841,0.618,1.255c-4.421,4.079-6.354,9.17-5.663,14.711c-0.161-0.244-0.341-0.475-0.511-0.706
			c-1.644-2.29-3.255-4.543-4.944-6.638c-7.456-9.328-13.898-17.394-24.877-15.686c-0.855,0.134-1.428,0.926-1.297,1.797
			c0.131,0.87,0.91,1.431,1.784,1.291c7.806-1.279,12.745,3.245,19.57,11.575c-5.611-2.437-11.448-1.912-16.815,1.802
			c-0.719,0.487-0.898,1.462-0.393,2.187c0.478,0.688,1.464,0.877,2.168,0.384c6.884-4.774,14.468-3.35,21.333,4.024
			c0.073,0.062,0.155,0.049,0.228,0.098c0.244,0.359,0.493,0.651,0.737,0.986c0.572,0.792,1.172,1.607,1.732,2.43
			c-1.689-0.615-3.446-0.858-5.312-0.657c-0.061-0.524-0.061-1.061-0.305-1.56c-0.84-1.681-2.53-2.801-3.797-3.044
			c-14.945-2.753-16.176,21.811-16.212,22.797c-0.019,0.573,0.268,1.109,0.761,1.401c0.244,0.146,0.524,0.219,0.798,0.219
			s0.548-0.073,0.792-0.219c4.403-2.606,7.015-3.19,9.579-3.246c6.479-0.183,11.947-0.834,13.219-6.825
			c0.512-2.424,0.167-4.458-1.004-6.077c3.684,1.047,7.045,4.25,10.75,8.208c0.143,0.14,0.375,0.14,0.561,0.243
			c4.789,4.104,10.555,7.003,18.207,7.003c0.082,0,0.131,0,0.207,0c5.849-0.037,11.122-2.289,15.15-6.223
			c3.264,1.711,6.835,3.014,10.631,3.769c2.083,0.427,4.165,0.64,6.211,0.64c12.602,0,24.037-7.63,29.045-19.169l-0.058,14.347
			c0,0.852,0.7,1.559,1.559,1.559c0.868,0,1.559-0.707,1.559-1.559v-13.129c5.276,10.839,16.289,17.927,28.431,17.927
			c2.058,0,4.141-0.207,6.223-0.621c3.502-0.694,6.845-1.888,9.962-3.446c3.982,3.714,9.109,5.846,14.778,5.882
			c0.067,0,0.128,0,0.189,0c7.66,0,13.426-2.917,18.206-7.003c0.195-0.104,0.408-0.104,0.566-0.243
			c3.708-3.988,7.069-7.161,10.76-8.208c-1.169,1.607-1.504,3.641-1.011,6.064c1.272,5.992,6.74,6.637,13.219,6.82
			c2.564,0.091,5.176,0.657,9.579,3.264c0.243,0.146,0.518,0.219,0.791,0.219c0.274,0,0.555-0.072,0.798-0.219
			c0.493-0.293,0.779-0.828,0.761-1.4c-0.036-0.986-1.071-25.551-16.221-22.798c-1.249,0.243-2.966,1.364-3.788,3.044
			c-0.243,0.5-0.243,1.035-0.311,1.559c-1.869-0.194-3.623,0.062-5.315,0.646c0.584-0.805,1.169-1.607,1.741-2.412
			c0.244-0.341,0.493-0.645,0.737-0.986c0.072-0.049,0.17-0.036,0.231-0.098c6.862-7.355,14.431-8.78,21.33-4.006
			c0.7,0.456,1.681,0.305,2.18-0.402c0.475-0.706,0.305-1.681-0.396-2.168c-5.39-3.732-11.223-4.256-16.824-1.802
			c6.838-8.33,11.752-12.873,19.589-11.594c0.907,0.134,1.644-0.451,1.766-1.291C240.784,123.608,240.217,122.805,239.359,122.671z
			 M200.955,128.954c-0.243,0.963-0.864,1.767-1.705,2.277c-1.729,1.012-4.073,0.402-5.091-1.291
			c-0.511-0.864-0.646-1.863-0.396-2.824c0.25-0.963,0.853-1.778,1.692-2.277c0.585-0.342,1.23-0.524,1.912-0.524
			c1.328,0,2.509,0.683,3.209,1.827C201.045,126.994,201.192,127.992,200.955,128.954z M40.091,126.142
			c0.682-1.145,1.885-1.827,3.212-1.827c0.661,0,1.328,0.183,1.909,0.524c0.858,0.499,1.452,1.314,1.696,2.277
			c0.244,0.961,0.112,1.96-0.399,2.824c-1.017,1.693-3.355,2.303-5.075,1.291c-0.874-0.511-1.474-1.314-1.717-2.277
			C39.455,127.992,39.586,126.994,40.091,126.142z M26.798,157.439c-0.612,2.825-2.226,4.116-10.263,4.348
			c-2.177,0.062-4.701,0.396-8.46,2.277c0.654-5.535,2.986-17.202,10.656-17.202c0.518,0,1.06,0.08,1.62,0.141
			c0.28,0.066,1.172,0.566,1.586,1.382c0.131,0.269,0.167,0.536,0.149,0.816c-2.509,0.883-5.194,2.521-8.144,5.255
			c-0.636,0.584-0.655,1.57-0.088,2.204c0.6,0.621,1.583,0.67,2.208,0.085c2.646-2.436,4.99-3.86,7.146-4.555
			c0.244,0.031,2.11,0.323,3.105,1.688C26.954,154.724,27.115,155.93,26.798,157.439z M84.944,161.982
			c-3.249-0.646-6.293-1.741-9.118-3.167c2.974-3.896,4.704-8.719,4.944-13.895c3.604,5.65,9.447,9.949,16.617,11.374
			c1.397,0.28,2.771,0.396,4.146,0.396c2.944,0,5.757-0.664,8.345-1.814C103.373,160.886,94.239,163.857,84.944,161.982z
			 M119.597,121.355c-3.87-2.777-10.616-8.729-10.781-16.648c-0.049-2.764,1.891-5.687,3.766-8.513
			c2.171-3.273,4.229-6.36,3.538-9.533c-0.731-3.474-3.629-4.433-5.55-5.063c-0.576-0.183-1.428-0.475-1.559-0.587
			c-0.024-0.691,0.317-1.428,0.999-2.131c1.937-2.021,6.053-3.385,10.51-3.474l0.438-0.012c6.598,0,11.243,2.719,11.316,5.045
			c-0.158,0.219-1.011,0.536-1.571,0.743c-1.891,0.715-4.746,1.799-5.325,5.286c-0.56,3.218,1.62,6.211,3.921,9.404
			c1.97,2.737,4.028,5.587,4.107,8.342c0.14,8.318-7.101,14.821-10.711,17.534v-8.717c3.294-0.755,5.788-3.604,5.712-7.127
			c-0.089-4.01-3.273-7.14-7.414-7.14c-4.028,0.088-7.212,3.41-7.146,7.413c0.076,3.398,2.539,6.104,5.736,6.848L119.597,121.355
			L119.597,121.355z M121.762,110.087c-0.192-0.113-0.387-0.256-0.624-0.256c-0.231,0-0.399,0.143-0.618,0.256
			c-1.97-0.304-3.529-1.939-3.56-3.958c-0.042-2.302,1.784-4.217,4.165-4.265c2.284,0,4.116,1.79,4.165,4.064
			C125.349,108.057,123.802,109.771,121.762,110.087z M156.735,161.982c-9.219,1.863-18.285-1.072-24.782-6.966
			c2.563,1.102,5.315,1.692,8.129,1.692c1.406,0,2.807-0.134,4.214-0.414c6.369-1.267,11.831-4.805,15.631-9.913
			c0.48,4.762,2.271,9.158,5.096,12.75C162.392,160.374,159.67,161.397,156.735,161.982z M214.302,153.871
			c1.005-1.376,2.91-1.656,3.13-1.681c2.167,0.688,4.512,2.119,7.143,4.543c0.651,0.597,1.613,0.535,2.21-0.086
			c0.585-0.65,0.548-1.631-0.091-2.21c-2.947-2.728-5.614-4.366-8.136-5.249c-0.024-0.268,0.019-0.535,0.152-0.815
			c0.396-0.816,1.303-1.315,1.571-1.37c0.566-0.098,1.108-0.152,1.626-0.152c7.666,0,9.998,11.667,10.655,17.195
			c-3.763-1.875-6.302-2.21-8.464-2.271c-8.037-0.231-9.663-1.522-10.266-4.348C213.516,155.941,213.681,154.736,214.302,153.871z"
			/>
	</g>
</g>
<g>
</g>
<g>
</g>
<g>
</g>
<g>
</g>
<g>
</g>
<g>
</g>
<g>
</g>
<g>
</g>
<g>
</g>
<g>
</g>
<g>
</g>
<g>
</g>
<g>
</g>
<g>
</g>
<g>
</g>
</svg>
