<?xml version="1.0" encoding="UTF-8"?>
<svg width="20px" height="20px" viewBox="0 0 20 20" version="1.1" xmlns="http://www.w3.org/2000/svg" xmlns:xlink="http://www.w3.org/1999/xlink">
    <!-- Generator: Sketch 43.2 (39069) - http://www.bohemiancoding.com/sketch -->
    <title>facebook</title>
    <desc>Created with Sketch.</desc>
    <defs></defs>
    <g id="Page-1" stroke="none" stroke-width="1" fill="none" fill-rule="evenodd">
        <g id="facebook" fill-rule="nonzero" fill="#2D2B31">
            <path d="M10,0.4 C4.698,0.4 0.4,4.698 0.4,10 C0.4,15.302 4.698,19.6 10,19.6 C15.302,19.6 19.6,15.302 19.6,10 C19.6,4.698 15.302,0.4 10,0.4 Z M12.274,7.034 L10.831,7.034 C10.66,7.034 10.47,7.259 10.47,7.558 L10.47,8.6 L12.275,8.6 L12.002,10.086 L10.47,10.086 L10.47,14.547 L8.767,14.547 L8.767,10.086 L7.222,10.086 L7.222,8.6 L8.767,8.6 L8.767,7.726 C8.767,6.472 9.637,5.453 10.831,5.453 L12.274,5.453 L12.274,7.034 Z" id="Shape"></path>
        </g>
    </g>
</svg>