<?xml version="1.0" encoding="UTF-8"?>
<svg width="20px" height="20px" viewBox="0 0 20 20" version="1.1" xmlns="http://www.w3.org/2000/svg" xmlns:xlink="http://www.w3.org/1999/xlink">
    <!-- Generator: Sketch 43.2 (39069) - http://www.bohemiancoding.com/sketch -->
    <title>instagram</title>
    <desc>Created with Sketch.</desc>
    <defs></defs>
    <g id="Page-1" stroke="none" stroke-width="1" fill="none" fill-rule="evenodd">
        <g id="instagram" fill-rule="nonzero" fill="#2D2B31">
            <path d="M13.49775,6.65113 C13.32953,6.2150895 12.9848805,5.87044004 12.54884,5.70222 C12.2515268,5.5920358 11.9374814,5.53379395 11.62043,5.53004 C11.09314,5.50598 10.93506,5.50092 9.59998,5.50092 C8.2649,5.50092 8.10682,5.50598 7.57953,5.53003 C7.26247855,5.53378395 6.94843323,5.5920258 6.65112,5.70221 C6.2150795,5.87043004 5.87043004,6.2150795 5.70221,6.65112 C5.5920258,6.94843323 5.53378395,7.26247855 5.53003,7.57953 C5.50598,8.10682 5.50092,8.26498 5.50092,9.59998 C5.50092,10.93498 5.50599,11.09314 5.53003,11.62043 C5.5337768,11.9374821 5.59201889,12.2515287 5.70221,12.54884 C5.87043004,12.9848805 6.2150795,13.32953 6.65112,13.49775 C6.94843323,13.6079342 7.26247855,13.6661761 7.57953,13.66993 C8.10669,13.69393 8.26483,13.69904 9.59998,13.69904 C10.93513,13.69904 11.09327,13.69397 11.62043,13.66993 C11.9374814,13.6661761 12.2515268,13.6079342 12.54884,13.49775 C12.9848805,13.32953 13.32953,12.9848805 13.49775,12.54884 C13.6079411,12.2515287 13.6661832,11.9374821 13.66993,11.62043 C13.69393,11.09315 13.69904,10.93507 13.69904,9.59998 C13.69904,8.26489 13.69398,8.10682 13.66993,7.57953 C13.6661749,7.26248192 13.6079331,6.94844007 13.49775,6.65113 L13.49775,6.65113 Z M9.59998,12.16755 C8.18195024,12.16755 7.03241,11.0180098 7.03241,9.59998 C7.03241,8.18195024 8.18195024,7.03241 9.59998,7.03241 C11.0180098,7.03241 12.16755,8.18195024 12.16755,9.59998 C12.1675527,10.2809427 11.8970424,10.9340157 11.4155291,11.4155291 C10.9340157,11.8970424 10.2809427,12.1675527 9.59998,12.16755 L9.59998,12.16755 Z M12.26898,7.53098 C11.9376092,7.53098 11.66898,7.26235085 11.66898,6.93098 C11.66898,6.59960915 11.9376092,6.33098 12.26898,6.33098 C12.6003508,6.33098 12.86898,6.59960915 12.86898,6.93098 C12.86898,7.26235085 12.6003508,7.53098 12.26898,7.53098 Z" id="Shape"></path>
            <circle id="Oval" cx="9.59998" cy="9.59998" r="1.66669"></circle>
            <path d="M9.59998,-2e-05 C4.2980464,-2e-05 -2e-05,4.2980464 -2e-05,9.59998 C-2e-05,14.9019136 4.2980464,19.19998 9.59998,19.19998 C14.9019136,19.19998 19.19998,14.9019136 19.19998,9.59998 C19.1999933,7.05389763 18.1885719,4.61209236 16.3882197,2.81174026 C14.5878676,1.01138815 12.1460624,-3.32609493e-05 9.59998,-2e-05 L9.59998,-2e-05 Z M14.56989,11.66148 C14.5615658,12.076268 14.4829789,12.4866429 14.33747,12.87516 C14.0777764,13.5468003 13.5468303,14.0777464 12.87519,14.33744 C12.4866729,14.4829489 12.076298,14.5615358 11.66151,14.56986 C11.12818,14.59424 10.95789,14.59998 9.59998,14.59998 C8.24207,14.59998 8.07178,14.59424 7.53846,14.56989 C7.12367197,14.5615658 6.71329713,14.4829789 6.32478,14.33747 C5.65313966,14.0777764 5.1221936,13.5468303 4.8625,12.87519 C4.7169911,12.4866729 4.63840422,12.076298 4.63008,11.66151 C4.60572,11.12818 4.59998,10.95789 4.59998,9.59998 C4.59998,8.24207 4.60572,8.07178 4.63007,7.53846 C4.63839422,7.12367197 4.7169811,6.71329713 4.86249,6.32478 C5.12218126,5.65313587 5.65312765,5.12218585 6.32477,4.86249 C6.71328713,4.7169811 7.12366197,4.63839422 7.53845,4.63007 C8.07178,4.60572 8.24207,4.59998 9.59998,4.59998 C10.95789,4.59998 11.12818,4.60572 11.6615,4.63007 C12.076288,4.63839422 12.4866629,4.7169811 12.87518,4.86249 C13.5468203,5.1221836 14.0777664,5.65312966 14.33746,6.32477 C14.4829689,6.71328713 14.5615558,7.12366197 14.56988,7.53845 C14.59424,8.07178 14.59998,8.24207 14.59998,9.59998 C14.59998,10.95789 14.59424,11.12818 14.56989,11.6615 L14.56989,11.66148 Z" id="Shape"></path>
        </g>
    </g>
</svg>